G04 ================== begin FILE IDENTIFICATION RECORD ==================*
G04 Layout Name:  INA193_TEST_V10A.brd*
G04 Film Name:    BOTTOM*
G04 File Format:  Gerber RS274X*
G04 File Origin:  Cadence Allegro 16.6-2015-S095*
G04 Origin Date:  Wed Dec 06 09:56:01 2017*
G04 *
G04 Layer:  BOARD GEOMETRY/OUTLINE*
G04 Layer:  ETCH/BOTTOM*
G04 Layer:  PIN/BOTTOM*
G04 Layer:  VIA CLASS/BOTTOM*
G04 *
G04 Offset:    (0.0000 0.0000)*
G04 Mirror:    No*
G04 Mode:      Positive*
G04 Rotation:  0*
G04 FullContactRelief:  No*
G04 UndefLineWidth:     0.1524*
G04 ================== end FILE IDENTIFICATION RECORD ====================*
%FSLAX55Y55*MOMM*%
%IR0*IPPOS*OFA0.00000B0.00000*MIA0B0*SFA1.00000B1.00000*%
%ADD34R,1.2X.3*%
%ADD33R,.3X1.2*%
%ADD23R,1.1X.6*%
%ADD21R,1.5X.6*%
%ADD40R,1.4X.8*%
%ADD17R,.6X1.5*%
%ADD38R,1.55X.3*%
%ADD32R,.8X1.4*%
%ADD28R,1.06X.65*%
%ADD30R,.635X2.032*%
%ADD31R,.6604X1.016*%
%ADD29C,.75*%
%ADD11C,.6096*%
%ADD24R,1.4X1.*%
%ADD12R,1.8X1.*%
%ADD20R,1.X1.8*%
%ADD39R,2.5X1.8*%
%ADD25R,1.8X2.5*%
%ADD27R,1.27X1.27*%
%ADD19C,2.032*%
%ADD36R,1.67X1.36*%
%ADD26C,2.54*%
%ADD15C,1.524*%
%ADD10C,6.35*%
%ADD16R,1.524X1.524*%
%ADD22C,3.6093*%
%ADD13C,1.778*%
%ADD37R,.8128X.4318*%
%ADD18R,.9144X.9144*%
%ADD14R,.9144X.9144*%
%ADD35R,1.1938X1.1938*%
%ADD41C,.2032*%
%ADD42C,.17*%
%ADD43C,.127*%
%ADD44C,.254*%
%ADD45C,.7112*%
%ADD46C,.1524*%
%ADD47C,.508*%
%ADD48C,.762*%
%ADD56C,.6328*%
%ADD50C,1.0202*%
%ADD51C,2.0004*%
%ADD52C,1.4146*%
%ADD53C,4.5242*%
%ADD49C,1.0774*%
%ADD55C,3.5564*%
%ADD54C,3.4548*%
G75*
%LPD*%
G75*
G36*
G01X581400Y20000D02*
G02X568080Y55670I-1J20322D01*
G03X55670Y568080I-238080J274330D01*
G02X20000Y581400I-15348J13319D01*
G01Y3990340D01*
G02X54690Y4004700I20319J-4D01*
G01X180530Y3878860D01*
X679470D01*
X715850Y3915240D01*
X796870Y3936320D01*
X816950Y3952660D01*
X836250D01*
X884360Y3910280D01*
Y2879250D01*
X775060Y2769950D01*
Y1731460D01*
X630760D01*
X604510Y1708250D01*
X598670Y1710620D01*
G03Y1569380I-28670J-70620D01*
G01X604510Y1571750D01*
X630760Y1548540D01*
X775060D01*
Y1521460D01*
X630760D01*
X604510Y1498250D01*
X598670Y1500620D01*
G03Y1359380I-28670J-70620D01*
G01X604510Y1361750D01*
X630760Y1338540D01*
X775060D01*
Y944330D01*
X1040530Y678860D01*
X2549470D01*
X2963950Y1093340D01*
G02X2997820Y1073290I14362J-14372D01*
G03X3151710Y1227180I217180J-63290D01*
G02X3131660Y1261050I-5678J19508D01*
G01X3299470Y1428860D01*
X4599470D01*
X4822630Y1652030D01*
G02X4854150Y1648570I14373J-14368D01*
G03X4876590Y1921020I190852J121430D01*
G02X4841140Y1934590I-15129J13567D01*
G01Y2254470D01*
X4671000Y2424600D01*
X4674070Y2431070D01*
G03X4536140Y2750080I-209068J98929D01*
G01Y3839670D01*
X4657230Y3960760D01*
X4674490D01*
X4786390Y3848860D01*
X8739470D01*
X8948420Y4057810D01*
Y5207720D01*
X8973710Y5237340D01*
G02X9004090Y5237930I15452J-13194D01*
G01X9032890Y5206740D01*
X9030210Y5200650D01*
G03X9055560Y5108080I69788J-30645D01*
G02X9056270Y5075600I-11848J-16507D01*
G03X9143730I43730J-55600D01*
G02X9144440Y5108080I12558J15973D01*
G03X9169790Y5200650I-44438J61925D01*
G01X9167110Y5206740D01*
X9215740Y5259420D01*
Y5408860D01*
X9489470D01*
X9611140Y5530530D01*
Y6719470D01*
X9531050Y6799560D01*
G02X9540920Y6833740I14367J14366D01*
G03X9429860Y7084450I-30921J136256D01*
G01X9428060Y7083190D01*
X9354070Y7069460D01*
G03X9342480Y7066140I11619J-62452D01*
G01X9340700Y7065440D01*
X9213070D01*
X9170500Y7103540D01*
X9041240D01*
Y6951140D01*
X8889720D01*
Y6970000D01*
G03X8750000Y6830280I-139720J0D01*
G01X8789110D01*
X8810530Y6808860D01*
X9142840D01*
Y6685430D01*
X9163160Y6661440D01*
Y6649010D01*
X9125100Y6607440D01*
X9109240Y6621460D01*
X8830760D01*
X8793410Y6588440D01*
X6118930D01*
G03Y6471560I-48930J-58440D01*
G01X8793410D01*
X8830760Y6438540D01*
X9109240D01*
X9125000Y6452470D01*
X9140760Y6438540D01*
X9295260D01*
Y6582320D01*
X9280040Y6633930D01*
Y6661440D01*
X9300360Y6685430D01*
Y6808860D01*
X9320530D01*
X9468860Y6660530D01*
Y5589470D01*
X9430530Y5551140D01*
X5507990D01*
G02X5493680Y5585890I-4J20320D01*
G03X5499800Y5592740I-53676J54115D01*
G02X5527170Y5596950I15946J-12593D01*
G03X5618930Y5601560I42828J63050D01*
G01X8758820D01*
X8791910Y5576490D01*
X8964400D01*
X8988900Y5597820D01*
X9012900Y5576960D01*
X9215740D01*
Y5748440D01*
X9012900D01*
X8988530Y5727260D01*
X8964010Y5747970D01*
X8790090D01*
X8756350Y5718440D01*
X5618930D01*
G03X5540110Y5730110I-48927J-58441D01*
G02X5512750Y5742740I-7965J18695D01*
G03X5504880Y5760000I-72747J-22746D01*
G03Y5840000I-64880J40000D01*
G03X5427020Y5955110I-64880J40002D01*
G02X5403570Y5971480I-3462J20022D01*
G01X5312010Y5986070D01*
G02X5297660Y6016370I3201J20064D01*
G01Y6070850D01*
X5381140Y6154330D01*
Y6332580D01*
X5381740Y6334250D01*
G03Y6385750I-71740J25750D01*
G01X5381140Y6387420D01*
Y8313270D01*
X5315260Y8379150D01*
Y8461460D01*
X5161730D01*
X5130840Y8436140D01*
X5106320D01*
G02X5086050Y8455100I4J20319D01*
G03X5084800Y8464650I-76050J-5097D01*
G01X5084610Y8465610D01*
Y8476760D01*
X5104140D01*
Y8628050D01*
X5027660Y8637280D01*
Y8773230D01*
X5012280Y8790370D01*
X5021460Y8800760D01*
Y9079240D01*
X4988440Y9116590D01*
Y9251070D01*
G03X4870790Y9347990I-58439J48929D01*
G02X4839210I-15790J12796D01*
G03X4721560Y9251070I-59211J-47991D01*
G01Y9116590D01*
X4701880Y9094320D01*
X4679610Y9074640D01*
X4670390D01*
X4633040Y9107660D01*
X4478540D01*
Y8955260D01*
X4328540D01*
Y8800760D01*
X4337940Y8790130D01*
X4313410Y8768440D01*
X4219280D01*
G03Y8651560I-59280J-58440D01*
G01X4313410D01*
X4335680Y8631880D01*
X4355360Y8609610D01*
Y8571940D01*
X4307040D01*
X4296100Y8580830D01*
X4182340D01*
X4171400Y8571940D01*
X4088600D01*
X4077660Y8580830D01*
X3963900D01*
X3952960Y8571940D01*
X3809290D01*
X3230430Y7993070D01*
G02X3195740Y8007440I-14369J14370D01*
G01Y8052280D01*
X3193440Y8054890D01*
Y8150320D01*
X3235260Y8196700D01*
Y8321980D01*
X3214940Y8346950D01*
Y8436060D01*
X3215090Y8436930D01*
G03Y8463070I-75090J13070D01*
G01X3214940Y8463940D01*
Y8475670D01*
X3209690Y8480920D01*
X3208940Y8482520D01*
G03X3071620Y8416340I-68936J-32518D01*
G01X3072660Y8414220D01*
Y8346950D01*
X3065570Y8338230D01*
X3056850Y8331140D01*
X2197420D01*
X2195750Y8331740D01*
G03X2144250I-25750J-71740D01*
G01X2142580Y8331140D01*
X1870530D01*
X1803680Y8264290D01*
X1751510Y8234600D01*
G02X1721140Y8252270I-10048J17663D01*
G01Y8626760D01*
X1863340D01*
Y8788650D01*
X1899570Y8824890D01*
G02X1933910Y8814260I14367J-14370D01*
G01X2104260D01*
Y8785740D01*
X1971050D01*
X1968550Y8783240D01*
X1936660D01*
Y8751350D01*
X1894260Y8708950D01*
Y8364260D01*
X2878950D01*
X2965740Y8451050D01*
Y9158950D01*
X2938680Y9186000D01*
X2943880Y9198540D01*
X2947660D01*
Y9353040D01*
X2937090Y9365000D01*
X2947660Y9376960D01*
Y9448810D01*
X2958520Y9459670D01*
G02X2975860Y9452490I7181J-7186D01*
G01Y9384960D01*
X3016160Y9340140D01*
Y9274990D01*
X3042340Y9248810D01*
Y9148540D01*
X3194260D01*
Y8671050D01*
X3251050Y8614260D01*
X3838950D01*
X3885740Y8661050D01*
Y8908950D01*
X3849240Y8945450D01*
Y8957240D01*
X3837450D01*
X3828950Y8965740D01*
X3568950D01*
X3545740Y8988950D01*
Y9446160D01*
X3616620D01*
Y9430760D01*
X3835100D01*
Y9649240D01*
X3809700D01*
Y9708870D01*
X3687660Y9830910D01*
Y9891460D01*
X3657110D01*
X3603260Y9945310D01*
G02X3617620Y9980000I14365J14371D01*
G01X9418600D01*
G02X9431920Y9944330I1J-20322D01*
G03X9944330Y9431920I238080J-274330D01*
G02X9980000Y9418600I15348J-13319D01*
G01Y581400D01*
G02X9944330Y568080I-20322J-1D01*
G03X9431920Y55670I-274330J-238080D01*
G02X9418600Y20000I-13319J-15348D01*
G01X581400D01*
G37*
G36*
G01X995950Y4611560D02*
X1010200Y4429260D01*
X1412240D01*
Y4430300D01*
X1453770Y4388770D01*
Y4257000D01*
X1446950Y4254620D01*
G03X1402710Y4214370I25059J-71981D01*
G01X1399990Y4208440D01*
X1205790D01*
X1151060Y4153710D01*
Y4130740D01*
X914130D01*
X846560Y4094940D01*
X816950D01*
X791980Y4115260D01*
X651880D01*
X618790Y4021140D01*
X239470D01*
X147800Y4112810D01*
Y5526580D01*
G02X181060Y5542250I20321J0D01*
G03X342260Y5530420I88942J107751D01*
G02X373040Y5514480I10510J-17393D01*
G03X426300Y5638710I146963J10526D01*
G02X409680Y5646780I-6462J7840D01*
G03X409720Y5650000I-139678J3345D01*
G01Y5707070D01*
X414210Y5711560D01*
X585790D01*
X814230Y5483130D01*
G02X799860Y5448440I-14370J-14369D01*
G01X785790D01*
X501560Y5164210D01*
Y4665790D01*
X585790Y4581560D01*
X625580D01*
X638540Y4569990D01*
Y4392340D01*
X821460D01*
Y4492610D01*
X940410Y4611560D01*
X995950D01*
G37*
G36*
G01X944210Y5518440D02*
X634210Y5828440D01*
X365790D01*
X327070Y5789720D01*
X212930D01*
X198440Y5804210D01*
Y5953760D01*
G02X225480Y5972930I20319J-5D01*
G03X404180Y6088920I44516J127068D01*
G02X436020Y6103940I20253J-1675D01*
G03X534470Y6371630I83981J121062D01*
G01X526840Y6372380D01*
X523650Y6389920D01*
X532650Y6391550D01*
X560000Y6415730D01*
X590760Y6388540D01*
X735060D01*
Y5854330D01*
X970530Y5618860D01*
X1089560D01*
X1115710Y5592720D01*
X1115760Y5592670D01*
G03X1316240I100240J97330D01*
G01X1316290Y5592720D01*
X1343000Y5619420D01*
X1369710Y5592720D01*
X1369760Y5592670D01*
G03X1555020Y5800880I100238J97335D01*
G02Y5833120I12364J16120D01*
G03X1551310Y6057630I-85017J110881D01*
G02X1550920Y6090390I11824J16523D01*
G03X1596160Y6150960I-80915J107616D01*
G02X1633050Y6153580I19042J-7093D01*
G03X1740460Y6125400I66956J36418D01*
G02X1771560Y6108180I10782J-17222D01*
G01Y5705790D01*
X1924230Y5553130D01*
G02X1909860Y5518440I-14370J-14369D01*
G01X944210D01*
G37*
G36*
G01X346200Y5738900D02*
X270000D01*
X267750Y5647750D01*
X358900Y5650000D01*
Y5726200D01*
G03X346200Y5738900I-12700J0D01*
G37*
G36*
G01X181100Y5726200D02*
Y5650000D01*
X272250Y5647750D01*
X270000Y5738900D01*
X193800D01*
G03X181100Y5726200I0J-12700D01*
G37*
G36*
G01X372760Y6230450D02*
G02X341640Y6214000I-20305J752D01*
G03X225480Y6227070I-71642J-113999D01*
G02X198440Y6246240I-6721J19175D01*
G01Y6275790D01*
X244210Y6321560D01*
X370680D01*
G02X388770Y6292000I-5J-20318D01*
G03X372760Y6230450I131231J-66992D01*
G37*
G36*
G01X220920Y6570310D02*
X222520Y6571060D01*
G03X245760Y6588040I-32537J68927D01*
G02X275000Y6588560I14871J-13851D01*
G01X370040Y6493510D01*
X365300Y6457940D01*
X345790Y6438440D01*
X195790D01*
X182490Y6425130D01*
G02X147800Y6439500I-14369J14370D01*
G01Y6497190D01*
X220920Y6570310D01*
G37*
G36*
G01X560000Y6544270D02*
X529240Y6571460D01*
X457390D01*
X228440Y6800410D01*
Y7181280D01*
G02X265480Y7192820I20319J-5D01*
G03X437240Y7372760I104519J72178D01*
G02Y7407240I10760J17240D01*
G03X461170Y7426560I-67238J107762D01*
G01X461230Y7426620D01*
X487750Y7453130D01*
X524040Y7428540D01*
X816140D01*
X839350Y7507410D01*
G02X859260Y7504540I9749J-2865D01*
G01Y7484260D01*
X873050D01*
X876560Y7462790D01*
Y7439210D01*
X839260Y7397460D01*
Y7154260D01*
X1030740D01*
Y7397460D01*
X991940Y7440890D01*
X1035390Y7484260D01*
X1100740D01*
Y7582090D01*
G02X1118080Y7589270I10159J-6D01*
G01X1126560Y7580790D01*
Y7439210D01*
X1089260Y7397460D01*
Y7155000D01*
X1204230Y7153120D01*
X1205790Y7151560D01*
X1323410D01*
X1360760Y7118540D01*
X1515260D01*
Y7278540D01*
X1667660D01*
Y7461460D01*
X1640650D01*
G02X1625260Y7495040I3J20318D01*
G01X1640740Y7513010D01*
Y7558090D01*
X1689210Y7606560D01*
X1784860D01*
G02X1799230Y7571870I0J-20321D01*
G01X1721560Y7494210D01*
Y6736530D01*
G02X1700980Y6716210I-20321J-1D01*
G03X1674250Y6711740I-994J-76213D01*
G01X1672580Y6711140D01*
X833620D01*
X831950Y6711740D01*
G03X734460Y6614250I-25750J-71740D01*
G01X735060Y6612580D01*
Y6571460D01*
X590760D01*
X560000Y6544270D01*
G37*
G36*
G01X54690Y6605300D02*
G02X20000Y6619660I-14371J14364D01*
G01Y9418600D01*
G02X55670Y9431920I20322J1D01*
G03X568080Y9944330I274330J238080D01*
G02X581400Y9980000I13319J15348D01*
G01X1942380D01*
G02X1956740Y9945310I-5J-20319D01*
G01X1933850Y9922420D01*
X1928410Y9923620D01*
G03X2059630Y9803340I-38410J-173621D01*
G01X2057780Y9809220D01*
X2084730Y9836160D01*
X3194740D01*
Y9736960D01*
X3227760Y9699610D01*
Y9649590D01*
X3238110Y9639250D01*
X3246660Y9588660D01*
Y9515740D01*
X3244260D01*
Y9335740D01*
X3194260D01*
Y9331460D01*
X3170830D01*
G02X3155720Y9365360I4J20319D01*
G01X3173340Y9384960D01*
Y9513240D01*
X3036610D01*
G02X3029430Y9530580I6J10159D01*
G01X3035510Y9536660D01*
X3173340Y9551390D01*
Y9703240D01*
X2990790D01*
X2959410Y9625850D01*
X2865010Y9531460D01*
X2795260D01*
Y9681460D01*
X2612340D01*
Y9526960D01*
X2622910Y9515000D01*
X2612340Y9503040D01*
Y9225740D01*
X2394260D01*
Y8685740D01*
X2248950D01*
X2245740Y8688950D01*
Y8928950D01*
X2198950Y8975740D01*
X1915740D01*
Y9235740D01*
X1491050D01*
X1414260Y9158950D01*
Y9121140D01*
X1000530D01*
X902660Y9023270D01*
Y8776950D01*
X895570Y8768230D01*
X886850Y8761140D01*
X800530D01*
X665060Y8625670D01*
Y8361460D01*
X520600D01*
X485010Y8329610D01*
X461230Y8353380D01*
X461170Y8353440D01*
G03X456640Y8357880I-91147J-88464D01*
G02X470500Y8393060I13862J14859D01*
G01X491940D01*
Y8636940D01*
X248060D01*
Y8393060D01*
X269500D01*
G02X283360Y8357880I-2J-20321D01*
G03X302760Y8157240I86642J-92880D01*
G02Y8122760I-10760J-17240D01*
G03X243330Y8024380I67241J-107760D01*
G01X243270Y8023580D01*
X231610Y7974250D01*
X111560Y7854210D01*
Y6751990D01*
X138560Y6725000D01*
G02X138040Y6695760I-14371J-14369D01*
G03X121060Y6672520I51947J-55777D01*
G01X120310Y6670920D01*
X54690Y6605300D01*
G37*
G36*
G01X293800Y7328500D02*
Y7265000D01*
X372250Y7262750D01*
X370000Y7341200D01*
X306500D01*
G03X293800Y7328500I0J-12700D01*
G37*
G36*
G01X468780Y7523980D02*
X423870Y7568870D01*
X366820Y7515000D01*
X423870Y7461130D01*
X468780Y7506020D01*
G03Y7523980I-8980J8980D01*
G37*
G36*
G01X291500Y7938800D02*
X370000D01*
X372470Y8017000D01*
X294150Y8017920D01*
X279140Y7954420D01*
G03X291500Y7938800I12360J-2920D01*
G37*
G36*
G01X468780Y8273980D02*
X423870Y8318870D01*
X366820Y8265000D01*
X423870Y8211130D01*
X468780Y8256020D01*
G03Y8273980I-8980J8980D01*
G37*
G36*
G01X1099470Y821140D02*
X917340Y1003270D01*
Y1343050D01*
X937660Y1368020D01*
Y1491980D01*
X917340Y1516950D01*
Y1553050D01*
X937660Y1578020D01*
Y1701980D01*
X917340Y1726950D01*
Y2711010D01*
X984970Y2778640D01*
X1186940D01*
G02X1201310Y2743950I0J-20321D01*
G01X1141560Y2684210D01*
Y2055790D01*
X1225790Y1971560D01*
X1243620D01*
Y1956650D01*
X1239970Y1953600D01*
G03X1501920Y1973650I145030J-173600D01*
G02X1498060Y2005410I10507J17392D01*
G01X1554210Y2061560D01*
X1906410D01*
G02X1923900Y2030900I-2J-20320D01*
G03X2096100I86100J-50900D01*
G02X2113590Y2061560I17492J10340D01*
G01X2544210D01*
X2641630Y2158980D01*
Y2196460D01*
X2727990D01*
Y2462100D01*
X2708940Y2484710D01*
Y2616290D01*
X2854210Y2761560D01*
X2949860D01*
G02X2964230Y2726870I0J-20321D01*
G01X2891560Y2654210D01*
Y2270790D01*
X3015350Y2147010D01*
X3011730Y2140340D01*
G03X3436760Y1964290I203270J-110345D01*
G01X3438910Y1971560D01*
X4241090D01*
X4243240Y1964290D01*
G03X4661300Y1907680I221761J65709D01*
G02X4698860Y1896930I17241J-10753D01*
G01Y1729470D01*
X4540530Y1571140D01*
X3240530D01*
X2898280Y1228890D01*
G02X2863810Y1246220I-14368J14367D01*
G03X2413240Y1345710I-228810J33781D01*
G01X2411090Y1338440D01*
X1608910D01*
X1606760Y1345710D01*
G03Y1214290I-221760J-65710D01*
G01X1608910Y1221560D01*
X2411090D01*
X2413240Y1214290D01*
G03X2668780Y1051190I221760J65710D01*
G02X2686110Y1016720I2963J-20102D01*
G01X2490530Y821140D01*
X1099470D01*
G37*
G36*
G01X856510Y1340760D02*
X891920Y1384280D01*
X846200Y1436350D01*
X800480Y1384280D01*
X835890Y1340760D01*
G03X856510I10310J23210D01*
G37*
G36*
G01X835890Y1519240D02*
X800480Y1475720D01*
X846200Y1423650D01*
X891920Y1475720D01*
X856510Y1519240D01*
G03X835890I-10310J-23210D01*
G37*
G36*
G01X604120Y1438980D02*
X591540Y1451540D01*
X566820Y1430000D01*
X591540Y1408460D01*
X604120Y1421020D01*
G03Y1438980I-8980J8980D01*
G37*
G36*
G01X604770Y1422570D02*
X648080Y1384280D01*
X696980Y1430000D01*
X648080Y1475720D01*
X604770Y1437430D01*
G03Y1422570I10300J-7430D01*
G37*
G36*
G01X835890Y1729240D02*
X800480Y1685720D01*
X846200Y1633650D01*
X891920Y1685720D01*
X856510Y1729240D01*
G03X835890I-10310J-23210D01*
G37*
G36*
G01X856510Y1550760D02*
X891920Y1594280D01*
X846200Y1646350D01*
X800480Y1594280D01*
X835890Y1550760D01*
G03X856510I10310J23210D01*
G37*
G36*
G01X604120Y1648980D02*
X591540Y1661540D01*
X566820Y1640000D01*
X591540Y1618460D01*
X604120Y1631020D01*
G03Y1648980I-8980J8980D01*
G37*
G36*
G01X604770Y1632570D02*
X648080Y1594280D01*
X696980Y1640000D01*
X648080Y1685720D01*
X604770Y1647430D01*
G03Y1632570I10300J-7430D01*
G37*
G36*
G01X959340Y3905300D02*
X985500Y3935000D01*
X955500Y4016350D01*
X925500Y3935000D01*
X951660Y3905300D01*
G03X959340I3840J25110D01*
G37*
G36*
G01X841440Y4009040D02*
X925500Y3935000D01*
X961780Y4009070D01*
X925500Y4085000D01*
X844470Y4042070D01*
G03X841440Y4009040I17641J-18272D01*
G37*
G36*
G01X678080Y3952680D02*
X775720Y3978080D01*
X734770Y4028000D01*
X684280Y4069520D01*
X652740Y3979800D01*
G03X678080Y3952680I25340J-1722D01*
G37*
G36*
G01X819240Y4034110D02*
X775720Y4069520D01*
X723650Y4023800D01*
X775720Y3978080D01*
X819240Y4013490D01*
G03Y4034110I-23210J10310D01*
G37*
G36*
G01X637280Y4632420D02*
X684280Y4590480D01*
X733170Y4636050D01*
X684280Y4681920D01*
X637930Y4648380D01*
G03X637280Y4632420I9540J-8382D01*
G37*
G36*
G01X1679210Y4130740D02*
G02X1660010Y4157710I0J20319D01*
G03X1613030Y4254630I-72029J24932D01*
G01X1606210Y4257000D01*
Y4394750D01*
X1640720Y4429260D01*
X1920240D01*
Y4643300D01*
X1902940Y4661460D01*
Y4663510D01*
X1785260Y4781190D01*
Y4843160D01*
X1777480Y4866420D01*
X1810370Y4899260D01*
X1915740D01*
Y5240740D01*
X1644260D01*
Y4899360D01*
X1602340Y4853460D01*
Y4781030D01*
G02X1585000Y4773850I-10159J6D01*
G01X1577660Y4781190D01*
Y4853460D01*
X1535740Y4899360D01*
Y5240740D01*
X1264260D01*
Y4899260D01*
X1369630D01*
X1402520Y4866420D01*
X1394740Y4843160D01*
Y4728720D01*
G02X1360050Y4714360I-20319J4D01*
G01X1261460Y4812950D01*
Y4895260D01*
X1078540D01*
Y4863160D01*
G02X1044220Y4848440I-20319J5D01*
G01X906590D01*
X869240Y4881460D01*
X720130D01*
X712240Y4890390D01*
Y5138870D01*
X854930Y5281560D01*
X2071560D01*
Y5084900D01*
X2074910Y5070080D01*
X2032340Y5023460D01*
Y4896960D01*
X2065360Y4859610D01*
Y4801990D01*
X2128790Y4738560D01*
X2136930D01*
X2179500Y4700460D01*
X2308760D01*
Y4791580D01*
G02X2343450Y4805940I20319J-4D01*
G01X2358860Y4790530D01*
Y4639540D01*
X2252840D01*
Y4475430D01*
X2257520Y4469900D01*
X2240470Y4451460D01*
X2207160D01*
Y4639540D01*
X2053940D01*
X2039350Y4492000D01*
X1931560Y4384210D01*
Y4130740D01*
X1679210D01*
G37*
G36*
G01X646370Y4879030D02*
X608080Y4835720D01*
X653800Y4786820D01*
X699520Y4835720D01*
X661230Y4879030D01*
G03X646370I-7430J-10300D01*
G37*
G36*
G01X895230Y4797430D02*
X851920Y4835720D01*
X803020Y4790000D01*
X851920Y4744280D01*
X895230Y4782570D01*
G03Y4797430I-10300J7430D01*
G37*
G36*
G01X795890Y6569240D02*
X760480Y6525720D01*
X806200Y6473650D01*
X851920Y6525720D01*
X816510Y6569240D01*
G03X795890I-10310J-23210D01*
G37*
G36*
G01X816510Y6390760D02*
X851920Y6434280D01*
X806200Y6486350D01*
X760480Y6434280D01*
X795890Y6390760D01*
G03X816510I10310J23210D01*
G37*
G36*
G01X564770Y6472570D02*
X608080Y6434280D01*
X656980Y6480000D01*
X608080Y6525720D01*
X564770Y6487430D01*
G03Y6472570I10300J-7430D01*
G37*
G36*
G01X421010Y6417790D02*
X511920Y6434280D01*
X468350Y6482330D01*
X420480Y6525720D01*
X407780Y6430480D01*
G03X421010Y6417790I12701J0D01*
G37*
G36*
G01X555230Y6487430D02*
X511920Y6525720D01*
X463020Y6480000D01*
X511920Y6434280D01*
X555230Y6472570D01*
G03Y6487430I-10300J7430D01*
G37*
G36*
G01X927410Y7427470D02*
X885000Y7380000D01*
X935000Y7286820D01*
X985000Y7380000D01*
X942590Y7427470D01*
G03X927410I-7590J-10180D01*
G37*
G36*
G01X942810Y7456480D02*
X1016470Y7530000D01*
X981380Y7562860D01*
X910200Y7540520D01*
X922960Y7462470D01*
G03X942810Y7456480I12044J4028D01*
G37*
G36*
G01X677760Y8030410D02*
Y7770390D01*
X669870Y7761460D01*
X520270D01*
X506560Y7748870D01*
X496960Y7759330D01*
X497010Y7763360D01*
G03X437240Y7872760I-127009J1637D01*
G02Y7907240I10760J17240D01*
G03Y8122760I-67240J107760D01*
G02Y8157240I10760J17240D01*
G03X461170Y8176560I-67238J107762D01*
G01X461230Y8176620D01*
X487750Y8203130D01*
X524040Y8178540D01*
X827660D01*
Y8331980D01*
X807340Y8356950D01*
Y8566730D01*
X859470Y8618860D01*
X886850D01*
X911820Y8598540D01*
X1189240D01*
X1220860Y8626490D01*
X1237560Y8609790D01*
Y8428930D01*
G03X1349350Y8325560I58436J-48937D01*
G01X1407710D01*
X1428390Y8308260D01*
X1578860D01*
Y8222970D01*
X1561630Y8205740D01*
X1399260D01*
Y8088440D01*
X1326590D01*
X1235780Y7997630D01*
G02X1218440Y8004810I-7181J7186D01*
G01Y8014210D01*
X1114210Y8118440D01*
X765790D01*
X677760Y8030410D01*
G37*
G36*
G01X878440Y7889740D02*
Y7935790D01*
X894210Y7951560D01*
X1045790D01*
X1051560Y7945790D01*
Y7889740D01*
X878440D01*
G37*
G36*
G01X728770Y7759030D02*
X690480Y7715720D01*
X736200Y7666820D01*
X781920Y7715720D01*
X743630Y7759030D01*
G03X728770I-7430J-10300D01*
G37*
G36*
G01X795720Y7578420D02*
X690480Y7565720D01*
X733680Y7518070D01*
X781920Y7474280D01*
X808280Y7563820D01*
G03X795720Y7578420I-12560J1897D01*
G37*
G36*
G01X490790Y7506330D02*
X538080Y7474280D01*
X586970Y7520190D01*
X538080Y7565720D01*
X489910Y7522620D01*
G03X490790Y7506330I10160J-7620D01*
G37*
G36*
G01X479530Y7638570D02*
X538080Y7624280D01*
X586910Y7670630D01*
X538080Y7715720D01*
X475180Y7657970D01*
G03X479530Y7638570I9889J-7970D01*
G37*
G36*
G01X725890Y8359240D02*
X690480Y8315720D01*
X736200Y8263650D01*
X781920Y8315720D01*
X746510Y8359240D01*
G03X725890I-10310J-23210D01*
G37*
G36*
G01X490790Y8256330D02*
X538080Y8224280D01*
X586970Y8270190D01*
X538080Y8315720D01*
X489910Y8272620D01*
G03X490790Y8256330I10160J-7620D01*
G37*
G36*
G01X884560Y8679690D02*
X928080Y8644280D01*
X980150Y8690000D01*
X928080Y8735720D01*
X884560Y8700310D01*
G03Y8679690I23210J-10310D01*
G37*
G36*
G01X1274210Y2088440D02*
X1258440Y2104210D01*
Y2635790D01*
X1300210Y2677560D01*
X1319710D01*
X1340390Y2660260D01*
X1512740D01*
Y2774860D01*
X1547090D01*
X1585200Y2742220D01*
X1592660Y2733050D01*
Y2642930D01*
X1611600Y2624000D01*
X1606400Y2611460D01*
X1600630D01*
X1559170Y2574440D01*
X1504290D01*
X1483610Y2591740D01*
X1311260D01*
Y2330260D01*
X1512740D01*
Y2457560D01*
X1562850D01*
X1587240Y2440100D01*
X1605360Y2419610D01*
Y2201990D01*
X1611570Y2195780D01*
G02X1604390Y2178440I-7186J-7181D01*
G01X1505790D01*
X1415790Y2088440D01*
X1274210D01*
G37*
G36*
G01X1495290Y2522340D02*
X1467000Y2546000D01*
X1408820Y2516000D01*
X1467000Y2486000D01*
X1495290Y2509660D01*
G03Y2522340I-11000J6340D01*
G37*
G36*
G01X1048460Y2920920D02*
X1026640Y2942740D01*
Y3889260D01*
X1151060D01*
Y3866290D01*
X1325790Y3691560D01*
X1989590D01*
X2062340Y3618810D01*
Y3558440D01*
X1795790D01*
X1605360Y3368010D01*
Y3250390D01*
X1572340Y3213040D01*
Y3141190D01*
X1555590Y3124440D01*
X1512740D01*
Y3251740D01*
X1311260D01*
Y2920920D01*
X1048460D01*
G37*
G36*
G01X955500Y2913280D02*
Y2849780D01*
X1039400Y2865290D01*
X973460Y2931240D01*
X955500Y2913280D01*
G37*
G36*
G01X1323980Y2843670D02*
X1357000Y2816000D01*
X1418340Y2845620D01*
X1357000Y2876000D01*
X1324430Y2857500D01*
G03X1323980Y2843670I24201J-7710D01*
G37*
G36*
G01X1496700Y2849840D02*
X1467000Y2876000D01*
X1405650Y2846000D01*
X1467000Y2816000D01*
X1496700Y2842160D01*
G03Y2849840I-25110J3840D01*
G37*
G36*
G01X1495290Y3072340D02*
X1467000Y3096000D01*
X1408820Y3066000D01*
X1467000Y3036000D01*
X1495290Y3059660D01*
G03Y3072340I-11000J6340D01*
G37*
G36*
G01X1328710Y2729660D02*
X1357000Y2706000D01*
X1415180Y2736000D01*
X1357000Y2766000D01*
X1328710Y2742340D01*
G03Y2729660I11000J-6340D01*
G37*
G36*
G01X1495290Y2962340D02*
X1467000Y2986000D01*
X1408820Y2956000D01*
X1467000Y2926000D01*
X1495290Y2949660D01*
G03Y2962340I-11000J6340D01*
G37*
G36*
G01X1492330Y4213120D02*
X1472010D01*
X1470210Y4180840D01*
X1502490Y4182640D01*
Y4202960D01*
G03X1492330Y4213120I-10160J0D01*
G37*
G36*
G01X1203160Y4113290D02*
X1179500Y4085000D01*
X1209500Y4006820D01*
X1239500Y4085000D01*
X1215840Y4113290D01*
G03X1203160I-6340J-11000D01*
G37*
G36*
G01X1215840Y3906710D02*
X1239500Y3935000D01*
X1209500Y4013180D01*
X1179500Y3935000D01*
X1203160Y3906710D01*
G03X1215840I6340J11000D01*
G37*
G36*
G01X1342840D02*
X1366500Y3935000D01*
X1336500Y4013180D01*
X1306500Y3935000D01*
X1330160Y3906710D01*
G03X1342840I6340J11000D01*
G37*
G36*
G01X1468490Y4449240D02*
X1493500Y4475000D01*
X1463500Y4552540D01*
X1433500Y4475000D01*
X1458510Y4449240D01*
G03X1468490I4990J8850D01*
G37*
G36*
G01X1039800Y4637500D02*
X1052500Y4475000D01*
X1086620Y4537990D01*
X1112500Y4625000D01*
X1055090Y4649930D01*
G03X1039800Y4637500I-2593J-12430D01*
G37*
G36*
G01X1332660Y4654700D02*
X1306500Y4625000D01*
X1336500Y4543650D01*
X1366500Y4625000D01*
X1340340Y4654700D01*
G03X1332660I-3840J-25110D01*
G37*
G36*
G01X1166800Y4630500D02*
X1179500Y4475000D01*
X1213930Y4538100D01*
X1239500Y4625000D01*
X1180660Y4643150D01*
G03X1166800Y4630500I-1157J-12650D01*
G37*
G36*
G01X1459110Y4891460D02*
X1440480Y4835720D01*
X1486730Y4786870D01*
X1531920Y4835720D01*
X1477900Y4894870D01*
G03X1459110Y4891460I-7900J-9941D01*
G37*
G36*
G01X1482410Y4878800D02*
X1486460Y4957060D01*
X1398890Y5072980D01*
X1388540Y4945010D01*
X1462190Y4871480D01*
G03X1482410Y4878800I7808J10018D01*
G37*
G36*
G01X1108240Y5672040D02*
X1153150Y5627150D01*
X1222350Y5690000D01*
X1153150Y5752850D01*
X1108240Y5707960D01*
G03Y5672040I17960J-17960D01*
G37*
G36*
G01X1323760Y5707960D02*
X1278850Y5752850D01*
X1209650Y5690000D01*
X1278850Y5627150D01*
X1323760Y5672040D01*
G03Y5707960I-17960J17960D01*
G37*
G36*
G01X1362240Y5672040D02*
X1407150Y5627150D01*
X1476350Y5690000D01*
X1407150Y5752850D01*
X1362240Y5707960D01*
G03Y5672040I17960J-17960D01*
G37*
G36*
G01X1262330Y6324420D02*
G03X1166270Y6323120I-46328J-126419D01*
G02X1138440Y6342000I-7511J18881D01*
G01Y6354810D01*
X1169550Y6388540D01*
X1289640D01*
Y6343500D01*
G02X1262330Y6324420I-20319J-2D01*
G37*
G36*
G01X1381100Y6020200D02*
Y5944000D01*
X1472250Y5941750D01*
X1470000Y6032900D01*
X1393800D01*
G03X1381100Y6020200I0J-12700D01*
G37*
G36*
G01X1127100D02*
Y5944000D01*
X1218250Y5941750D01*
X1216000Y6032900D01*
X1139800D01*
G03X1127100Y6020200I0J-12700D01*
G37*
G36*
G01X1088040Y6367640D02*
X1149520Y6434280D01*
X1104520Y6483090D01*
X1058080Y6434280D01*
X1068150Y6372900D01*
G03X1088040Y6367640I11849J4570D01*
G37*
G36*
G01X1301060Y6544590D02*
X1210480Y6525720D01*
X1254100Y6477620D01*
X1301920Y6434280D01*
X1314620Y6531920D01*
G03X1301060Y6544590I-12699J0D01*
G37*
G36*
G01X1374280Y6421580D02*
X1469520Y6434280D01*
X1426130Y6482150D01*
X1378080Y6525720D01*
X1361590Y6434810D01*
G03X1374280Y6421580I12690J-529D01*
G37*
G36*
G01X1323010Y7268090D02*
X1280740Y7310380D01*
Y7397460D01*
X1243440Y7439210D01*
Y7561560D01*
X1399260D01*
Y7513010D01*
X1447180Y7457400D01*
X1447820Y7455530D01*
G03X1448260Y7454250I72296J24136D01*
G01X1448860Y7452580D01*
Y7396730D01*
X1484740Y7360850D01*
Y7301460D01*
X1360760D01*
X1323010Y7268090D01*
G37*
G36*
G01X1177410Y7427470D02*
X1135000Y7380000D01*
X1185000Y7286820D01*
X1235000Y7380000D01*
X1192590Y7427470D01*
G03X1177410I-7590J-10180D01*
G37*
G36*
G01X1308220Y7218180D02*
X1202830Y7323630D01*
X1182400Y7291830D01*
X1135000Y7200000D01*
X1299280Y7197320D01*
G03X1308220Y7218180I-780J12680D01*
G37*
G36*
G01X1334770Y7202570D02*
X1378080Y7164280D01*
X1426980Y7210000D01*
X1378080Y7255720D01*
X1334770Y7217430D01*
G03Y7202570I10300J-7430D01*
G37*
G36*
G01X1415540Y7805380D02*
X1445000Y7784000D01*
X1523170Y7814050D01*
X1445000Y7844000D01*
X1415220Y7818930D01*
G03X1415540Y7805380I10899J-6521D01*
G37*
G36*
G01X1416710Y7934660D02*
X1445000Y7911000D01*
X1523180Y7941000D01*
X1445000Y7971000D01*
X1416710Y7947340D01*
G03Y7934660I11000J-6340D01*
G37*
G36*
G01X1405120Y7949980D02*
X1392540Y7962540D01*
X1367820Y7941000D01*
X1392540Y7919460D01*
X1405120Y7932020D01*
G03Y7949980I-8980J8980D01*
G37*
G36*
G01X1534010Y7459220D02*
X1595000Y7530000D01*
X1520000Y7566350D01*
X1445000Y7530000D01*
X1505990Y7459220D01*
G03X1534010I14010J21190D01*
G37*
G36*
G01X1083290Y7693340D02*
X1055000Y7717000D01*
X976820Y7687000D01*
X1055000Y7657000D01*
X1083290Y7680660D01*
G03Y7693340I-11000J6340D01*
G37*
G36*
G01X1416710Y8377660D02*
X1445000Y8354000D01*
X1523180Y8384000D01*
X1445000Y8414000D01*
X1416710Y8390340D01*
G03Y8377660I11000J-6340D01*
G37*
G36*
G01X1287020Y8414120D02*
X1274460Y8401540D01*
X1296000Y8376820D01*
X1317540Y8401540D01*
X1304980Y8414120D01*
G03X1287020I-8980J-8980D01*
G37*
G36*
G01X1330970Y8395280D02*
X1314400Y8403840D01*
X1292850Y8379570D01*
X1317540Y8358460D01*
X1334120Y8375020D01*
G03X1330970Y8395280I-8981J8979D01*
G37*
G36*
G01X1415250Y8501790D02*
X1445000Y8481000D01*
X1523170Y8511070D01*
X1445000Y8541000D01*
X1414830Y8515560D01*
G03X1415250Y8501790I10878J-6560D01*
G37*
G36*
G01X1362020Y8543120D02*
X1349460Y8530540D01*
X1371000Y8505820D01*
X1392540Y8530540D01*
X1379980Y8543120D01*
G03X1362020I-8980J-8980D01*
G37*
G36*
G01X1405120Y8517980D02*
X1392540Y8530540D01*
X1367820Y8509000D01*
X1392540Y8487460D01*
X1405120Y8500020D01*
G03Y8517980I-8980J8980D01*
G37*
G36*
G01X1830000Y8820000D02*
X1490000D01*
X1460000Y8850000D01*
Y9140000D01*
X1510000Y9190000D01*
X1870000D01*
Y8860000D01*
X1830000Y8820000D01*
G37*
G36*
G01X963490Y8779240D02*
X928080Y8735720D01*
X973800Y8683650D01*
X1019520Y8735720D01*
X984110Y8779240D01*
G03X963490I-10310J-23210D01*
G37*
G36*
G01X1215230Y8697430D02*
X1171920Y8735720D01*
X1123020Y8690000D01*
X1171920Y8644280D01*
X1215230Y8682570D01*
G03Y8697430I-10300J7430D01*
G37*
G36*
G01X1378540Y8598250D02*
X1419520Y8644280D01*
X1373910Y8693170D01*
X1328080Y8644280D01*
X1362860Y8598720D01*
G03X1378540Y8598250I8139J9750D01*
G37*
G36*
G01X1724210Y2248440D02*
X1722240Y2250410D01*
Y2419610D01*
X1730130Y2428540D01*
X1878180D01*
X1903150Y2448860D01*
X2319010D01*
Y2248440D01*
X1724210D01*
G37*
G36*
G01X1905440Y2530310D02*
X1861920Y2565720D01*
X1809850Y2520000D01*
X1861920Y2474280D01*
X1905440Y2509690D01*
G03Y2530310I-23210J10310D01*
G37*
G36*
G01X1571570Y2507570D02*
X1618080Y2474280D01*
X1666970Y2520150D01*
X1618080Y2565720D01*
X1570880Y2523580D01*
G03X1571570Y2507570I10190J-7581D01*
G37*
G36*
G01X1671230Y2430970D02*
X1709520Y2474280D01*
X1663800Y2523180D01*
X1618080Y2474280D01*
X1656370Y2430970D01*
G03X1671230I7430J10300D01*
G37*
G36*
G01X1734940Y2733050D02*
X1750640Y2752340D01*
X1773360Y2826550D01*
X1825350Y2878540D01*
X1878180D01*
X1902820Y2898590D01*
X1907980Y2897030D01*
G03X2005700Y2978870I22019J72970D01*
G02X2025880Y3001560I20182J2370D01*
G01X2174080D01*
X2192010Y3000140D01*
Y2988860D01*
X2271560D01*
Y2735790D01*
X2465060Y2542290D01*
Y2533580D01*
G02X2447720Y2526390I-10159J-4D01*
G01X2382970Y2591140D01*
X1903150D01*
X1878180Y2611460D01*
X1825350D01*
X1734940Y2701870D01*
Y2733050D01*
G37*
G36*
G01X1674110Y2730760D02*
X1709520Y2774280D01*
X1663800Y2826350D01*
X1618080Y2774280D01*
X1653490Y2730760D01*
G03X1674110I10310J23210D01*
G37*
G36*
G01X1711920Y2891120D02*
X1618080Y2865720D01*
X1659200Y2815630D01*
X1709520Y2774280D01*
X1737310Y2865050D01*
G03X1711920Y2891120I-25390J671D01*
G37*
G36*
G01X1550430Y2832220D02*
X1618080Y2774280D01*
X1669910Y2818270D01*
X1709520Y2865720D01*
X1568170Y2871140D01*
G03X1550430Y2832220I3599J-25143D01*
G37*
G36*
G01X1905440Y2980310D02*
X1861920Y3015720D01*
X1809850Y2970000D01*
X1861920Y2924280D01*
X1905440Y2959690D01*
G03Y2980310I-23210J10310D01*
G37*
G36*
G01X1563970Y2945470D02*
X1618080Y2924280D01*
X1666940Y2970470D01*
X1618080Y3015720D01*
X1561090Y2963860D01*
G03X1563970Y2945470I9979J-7858D01*
G37*
G36*
G01X1905440Y3160310D02*
X1861920Y3195720D01*
X1809850Y3150000D01*
X1861920Y3104280D01*
X1905440Y3139690D01*
G03Y3160310I-23210J10310D01*
G37*
G36*
G01X1656370Y3239030D02*
X1618080Y3195720D01*
X1663800Y3146820D01*
X1709520Y3195720D01*
X1671230Y3239030D01*
G03X1656370I-7430J-10300D01*
G37*
G36*
G01X1557500Y4202960D02*
Y4182640D01*
X1589780Y4180840D01*
X1587980Y4213120D01*
X1567660D01*
G03X1557500Y4202960I0J-10160D01*
G37*
G36*
G01X1595490Y4449240D02*
X1620500Y4475000D01*
X1590500Y4552540D01*
X1560500Y4475000D01*
X1585510Y4449240D01*
G03X1595490I4990J8850D01*
G37*
G36*
G01X1674800Y4642500D02*
X1687500Y4475000D01*
X1721420Y4537920D01*
X1747500Y4625000D01*
X1691060Y4654690D01*
G03X1674800Y4642500I-3561J-12190D01*
G37*
G36*
G01X1839040Y4650760D02*
X1814500Y4625000D01*
X1844500Y4546820D01*
X1874500Y4625000D01*
X1849960Y4650760D01*
G03X1839040I-5460J-11460D01*
G37*
G36*
G01X1717810Y4871480D02*
X1791460Y4945010D01*
X1781110Y5072980D01*
X1693540Y4957060D01*
X1697590Y4878800D01*
G03X1717810Y4871480I12412J2698D01*
G37*
G36*
G01X1702100Y4894870D02*
X1648080Y4835720D01*
X1693270Y4786870D01*
X1739520Y4835720D01*
X1720890Y4891460D01*
G03X1702100Y4894870I-10890J-6531D01*
G37*
G36*
G01X1989520Y5747780D02*
Y5730000D01*
X2022250Y5727750D01*
X2020000Y5760480D01*
X2002220D01*
G03X1989520Y5747780I0J-12700D01*
G37*
G36*
G01X1567220Y6404120D02*
X1554660Y6391540D01*
X1576200Y6366820D01*
X1597740Y6391540D01*
X1585180Y6404120D01*
G03X1567220I-8980J-8980D01*
G37*
G36*
G01X2008980Y6335880D02*
X2021540Y6348460D01*
X2000000Y6373180D01*
X1978460Y6348460D01*
X1991020Y6335880D01*
G03X2008980I8980J8980D01*
G37*
G36*
G01X1691020Y6334120D02*
X1678460Y6321540D01*
X1700000Y6296820D01*
X1721540Y6321540D01*
X1708980Y6334120D01*
G03X1691020I-8980J-8980D01*
G37*
G36*
G01X1717780Y6220480D02*
X1700000D01*
X1697750Y6187750D01*
X1730480Y6190000D01*
Y6207780D01*
G03X1717780Y6220480I-12700J0D01*
G37*
G36*
G01X2177420Y6395060D02*
X2293050D01*
X2318020Y6374740D01*
X2471460D01*
Y6529730D01*
X2418440Y6587480D01*
Y6609730D01*
X2432370D01*
X2435230Y6607270D01*
G03X2525000Y6600120I49768J57730D01*
G03X2577820Y6589870I39995J64882D01*
G02X2601560Y6569840I3419J-20031D01*
G01Y6284210D01*
X2555790Y6238440D01*
X2214210D01*
X2156250Y6296400D01*
X2156220Y6300560D01*
G03X2075970Y6376110I-76217J-563D01*
G03X1998760Y6446210I-75973J-6108D01*
G02X1988440Y6456370I-160J10159D01*
G01Y7080250D01*
G02X2018490Y7098090I20319J3D01*
G03X2050220Y7088930I36504J66911D01*
G02X2069260Y7068650I-1280J-20279D01*
G01Y6958670D01*
X2213320Y6944040D01*
X2265790Y6891560D01*
X2304230D01*
G02X2324450Y6869190I4J-20320D01*
G01X2314040Y6766680D01*
X2301560Y6754210D01*
Y6570770D01*
X2293400Y6537340D01*
X2177420D01*
X2175750Y6537940D01*
G03Y6394460I-25750J-71740D01*
G01X2177420Y6395060D01*
G37*
G36*
G01X1583630Y6390970D02*
X1621920Y6434280D01*
X1576200Y6483180D01*
X1530480Y6434280D01*
X1568770Y6390970D01*
G03X1583630I7430J10300D01*
G37*
G36*
G01X1700770Y7758130D02*
X1774210Y7831560D01*
X1864740D01*
Y7723440D01*
X1715140D01*
G02X1700770Y7758130I0J20321D01*
G37*
G36*
G01X1707780Y7760480D02*
X1690000D01*
X1687750Y7727750D01*
X1720480Y7730000D01*
Y7747780D01*
G03X1707780Y7760480I-12700J0D01*
G37*
G36*
G01X2069750Y7773050D02*
X2001920Y7835720D01*
X1953110Y7790740D01*
X2001920Y7744280D01*
X2064200Y7753040D01*
G03X2069750Y7773050I-4271J11959D01*
G37*
G36*
G01X1623290Y7947340D02*
X1595000Y7971000D01*
X1516820Y7941000D01*
X1595000Y7911000D01*
X1623290Y7934660D01*
G03Y7947340I-11000J6340D01*
G37*
G36*
G01X1995790Y8088440D02*
X1920360D01*
G02X1900510Y8113130I-5J20321D01*
G01X1913740Y8173130D01*
X1929470Y8188860D01*
X2047160D01*
G02X2061530Y8154170I0J-20321D01*
G01X1995790Y8088440D01*
G37*
G36*
G01X1632040Y8211460D02*
X1568540Y8147960D01*
X1624600Y8123650D01*
X1675400D01*
X1731460Y8147960D01*
X1667960Y8211460D01*
G03X1632040I-17960J-17960D01*
G37*
G36*
G01X1843120Y8234100D02*
X1758080Y8185720D01*
X1800310Y8134690D01*
X1849520Y8094280D01*
X1874920Y8209520D01*
G03X1843120Y8234100I-25400J0D01*
G37*
G36*
G01X1708400Y8113570D02*
X1758080Y8094280D01*
X1810100Y8140830D01*
X1758080Y8185720D01*
X1705460Y8142140D01*
G03X1708400Y8113570I22310J-12140D01*
G37*
G36*
G01X1624700Y8133840D02*
X1595000Y8160000D01*
X1513650Y8130000D01*
X1595000Y8100000D01*
X1624700Y8126160D01*
G03Y8133840I-25110J3840D01*
G37*
G36*
G01X2860000Y8410000D02*
X1940000D01*
Y8690000D01*
X1971760Y8721760D01*
X2134140D01*
Y8744140D01*
X2150000Y8760000D01*
Y8850000D01*
X2140000Y8860000D01*
X2134140D01*
Y8878240D01*
X1980000D01*
Y8930000D01*
X2180000D01*
X2196620Y8913380D01*
Y8800760D01*
X2200000D01*
Y8670000D01*
X2230000Y8640000D01*
X2242340D01*
Y8638540D01*
X2425260D01*
Y8645260D01*
X2440000Y8660000D01*
Y9180000D01*
X2880000D01*
X2920000Y9140000D01*
Y8470000D01*
X2860000Y8410000D01*
G37*
G36*
G01X1515890Y8779240D02*
X1480480Y8735720D01*
X1526200Y8683650D01*
X1571920Y8735720D01*
X1536510Y8779240D01*
G03X1515890I-10310J-23210D01*
G37*
G36*
G01X2391530Y2476650D02*
X2364750Y2445400D01*
X2396500Y2337450D01*
X2428250Y2445400D01*
X2401470Y2476650D01*
G03X2391530I-4970J-24910D01*
G37*
G36*
G01X2516970Y2475330D02*
X2491750Y2445400D01*
X2523500Y2340620D01*
X2555250Y2445400D01*
X2530030Y2475330D01*
G03X2516970I-6530J-10890D01*
G37*
G36*
G01X2529950Y2212560D02*
X2555250Y2242200D01*
X2523500Y2346980D01*
X2491750Y2242200D01*
X2517050Y2212560D01*
G03X2529950I6450J10940D01*
G37*
G36*
G01X2870090Y3046200D02*
X2869130Y3041490D01*
G03X3018470I74670J-15290D01*
G01X3017510Y3046200D01*
X3035260Y3068020D01*
Y3221460D01*
X2881820D01*
X2856850Y3201140D01*
X2774610D01*
X2727990Y3248220D01*
Y3271560D01*
X2785650D01*
X2970720Y3456630D01*
X3151560Y3275790D01*
Y2984210D01*
X3045790Y2878440D01*
X2805790D01*
X2600000Y2672650D01*
X2454940Y2817710D01*
Y2970020D01*
G02X2482850Y2988870I20319J2D01*
G01X2512160Y2977060D01*
X2513410Y2976000D01*
G03X2559430Y2959110I46020J54250D01*
G01X2639720D01*
X2656790Y2976180D01*
X2727990Y3002920D01*
Y3021760D01*
X2771150Y3058860D01*
X2856850D01*
X2865570Y3051770D01*
X2870090Y3046200D01*
G37*
G36*
G01X2580640Y3034440D02*
X2555250Y3237800D01*
X2515940Y3160450D01*
X2491750Y3034600D01*
X2555180Y3009040D01*
G03X2580640Y3034440I60J25400D01*
G37*
G36*
G01X2403030Y3004670D02*
X2428250Y3034600D01*
X2396500Y3139380D01*
X2364750Y3034600D01*
X2389970Y3004670D01*
G03X2403030I6530J10890D01*
G37*
G36*
G01X2171210Y3047670D02*
X2249450Y3041480D01*
X2271980Y3138180D01*
X2237770Y3141470D01*
X2164230Y3067810D01*
G03X2171210Y3047670I10018J-7808D01*
G37*
G36*
G01X2389970Y3267730D02*
X2364750Y3237800D01*
X2396500Y3133020D01*
X2428250Y3237800D01*
X2403030Y3267730D01*
G03X2389970I-6530J-10890D01*
G37*
G36*
G01X2263420Y3268200D02*
X2237750Y3237800D01*
X2269490Y3133030D01*
X2301250Y3237800D01*
X2276730Y3268110D01*
G03X2263420Y3268200I-6728J-10770D01*
G37*
G36*
G01X2148870Y4165640D02*
X2196980Y4126200D01*
X2236350Y4177000D01*
X2196980Y4227800D01*
X2148870Y4188360D01*
G03Y4165640I22720J-11360D01*
G37*
G36*
G01X2311130Y4188360D02*
X2263020Y4227800D01*
X2223650Y4177000D01*
X2263020Y4126200D01*
X2311130Y4165640D01*
G03Y4188360I-22720J11360D01*
G37*
G36*
G01X2247780Y3809520D02*
X2260480Y3714280D01*
X2308350Y3757670D01*
X2351920Y3805720D01*
X2261010Y3822210D01*
G03X2247780Y3809520I-529J-12690D01*
G37*
G36*
G01X2116410Y3868300D02*
X2108080Y3805720D01*
X2154550Y3756920D01*
X2199520Y3805720D01*
X2136460Y3873940D01*
G03X2116410Y3868300I-8058J-9812D01*
G37*
G36*
G01X2135050Y3841070D02*
X2161420Y3872200D01*
X2128400Y3926180D01*
X2095380Y3872200D01*
X2121750Y3841070D01*
G03X2135050I6650J10820D01*
G37*
G36*
G01X2380490Y3872600D02*
X2364620Y3973800D01*
X2329760Y3925590D01*
X2298580Y3872200D01*
X2367800Y3859500D01*
G03X2380490Y3872600I0J12696D01*
G37*
G36*
G01X2338250Y4461070D02*
X2364620Y4492200D01*
X2331600Y4546180D01*
X2298580Y4492200D01*
X2324950Y4461070D01*
G03X2338250I6650J10820D01*
G37*
G36*
G01X2323540Y4473940D02*
X2260480Y4405720D01*
X2305450Y4356920D01*
X2351920Y4405720D01*
X2343590Y4468300D01*
G03X2323540Y4473940I-11992J-4172D01*
G37*
G36*
G01X2100160Y4453610D02*
X2161420Y4492200D01*
X2129640Y4545920D01*
X2095380Y4593800D01*
X2082680Y4465380D01*
G03X2100160Y4453610I12703J0D01*
G37*
G36*
G01X2360840Y4918070D02*
X2321920Y5005720D01*
X2271160Y4963870D01*
X2230480Y4914280D01*
X2335720Y4888880D01*
G03X2360840Y4918070I0J25404D01*
G37*
G36*
G01X2147800Y5035390D02*
X2197300Y5090000D01*
X2157770Y5163140D01*
X2117300Y5090000D01*
X2128680Y5039650D01*
G03X2147800Y5035390I11318J5761D01*
G37*
G36*
G01X2132100Y5064870D02*
X2078080Y5005720D01*
X2123270Y4956870D01*
X2169520Y5005720D01*
X2150890Y5061460D01*
G03X2132100Y5064870I-10890J-6531D01*
G37*
G36*
G01X2131230Y4870970D02*
X2169520Y4914280D01*
X2123800Y4963180D01*
X2078080Y4914280D01*
X2116370Y4870970D01*
G03X2131230I7430J10300D01*
G37*
G36*
G01X2148730Y4789380D02*
X2196980Y4746200D01*
X2233180Y4797000D01*
X2196980Y4847800D01*
X2148730Y4804620D01*
G03Y4789380I10160J-7620D01*
G37*
G36*
G01X2495540Y5267780D02*
X2462700Y5230000D01*
X2502700Y5156820D01*
X2542700Y5230000D01*
X2509860Y5267780D01*
G03X2495540I-7160J-10490D01*
G37*
G36*
G01X2125880Y5451020D02*
X2138460Y5438460D01*
X2163180Y5460000D01*
X2138460Y5481540D01*
X2125880Y5468980D01*
G03Y5451020I8980J-8980D01*
G37*
G36*
G01X2194120Y5468980D02*
X2181540Y5481540D01*
X2156820Y5460000D01*
X2181540Y5438460D01*
X2194120Y5451020D01*
G03Y5468980I-8980J8980D01*
G37*
G36*
G01X2110480Y6272220D02*
Y6300000D01*
X2078290Y6302670D01*
X2073780Y6271160D01*
X2091550Y6261150D01*
G03X2110480Y6272220I6228J11070D01*
G37*
G36*
G01X2419980Y7062960D02*
G03X2433350Y7130720I-59980J47034D01*
G02X2452910Y7156560I19555J5520D01*
G01X2740790D01*
X2753990Y7143360D01*
X2754450Y7139950D01*
G03X2755650Y7133230I75556J10025D01*
G02X2735830Y7108440I-19823J-4470D01*
G01X2635790D01*
X2526560Y6999210D01*
Y6910740D01*
X2514660D01*
G02X2494740Y6935050I4J20320D01*
G03X2434180Y7024890I-74740J14950D01*
G03X2419980Y7062960I-75930J-6639D01*
G37*
G36*
G01X2436920Y6730160D02*
X2450000Y6745000D01*
X2435000Y6808180D01*
X2420000Y6745000D01*
X2433080Y6730160D01*
G03X2436920I1920J12550D01*
G37*
G36*
G01X2290760Y6455890D02*
X2334280Y6420480D01*
X2386350Y6466200D01*
X2334280Y6511920D01*
X2290760Y6476510D01*
G03Y6455890I23210J-10310D01*
G37*
G36*
G01X2348570Y6570470D02*
X2334280Y6511920D01*
X2380630Y6463090D01*
X2425720Y6511920D01*
X2367970Y6574820D01*
G03X2348570Y6570470I-7970J-9889D01*
G37*
G36*
G01X2372090Y6727470D02*
X2400000Y6745000D01*
X2387860Y6817370D01*
X2370000Y6865000D01*
X2357300Y6740000D01*
G03X2372090Y6727470I12703J0D01*
G37*
G36*
G01X2536920Y6730160D02*
X2550000Y6745000D01*
X2535000Y6808180D01*
X2520000Y6745000D01*
X2533080Y6730160D01*
G03X2536920I1920J12550D01*
G37*
G36*
G01X2534520Y6692780D02*
Y6665000D01*
X2566710Y6662330D01*
X2571220Y6693840D01*
X2553450Y6703850D01*
G03X2534520Y6692780I-6228J-11070D01*
G37*
G36*
G01X2486920Y6730160D02*
X2500000Y6745000D01*
X2485000Y6808180D01*
X2470000Y6745000D01*
X2483080Y6730160D01*
G03X2486920I1920J12550D01*
G37*
G36*
G01X2476020Y6699120D02*
X2463460Y6686540D01*
X2485000Y6661820D01*
X2506540Y6686540D01*
X2493980Y6699120D01*
G03X2476020I-8980J-8980D01*
G37*
G36*
G01X2252530Y7002090D02*
X2235000Y7030000D01*
X2162630Y7017860D01*
X2115000Y7000000D01*
X2240000Y6987300D01*
G03X2252530Y7002090I0J12703D01*
G37*
G36*
G01X2385880Y6941020D02*
X2398460Y6928460D01*
X2423180Y6950000D01*
X2398460Y6971540D01*
X2385880Y6958980D01*
G03Y6941020I8980J-8980D01*
G37*
G36*
G01X2249840Y7066920D02*
X2235000Y7080000D01*
X2171820Y7065000D01*
X2235000Y7050000D01*
X2249840Y7063080D01*
G03Y7066920I-12550J1920D01*
G37*
G36*
G01X2327770Y7036030D02*
Y7018250D01*
X2360500Y7016000D01*
X2358250Y7048730D01*
X2340470D01*
G03X2327770Y7036030I0J-12700D01*
G37*
G36*
G01X2249840Y7116920D02*
X2235000Y7130000D01*
X2171820Y7115000D01*
X2235000Y7100000D01*
X2249840Y7113080D01*
G03Y7116920I-12550J1920D01*
G37*
G36*
G01X2320880Y7106020D02*
X2338460Y7088460D01*
X2363130Y7109480D01*
X2342410Y7134220D01*
X2324830Y7126660D01*
G03X2320880Y7106020I5030J-11661D01*
G37*
G36*
G01X2100160Y7163080D02*
X2115000Y7150000D01*
X2178180Y7165000D01*
X2115000Y7180000D01*
X2100160Y7166920D01*
G03Y7163080I12550J-1920D01*
G37*
G36*
G01X2089120Y7173980D02*
X2076540Y7186540D01*
X2051820Y7165000D01*
X2076540Y7143460D01*
X2089120Y7156020D01*
G03Y7173980I-8980J8980D01*
G37*
G36*
G01X2249840Y7366920D02*
X2235000Y7380000D01*
X2171820Y7365000D01*
X2235000Y7350000D01*
X2249840Y7363080D01*
G03Y7366920I-12550J1920D01*
G37*
G36*
G01Y7316920D02*
X2235000Y7330000D01*
X2171820Y7315000D01*
X2235000Y7300000D01*
X2249840Y7313080D01*
G03Y7316920I-12550J1920D01*
G37*
G36*
G01Y7266920D02*
X2235000Y7280000D01*
X2171820Y7265000D01*
X2235000Y7250000D01*
X2249840Y7263080D01*
G03Y7266920I-12550J1920D01*
G37*
G36*
G01X2100160Y7413080D02*
X2115000Y7400000D01*
X2178180Y7415000D01*
X2115000Y7430000D01*
X2100160Y7416920D01*
G03Y7413080I12550J-1920D01*
G37*
G36*
G01Y7463080D02*
X2115000Y7450000D01*
X2178180Y7465000D01*
X2115000Y7480000D01*
X2100160Y7466920D01*
G03Y7463080I12550J-1920D01*
G37*
G36*
G01X2249840Y7216920D02*
X2235000Y7230000D01*
X2171820Y7215000D01*
X2235000Y7200000D01*
X2249840Y7213080D01*
G03Y7216920I-12550J1920D01*
G37*
G36*
G01X2100160Y7713080D02*
X2115000Y7700000D01*
X2178180Y7715000D01*
X2115000Y7730000D01*
X2100160Y7716920D01*
G03Y7713080I12550J-1920D01*
G37*
G36*
G01X2183980Y7810880D02*
X2196540Y7823460D01*
X2175000Y7848180D01*
X2153460Y7823460D01*
X2166020Y7810880D01*
G03X2183980I8980J8980D01*
G37*
G36*
G01X2100160Y7763080D02*
X2115000Y7750000D01*
X2178180Y7765000D01*
X2115000Y7780000D01*
X2100160Y7766920D01*
G03Y7763080I12550J-1920D01*
G37*
G36*
G01X2167140Y7837260D02*
X2115000Y7780000D01*
X2175000Y7761820D01*
X2235000Y7780000D01*
X2182860Y7837260D01*
G03X2167140I-7860J-9970D01*
G37*
G36*
G01X2100160Y7513080D02*
X2115000Y7500000D01*
X2178180Y7515000D01*
X2115000Y7530000D01*
X2100160Y7516920D01*
G03Y7513080I12550J-1920D01*
G37*
G36*
G01X2312740Y7967140D02*
X2370000Y7915000D01*
X2388180Y7975000D01*
X2370000Y8035000D01*
X2312740Y7982860D01*
G03Y7967140I9970J-7860D01*
G37*
G36*
G01X2436920Y7900160D02*
X2450000Y7915000D01*
X2435000Y7978180D01*
X2420000Y7915000D01*
X2433080Y7900160D01*
G03X2436920I1920J12550D01*
G37*
G36*
G01X2486920D02*
X2500000Y7915000D01*
X2485000Y7978180D01*
X2470000Y7915000D01*
X2483080Y7900160D01*
G03X2486920I1920J12550D01*
G37*
G36*
G01X2485000Y7870140D02*
Y7845000D01*
X2501110Y7827030D01*
X2521540Y7851540D01*
X2493980Y7879120D01*
X2485000Y7870140D01*
G37*
G36*
G01X2533080Y8049840D02*
X2520000Y8035000D01*
X2535000Y7971820D01*
X2550000Y8035000D01*
X2536920Y8049840D01*
G03X2533080I-1920J-12550D01*
G37*
G36*
G01X2100160Y7663080D02*
X2115000Y7650000D01*
X2178180Y7665000D01*
X2115000Y7680000D01*
X2100160Y7666920D01*
G03Y7663080I12550J-1920D01*
G37*
G36*
G01X2249840Y7566920D02*
X2235000Y7580000D01*
X2171820Y7565000D01*
X2235000Y7550000D01*
X2249840Y7563080D01*
G03Y7566920I-12550J1920D01*
G37*
G36*
G01X2300480Y7892220D02*
Y7910000D01*
X2267750Y7912250D01*
X2270000Y7879520D01*
X2287780D01*
G03X2300480Y7892220I0J12700D01*
G37*
G36*
G01X2100160Y7613080D02*
X2115000Y7600000D01*
X2178180Y7615000D01*
X2115000Y7630000D01*
X2100160Y7616920D01*
G03Y7613080I12550J-1920D01*
G37*
G36*
G01X2052220Y8149520D02*
X2070000D01*
X2072250Y8182250D01*
X2039520Y8180000D01*
Y8162220D01*
G03X2052220Y8149520I12700J0D01*
G37*
G36*
G01X2643970Y2475330D02*
X2618750Y2445400D01*
X2650500Y2340620D01*
X2682250Y2445400D01*
X2657030Y2475330D01*
G03X2643970I-6530J-10890D01*
G37*
G36*
G01X2614600Y3009200D02*
X2682250Y3034600D01*
X2658960Y3160150D01*
X2618750Y3237800D01*
X2589210Y3035120D01*
G03X2614600Y3009200I25390J-525D01*
G37*
G36*
G01X2767150Y3143670D02*
X2682230Y3229430D01*
X2644160Y3136610D01*
X2679320Y3040240D01*
X2766170Y3114890D01*
G03X2767150Y3143670I-20421J15102D01*
G37*
G36*
G01X2954110Y3040760D02*
X2989520Y3084280D01*
X2943800Y3136350D01*
X2898080Y3084280D01*
X2933490Y3040760D01*
G03X2954110I10310J23210D01*
G37*
G36*
G01X2854560Y3119690D02*
X2898080Y3084280D01*
X2950150Y3130000D01*
X2898080Y3175720D01*
X2854560Y3140310D01*
G03Y3119690I23210J-10310D01*
G37*
G36*
G01X3216870Y3375770D02*
X3043440Y3549210D01*
Y6384740D01*
X3141560D01*
Y4328930D01*
G03X3224660Y4207880I58441J-48930D01*
G02X3251560Y4188650I6580J-19225D01*
G01Y3390140D01*
G02X3216870Y3375770I-20321J0D01*
G37*
G36*
G01X2727780Y3570480D02*
X2710000D01*
X2707750Y3537750D01*
X2740480Y3540000D01*
Y3557780D01*
G03X2727780Y3570480I-12700J0D01*
G37*
G36*
G01X2627780D02*
X2610000D01*
X2607750Y3537750D01*
X2640480Y3540000D01*
Y3557780D01*
G03X2627780Y3570480I-12700J0D01*
G37*
G36*
G01X2668980Y4245880D02*
X2681540Y4258460D01*
X2660000Y4283180D01*
X2638460Y4258460D01*
X2651020Y4245880D01*
G03X2668980I8980J8980D01*
G37*
G36*
G01X3086920Y6730160D02*
X3100000Y6745000D01*
X3085000Y6808180D01*
X3070000Y6745000D01*
X3083080Y6730160D01*
G03X3086920I1920J12550D01*
G37*
G36*
G01X3089520Y6697780D02*
Y6680000D01*
X3122250Y6677750D01*
X3120000Y6710480D01*
X3102220D01*
G03X3089520Y6697780I0J-12700D01*
G37*
G36*
G01X3062570Y6565230D02*
X3024280Y6521920D01*
X3070000Y6473020D01*
X3115720Y6521920D01*
X3077430Y6565230D01*
G03X3062570I-7430J-10300D01*
G37*
G36*
G01X3036920Y6730160D02*
X3050000Y6745000D01*
X3035000Y6808180D01*
X3020000Y6745000D01*
X3033080Y6730160D01*
G03X3036920I1920J12550D01*
G37*
G36*
G01X3039520Y6627780D02*
Y6610000D01*
X3072250Y6607750D01*
X3070000Y6640480D01*
X3052220D01*
G03X3039520Y6627780I0J-12700D01*
G37*
G36*
G01X3078980Y6575880D02*
X3091540Y6588460D01*
X3070000Y6613180D01*
X3048460Y6588460D01*
X3061020Y6575880D01*
G03X3078980I8980J8980D01*
G37*
G36*
G01X2986920Y6730160D02*
X3000000Y6745000D01*
X2985000Y6808180D01*
X2970000Y6745000D01*
X2983080Y6730160D01*
G03X2986920I1920J12550D01*
G37*
G36*
G01X2936920D02*
X2950000Y6745000D01*
X2935000Y6808180D01*
X2920000Y6745000D01*
X2933080Y6730160D01*
G03X2936920I1920J12550D01*
G37*
G36*
G01X2886920D02*
X2900000Y6745000D01*
X2885000Y6808180D01*
X2870000Y6745000D01*
X2883080Y6730160D01*
G03X2886920I1920J12550D01*
G37*
G36*
G01X2836920D02*
X2850000Y6745000D01*
X2835000Y6808180D01*
X2820000Y6745000D01*
X2833080Y6730160D01*
G03X2836920I1920J12550D01*
G37*
G36*
G01X2786920D02*
X2800000Y6745000D01*
X2785000Y6808180D01*
X2770000Y6745000D01*
X2783080Y6730160D01*
G03X2786920I1920J12550D01*
G37*
G36*
G01X2683080Y6879840D02*
X2670000Y6865000D01*
X2685000Y6801820D01*
X2700000Y6865000D01*
X2686920Y6879840D01*
G03X2683080I-1920J-12550D01*
G37*
G36*
G01X3025880Y6921020D02*
X3038460Y6908460D01*
X3063180Y6930000D01*
X3038460Y6951540D01*
X3025880Y6938980D01*
G03Y6921020I8980J-8980D01*
G37*
G36*
G01X2633080Y6879840D02*
X2620000Y6865000D01*
X2635000Y6801820D01*
X2650000Y6865000D01*
X2636920Y6879840D01*
G03X2633080I-1920J-12550D01*
G37*
G36*
G01X2586920Y6730160D02*
X2600000Y6745000D01*
X2585000Y6808180D01*
X2570000Y6745000D01*
X2583080Y6730160D01*
G03X2586920I1920J12550D01*
G37*
G36*
G01X2583080Y6879840D02*
X2570000Y6865000D01*
X2585000Y6801820D01*
X2600000Y6865000D01*
X2586920Y6879840D01*
G03X2583080I-1920J-12550D01*
G37*
G36*
G01X2736920Y6730160D02*
X2750000Y6745000D01*
X2735000Y6808180D01*
X2720000Y6745000D01*
X2733080Y6730160D01*
G03X2736920I1920J12550D01*
G37*
G36*
G01X2906110Y7634030D02*
G03X2945000Y7648480I-6100J75974D01*
G03X3030460Y7645400I45003J61519D01*
G02X3061560Y7628180I10782J-17222D01*
G01Y7108440D01*
X2924170D01*
G02X2904350Y7133230I3J20320D01*
G03X2891520Y7195000I-74351J16774D01*
G03X2888770Y7288530I-61520J44997D01*
G02Y7301470I7837J6470D01*
G03X2887530Y7400000I-58770J48533D01*
G03X2891520Y7495000I-57529J50000D01*
G03Y7585000I-61520J45000D01*
G03X2906110Y7634030I-61522J44993D01*
G37*
G36*
G01X2812220Y7419520D02*
X2830000D01*
X2832250Y7452250D01*
X2799520Y7450000D01*
Y7432220D01*
G03X2812220Y7419520I12700J0D01*
G37*
G36*
G01Y7319520D02*
X2830000D01*
X2832250Y7352250D01*
X2799520Y7350000D01*
Y7332220D01*
G03X2812220Y7319520I12700J0D01*
G37*
G36*
G01X2799520Y7167780D02*
Y7150000D01*
X2832250Y7147750D01*
X2830000Y7180480D01*
X2812220D01*
G03X2799520Y7167780I0J-12700D01*
G37*
G36*
G01X3086920Y7900160D02*
X3100000Y7915000D01*
X3085000Y7978180D01*
X3070000Y7915000D01*
X3083080Y7900160D01*
G03X3086920I1920J12550D01*
G37*
G36*
G01X2783080Y8049840D02*
X2770000Y8035000D01*
X2785000Y7971820D01*
X2800000Y8035000D01*
X2786920Y8049840D01*
G03X2783080I-1920J-12550D01*
G37*
G36*
G01X2833080D02*
X2820000Y8035000D01*
X2835000Y7971820D01*
X2850000Y8035000D01*
X2836920Y8049840D01*
G03X2833080I-1920J-12550D01*
G37*
G36*
G01X2883080D02*
X2870000Y8035000D01*
X2885000Y7971820D01*
X2900000Y8035000D01*
X2886920Y8049840D01*
G03X2883080I-1920J-12550D01*
G37*
G36*
G01X2986920Y7900160D02*
X3000000Y7915000D01*
X2985000Y7978180D01*
X2970000Y7915000D01*
X2983080Y7900160D01*
G03X2986920I1920J12550D01*
G37*
G36*
G01X2911550Y7748850D02*
X2893780Y7738840D01*
X2898290Y7707330D01*
X2930480Y7710000D01*
Y7737780D01*
G03X2911550Y7748850I-12702J0D01*
G37*
G36*
G01X3036920Y7900160D02*
X3050000Y7915000D01*
X3035000Y7978180D01*
X3020000Y7915000D01*
X3033080Y7900160D01*
G03X3036920I1920J12550D01*
G37*
G36*
G01X3007780Y7740480D02*
X2990000D01*
X2987750Y7707750D01*
X3020480Y7710000D01*
Y7727780D01*
G03X3007780Y7740480I-12700J0D01*
G37*
G36*
G01X2583080Y8049840D02*
X2570000Y8035000D01*
X2585000Y7971820D01*
X2600000Y8035000D01*
X2586920Y8049840D01*
G03X2583080I-1920J-12550D01*
G37*
G36*
G01X2926020Y7889120D02*
X2898460Y7861540D01*
X2918890Y7837030D01*
X2935000Y7855000D01*
Y7880140D01*
X2926020Y7889120D01*
G37*
G36*
G01X2936920Y7900160D02*
X2950000Y7915000D01*
X2935000Y7978180D01*
X2920000Y7915000D01*
X2933080Y7900160D01*
G03X2936920I1920J12550D01*
G37*
G36*
G01X2799520Y7557780D02*
Y7540000D01*
X2832250Y7537750D01*
X2830000Y7570480D01*
X2812220D01*
G03X2799520Y7557780I0J-12700D01*
G37*
G36*
G01X2686920Y7900160D02*
X2700000Y7915000D01*
X2685000Y7978180D01*
X2670000Y7915000D01*
X2683080Y7900160D01*
G03X2686920I1920J12550D01*
G37*
G36*
G01X2799520Y7647780D02*
Y7630000D01*
X2832250Y7627750D01*
X2830000Y7660480D01*
X2812220D01*
G03X2799520Y7647780I0J-12700D01*
G37*
G36*
G01X2736920Y7900160D02*
X2750000Y7915000D01*
X2735000Y7978180D01*
X2720000Y7915000D01*
X2733080Y7900160D01*
G03X2736920I1920J12550D01*
G37*
G36*
G01X2633080Y8049840D02*
X2620000Y8035000D01*
X2635000Y7971820D01*
X2650000Y8035000D01*
X2636920Y8049840D01*
G03X2633080I-1920J-12550D01*
G37*
G36*
G01X3133490Y8349240D02*
X3098080Y8305720D01*
X3143800Y8253650D01*
X3189520Y8305720D01*
X3154110Y8349240D01*
G03X3133490I-10310J-23210D01*
G37*
G36*
G01X3054560Y8249690D02*
X3098080Y8214280D01*
X3150150Y8260000D01*
X3098080Y8305720D01*
X3054560Y8270310D01*
G03Y8249690I23210J-10310D01*
G37*
G36*
G01X3142730Y8162390D02*
X3189520Y8214280D01*
X3144120Y8263160D01*
X3098080Y8214280D01*
X3125480Y8164060D01*
G03X3142730Y8162390I9520J8409D01*
G37*
G36*
G01X2780480Y8137410D02*
Y8160000D01*
X2748040Y8162490D01*
X2746690Y8129970D01*
X2764460Y8125150D01*
G03X2780480Y8137410I3319J12260D01*
G37*
G36*
G01X2843980Y8125880D02*
X2856540Y8138460D01*
X2835000Y8163180D01*
X2813460Y8138460D01*
X2826020Y8125880D01*
G03X2843980I8980J8980D01*
G37*
G36*
G01X2908450Y8121150D02*
X2926220Y8131160D01*
X2921710Y8162670D01*
X2889520Y8160000D01*
Y8132220D01*
G03X2908450Y8121150I12702J0D01*
G37*
G36*
G01X2630480Y8152220D02*
Y8170000D01*
X2597750Y8172250D01*
X2600000Y8139520D01*
X2617780D01*
G03X2630480Y8152220I0J12700D01*
G37*
G36*
G01X2711230Y9200970D02*
X2749520Y9244280D01*
X2703800Y9293180D01*
X2658080Y9244280D01*
X2696370Y9200970D01*
G03X2711230I7430J10300D01*
G37*
G36*
G01X3082290Y9352100D02*
X3127600Y9402500D01*
X3074600Y9438180D01*
X3021600Y9402500D01*
X3066910Y9352100D01*
G03X3082290I7690J10110D01*
G37*
G36*
G01X2696370Y9529030D02*
X2658080Y9485720D01*
X2703800Y9436820D01*
X2749520Y9485720D01*
X2711230Y9529030D01*
G03X2696370I-7430J-10300D01*
G37*
G36*
G01X2711230Y9500970D02*
X2749520Y9544280D01*
X2703800Y9593180D01*
X2658080Y9544280D01*
X2696370Y9500970D01*
G03X2711230I7430J10300D01*
G37*
G36*
G01X2863630Y9350970D02*
X2901920Y9394280D01*
X2856200Y9443180D01*
X2810480Y9394280D01*
X2848770Y9350970D01*
G03X2863630I7430J10300D01*
G37*
G36*
G01X3008700Y9579800D02*
X3127600Y9592500D01*
X3077450Y9626400D01*
X3021600Y9657500D01*
X2996240Y9594970D01*
G03X3008700Y9579800I12460J-2468D01*
G37*
G36*
G01X2848770Y9379030D02*
X2810480Y9335720D01*
X2856200Y9286820D01*
X2901920Y9335720D01*
X2863630Y9379030D01*
G03X2848770I-7430J-10300D01*
G37*
G36*
G01X4393860Y3898610D02*
Y2750080D01*
G03X4244920Y2601140I71140J-220080D01*
G01X3435080D01*
G03X3213150Y2761280I-220077J-71142D01*
G02X3198620Y2795970I-164J20319D01*
G01X3368440Y2965790D01*
Y5976940D01*
G02X3386400Y5983450I10161J-2D01*
G01X3398860Y5968530D01*
Y5360530D01*
X3578860Y5180530D01*
Y4380530D01*
X3790530Y4168860D01*
X4342580D01*
X4344250Y4168260D01*
G03X4395750I25750J71740D01*
G01X4397420Y4168860D01*
X4556620D01*
Y4061370D01*
X4393860Y3898610D01*
G37*
G36*
G01X3191020Y4314120D02*
X3178460Y4301540D01*
X3200000Y4276820D01*
X3221540Y4301540D01*
X3208980Y4314120D01*
G03X3191020I-8980J-8980D01*
G37*
G36*
G01X3605100Y5254900D02*
X3650000Y5210000D01*
X3698360Y5280300D01*
X3605100D01*
Y5254900D01*
G37*
G36*
G01X3541140Y5419470D02*
Y5968530D01*
X3575430Y6009580D01*
Y6188710D01*
X3748860D01*
Y5409470D01*
X3665430Y5326040D01*
X3634570D01*
X3541140Y5419470D01*
G37*
G36*
G01X3482650Y5969860D02*
X3529690Y6026170D01*
X3470000Y6092210D01*
X3410310Y6026170D01*
X3457350Y5969860D01*
G03X3482650I12650J22030D01*
G37*
G36*
G01X3645140Y6423580D02*
X3620310Y6353830D01*
X3680600Y6291020D01*
X3737660Y6353810D01*
X3664010Y6427350D01*
G03X3645140Y6423580I-7810J-10018D01*
G37*
G36*
G01X3495990Y6427350D02*
X3422340Y6353810D01*
X3469160Y6291080D01*
X3528740Y6343330D01*
X3515830Y6421390D01*
G03X3495990Y6427350I-12034J-4058D01*
G37*
G36*
G01X3648770Y6589030D02*
X3610480Y6545720D01*
X3656200Y6496820D01*
X3701920Y6545720D01*
X3663630Y6589030D01*
G03X3648770I-7430J-10300D01*
G37*
G36*
G01X3663630Y6410970D02*
X3701920Y6454280D01*
X3656200Y6503180D01*
X3610480Y6454280D01*
X3648770Y6410970D01*
G03X3663630I7430J10300D01*
G37*
G36*
G01X3511230D02*
X3549520Y6454280D01*
X3503800Y6503180D01*
X3458080Y6454280D01*
X3496370Y6410970D01*
G03X3511230I7430J10300D01*
G37*
G36*
G01X3208540Y6841640D02*
X3195980Y6829060D01*
X3217520Y6804340D01*
X3239060Y6829060D01*
X3226500Y6841640D01*
G03X3208540I-8980J-8980D01*
G37*
G36*
G01X4821560Y6024610D02*
G02X4786490Y6010640I-20319J4D01*
G01X4778440Y6019130D01*
Y6604210D01*
X4374210Y7008440D01*
X4014210D01*
X3600770Y7421870D01*
G02X3615140Y7456560I14370J14369D01*
G01X3670790D01*
X3821990Y7305360D01*
X3949610D01*
X3968540Y7288630D01*
X3954740Y7273160D01*
Y7118540D01*
X4109240D01*
X4146590Y7151560D01*
X4162890D01*
X4189260Y7143120D01*
Y7114260D01*
X4530740D01*
Y7385740D01*
X4189260D01*
Y7310390D01*
X4147010Y7268060D01*
X4127670Y7285160D01*
X4141460Y7300760D01*
Y7575200D01*
X4132120Y7589930D01*
X4151700Y7607240D01*
X4189260Y7569610D01*
Y7494260D01*
X4530740D01*
Y7765740D01*
X4189260D01*
Y7736880D01*
X4162890Y7728440D01*
X4156590D01*
X4119240Y7761460D01*
X3964740D01*
Y7606960D01*
X3974140Y7596330D01*
X3949610Y7574640D01*
X3798010D01*
X3749210Y7623440D01*
X3612620D01*
G02X3598250Y7658130I0J20321D01*
G01X3851690Y7911560D01*
X3941990D01*
X3964740Y7888810D01*
Y7788540D01*
X4119240D01*
X4156590Y7821560D01*
X4206820D01*
X4260950Y7799260D01*
X4495740D01*
Y7990740D01*
X4252200D01*
X4195180Y7938440D01*
X4156590D01*
X4119240Y7971460D01*
X4047390D01*
X3998850Y8020000D01*
X4047390Y8068540D01*
X4119240D01*
X4156590Y8101560D01*
X4195180D01*
X4252200Y8049260D01*
X4495740D01*
Y8240740D01*
X4260950D01*
X4206820Y8218440D01*
X4156590D01*
X4148020Y8226020D01*
G02X4161480Y8261560I13460J15221D01*
G01X4595790D01*
X4821560Y8035790D01*
Y6024610D01*
G37*
G36*
G01X3419840Y7366920D02*
X3405000Y7380000D01*
X3341820Y7365000D01*
X3405000Y7350000D01*
X3419840Y7363080D01*
G03Y7366920I-12550J1920D01*
G37*
G36*
G01Y7316920D02*
X3405000Y7330000D01*
X3341820Y7315000D01*
X3405000Y7300000D01*
X3419840Y7313080D01*
G03Y7316920I-12550J1920D01*
G37*
G36*
G01Y7416920D02*
X3405000Y7430000D01*
X3341820Y7415000D01*
X3405000Y7400000D01*
X3419840Y7413080D01*
G03Y7416920I-12550J1920D01*
G37*
G36*
G01Y7266920D02*
X3405000Y7280000D01*
X3341820Y7265000D01*
X3405000Y7250000D01*
X3419840Y7263080D01*
G03Y7266920I-12550J1920D01*
G37*
G36*
G01Y7116920D02*
X3405000Y7130000D01*
X3341820Y7115000D01*
X3405000Y7100000D01*
X3419840Y7113080D01*
G03Y7116920I-12550J1920D01*
G37*
G36*
G01Y7216920D02*
X3405000Y7230000D01*
X3341820Y7215000D01*
X3405000Y7200000D01*
X3419840Y7213080D01*
G03Y7216920I-12550J1920D01*
G37*
G36*
G01Y7166920D02*
X3405000Y7180000D01*
X3341820Y7165000D01*
X3405000Y7150000D01*
X3419840Y7163080D01*
G03Y7166920I-12550J1920D01*
G37*
G36*
G01X3270160Y7463080D02*
X3285000Y7450000D01*
X3348180Y7465000D01*
X3285000Y7480000D01*
X3270160Y7466920D01*
G03Y7463080I12550J-1920D01*
G37*
G36*
G01X3264120Y7473980D02*
X3251540Y7486540D01*
X3226820Y7465000D01*
X3251540Y7443460D01*
X3264120Y7456020D01*
G03Y7473980I-8980J8980D01*
G37*
G36*
G01X3419840Y7066920D02*
X3405000Y7080000D01*
X3341820Y7065000D01*
X3405000Y7050000D01*
X3419840Y7063080D01*
G03Y7066920I-12550J1920D01*
G37*
G36*
G01X3270160Y7013080D02*
X3285000Y7000000D01*
X3348180Y7015000D01*
X3285000Y7030000D01*
X3270160Y7016920D01*
G03Y7013080I12550J-1920D01*
G37*
G36*
G01X3545330Y7827980D02*
G02X3511820Y7835540I-14367J14366D01*
G03X3453030Y7885100I-71816J-25541D01*
G02X3442130Y7919490I3470J20022D01*
G01X3784210Y8261560D01*
X3964740D01*
Y8151190D01*
X3941990Y8128440D01*
X3845790D01*
X3545330Y7827980D01*
G37*
G36*
G01X3133080Y8049840D02*
X3120000Y8035000D01*
X3135000Y7971820D01*
X3150000Y8035000D01*
X3136920Y8049840D01*
G03X3133080I-1920J-12550D01*
G37*
G36*
G01X3270160Y7713080D02*
X3285000Y7700000D01*
X3348180Y7715000D01*
X3285000Y7730000D01*
X3270160Y7716920D01*
G03Y7713080I12550J-1920D01*
G37*
G36*
G01X3410000Y7792700D02*
X3285000Y7780000D01*
X3332630Y7762140D01*
X3405000Y7750000D01*
X3422530Y7777910D01*
G03X3410000Y7792700I-12530J2087D01*
G37*
G36*
G01X3422220Y7779520D02*
X3440000D01*
X3442250Y7812250D01*
X3409520Y7810000D01*
Y7792220D01*
G03X3422220Y7779520I12700J0D01*
G37*
G36*
G01X3419840Y7666920D02*
X3405000Y7680000D01*
X3341820Y7665000D01*
X3405000Y7650000D01*
X3419840Y7663080D01*
G03Y7666920I-12550J1920D01*
G37*
G36*
G01Y7566920D02*
X3405000Y7580000D01*
X3341820Y7565000D01*
X3405000Y7550000D01*
X3419840Y7563080D01*
G03Y7566920I-12550J1920D01*
G37*
G36*
G01Y7516920D02*
X3405000Y7530000D01*
X3341820Y7515000D01*
X3405000Y7500000D01*
X3419840Y7513080D01*
G03Y7516920I-12550J1920D01*
G37*
G36*
G01Y7616920D02*
X3405000Y7630000D01*
X3341820Y7615000D01*
X3405000Y7600000D01*
X3419840Y7613080D01*
G03Y7616920I-12550J1920D01*
G37*
G36*
G01X3143800Y8439020D02*
Y8446200D01*
X3137920Y8456000D01*
X3118460Y8428460D01*
X3125840Y8421060D01*
X3143800Y8439020D01*
G37*
G36*
G01X3270000Y8660000D02*
X3240000Y8690000D01*
Y9290000D01*
X3270000D01*
X3290000Y9310000D01*
Y9451760D01*
X3315220D01*
X3316890Y9451150D01*
G03X3345400Y9446160I28493J78853D01*
G01X3493840D01*
X3500000Y9440000D01*
Y8970000D01*
X3550000Y8920000D01*
X3810000D01*
X3840000Y8890000D01*
Y8680000D01*
X3820000Y8660000D01*
X3270000D01*
G37*
G36*
G01X3279700Y9667600D02*
X3292400Y9592500D01*
X3347870Y9623010D01*
X3398400Y9657500D01*
X3293600Y9680240D01*
G03X3279700Y9667600I-1203J-12640D01*
G37*
G36*
G01X3354770Y9792570D02*
X3398080Y9754280D01*
X3446980Y9800000D01*
X3398080Y9845720D01*
X3354770Y9807430D01*
G03Y9792570I10300J-7430D01*
G37*
G36*
G01X3293630Y9710970D02*
X3331920Y9754280D01*
X3286200Y9803180D01*
X3240480Y9754280D01*
X3278770Y9710970D01*
G03X3293630I7430J10300D01*
G37*
G36*
G01X3375230Y9807430D02*
X3331920Y9845720D01*
X3283020Y9800000D01*
X3331920Y9754280D01*
X3375230Y9792570D01*
G03Y9807430I-10300J7430D01*
G37*
G36*
G01X4845330Y3991140D02*
X4775100Y4061370D01*
Y4134190D01*
X4774770Y4145190D01*
Y4155730D01*
X4795090Y4180700D01*
Y4334140D01*
X4641610D01*
X4613440Y4311140D01*
X4397420D01*
X4395750Y4311740D01*
G03X4344250I-25750J-71740D01*
G01X4342580Y4311140D01*
X3849470D01*
X3721140Y4439470D01*
Y5180530D01*
X3838980Y5298370D01*
X4055790Y5081560D01*
X4505830D01*
G02X4525650Y5056770I-3J-20320D01*
G03X4552010Y4980790I74351J-16768D01*
G02Y4949210I-12796J-15790D01*
G03Y4830790I47990J-59210D01*
G02Y4799210I-12796J-15790D01*
G03Y4680790I47990J-59210D01*
G02Y4649210I-12796J-15790D01*
G03X4615290Y4515330I47994J-59210D01*
G01X4620000Y4516290D01*
X4641820Y4498540D01*
X4947660D01*
Y4651980D01*
X4937060Y4665000D01*
X4947660Y4678020D01*
Y4801980D01*
X4937060Y4815000D01*
X4947660Y4828020D01*
Y4951980D01*
X4947410Y4952290D01*
G02X4955290Y4968860I7880J6411D01*
G01X5131500D01*
X5165350Y4950460D01*
X5288760D01*
Y5081560D01*
X5544210D01*
X5618440Y5155790D01*
Y5384210D01*
X5611130Y5391520D01*
G02X5618310Y5408860I7186J7181D01*
G01X8761540D01*
Y5259960D01*
X8806140Y5207720D01*
Y4116750D01*
X8680530Y3991140D01*
X4845330D01*
G37*
G36*
G01X4434740Y5368020D02*
X4449400Y5350000D01*
X4434740Y5331980D01*
Y5239080D01*
X4134210D01*
X3998440Y5374850D01*
Y6841560D01*
X4305790D01*
X4441560Y6705790D01*
Y6180410D01*
X4432610Y6171460D01*
X4391140D01*
Y6332580D01*
X4391740Y6334250D01*
G03X4248260I-71740J25750D01*
G01X4248860Y6332580D01*
Y5606730D01*
X4434740Y5420850D01*
Y5368020D01*
G37*
G36*
G01X4057430Y7274770D02*
X4095720Y7318080D01*
X4050000Y7366980D01*
X4004280Y7318080D01*
X4042570Y7274770D01*
G03X4057430I7430J10300D01*
G37*
G36*
G01X3960970Y7356370D02*
X4004280Y7318080D01*
X4053180Y7363800D01*
X4004280Y7409520D01*
X3960970Y7371230D01*
G03Y7356370I10300J-7430D01*
G37*
G36*
G01X4135230Y7217430D02*
X4091920Y7255720D01*
X4043020Y7210000D01*
X4091920Y7164280D01*
X4135230Y7202570D01*
G03Y7217430I-10300J7430D01*
G37*
G36*
G01X4042420Y7302720D02*
X4000480Y7255720D01*
X4046050Y7206830D01*
X4091920Y7255720D01*
X4058380Y7302070D01*
G03X4042420Y7302720I-8382J-9540D01*
G37*
G36*
G01X4165790Y7198660D02*
X4243260Y7173850D01*
X4363110Y7250660D01*
X4235000Y7291470D01*
X4161480Y7217810D01*
G03X4165790Y7198660I10019J-7805D01*
G37*
G36*
G01X4048550Y7611260D02*
X4004280Y7561920D01*
X4049770Y7513030D01*
X4095720Y7561920D01*
X4065140Y7610150D01*
G03X4048550Y7611260I-8936J-9022D01*
G37*
G36*
G01X3960970Y7508770D02*
X4004280Y7470480D01*
X4053180Y7516200D01*
X4004280Y7561920D01*
X3960970Y7523630D01*
G03Y7508770I10300J-7430D01*
G37*
G36*
G01X4145230Y7677430D02*
X4101920Y7715720D01*
X4053020Y7670000D01*
X4101920Y7624280D01*
X4145230Y7662570D01*
G03Y7677430I-10300J7430D01*
G37*
G36*
G01X4063630Y7580970D02*
X4101920Y7624280D01*
X4056200Y7673180D01*
X4010480Y7624280D01*
X4048770Y7580970D01*
G03X4063630I7430J10300D01*
G37*
G36*
G01X4161480Y7662190D02*
X4235000Y7588530D01*
X4363110Y7629340D01*
X4243260Y7706150D01*
X4165790Y7681340D01*
G03X4161480Y7662190I5709J-11345D01*
G37*
G36*
G01X4145230Y7887430D02*
X4101920Y7925720D01*
X4053020Y7880000D01*
X4101920Y7834280D01*
X4145230Y7872570D01*
G03Y7887430I-10300J7430D01*
G37*
G36*
G01Y8167430D02*
X4101920Y8205720D01*
X4053020Y8160000D01*
X4101920Y8114280D01*
X4145230Y8152570D01*
G03Y8167430I-10300J7430D01*
G37*
G36*
G01X4177950Y8508670D02*
X4198580Y8491910D01*
X4242400Y8513500D01*
X4198580Y8535090D01*
X4177950Y8518330D01*
G03Y8508670I11750J-4830D01*
G37*
G36*
G01X3959510D02*
X3980140Y8491910D01*
X4023960Y8513500D01*
X3980140Y8535090D01*
X3959510Y8518330D01*
G03Y8508670I11750J-4830D01*
G37*
G36*
G01X4082050Y8518330D02*
X4061420Y8535090D01*
X4017600Y8513500D01*
X4061420Y8491910D01*
X4082050Y8508670D01*
G03Y8518330I-11750J4830D01*
G37*
G36*
G01X4177950Y8381670D02*
X4198580Y8364910D01*
X4242400Y8386500D01*
X4198580Y8408090D01*
X4177950Y8391330D01*
G03Y8381670I11750J-4830D01*
G37*
G36*
G01X3959510D02*
X3980140Y8364910D01*
X4023960Y8386500D01*
X3980140Y8408090D01*
X3959510Y8391330D01*
G03Y8381670I11750J-4830D01*
G37*
G36*
G01X4082050Y8391330D02*
X4061420Y8408090D01*
X4017600Y8386500D01*
X4061420Y8364910D01*
X4082050Y8381670D01*
G03Y8391330I-11750J4830D01*
G37*
G36*
G01X4204050Y8718980D02*
X4186520Y8736510D01*
X4156820Y8710000D01*
X4186520Y8683490D01*
X4204050Y8701020D01*
G03Y8718980I-8980J8980D01*
G37*
G36*
G01X4713940Y4153440D02*
X4749350Y4196960D01*
X4703630Y4249030D01*
X4657910Y4196960D01*
X4693320Y4153440D01*
G03X4713940I10310J23210D01*
G37*
G36*
G01X4689960Y4218410D02*
X4604200Y4133500D01*
X4664050Y4063910D01*
X4729360Y4133500D01*
X4727170Y4206540D01*
G03X4689960Y4218410I-23541J-9539D01*
G37*
G36*
G01X4612520Y4228030D02*
X4657910Y4196960D01*
X4709980Y4242930D01*
X4657910Y4288400D01*
X4611980Y4250900D01*
G03X4612520Y4228030I22941J-10900D01*
G37*
G36*
G01X4614560Y4729690D02*
X4658080Y4694280D01*
X4710150Y4740000D01*
X4658080Y4785720D01*
X4614560Y4750310D01*
G03Y4729690I23210J-10310D01*
G37*
G36*
G01Y4579690D02*
X4658080Y4544280D01*
X4710150Y4590000D01*
X4658080Y4635720D01*
X4614560Y4600310D01*
G03Y4579690I23210J-10310D01*
G37*
G36*
G01Y5259690D02*
X4658080Y5224280D01*
X4710150Y5270000D01*
X4658080Y5315720D01*
X4614560Y5280310D01*
G03Y5259690I23210J-10310D01*
G37*
G36*
G01X4712100Y5374870D02*
X4658080Y5315720D01*
X4703270Y5266870D01*
X4749520Y5315720D01*
X4730890Y5371460D01*
G03X4712100Y5374870I-10890J-6531D01*
G37*
G36*
G01X4515890Y5359240D02*
X4480480Y5315720D01*
X4526200Y5263650D01*
X4571920Y5315720D01*
X4536510Y5359240D01*
G03X4515890I-10310J-23210D01*
G37*
G36*
G01X4615440Y5280310D02*
X4571920Y5315720D01*
X4519850Y5270000D01*
X4571920Y5224280D01*
X4615440Y5259690D01*
G03Y5280310I-23210J10310D01*
G37*
G36*
G01X4614560Y4879690D02*
X4658080Y4844280D01*
X4710150Y4890000D01*
X4658080Y4935720D01*
X4614560Y4900310D01*
G03Y4879690I23210J-10310D01*
G37*
G36*
G01Y5029690D02*
X4658080Y4994280D01*
X4710150Y5040000D01*
X4658080Y5085720D01*
X4614560Y5050310D01*
G03Y5029690I23210J-10310D01*
G37*
G36*
G01X4812340Y5529420D02*
X4797500Y5542500D01*
X4716820Y5527500D01*
X4797500Y5512500D01*
X4812340Y5525580D01*
G03Y5529420I-12550J1920D01*
G37*
G36*
G01X4728050Y5374180D02*
X4797500Y5447500D01*
X4720000Y5465680D01*
X4642500Y5447500D01*
X4711950Y5374180D01*
G03X4728050I8050J9820D01*
G37*
G36*
G01X4815350Y5462830D02*
X4797500Y5477500D01*
X4707310Y5463020D01*
X4642500Y5447500D01*
X4804130Y5446400D01*
G03X4815350Y5462830I-911J12668D01*
G37*
G36*
G01X4536510Y5340760D02*
X4571920Y5384280D01*
X4526200Y5436350D01*
X4480480Y5384280D01*
X4515890Y5340760D01*
G03X4536510I10310J23210D01*
G37*
G36*
G01X4627660Y5590580D02*
X4642500Y5577500D01*
X4723180Y5592500D01*
X4642500Y5607500D01*
X4627660Y5594420D01*
G03Y5590580I12550J-1920D01*
G37*
G36*
G01X4812340Y5659420D02*
X4797500Y5672500D01*
X4716820Y5657500D01*
X4797500Y5642500D01*
X4812340Y5655580D01*
G03Y5659420I-12550J1920D01*
G37*
G36*
G01Y5789420D02*
X4797500Y5802500D01*
X4716820Y5787500D01*
X4797500Y5772500D01*
X4812340Y5785580D01*
G03Y5789420I-12550J1920D01*
G37*
G36*
G01X4568880Y6172670D02*
X4530480Y6125720D01*
X4575850Y6073660D01*
X4621920Y6125720D01*
X4592660Y6171850D01*
G03X4568880Y6172670I-12663J-22019D01*
G37*
G36*
G01X4812340Y5854420D02*
X4797500Y5867500D01*
X4716820Y5852500D01*
X4797500Y5837500D01*
X4812340Y5850580D01*
G03Y5854420I-12550J1920D01*
G37*
G36*
G01X4431230Y5990970D02*
X4469520Y6034280D01*
X4423800Y6083180D01*
X4378080Y6034280D01*
X4416370Y5990970D01*
G03X4431230I7430J10300D01*
G37*
G36*
G01X4711950Y6005820D02*
X4642500Y5932500D01*
X4720000Y5914320D01*
X4797500Y5932500D01*
X4728050Y6005820D01*
G03X4711950I-8050J-9820D01*
G37*
G36*
G01X4210650Y7869450D02*
X4270000Y7845000D01*
X4363160Y7895330D01*
X4270000Y7945000D01*
X4207810Y7887960D01*
G03X4210650Y7869450I9900J-7954D01*
G37*
G36*
G01X4661460Y8772340D02*
Y8949870D01*
X4670390Y8957760D01*
X4679610D01*
X4688540Y8949870D01*
Y8800760D01*
X4702660Y8784790D01*
X4692340Y8770530D01*
Y8636040D01*
X4635860Y8625470D01*
Y8476760D01*
X4828040D01*
X4839110Y8566460D01*
X4842240Y8569590D01*
Y8609610D01*
X4852390Y8621090D01*
G02X4867610I7610J-6730D01*
G01X4877760Y8609610D01*
Y8579590D01*
X4898760Y8558600D01*
X4914730Y8476730D01*
G02X4933950Y8455080I-1054J-20292D01*
G03X4933780Y8450280I76049J-5096D01*
G01X4933770Y8446630D01*
X4906660Y8414030D01*
Y8286760D01*
X5075200D01*
X5083560Y8293860D01*
X5139430D01*
X5165730Y8278540D01*
X5214650D01*
X5238860Y8254330D01*
Y6387420D01*
X5238260Y6385750D01*
G03Y6334250I71740J-25750D01*
G01X5238860Y6332580D01*
Y6213270D01*
X5197050Y6171460D01*
X5145260D01*
Y6321460D01*
X4962340D01*
Y6166960D01*
X4972910Y6155000D01*
X4962340Y6143040D01*
Y6019470D01*
X4981240Y5993350D01*
X4979170Y5988160D01*
G03X5124210Y5977410I70832J-28156D01*
G01X5122820Y5983320D01*
X5134980Y5994070D01*
X5147760Y5979610D01*
Y5944050D01*
G03Y5943550I58438J-250D01*
G01Y5919590D01*
X5153320Y5914030D01*
X5156760Y5897730D01*
Y5596760D01*
X5160000D01*
Y5468440D01*
X5124210D01*
X5098440Y5494210D01*
Y5724210D01*
X4976710Y5845940D01*
X4943110D01*
G02X4935930Y5863280I6J10159D01*
G01X4938440Y5865790D01*
Y8084210D01*
X4770570Y8252070D01*
G02X4784940Y8286760I14370J14369D01*
G01X4833340D01*
Y8443240D01*
X4664860D01*
X4641430Y8423440D01*
X4620180D01*
X4617670Y8429940D01*
G03X4480070Y8457770I-77670J-29940D01*
G01X4480000Y8457700D01*
X4467230Y8444940D01*
X4446640D01*
G02X4432270Y8479630I0J20321D01*
G01X4472240Y8519590D01*
Y8609610D01*
X4505260Y8646960D01*
Y8772340D01*
X4661460D01*
G37*
G36*
G01X4300490Y8454830D02*
X4279860Y8471590D01*
X4236040Y8450000D01*
X4279860Y8428410D01*
X4300490Y8445170D01*
G03Y8454830I-11750J4830D01*
G37*
G36*
G01X4207810Y8152040D02*
X4270000Y8095000D01*
X4363160Y8144670D01*
X4270000Y8195000D01*
X4210650Y8170550D01*
G03X4207810Y8152040I7060J-10556D01*
G37*
G36*
G01X4783020Y8606480D02*
X4681600Y8587500D01*
X4732110Y8553030D01*
X4787600Y8522500D01*
X4796480Y8594480D01*
G03X4783020Y8606480I-12683J-677D01*
G37*
G36*
G01X4300490Y8518330D02*
X4279860Y8535090D01*
X4236040Y8513500D01*
X4279860Y8491910D01*
X4300490Y8508670D01*
G03Y8518330I-11750J4830D01*
G37*
G36*
G01Y8391330D02*
X4279860Y8408090D01*
X4236040Y8386500D01*
X4279860Y8364910D01*
X4300490Y8381670D01*
G03Y8391330I-11750J4830D01*
G37*
G36*
G01X4577500Y8375200D02*
Y8400000D01*
X4537750Y8402250D01*
X4540000Y8362500D01*
X4564800D01*
G03X4577500Y8375200I0J12700D01*
G37*
G36*
G01X4489790Y8373910D02*
X4520820Y8369880D01*
X4543060Y8400850D01*
X4513490Y8426500D01*
X4482450Y8395480D01*
G03X4489790Y8373910I8981J-8978D01*
G37*
G36*
G01X4650960Y8358390D02*
X4681600Y8332500D01*
X4737780Y8365000D01*
X4681600Y8397500D01*
X4650960Y8371610D01*
G03Y8358390I10850J-6610D01*
G37*
G36*
G01X4791230Y8620970D02*
X4829520Y8664280D01*
X4783800Y8713180D01*
X4738080Y8664280D01*
X4776370Y8620970D01*
G03X4791230I7430J10300D01*
G37*
G36*
G01X4771620Y8802070D02*
X4738080Y8755720D01*
X4783950Y8706830D01*
X4829520Y8755720D01*
X4787580Y8802720D01*
G03X4771620Y8802070I-7578J-10190D01*
G37*
G36*
G01X4787430Y8774770D02*
X4825720Y8818080D01*
X4780000Y8866980D01*
X4734280Y8818080D01*
X4772570Y8774770D01*
G03X4787430I7430J10300D01*
G37*
G36*
G01X4427430D02*
X4465720Y8818080D01*
X4420000Y8866980D01*
X4374280Y8818080D01*
X4412570Y8774770D01*
G03X4427430I7430J10300D01*
G37*
G36*
G01X4509030Y8871230D02*
X4465720Y8909520D01*
X4416820Y8863800D01*
X4465720Y8818080D01*
X4509030Y8856370D01*
G03Y8871230I-10300J7430D01*
G37*
G36*
G01X4480970Y8856370D02*
X4524280Y8818080D01*
X4573180Y8863800D01*
X4524280Y8909520D01*
X4480970Y8871230D01*
G03Y8856370I10300J-7430D01*
G37*
G36*
G01X4324770Y8702570D02*
X4368080Y8664280D01*
X4416980Y8710000D01*
X4368080Y8755720D01*
X4324770Y8717430D01*
G03Y8702570I10300J-7430D01*
G37*
G36*
G01X4421230Y8620970D02*
X4459520Y8664280D01*
X4413800Y8713180D01*
X4368080Y8664280D01*
X4406370Y8620970D01*
G03X4421230I7430J10300D01*
G37*
G36*
G01X4412350Y8805060D02*
X4368080Y8755720D01*
X4413570Y8706830D01*
X4459520Y8755720D01*
X4428940Y8803950D01*
G03X4412350Y8805060I-8936J-9022D01*
G37*
G36*
G01X4690970Y9008770D02*
X4734280Y8970480D01*
X4783180Y9016200D01*
X4734280Y9061920D01*
X4690970Y9023630D01*
G03Y9008770I10300J-7430D01*
G37*
G36*
G01X4772570Y9105230D02*
X4734280Y9061920D01*
X4780000Y9013020D01*
X4825720Y9061920D01*
X4787430Y9105230D01*
G03X4772570I-7430J-10300D01*
G37*
G36*
G01X4659030Y9023630D02*
X4615720Y9061920D01*
X4566820Y9016200D01*
X4615720Y8970480D01*
X4659030Y9008770D01*
G03Y9023630I-10300J7430D01*
G37*
G36*
G01X4845890Y4679240D02*
X4810480Y4635720D01*
X4856200Y4583650D01*
X4901920Y4635720D01*
X4866510Y4679240D01*
G03X4845890I-10310J-23210D01*
G37*
G36*
G01Y4829240D02*
X4810480Y4785720D01*
X4856200Y4733650D01*
X4901920Y4785720D01*
X4866510Y4829240D01*
G03X4845890I-10310J-23210D01*
G37*
G36*
G01X4866510Y4650760D02*
X4901920Y4694280D01*
X4856200Y4746350D01*
X4810480Y4694280D01*
X4845890Y4650760D01*
G03X4866510I10310J23210D01*
G37*
G36*
G01X5375440Y5280310D02*
X5331920Y5315720D01*
X5279850Y5270000D01*
X5331920Y5224280D01*
X5375440Y5259690D01*
G03Y5280310I-23210J10310D01*
G37*
G36*
G01X4845890Y4979240D02*
X4810480Y4935720D01*
X4856200Y4883650D01*
X4901920Y4935720D01*
X4866510Y4979240D01*
G03X4845890I-10310J-23210D01*
G37*
G36*
G01X4866510Y4800760D02*
X4901920Y4844280D01*
X4856200Y4896350D01*
X4810480Y4844280D01*
X4845890Y4800760D01*
G03X4866510I10310J23210D01*
G37*
G36*
G01Y4950760D02*
X4901920Y4994280D01*
X4856200Y5046350D01*
X4810480Y4994280D01*
X4845890Y4950760D01*
G03X4866510I10310J23210D01*
G37*
G36*
G01X4945440Y5050310D02*
X4901920Y5085720D01*
X4849850Y5040000D01*
X4901920Y4994280D01*
X4945440Y5029690D01*
G03Y5050310I-23210J10310D01*
G37*
G36*
G01X5124170Y5024900D02*
X5176980Y4996200D01*
X5216310Y5047680D01*
X5176980Y5097800D01*
X5122430Y5052420D01*
G03X5124170Y5024900I22160J-12414D01*
G37*
G36*
G01X4945440Y5280310D02*
X4901920Y5315720D01*
X4849850Y5270000D01*
X4901920Y5224280D01*
X4945440Y5259690D01*
G03Y5280310I-23210J10310D01*
G37*
G36*
G01X5044560Y5259690D02*
X5088080Y5224280D01*
X5140150Y5270000D01*
X5088080Y5315720D01*
X5044560Y5280310D01*
G03Y5259690I23210J-10310D01*
G37*
G36*
G01X5187660Y5460580D02*
X5202500Y5447500D01*
X5283180Y5462500D01*
X5202500Y5477500D01*
X5187660Y5464420D01*
G03Y5460580I12550J-1920D01*
G37*
G36*
G01Y5525580D02*
X5202500Y5512500D01*
X5283180Y5527500D01*
X5202500Y5542500D01*
X5187660Y5529420D01*
G03Y5525580I12550J-1920D01*
G37*
G36*
G01Y5590580D02*
X5202500Y5577500D01*
X5283180Y5592500D01*
X5202500Y5607500D01*
X5187660Y5594420D01*
G03Y5590580I12550J-1920D01*
G37*
G36*
G01X5372340Y5594420D02*
X5357500Y5607500D01*
X5276820Y5592500D01*
X5357500Y5577500D01*
X5372340Y5590580D01*
G03Y5594420I-12550J1920D01*
G37*
G36*
G01Y5789420D02*
X5357500Y5802500D01*
X5276820Y5787500D01*
X5357500Y5772500D01*
X5372340Y5785580D01*
G03Y5789420I-12550J1920D01*
G37*
G36*
G01Y5724420D02*
X5357500Y5737500D01*
X5276820Y5722500D01*
X5357500Y5707500D01*
X5372340Y5720580D01*
G03Y5724420I-12550J1920D01*
G37*
G36*
G01Y5659420D02*
X5357500Y5672500D01*
X5276820Y5657500D01*
X5357500Y5642500D01*
X5372340Y5655580D01*
G03Y5659420I-12550J1920D01*
G37*
G36*
G01X5193550Y5944930D02*
X5202500Y5902500D01*
X5291960Y5913240D01*
X5357500Y5932500D01*
X5207150Y5956460D01*
G03X5193550Y5944930I-952J-12663D01*
G37*
G36*
G01X5213630Y5990970D02*
X5251920Y6034280D01*
X5206200Y6083180D01*
X5160480Y6034280D01*
X5198770Y5990970D01*
G03X5213630I7430J10300D01*
G37*
G36*
G01X5372340Y5854420D02*
X5357500Y5867500D01*
X5276820Y5852500D01*
X5357500Y5837500D01*
X5372340Y5850580D01*
G03Y5854420I-12550J1920D01*
G37*
G36*
G01X5041020Y5994120D02*
X5028460Y5981540D01*
X5050000Y5956820D01*
X5071540Y5981540D01*
X5058980Y5994120D01*
G03X5041020I-8980J-8980D01*
G37*
G36*
G01X5057580Y5987280D02*
X5099520Y6034280D01*
X5053950Y6083170D01*
X5008080Y6034280D01*
X5041620Y5987930D01*
G03X5057580Y5987280I8382J9540D01*
G37*
G36*
G01X5046370Y6169030D02*
X5008080Y6125720D01*
X5053800Y6076820D01*
X5099520Y6125720D01*
X5061230Y6169030D01*
G03X5046370I-7430J-10300D01*
G37*
G36*
G01X5061230Y6140970D02*
X5099520Y6184280D01*
X5053800Y6233180D01*
X5008080Y6184280D01*
X5046370Y6140970D01*
G03X5061230I7430J10300D01*
G37*
G36*
G01X5131200Y8351590D02*
X5178080Y8324280D01*
X5230130Y8370450D01*
X5178080Y8415720D01*
X5130040Y8376340D01*
G03X5131200Y8351590I22730J-11337D01*
G37*
G36*
G01X4997610Y8451860D02*
X4952400Y8397500D01*
X5004950Y8358670D01*
X5058400Y8397500D01*
X5024070Y8450840D01*
G03X4997610Y8451860I-14065J-21150D01*
G37*
G36*
G01X5090310Y8370410D02*
X5058400Y8397500D01*
X4999050Y8365000D01*
X5058400Y8332500D01*
X5090310Y8359590D01*
G03Y8370410I-24820J5410D01*
G37*
G36*
G01X4939700Y8587600D02*
X4952400Y8522500D01*
X5008100Y8553340D01*
X5058400Y8587500D01*
X4952410Y8600300D01*
G03X4939700Y8587600I-10J-12700D01*
G37*
G36*
G01X4943630Y8620970D02*
X4981920Y8664280D01*
X4936200Y8713180D01*
X4890480Y8664280D01*
X4928770Y8620970D01*
G03X4943630I7430J10300D01*
G37*
G36*
G01X4921060Y8803950D02*
X4890480Y8755720D01*
X4936430Y8706830D01*
X4981920Y8755720D01*
X4937650Y8805060D01*
G03X4921060Y8803950I-7654J-10132D01*
G37*
G36*
G01X4937430Y8774770D02*
X4975720Y8818080D01*
X4930000Y8866980D01*
X4884280Y8818080D01*
X4922570Y8774770D01*
G03X4937430I7430J10300D01*
G37*
G36*
G01X4922570Y9105230D02*
X4884280Y9061920D01*
X4930000Y9013020D01*
X4975720Y9061920D01*
X4937430Y9105230D01*
G03X4922570I-7430J-10300D01*
G37*
G36*
G01X4788980Y9265880D02*
X4801540Y9278460D01*
X4780000Y9303180D01*
X4758460Y9278460D01*
X4771020Y9265880D01*
G03X4788980I8980J8980D01*
G37*
G36*
G01X4938980D02*
X4951540Y9278460D01*
X4930000Y9303180D01*
X4908460Y9278460D01*
X4921020Y9265880D01*
G03X4938980I8980J8980D01*
G37*
G36*
G01X5604120Y5668980D02*
X5591540Y5681540D01*
X5566820Y5660000D01*
X5591540Y5638460D01*
X5604120Y5651020D01*
G03Y5668980I-8980J8980D01*
G37*
G36*
G01X5402320Y5774800D02*
X5427390Y5774740D01*
X5443010Y5801000D01*
X5418460Y5821540D01*
X5393380Y5796480D01*
G03X5402320Y5774800I8980J-8980D01*
G37*
G36*
G01X5403380Y5713520D02*
X5418460Y5698460D01*
X5443160Y5719710D01*
X5420380Y5743120D01*
X5405300Y5733060D01*
G03X5403380Y5713520I7060J-10558D01*
G37*
G36*
G01X5388380Y5648520D02*
X5418460Y5618460D01*
X5442940Y5638790D01*
X5422500Y5657500D01*
X5397360D01*
X5388380Y5648520D01*
G37*
G36*
G01X5412410Y5849520D02*
X5440000D01*
X5442670Y5881720D01*
X5411110Y5886130D01*
X5401290Y5868360D01*
G03X5412410Y5849520I11120J-6138D01*
G37*
G36*
G01X6104120Y6538980D02*
X6091540Y6551540D01*
X6066820Y6530000D01*
X6091540Y6508460D01*
X6104120Y6521020D01*
G03Y6538980I-8980J8980D01*
G37*
G36*
G01X8890930Y5210820D02*
X8947280Y5276830D01*
X8877280Y5323180D01*
X8807280Y5276830D01*
X8863630Y5210820D01*
G03X8890930I13650J21420D01*
G37*
G36*
G01X9091020Y5204120D02*
X9078460Y5191540D01*
X9100000Y5166820D01*
X9121540Y5191540D01*
X9108980Y5204120D01*
G03X9091020I-8980J-8980D01*
G37*
G36*
G01X9108040Y5210180D02*
X9170000Y5277300D01*
X9100000Y5320480D01*
X9030000Y5277300D01*
X9091960Y5210180D01*
G03X9108040I8040J9830D01*
G37*
G36*
G01X8767750Y5652180D02*
X8807280Y5622230D01*
X8880450Y5662300D01*
X8807280Y5702230D01*
X8767350Y5667280D01*
G03X8767750Y5652180I10409J-7280D01*
G37*
G36*
G01X8985430Y5670000D02*
X8947280Y5702230D01*
X8874110Y5662210D01*
X8947280Y5622230D01*
X8985510Y5655520D01*
G03X8985430Y5670000I-10471J7182D01*
G37*
G36*
G01X8992220Y5655540D02*
X9030000Y5622700D01*
X9103180Y5662700D01*
X9030000Y5702700D01*
X8992220Y5669860D01*
G03Y5655540I10490J-7160D01*
G37*
G36*
G01X8838900Y6906500D02*
Y6970000D01*
X8745510Y6974490D01*
X8750000Y6881100D01*
X8813500D01*
G03X8838900Y6906500I0J25400D01*
G37*
G36*
G01X9114770Y6522570D02*
X9158080Y6484280D01*
X9206980Y6530000D01*
X9158080Y6575720D01*
X9114770Y6537430D01*
G03Y6522570I10300J-7430D01*
G37*
G36*
G01X9135230Y6537430D02*
X9091920Y6575720D01*
X9043020Y6530000D01*
X9091920Y6484280D01*
X9135230Y6522570D01*
G03Y6537430I-10300J7430D01*
G37*
G36*
G01X8804770Y6522570D02*
X8848080Y6484280D01*
X8896980Y6530000D01*
X8848080Y6575720D01*
X8804770Y6537430D01*
G03Y6522570I10300J-7430D01*
G37*
G36*
G01X9201270Y7014620D02*
X9153020Y7057800D01*
X9116820Y7007000D01*
X9153020Y6956200D01*
X9201270Y6999380D01*
G03Y7014620I-10160J7620D01*
G37*
G36*
G01X9213670Y6636450D02*
X9158080Y6575720D01*
X9203220Y6526880D01*
X9249520Y6575720D01*
X9232730Y6632650D01*
G03X9213670Y6636450I-11129J-6120D01*
G37*
G36*
G01X9228250Y6671070D02*
X9254620Y6702200D01*
X9221600Y6756180D01*
X9188580Y6702200D01*
X9214950Y6671070D01*
G03X9228250I6650J10820D01*
G37*
G36*
G01X9356690Y6998020D02*
X9447150Y6907580D01*
X9513080Y6969210D01*
X9453800Y7036280D01*
X9363350Y7019490D01*
G03X9356690Y6998020I2320J-12487D01*
G37*
%LPC*%
G75*
G36*
G01X8201090Y1941560D02*
X7398910D01*
X7396760Y1934290D01*
G02Y2065710I-221760J65710D01*
G01X7398910Y2058440D01*
X8201090D01*
X8203240Y2065710D01*
G02Y1934290I221760J-65710D01*
G01X8201090Y1941560D01*
G37*
G36*
G01X6071090Y1211560D02*
X5268910D01*
X5266760Y1204290D01*
G02Y1335710I-221760J65710D01*
G01X5268910Y1328440D01*
X6071090D01*
X6073240Y1335710D01*
G02Y1204290I221760J-65710D01*
G01X6071090Y1211560D01*
G37*
G36*
G01X8201090Y451560D02*
X7398910D01*
X7396760Y444290D01*
G02Y575710I-221760J65710D01*
G01X7398910Y568440D01*
X8201090D01*
X8203240Y575710D01*
G02Y444290I221760J-65710D01*
G01X8201090Y451560D01*
G37*
G36*
G01X4241090D02*
X3438910D01*
X3436760Y444290D01*
G02Y575710I-221760J65710D01*
G01X3438910Y568440D01*
X4241090D01*
X4243240Y575710D01*
G02Y444290I221760J-65710D01*
G01X4241090Y451560D01*
G37*
G36*
G01X5195790Y4441560D02*
X5150970Y4486390D01*
X5042340Y4506090D01*
Y4681460D01*
X5220470D01*
X5246360Y4709470D01*
X5232840Y4725430D01*
Y4889540D01*
X5390360D01*
Y4725430D01*
X5370040Y4701440D01*
Y4696000D01*
X5377660Y4638750D01*
Y4558440D01*
X5831070D01*
G02Y4441560I48930J-58440D01*
G01X5195790D01*
G37*
G54D56*
X440000Y4090000D03*
Y4490000D03*
G54D50*
X310000Y3250000D03*
G54D51*
X3840000Y310000D03*
Y1210000D03*
X5670000Y1070000D03*
Y1970000D03*
X7800000Y310000D03*
Y1210000D03*
Y1800000D03*
Y2700000D03*
X2010000Y1080000D03*
X3840000Y1830000D03*
Y2730000D03*
G54D52*
X9100000Y4270000D03*
G54D53*
X4465000Y1010000D03*
X6295000Y1770000D03*
X7175000Y1010000D03*
Y2500000D03*
X8425000Y1010000D03*
Y2500000D03*
X2635000Y1780000D03*
G54D49*
X310000Y2450000D03*
G54D55*
X8900000Y9750000D03*
G54D54*
X8138000D03*
X1128000D03*
%LPD*%
G75*
G36*
G01X5303540Y4703940D02*
X5240480Y4635720D01*
X5285450Y4586920D01*
X5331920Y4635720D01*
X5323590Y4698300D01*
G03X5303540Y4703940I-11992J-4172D01*
G37*
G36*
G01X5318250Y4711070D02*
X5344620Y4742200D01*
X5311600Y4796180D01*
X5278580Y4742200D01*
X5304950Y4711070D01*
G03X5318250I6650J10820D01*
G37*
G36*
G01X5192220Y4540480D02*
X5179520Y4635720D01*
X5131650Y4592330D01*
X5088080Y4544280D01*
X5178990Y4527790D01*
G03X5192220Y4540480I529J12690D01*
G37*
G36*
G01X5845880Y4491020D02*
X5858460Y4478460D01*
X5883180Y4500000D01*
X5858460Y4521540D01*
X5845880Y4508980D01*
G03Y4491020I8980J-8980D01*
G37*
G54D10*
X330000Y330000D03*
Y9670000D03*
X9670000Y330000D03*
Y9670000D03*
G54D20*
X935000Y7290000D03*
X1185000D03*
G54D11*
X179910Y1890140D03*
Y2398140D03*
X259910Y2980140D03*
Y3488140D03*
X300000Y5150000D03*
Y4920000D03*
X190000Y6480000D03*
Y6640000D03*
X156710Y9192120D03*
X570000Y1430000D03*
X679910Y1900140D03*
X570000Y1640000D03*
X679910Y2408140D03*
X739910Y2990140D03*
Y3498140D03*
X930000Y4190000D03*
X870000Y4440000D03*
X750000Y4970000D03*
X770000Y6780000D03*
X806200Y6640000D03*
X770000Y7340000D03*
Y7050000D03*
X730000Y8140000D03*
X664710Y9192120D03*
X926710Y9382120D03*
X1060190Y329890D03*
X1039910Y1880140D03*
Y2388140D03*
X1040000Y2710000D03*
X1149910Y3010140D03*
Y3518140D03*
X1472010Y4182640D03*
X980000Y4970000D03*
X1230000Y5230000D03*
Y5070000D03*
X1100000Y6780000D03*
X1410000D03*
X1310000Y7320000D03*
X1100000Y7050000D03*
X1410000D03*
X1296000Y7810000D03*
X1371000Y7941000D03*
X1190000Y8510000D03*
Y8130000D03*
X1296000Y8380000D03*
X1371000Y8509000D03*
X1434710Y9382120D03*
X1568190Y329890D03*
X1809910Y1070140D03*
Y1578140D03*
X1550000Y2300000D03*
X2039910Y2360140D03*
X2050000Y2640000D03*
X1550000Y2690000D03*
X2039910Y2868140D03*
X1930000Y2970000D03*
Y3150000D03*
X1780000Y4200000D03*
X1587980Y4182640D03*
X1780000Y4370000D03*
X1940000Y4700000D03*
Y4920000D03*
Y5070000D03*
Y5210000D03*
X1590000Y5230000D03*
Y5070000D03*
Y4920000D03*
X1700000Y5620000D03*
X2020000Y5730000D03*
X1700000Y5890000D03*
X2000000Y6370000D03*
X1576200D03*
X1700000Y6300000D03*
Y6190000D03*
X1680000Y6780000D03*
X1700000Y6640000D03*
X1680000Y7050000D03*
X2055000Y7165000D03*
X1520000Y7480000D03*
X1690000Y7570000D03*
Y7730000D03*
X1760000Y8360000D03*
Y8270000D03*
X1540000Y9060000D03*
X2076190Y329890D03*
X2584190D03*
X2320000Y2640000D03*
X2500000Y2870000D03*
X2130000Y4177000D03*
X2160000Y5460000D03*
X2080000Y6300000D03*
X2090000Y6600000D03*
Y6870000D03*
X2150000Y6466200D03*
X2565000Y6665000D03*
X2485000D03*
X2420000Y6950000D03*
X2510000Y7110000D03*
Y7020000D03*
X2358250Y7018250D03*
X2360000Y7110000D03*
X2175000Y7845000D03*
X2410000Y7830000D03*
X2500000D03*
X2270000Y7910000D03*
X2070000Y8180000D03*
X2170000Y8260000D03*
X2600000Y8170000D03*
X2156710Y9022120D03*
X2302120Y9283290D03*
X2432120D03*
X2562120D03*
X2162120Y9423290D03*
X2292120D03*
X2422120D03*
X2156710Y9152120D03*
Y9282120D03*
X2840000Y2390000D03*
Y2090000D03*
Y2980000D03*
X3090000D03*
X2943800Y3026200D03*
X3090000Y3280000D03*
X2840000Y3270000D03*
X3139910Y3600140D03*
X2710000Y3540000D03*
X2610000D03*
X3139910Y4108140D03*
X2660000Y4280000D03*
X3089910Y5360140D03*
Y5868140D03*
X3120000Y6680000D03*
X3070000Y6610000D03*
X3060000Y6930000D03*
X3020000Y7500000D03*
X2830000Y7450000D03*
Y7350000D03*
Y7240000D03*
Y7150000D03*
X3020000Y7600000D03*
X2900000Y7710000D03*
X2990000D03*
X2920000Y7840000D03*
X2830000Y7540000D03*
Y7630000D03*
X3140000Y8450000D03*
X2800000Y8570000D03*
X2880000D03*
X2750000Y8160000D03*
X2835000D03*
X2920000D03*
X3489910Y3570140D03*
Y4078140D03*
X3200000Y4280000D03*
X3639910Y5370140D03*
Y5878140D03*
X3217520Y6807520D03*
X3300000Y6810000D03*
X3660000Y7420000D03*
X3230000Y7465000D03*
X3680000Y7670000D03*
X3440000Y7810000D03*
X3210000Y9370000D03*
Y9450000D03*
X4149910Y3050140D03*
X3834780Y3056570D03*
X4149910Y3558140D03*
X3834780Y3564570D03*
X3820000Y6360000D03*
X3790000Y7290000D03*
X4030000Y7070000D03*
X4180000Y7790000D03*
X3930000Y7780000D03*
X3790000Y7770000D03*
X4130000Y8450000D03*
X3886710Y9142120D03*
Y9272120D03*
Y9402120D03*
X4461860Y4389910D03*
X4370000Y4240000D03*
X4600000Y4740000D03*
Y4590000D03*
Y4890000D03*
Y5040000D03*
X4580000Y6360000D03*
X4320000D03*
X4400000Y6470000D03*
X4740090Y6839860D03*
X4610000Y7480000D03*
Y7280000D03*
Y7070000D03*
X4340000D03*
X4740090Y7341860D03*
X4610000Y7900000D03*
Y7710000D03*
X4740090Y7849860D03*
X4394710Y9142120D03*
Y9272120D03*
Y9402120D03*
X4780000Y9300000D03*
X4952290Y195780D03*
Y703780D03*
X4846910Y2405230D03*
Y2913230D03*
Y3421230D03*
X4969860Y4389910D03*
X4990000Y5270000D03*
X5310000Y6360000D03*
X5050000Y5960000D03*
X5121490Y6651740D03*
Y7159740D03*
X5010000Y8450000D03*
X4930000Y9300000D03*
X5460290Y195780D03*
Y703780D03*
X5354910Y2405230D03*
Y2913230D03*
Y3421230D03*
X5509910Y4390140D03*
Y4898140D03*
X5430000Y5270000D03*
Y5480000D03*
X5570000Y5660000D03*
X5440000Y5800000D03*
Y5720000D03*
Y5640000D03*
X5440090Y6241860D03*
X5440000Y5880000D03*
X5440090Y6749860D03*
Y7251860D03*
Y7759860D03*
X5346710Y8992120D03*
X5854710D03*
X5680240Y9649830D03*
X5968290Y195780D03*
Y703780D03*
X6369910Y4142140D03*
Y4650140D03*
X5880000Y4500000D03*
X6369910Y5158140D03*
X6382670Y5872650D03*
Y6380650D03*
Y6790650D03*
X6070000Y6530000D03*
X6366710Y7536120D03*
Y8044120D03*
Y8552120D03*
X6362710Y8992120D03*
X6188240Y9649830D03*
X6476290Y195780D03*
Y703780D03*
X6497620Y3018250D03*
Y3526250D03*
X6877910Y4142140D03*
Y4650140D03*
Y5158140D03*
X6890670Y5872650D03*
Y6380650D03*
Y6790650D03*
X6874710Y7536120D03*
Y8044120D03*
Y8552120D03*
X6870710Y8992120D03*
X6696240Y9649830D03*
X7005620Y3018250D03*
X7513620D03*
X7005620Y3526250D03*
X7513620D03*
X7385910Y4142140D03*
Y4650140D03*
Y5158140D03*
X7398670Y5872650D03*
Y6380650D03*
Y6790650D03*
X7382710Y7536120D03*
Y8044120D03*
Y8552120D03*
X7378710Y8992120D03*
X7204240Y9649830D03*
X8021620Y3018250D03*
Y3526250D03*
X7893910Y4142140D03*
Y4650140D03*
Y5158140D03*
X7906670Y5872650D03*
Y6380650D03*
Y6790650D03*
X7890710Y7536120D03*
Y8044120D03*
Y8552120D03*
X7886710Y8992120D03*
X7712240Y9649830D03*
X8529620Y3018250D03*
Y3526250D03*
X8401910Y4142140D03*
Y4650140D03*
Y5158140D03*
X8414670Y5872650D03*
Y6380650D03*
Y6790650D03*
X8398710Y7536120D03*
Y8044120D03*
Y8552120D03*
X8394710Y8992120D03*
X8994440Y770490D03*
Y1278490D03*
Y1786490D03*
Y2294490D03*
X9037620Y3018250D03*
Y3526250D03*
X9100000Y5170000D03*
X8922670Y5872650D03*
Y6380650D03*
X8906710Y7536120D03*
Y8044120D03*
Y8552120D03*
Y8992120D03*
X9502440Y770490D03*
Y1278490D03*
Y1786490D03*
Y2294490D03*
X9545620Y3018250D03*
Y3526250D03*
X9414710Y7536120D03*
Y8044120D03*
Y8552120D03*
Y8992120D03*
G54D12*
X337800Y2142600D03*
Y3757400D03*
X4360000Y7895000D03*
Y8145000D03*
G54D30*
X2269500Y2343800D03*
X2396500D03*
X2523500D03*
Y3136200D03*
X2396500D03*
X2269500D03*
X2650500Y2343800D03*
Y3136200D03*
G54D21*
X980000Y7941000D03*
Y7814000D03*
Y7687000D03*
Y7560000D03*
Y8511000D03*
Y8384000D03*
Y8257000D03*
Y8130000D03*
X1520000Y7560000D03*
Y7687000D03*
Y7814000D03*
Y7941000D03*
Y8130000D03*
Y8257000D03*
Y8384000D03*
Y8511000D03*
G54D13*
X270000Y5650000D03*
Y6100000D03*
X1216000Y5690000D03*
X1470000D03*
X1216000Y6198000D03*
X1470000D03*
X1216000Y5944000D03*
X1470000D03*
X8750000Y6970000D03*
X9510000D03*
G54D22*
X1385000Y1280000D03*
Y1780000D03*
X2635000Y1280000D03*
Y1780000D03*
X3215000Y510000D03*
Y1010000D03*
Y2030000D03*
Y2530000D03*
X4465000Y510000D03*
Y1010000D03*
Y2030000D03*
Y2530000D03*
X5045000Y1270000D03*
Y1770000D03*
X6295000Y1270000D03*
Y1770000D03*
X7175000Y510000D03*
Y1010000D03*
Y2000000D03*
Y2500000D03*
X8425000Y510000D03*
Y1010000D03*
Y2000000D03*
Y2500000D03*
G54D31*
X2128400Y3923000D03*
X2331600D03*
X2230000Y4177000D03*
X2128400Y4543000D03*
X2331600D03*
X2230000Y4797000D03*
X5108400Y4793000D03*
X5311600D03*
X5210000Y5047000D03*
X9018400Y6753000D03*
X9120000Y7007000D03*
X9221600Y6753000D03*
G54D40*
X8877280Y5316830D03*
X9100000Y5317300D03*
X8877280Y5662230D03*
X9100000Y5662700D03*
G54D41*
G01X360000Y2450000D02*
G03I-50000J0D01*
G01Y3250000D02*
G03I-50000J0D01*
G01X1472010Y4182640D02*
X1509670Y4220300D01*
Y4411920D01*
X1463500Y4458090D01*
Y4550000D01*
G01X1587980Y4182640D02*
X1550310Y4220310D01*
Y4417900D01*
X1590500Y4458090D01*
Y4550000D01*
G01X3074600Y9530000D02*
X3030000D01*
G01D02*
X2960000Y9460000D01*
G01D02*
Y9440000D01*
G54D14*
X313800Y6480000D03*
X846200Y1430000D03*
X693800D03*
X846200Y1640000D03*
X693800D03*
X653800Y4790000D03*
X806200D03*
Y6480000D03*
X653800D03*
X466200D03*
X736200Y7520000D03*
X583800D03*
X736200Y7670000D03*
X583800D03*
X736200Y8270000D03*
X583800D03*
X1486200Y4790000D03*
X1333800D03*
X1423800Y6480000D03*
X1256200D03*
X1103800D03*
X1423800Y7210000D03*
Y7370000D03*
X973800Y8690000D03*
X1126200D03*
X1373800D03*
X1816200Y2520000D03*
X1663800D03*
Y2970000D03*
X1816200D03*
Y2820000D03*
X1663800D03*
Y3150000D03*
X1816200D03*
X1693800Y4790000D03*
X1846200D03*
X1576200Y6480000D03*
Y7210000D03*
Y7370000D03*
X1956200Y7790000D03*
X1803800D03*
Y8140000D03*
X1956200D03*
X1526200Y8690000D03*
X2306200Y3610000D03*
X2153800D03*
Y3760000D03*
X2306200D03*
Y4360000D03*
X2153800D03*
X2276200Y4960000D03*
X2123800D03*
X2486200Y8730000D03*
X2333800D03*
X2943800Y3130000D03*
X3096200D03*
X3143800Y8260000D03*
X2703800Y9290000D03*
X2856200D03*
X2703800Y9590000D03*
X2856200D03*
Y9440000D03*
X2703800D03*
X3133800Y9240000D03*
Y9800000D03*
X3503800Y6500000D03*
X3656200D03*
X3296200Y8260000D03*
X3286200Y9240000D03*
Y9800000D03*
X3443800D03*
X3596200D03*
X4046200Y7210000D03*
X3893800D03*
X4056200Y7880000D03*
X3903800D03*
X4056200Y7670000D03*
X3903800D03*
X4056200Y8160000D03*
X3903800D03*
X4703800Y4740000D03*
Y4590000D03*
X4703630Y4242680D03*
X4703800Y5270000D03*
Y4890000D03*
Y5040000D03*
X4373800Y5270000D03*
X4526200D03*
Y5430000D03*
X4373800D03*
X4576200Y6080000D03*
X4423800D03*
X4566200Y8710000D03*
X4413800D03*
X4783800D03*
X5133800Y4590000D03*
X5286200D03*
X4856200Y4740000D03*
Y4590000D03*
X4856030Y4242680D03*
X4856200Y5270000D03*
X5133800D03*
X5286200D03*
X4856200Y4890000D03*
Y5040000D03*
X5053800Y6230000D03*
X5206200D03*
X5053800Y6080000D03*
X5206200D03*
X5223800Y8370000D03*
X4936200Y8710000D03*
X5376200Y8370000D03*
X8893800Y6530000D03*
X9046200D03*
X9356200D03*
X9203800D03*
G54D32*
X2157300Y5160000D03*
X2502700D03*
G54D23*
X1412000Y2296000D03*
Y2406000D03*
Y2516000D03*
Y2626000D03*
Y2736000D03*
Y2846000D03*
Y2956000D03*
Y3066000D03*
Y3176000D03*
G54D42*
G01X470000Y4090000D02*
G03I-30000J0D01*
G01Y4490000D02*
G03I-30000J0D01*
G54D15*
X370000Y7265000D03*
Y7515000D03*
Y8015000D03*
Y7765000D03*
Y8265000D03*
G54D24*
X1330000Y2140000D03*
Y3640000D03*
G54D33*
X2385000Y6805000D03*
X2435000D03*
X2485000D03*
X2535000D03*
Y7975000D03*
X2485000D03*
X2435000D03*
X2385000D03*
X2585000Y6805000D03*
X2635000D03*
X2685000D03*
X2735000D03*
X2785000D03*
X2835000D03*
X2885000D03*
X2935000D03*
X2985000D03*
X3035000D03*
X3085000D03*
Y7975000D03*
X3035000D03*
X2985000D03*
X2935000D03*
X2885000D03*
X2835000D03*
X2785000D03*
X2735000D03*
X2685000D03*
X2635000D03*
X2585000D03*
X3135000Y6805000D03*
Y7975000D03*
G54D43*
G01X9175000Y4270000D02*
G03I-75000J0D01*
G01Y5020000D02*
G03I-75000J0D01*
G54D16*
X370000Y8515000D03*
G54D25*
X1400000Y5070000D03*
X1780000D03*
X2820000Y8820000D03*
X3400000D03*
G54D34*
X2175000Y7465000D03*
Y7415000D03*
Y7365000D03*
Y7315000D03*
Y7265000D03*
Y7215000D03*
Y7165000D03*
Y7115000D03*
Y7065000D03*
Y7015000D03*
Y7765000D03*
Y7715000D03*
Y7665000D03*
Y7615000D03*
Y7565000D03*
Y7515000D03*
X3345000Y7015000D03*
Y7065000D03*
Y7115000D03*
Y7165000D03*
Y7215000D03*
Y7265000D03*
Y7315000D03*
Y7365000D03*
Y7415000D03*
Y7465000D03*
Y7515000D03*
Y7565000D03*
Y7615000D03*
Y7665000D03*
Y7715000D03*
Y7765000D03*
G54D44*
G01X2160000Y5460000D02*
X920000D01*
X610000Y5770000D01*
X390000D01*
X270000Y5650000D01*
G01D02*
X140000Y5780000D01*
Y6300000D01*
X220000Y6380000D01*
X370000D01*
X466200Y6476200D01*
Y6480000D01*
G01D02*
X170000Y6776200D01*
Y7830000D01*
X355000Y8015000D01*
X370000D01*
G01Y7265000D02*
X250000Y7385000D01*
Y7610000D01*
X290000Y7650000D01*
X560000D01*
X580000Y7670000D01*
X583800D01*
G01X370000Y7515000D02*
X578800D01*
X583800Y7520000D01*
G01X370000Y8265000D02*
X578800D01*
X583800Y8270000D01*
G01X570000Y1430000D02*
X693800D01*
G01X570000Y1640000D02*
X693800D01*
G01X730000Y4636200D02*
X726200Y4640000D01*
X610000D01*
X560000Y4690000D01*
Y5140000D01*
X810000Y5390000D01*
X2230000D01*
X2390000Y5230000D01*
Y5090000D01*
X2465000Y5015000D01*
X2564600D01*
X2589360Y5039760D01*
Y5340640D01*
X2370000Y5560000D01*
X2000000D01*
X1830000Y5730000D01*
Y7420000D01*
X1925000Y7515000D01*
X2175000D01*
G01X730000Y4483800D02*
X916200Y4670000D01*
X1020000D01*
X1082500Y4607500D01*
Y4550000D01*
G01X653800Y4790000D02*
Y5163080D01*
X830720Y5340000D01*
X2209280D01*
X2340000Y5209280D01*
Y5069280D01*
X2444280Y4965000D01*
X2595720D01*
X2630000Y4999280D01*
Y5370720D01*
X2390720Y5610000D01*
X2025400D01*
X1880000Y5755400D01*
Y7399280D01*
X1945720Y7465000D01*
X2175000D01*
G01X806200Y4790000D02*
X1020000D01*
X1209500Y4600500D01*
Y4550000D01*
G01X466200Y6480000D02*
X653800D01*
G01X935000Y7290000D02*
Y7534600D01*
X960400Y7560000D01*
X980000D01*
G01X850000Y7510000D02*
X860640Y7520640D01*
Y7880640D01*
X921000Y7941000D01*
G01D02*
X980000D01*
G01X2385000Y7975000D02*
X2135000D01*
X2050000Y7890000D01*
X1750000D01*
X1610000Y7750000D01*
X1325810D01*
X1322310Y7746500D01*
X1269690D01*
X1266190Y7750000D01*
X1220000D01*
X1160000Y7810000D01*
Y7990000D01*
X1090000Y8060000D01*
X790000D01*
X736200Y8006200D01*
Y7670000D01*
G01Y7520000D02*
X750000D01*
X820000Y7590000D01*
Y7960000D01*
X870000Y8010000D01*
X1070000D01*
X1110000Y7970000D01*
Y7770000D01*
X1260000Y7620000D01*
X1620000D01*
X1665000Y7665000D01*
X2175000D01*
G01X1385000Y1280000D02*
X2635000D01*
G01X1412000Y2736000D02*
X1276000D01*
X1200000Y2660000D01*
Y2080000D01*
X1250000Y2030000D01*
X1440000D01*
X1530000Y2120000D01*
X2520000D01*
X2583190Y2183190D01*
Y2606810D01*
X2396500Y2793500D01*
Y3136200D01*
G01X1412000Y2516000D02*
X1659800D01*
X1663800Y2520000D01*
G01X1412000Y3066000D02*
X1579800D01*
X1663800Y3150000D01*
G01X1412000Y2956000D02*
X1649800D01*
X1663800Y2970000D01*
G01X2128400Y4543000D02*
Y4498400D01*
X1990000Y4360000D01*
Y3910000D01*
X1940000Y3860000D01*
X1440000D01*
X1400000Y3900000D01*
Y4130000D01*
X1380000Y4150000D01*
X1230000D01*
X1209500Y4129500D01*
Y4010000D01*
G01X2153800Y3610000D02*
X2013800Y3750000D01*
X1350000D01*
X1209500Y3890500D01*
Y4010000D01*
G01X2153800Y4360000D02*
X2040000Y4246200D01*
Y3880000D01*
X1960000Y3800000D01*
X1410000D01*
X1336500Y3873500D01*
Y4010000D01*
G01X1717500Y4550000D02*
Y4612500D01*
X1630000Y4700000D01*
X1576200D01*
X1486200Y4790000D01*
G01X1400000Y5070000D02*
X1470000Y5000000D01*
Y4806200D01*
X1486200Y4790000D01*
G01X1423800Y6480000D02*
X1420000D01*
X1348080Y6408080D01*
Y6065920D01*
X1470000Y5944000D01*
G01X1103800Y6480000D02*
X1080000Y6456200D01*
Y6080000D01*
X1216000Y5944000D01*
G01X1700000Y6300000D02*
Y6530000D01*
X1650000Y6580000D01*
X1350000D01*
X1256200Y6486200D01*
Y6480000D01*
G01X1423800Y7210000D02*
X1230000D01*
X1185000Y7255000D01*
Y7290000D01*
G01D02*
Y7605000D01*
X1103000Y7687000D01*
X980000D01*
G01X1296000Y7812410D02*
Y7975200D01*
X1350800Y8030000D01*
X2020000D01*
X2176660Y8186660D01*
X2473340D01*
X2585000Y8075000D01*
Y7975000D01*
G01X1296000Y7810000D02*
Y7812410D01*
G01D02*
X1518410D01*
X1520000Y7814000D01*
G01Y7941000D02*
X1371000D01*
G01X1296000Y8380000D02*
X1300000Y8384000D01*
X1520000D01*
G01X1296000Y8380000D02*
Y8634000D01*
X1240000Y8690000D01*
X1126200D01*
G01X1371000Y8509000D02*
Y8687200D01*
X1373800Y8690000D01*
G01X1371000Y8509000D02*
X1518000D01*
X1520000Y8511000D01*
G01X2110000Y1080000D02*
G03I-100000J0D01*
G01Y1980000D02*
G03I-100000J0D01*
G01X1663800Y2520000D02*
Y2226200D01*
X1700000Y2190000D01*
X2490000D01*
X2523500Y2223500D01*
Y2343800D01*
G01X2269500Y3136200D02*
Y3085400D01*
X2244100Y3060000D01*
X1753800D01*
X1663800Y2970000D01*
G01Y3150000D02*
Y3343800D01*
X1820000Y3500000D01*
X2460000D01*
X2660000Y3700000D01*
Y4280000D01*
G01X1844500Y4550000D02*
Y4639300D01*
X1693800Y4790000D01*
G01D02*
X1710000Y4806200D01*
Y5000000D01*
X1780000Y5070000D01*
G01X2020000Y5730000D02*
X1930000Y5820000D01*
Y7380000D01*
X1965000Y7415000D01*
X2175000D01*
G01X2306200Y3760000D02*
Y3763800D01*
X2240000Y3830000D01*
Y3960000D01*
X2680000Y4400000D01*
Y5400000D01*
X2000000Y6080000D01*
Y6370000D01*
G01X1576200D02*
Y6480000D01*
G01X1700000Y6190000D02*
X1780000Y6270000D01*
Y7470000D01*
X1925000Y7615000D01*
X2175000D01*
G01Y7715000D02*
X1878800D01*
X1803800Y7790000D01*
G01D02*
X1750000D01*
G01D02*
X1690000Y7730000D01*
G01X2175000Y7765000D02*
X1961200D01*
X1956200Y7770000D01*
Y7790000D01*
G01X2535000Y7975000D02*
Y8057520D01*
X2452520Y8140000D01*
X2197480D01*
X1998480Y7941000D01*
X1520000D01*
G01X1956200Y8140000D02*
X2030000D01*
G01D02*
X2070000Y8180000D01*
G01X2885000Y6805000D02*
Y3524280D01*
X2731360Y3370640D01*
X2410640D01*
X2330000Y3290000D01*
Y2760000D01*
X2523500Y2566500D01*
Y2343800D01*
G01X2935000Y6805000D02*
Y3503560D01*
X2761440Y3330000D01*
X2450000D01*
X2396500Y3276500D01*
Y3136200D01*
G01X2835000Y6805000D02*
Y3545000D01*
X2710000Y3420000D01*
X2380000D01*
X2270000Y3310000D01*
Y3136700D01*
X2269500Y3136200D01*
G01X2306200Y3610000D02*
X2400000Y3703800D01*
Y3840000D01*
X2331600Y3908400D01*
Y3923000D01*
G01X2128400D02*
Y3785400D01*
X2153800Y3760000D01*
G01X2331600Y4543000D02*
Y4385400D01*
X2306200Y4360000D01*
G01X2123800Y4960000D02*
Y4826200D01*
X2153000Y4797000D01*
X2230000D01*
G01X2123800Y4960000D02*
X2140000Y4976200D01*
Y5142700D01*
X2157300Y5160000D01*
G01X2160000Y5460000D02*
X2360000D01*
X2502700Y5317300D01*
Y5160000D01*
G01X2585000Y6805000D02*
Y6735000D01*
X2660000Y6660000D01*
Y6260000D01*
X2580000Y6180000D01*
X2190000D01*
X2080000Y6290000D01*
Y6300000D01*
G01X2440000Y6580000D02*
X2410000Y6610000D01*
Y6700000D01*
X2435000Y6725000D01*
Y6805000D01*
G01X2510000Y6950190D02*
X2435000Y6875190D01*
Y6805000D01*
G01X2385000D02*
Y6755000D01*
X2360000Y6730000D01*
Y6486200D01*
X2380000Y6466200D01*
G01X2565000Y6665000D02*
Y6675000D01*
X2535000Y6705000D01*
Y6805000D01*
G01X2485000D02*
Y6665000D01*
G01X2510000Y6960000D02*
Y6950190D01*
G01X2175000Y7015000D02*
X2225000D01*
X2290000Y6950000D01*
X2420000D01*
G01X2358250Y7018250D02*
X2311500Y7065000D01*
X2175000D01*
G01X2360000Y7110000D02*
X2355000Y7115000D01*
X2175000D01*
G01Y7165000D02*
X2055000D01*
G01X2175000Y7365000D02*
X2745000D01*
X2830000Y7450000D01*
G01Y7350000D02*
X2795000Y7315000D01*
X2175000D01*
G01X2830000Y7240000D02*
X2805000Y7265000D01*
X2175000D01*
G01X2830000Y7150000D02*
X2765000Y7215000D01*
X2175000D01*
G01Y7765000D02*
Y7845000D01*
G01X2435000Y7975000D02*
Y7855000D01*
X2410000Y7830000D01*
G01X2500000D02*
X2485000Y7845000D01*
Y7975000D01*
G01X2270000Y7910000D02*
X2340000Y7840000D01*
Y7610000D01*
X2295000Y7565000D01*
X2175000D01*
G01X2650500Y2343800D02*
Y2640500D01*
X2830000Y2820000D01*
X3070000D01*
X3210000Y2960000D01*
Y3300000D01*
X2985000Y3525000D01*
Y6805000D01*
G01X3345000Y7115000D02*
X3445000D01*
X3569360Y6990640D01*
Y6709360D01*
X3310000Y6450000D01*
Y2990000D01*
X2950000Y2630000D01*
Y2295000D01*
X3215000Y2030000D01*
G01X2785000Y6805000D02*
Y3615000D01*
X2710000Y3540000D01*
G01X2735000Y6805000D02*
Y3665000D01*
X2610000Y3540000D01*
G01X3085000Y6805000D02*
Y6715000D01*
X3120000Y6680000D01*
G01X3035000Y6805000D02*
Y6645000D01*
X3070000Y6610000D01*
G01D02*
Y6476200D01*
G01X3060000Y6930000D02*
X2720400D01*
X2685000Y6894600D01*
Y6805000D01*
G01X3217520Y6807520D02*
Y6867520D01*
X3085040Y7000000D01*
X2680720D01*
X2635000Y6954280D01*
Y6805000D01*
G01X3300000Y6810000D02*
Y6842520D01*
X3092520Y7050000D01*
X2660000D01*
X2585000Y6975000D01*
Y6805000D01*
G01X4020780Y8513500D02*
X3833500D01*
X3120000Y7800000D01*
Y7080000D01*
X3240000Y6960000D01*
X3430000D01*
X3452970Y6982970D01*
Y7047030D01*
X3435000Y7065000D01*
X3345000D01*
G01X3040000Y7630000D02*
X3079360Y7669360D01*
Y7816840D01*
X3085000Y7822480D01*
Y7975000D01*
G01X2750000Y8160000D02*
Y8155190D01*
X2785000Y8120190D01*
Y7975000D01*
G01X2835000D02*
Y8160000D01*
G01X2920000D02*
Y8150000D01*
X2885000Y8115000D01*
Y7975000D01*
G01X2900000Y7710000D02*
Y7720000D01*
X2985000Y7805000D01*
Y7975000D01*
G01X2990000Y7710000D02*
X3035000Y7755000D01*
Y7975000D01*
G01X2935000D02*
Y7855000D01*
X2920000Y7840000D01*
G01X2830000Y7540000D02*
X2685000Y7685000D01*
Y7975000D01*
G01X2830000Y7630000D02*
X2735000Y7725000D01*
Y7975000D01*
G01X2635000D02*
Y8135000D01*
X2600000Y8170000D01*
G01X2703800Y9290000D02*
Y9176200D01*
G01D02*
X2710000Y9170000D01*
G01X3074600Y9435000D02*
Y9299200D01*
X3133800Y9240000D01*
G01X2703800Y9590000D02*
Y9440000D01*
G01X3074600Y9625000D02*
X3041200D01*
X2856200Y9440000D01*
G01Y9290000D02*
Y9440000D01*
G01X3215000Y510000D02*
X4465000D01*
G01Y2030000D02*
X3215000D01*
G01X3200000Y4280000D02*
Y6690000D01*
X3135000Y6755000D01*
Y6805000D01*
G01X3656200Y6500000D02*
Y6317940D01*
X3680000Y6294140D01*
G01X3503800Y6500000D02*
Y6327940D01*
X3470000Y6294140D01*
G01X3656200Y6500000D02*
Y7033800D01*
X3475000Y7215000D01*
X3345000D01*
G01Y7165000D02*
X3465000D01*
X3610000Y7020000D01*
Y6606200D01*
X3503800Y6500000D01*
G01X4423800Y6080000D02*
X4500000Y6156200D01*
Y6730000D01*
X4330000Y6900000D01*
X3980000D01*
X3515000Y7365000D01*
X3345000D01*
G01Y7315000D02*
X3495000D01*
X3940000Y6870000D01*
Y5350640D01*
X4110000Y5180640D01*
X5483960D01*
X5509360Y5206040D01*
Y5334600D01*
X5483960Y5360000D01*
X5079280D01*
X4990000Y5449280D01*
Y5580000D01*
X4912500Y5657500D01*
X4720000D01*
G01X3345000Y7415000D02*
X3525000D01*
X3990000Y6950000D01*
X4350000D01*
X4720000Y6580000D01*
Y5917500D01*
G01X3345000Y7265000D02*
X3485000D01*
X3890000Y6860000D01*
Y5330000D01*
X4080000Y5140000D01*
X5520000D01*
X5560000Y5180000D01*
Y5360000D01*
X5510000Y5410000D01*
X5100000D01*
X5040000Y5470000D01*
Y5700000D01*
X4952500Y5787500D01*
X4720000D01*
G01X3345000Y7465000D02*
X3230000D01*
G01X4020780Y8386500D02*
X3763980D01*
X3160640Y7783160D01*
Y7100000D01*
X3245640Y7015000D01*
X3345000D01*
G01X3135000Y7975000D02*
Y8251200D01*
X3143800Y8260000D01*
G01X4720000Y5852500D02*
X4842500D01*
X4880000Y5890000D01*
Y8060000D01*
X4620000Y8320000D01*
X3760000D01*
X3230000Y7790000D01*
Y7740000D01*
X3255000Y7715000D01*
X3345000D01*
G01Y7765000D02*
X3395000D01*
X3440000Y7810000D01*
G01X4056200Y8160000D02*
X3966200Y8070000D01*
X3870000D01*
X3465000Y7665000D01*
X3345000D01*
G01X4050000Y7516200D02*
X3773800D01*
X3725000Y7565000D01*
X3345000D01*
G01X4050000Y7363800D02*
X3846200D01*
X3695000Y7515000D01*
X3345000D01*
G01X4056200Y7880000D02*
X3966200Y7970000D01*
X3827480D01*
X3472480Y7615000D01*
X3345000D01*
G01X3286200Y9800000D02*
Y9673800D01*
X3335000Y9625000D01*
X3345400D01*
G01X3286200Y9800000D02*
X3443800D01*
G01X3940000Y310000D02*
G03I-100000J0D01*
G01Y1210000D02*
G03I-100000J0D01*
G01Y1830000D02*
G03I-100000J0D01*
G01Y2730000D02*
G03I-100000J0D01*
G01X4046200Y7210000D02*
X4320000D01*
X4360000Y7250000D01*
G01X4050000Y7363800D02*
Y7213800D01*
X4046200Y7210000D01*
G01X4056200Y7670000D02*
X4320000D01*
X4360000Y7630000D01*
G01X4056200Y7670000D02*
Y7522400D01*
X4050000Y7516200D01*
G01X4056200Y7880000D02*
X4345000D01*
X4360000Y7895000D01*
G01X3930000Y8250000D02*
X4180000D01*
G01X4056200Y8160000D02*
X4345000D01*
X4360000Y8145000D01*
G01X4020780Y8513500D02*
X4239220D01*
G01X4020780Y8386500D02*
X4239220D01*
G01X4160000Y8710000D02*
X4413800D01*
G01X4720000Y5462500D02*
Y5306200D01*
X4703800Y5290000D01*
Y5270000D01*
G01X4720000Y5462500D02*
X4723430Y5459070D01*
X4829070D01*
X4847040Y5477040D01*
Y5512960D01*
X4832500Y5527500D01*
X4720000D01*
G01X4423800Y6080000D02*
Y5696200D01*
X4527500Y5592500D01*
X4720000D01*
G01X4450000Y8470000D02*
X4430000Y8450000D01*
X4239220D01*
G01X4783800Y8710000D02*
Y8593800D01*
X4745000Y8555000D01*
X4734600D01*
G01X4413800Y8710000D02*
Y8543800D01*
X4383500Y8513500D01*
X4239220D01*
G01X4540000Y8400000D02*
X4526500Y8386500D01*
X4239220D01*
G01X4734600Y8365000D02*
X4575000D01*
X4540000Y8400000D01*
G01X4420000Y8863800D02*
Y8716200D01*
X4413800Y8710000D01*
G01X4570000Y8863800D02*
X4420000D01*
G01X4570000Y9016200D02*
X4780000D01*
G01X5045000Y1270000D02*
X6295000D01*
G01X5311600Y4793000D02*
Y4615400D01*
X5286200Y4590000D01*
G01X5880000Y4500000D02*
X5220000D01*
X5133800Y4586200D01*
Y4590000D01*
G01X5150000Y5530000D02*
X5152500Y5527500D01*
G01X5150000Y5590000D02*
X5152500Y5592500D01*
G01X5510000Y5570000D02*
X5420000D01*
X5397500Y5592500D01*
X5280000D01*
G01X5140000Y5480000D02*
X5157500Y5462500D01*
X5280000D01*
G01X5152500Y5527500D02*
X5280000D01*
G01X5152500Y5592500D02*
X5280000D01*
G01Y5787500D02*
X5427500D01*
X5440000Y5800000D01*
G01X5280000Y5722500D02*
X5437500D01*
X5440000Y5720000D01*
G01X5280000Y5657500D02*
X5422500D01*
X5440000Y5640000D01*
G01X5206200Y6080000D02*
Y5943800D01*
X5232500Y5917500D01*
X5280000D01*
G01Y5852500D02*
X5402690D01*
X5430190Y5880000D01*
X5440000D01*
G01X5053800Y6080000D02*
Y6230000D01*
G01X5050000Y5960000D02*
Y6076200D01*
X5053800Y6080000D01*
G01X4936200Y8710000D02*
Y8603800D01*
X4985000Y8555000D01*
X5005400D01*
G01X4780000Y8863800D02*
Y8713800D01*
X4783800Y8710000D01*
G01X4930000Y8863800D02*
Y8716200D01*
X4936200Y8710000D01*
G01X4780000Y9016200D02*
Y9300000D01*
G01X4930000D02*
Y9016200D01*
G01X5770000Y1070000D02*
G03I-100000J0D01*
G01Y1970000D02*
G03I-100000J0D01*
G01X5570000Y5660000D02*
X8875050D01*
X8877280Y5662230D01*
G01X8893800Y6530000D02*
X6070000D01*
G01X7175000Y510000D02*
X8425000D01*
G01X7175000Y2000000D02*
X8425000D01*
G01X7900000Y310000D02*
G03I-100000J0D01*
G01Y1210000D02*
G03I-100000J0D01*
G01Y1800000D02*
G03I-100000J0D01*
G01Y2700000D02*
G03I-100000J0D01*
G01X9100000Y5170000D02*
Y5317300D01*
G01Y5662700D02*
X8877750D01*
X8877280Y5662230D01*
G01X9046200Y6530000D02*
X9203800D01*
G01X9120000Y7007000D02*
X9473000D01*
X9510000Y6970000D01*
G01X9221600Y6753000D02*
Y6547800D01*
X9203800Y6530000D01*
G54D35*
X3470000Y6294140D03*
Y6085860D03*
X3680000Y6294140D03*
Y6085860D03*
G54D26*
X1128000Y9750000D03*
X1890000D03*
X8138000D03*
X8900000D03*
G54D17*
X955500Y4010000D03*
Y4550000D03*
X1082500Y4010000D03*
X1209500D03*
X1336500D03*
X1463500D03*
Y4550000D03*
X1336500D03*
X1209500D03*
X1082500D03*
X1590500Y4010000D03*
X1717500D03*
X1844500D03*
Y4550000D03*
X1717500D03*
X1590500D03*
G54D45*
G01X330000Y330000D02*
Y703400D01*
G01Y330000D02*
X703400D01*
G01X362500Y5525000D02*
X520000D01*
G01X362500Y6225000D02*
X520000D01*
G01X270000Y5955200D02*
Y6100000D01*
G01D02*
Y6244800D01*
G01Y6100000D02*
X414800D01*
G01X370000Y8515000D02*
Y8647100D01*
G01X237900Y8515000D02*
X370000D01*
G01D02*
X502100D01*
G01X330000Y9296600D02*
Y9670000D01*
G01D02*
X703400D01*
G01X520000Y5367500D02*
Y5525000D01*
G01D02*
Y5682500D01*
G01Y5525000D02*
X677500D01*
G01X520000Y6067500D02*
Y6225000D01*
G01D02*
X677500D01*
G01X945100Y9750000D02*
X1128000D01*
G01X1385000Y1543630D02*
Y1780000D01*
G01X1148630D02*
X1385000D01*
G01D02*
X1621370D01*
G01X1216000Y6198000D02*
Y6342800D01*
G01X1128000Y9567100D02*
Y9750000D01*
G01D02*
Y9932900D01*
G01Y9750000D02*
X1310900D01*
G01X2398630Y1780000D02*
X2635000D01*
G01X2978630Y1010000D02*
X3215000D01*
G01X2635000Y1543630D02*
Y1780000D01*
G01D02*
Y2016370D01*
G01Y1780000D02*
X2871370D01*
G01X3215000Y773630D02*
Y1010000D01*
G01D02*
Y1246370D01*
G01Y1010000D02*
X3451370D01*
G01X4228630D02*
X4465000D01*
G01Y773630D02*
Y1010000D01*
G01D02*
Y1246370D01*
G01Y1010000D02*
X4701370D01*
G01X5045000Y1533630D02*
Y1770000D01*
G01D02*
Y2006370D01*
G01Y1770000D02*
X5281370D01*
G01X6295000Y1533630D02*
Y1770000D01*
G01D02*
Y2006370D01*
G01X6058630Y1770000D02*
X6295000D01*
G01D02*
X6531370D01*
G01X6938630Y1010000D02*
X7175000D01*
G01X6938630Y2500000D02*
X7175000D01*
G01Y773630D02*
Y1010000D01*
G01D02*
Y1246370D01*
G01Y1010000D02*
X7411370D01*
G01X7175000Y2263630D02*
Y2500000D01*
G01D02*
Y2736370D01*
G01Y2500000D02*
X7411370D01*
G01X7955100Y9750000D02*
X8138000D01*
G01X8425000Y773630D02*
Y1010000D01*
G01D02*
Y1246370D01*
G01X8188630Y1010000D02*
X8425000D01*
G01D02*
X8661370D01*
G01X8425000Y2263630D02*
Y2500000D01*
G01D02*
Y2736370D01*
G01X8188630Y2500000D02*
X8425000D01*
G01D02*
X8661370D01*
G01X8138000Y9567100D02*
Y9750000D01*
G01D02*
Y9932900D01*
G01Y9750000D02*
X8320900D01*
G01X9670000Y330000D02*
Y703400D01*
G01X9296600Y330000D02*
X9670000D01*
G01Y9296600D02*
Y9670000D01*
G01X9296600D02*
X9670000D01*
G54D18*
X730000Y4023800D03*
Y4176200D03*
Y4636200D03*
Y4483800D03*
X1170000Y4803800D03*
Y4956200D03*
X2380000Y6313800D03*
Y6466200D03*
X3070000Y6323800D03*
Y6476200D03*
X4050000Y7363800D03*
Y7516200D03*
X4570000Y8863800D03*
Y9016200D03*
X4420000D03*
Y8863800D03*
X4780000D03*
Y9016200D03*
X4930000Y8863800D03*
Y9016200D03*
G54D36*
X3720000Y8843500D03*
Y9236500D03*
G54D27*
X1795860Y8490000D03*
X2004140D03*
Y9110000D03*
X1795860D03*
X2305860Y8910000D03*
X2514140D03*
X2305860Y9110000D03*
X2514140D03*
X3725860Y9540000D03*
X3934140D03*
X4665860Y4070000D03*
X4874140D03*
G54D46*
G01X330000Y0D02*
X9670000D01*
G03X10000000Y330000I0J330000D01*
G01Y9670000D01*
G03X9670000Y10000000I-330000J0D01*
G01X330000D01*
G03X0Y9670000I0J-330000D01*
G01Y330000D01*
G03X330000Y0I330000J0D01*
G54D37*
X4020780Y8513500D03*
Y8450000D03*
Y8386500D03*
X4239220D03*
Y8450000D03*
Y8513500D03*
G54D19*
X520000Y5525000D03*
Y6225000D03*
G54D28*
X1764600Y8895000D03*
Y8705000D03*
X2035400D03*
Y8800000D03*
Y8895000D03*
X3074600Y9625000D03*
Y9530000D03*
Y9435000D03*
X3345400Y9530000D03*
Y9435000D03*
Y9625000D03*
X4734600Y8555000D03*
Y8460000D03*
Y8365000D03*
X5005400D03*
Y8555000D03*
G54D47*
G01X730000Y4023800D02*
X723800D01*
X650000Y3950000D01*
X210000D01*
X76660Y4083340D01*
Y6526660D01*
X190000Y6640000D01*
G01X4465000Y2530000D02*
X4770000Y2225000D01*
Y1700000D01*
X4570000Y1500000D01*
X3270000D01*
X2520000Y750000D01*
X1070000D01*
X846200Y973800D01*
Y1430000D01*
G01D02*
Y1640000D01*
G01X955500Y2849780D02*
X846200Y2740480D01*
Y1640000D01*
G01X730000Y4023800D02*
X941700D01*
X955500Y4010000D01*
G01X806200Y6480000D02*
Y5883800D01*
X1000000Y5690000D01*
X1216000D01*
G01X806200Y6480000D02*
Y6640000D01*
G01D02*
X1700000D01*
G01X973800Y8690000D02*
X830000D01*
X736200Y8596200D01*
Y8270000D01*
G01X1412000Y2846000D02*
X1408220Y2849780D01*
X955500D01*
G01X1412000Y2846000D02*
X1637800D01*
X1663800Y2820000D01*
G01X955500Y2849780D02*
Y4010000D01*
G01X1336500Y4550000D02*
Y4637300D01*
X1170000Y4803800D01*
G01X1470000Y5690000D02*
X1216000D01*
G01X1490000Y9050000D02*
X1030000D01*
X973800Y8993800D01*
Y8690000D01*
G01X2396500Y2343800D02*
Y2477000D01*
X2353500Y2520000D01*
X1816200D01*
G01X1663800Y2820000D02*
Y2672400D01*
X1816200Y2520000D01*
G01X1663800Y2820000D02*
X1666200D01*
X1816200Y2970000D01*
G01X1930000D02*
X1816200D01*
G01Y3150000D02*
X1930000D01*
G01X1576200Y7370000D02*
X1520000Y7426200D01*
Y7480000D01*
G01D02*
Y7560000D01*
G01Y8130000D02*
X1650000D01*
G01D02*
X1793800D01*
X1803800Y8140000D01*
G01X1650000Y8840000D02*
Y8130000D01*
G01X2170000Y8260000D02*
X1900000D01*
X1803800Y8163800D01*
Y8140000D01*
G01X1526200Y8690000D02*
Y8826880D01*
G01X2650500Y3136200D02*
Y3070500D01*
X2610250Y3030250D01*
X2559430D01*
X2523500Y3066180D01*
Y3136200D01*
G01X2230000Y4177000D02*
X2327000D01*
X2430000Y4280000D01*
Y4820000D01*
X2290000Y4960000D01*
X2276200D01*
G01X2130000Y4177000D02*
X2230000D01*
G01X2150000Y6466200D02*
X2380000D01*
G01X3143800Y8260000D02*
X2170000D01*
G01X2943800Y3130000D02*
X2656700D01*
X2650500Y3136200D01*
G01X2943800Y3130000D02*
Y3026200D01*
G01X3143800Y8260000D02*
Y8446200D01*
X3140000Y8450000D01*
G01X3215000Y2530000D02*
X4465000D01*
G01X4370000Y4240000D02*
X3820000D01*
X3650000Y4410000D01*
Y5210000D01*
G01D02*
X3820000Y5380000D01*
Y6360000D01*
G01X3650000Y5210000D02*
X3470000Y5390000D01*
Y6085860D01*
G01X4020780Y8450000D02*
X4130000D01*
G01X4465000Y2530000D02*
Y3869140D01*
X4665860Y4070000D01*
G01X4703630Y4242680D02*
Y4107770D01*
X4665860Y4070000D01*
G01D02*
X4815860Y3920000D01*
X8710000D01*
X8877280Y4087280D01*
Y5316830D01*
G01X4370000Y4240000D02*
X4700950D01*
X4703630Y4242680D01*
G01X4703800Y4740000D02*
X4600000D01*
G01X4703800Y4590000D02*
X4600000D01*
G01X4526200Y5270000D02*
X4703800D01*
G01X4526200Y5430000D02*
Y5270000D01*
G01X4703800Y4890000D02*
X4600000D01*
G01X4703800Y5040000D02*
X4600000D01*
G01X4320000Y6360000D02*
Y5636200D01*
X4526200Y5430000D01*
G01X4580000Y6360000D02*
Y6083800D01*
X4576200Y6080000D01*
G01X4856200Y4740000D02*
Y4590000D01*
G01Y4890000D02*
Y4740000D01*
G01X5286200Y5270000D02*
X5430000D01*
G01X4856200Y5040000D02*
X5203000D01*
X5210000Y5047000D01*
G01X4856200Y5040000D02*
Y4890000D01*
G01X4990000Y5270000D02*
X5133800D01*
G01X4856200D02*
X4990000D01*
G01X5310000Y6360000D02*
Y8283800D01*
X5223800Y8370000D01*
G01X5310000Y6360000D02*
Y6183800D01*
X5206200Y6080000D01*
G01X5005400Y8365000D02*
X5218800D01*
X5223800Y8370000D01*
G01X5010000Y8450000D02*
Y8369600D01*
X5005400Y8365000D01*
G01X5430000Y5480000D02*
X9460000D01*
X9540000Y5560000D01*
Y6690000D01*
X9350000Y6880000D01*
X8840000D01*
X8750000Y6970000D01*
G54D29*
X1560000Y8900000D03*
X2490000Y8570000D03*
X4160000Y8710000D03*
X4540000Y8400000D03*
G54D38*
X4720000Y5787500D03*
Y5722500D03*
Y5657500D03*
Y5592500D03*
Y5527500D03*
Y5462500D03*
Y5917500D03*
Y5852500D03*
X5280000Y5462500D03*
Y5527500D03*
Y5592500D03*
Y5657500D03*
Y5722500D03*
Y5787500D03*
Y5852500D03*
Y5917500D03*
G54D48*
G01X1610000Y6070000D02*
X1482000Y6198000D01*
X1470000D01*
G01X3596200Y9800000D02*
Y9833800D01*
X3510000Y9920000D01*
X2050000D01*
X1890000Y9760000D01*
Y9750000D01*
G01X3345400Y9530000D02*
X3715860D01*
X3725860Y9540000D01*
G01D02*
Y9674140D01*
X3600000Y9800000D01*
X3596200D01*
G54D39*
X4360000Y7250000D03*
Y7630000D03*
M02*
