M48
METRIC,TZ
T01C.3048
T02C.889
T03C1.016
T04C1.524
T05C2.4892
T06C3.4036
;LEADER: 12 
;HEADER: 
;CODE  : ASCII 
;FILE  : INA193_TEST_V10A-1-2.drl for board H:/GitHub/Current-Shunt-Monitors/HARDWARE/INA193_TEST_V10A/PCB/#Taaaaal06880.tmp ... layers TOP and BOTTOM
;T01 Holesize 1. = 0.304800 Tolerance = +0.000000/-0.000000 PLATED MM Quantity = 327
;T02 Holesize 2. = 0.889000 Tolerance = +0.000000/-0.000000 PLATED MM Quantity = 10
;T03 Holesize 3. = 1.016000 Tolerance = +0.000000/-0.000000 PLATED MM Quantity = 6
;T04 Holesize 4. = 1.524000 Tolerance = +0.000000/-0.000000 PLATED MM Quantity = 6
;T05 Holesize 5. = 2.489200 Tolerance = +0.000000/-0.000000 PLATED MM Quantity = 24
;T06 Holesize 6. = 3.403600 Tolerance = +0.000000/-0.000000 PLATED MM Quantity = 4
%
G90
T01
X1060190Y329890
X1568190Y329890
X2076190Y329890
X2584190Y329890
X4952290Y195780
X4952290Y703780
X5460290Y195780
X5460290Y703780
X5968290Y195780
X5968290Y703780
X6476290Y195780
X6476290Y703780
X9502440Y1278490
X9502440Y770490
X8994440Y1278490
X8994440Y770490
X1809910Y1070140
X570000Y1430000
X179910Y1890140
X570000Y1640000
X679910Y1900140
X1039910Y1880140
X1809910Y1578140
X2840000Y2090000
X8994440Y1786490
X9502440Y1786490
X9545620Y3018250
X9502440Y2294490
X9037620Y3018250
X8994440Y2294490
X8529620Y3018250
X8021620Y3018250
X7513620Y3018250
X7005620Y3018250
X6497620Y3018250
X5354910Y2913230
X5354910Y2405230
X4846910Y2913230
X4846910Y2405230
X3090000Y2980000
X2943800Y3026200
X2840000Y2980000
X2840000Y2390000
X2500000Y2870000
X2320000Y2640000
X2050000Y2640000
X2039910Y2868140
X2039910Y2360140
X1930000Y2970000
X1550000Y2690000
X1550000Y2300000
X1149910Y3010140
X1040000Y2710000
X1039910Y2388140
X739910Y2990140
X679910Y2408140
X259910Y2980140
X179910Y2398140
X259910Y3488140
X739910Y3498140
X1149910Y3518140
X1930000Y3150000
X2610000Y3540000
X2710000Y3540000
X2840000Y3270000
X3090000Y3280000
X3139910Y3600140
X3489910Y3570140
X3834780Y3056570
X3834780Y3564570
X4149910Y3050140
X4149910Y3558140
X4846910Y3421230
X5354910Y3421230
X6497620Y3526250
X7005620Y3526250
X7513620Y3526250
X8021620Y3526250
X8529620Y3526250
X9037620Y3526250
X9545620Y3526250
X8401910Y4142140
X7893910Y4142140
X7385910Y4142140
X6877910Y4142140
X6369910Y4142140
X5880000Y4500000
X5509910Y4390140
X4969860Y4389910
X4461860Y4389910
X4370000Y4240000
X3489910Y4078140
X3200000Y4280000
X3139910Y4108140
X2660000Y4280000
X2130000Y4177000
X1780000Y4370000
X1780000Y4200000
X1587980Y4182640
X1472010Y4182640
X930000Y4190000
X870000Y4440000
X300000Y4920000
X300000Y5150000
X750000Y4970000
X980000Y4970000
X1230000Y5070000
X1230000Y5230000
X1590000Y4920000
X1590000Y5070000
X1590000Y5230000
X1940000Y4700000
X1940000Y4920000
X1940000Y5070000
X1940000Y5210000
X4600000Y4590000
X4600000Y4740000
X4600000Y4890000
X4600000Y5040000
X4990000Y5270000
X5430000Y5270000
X5509910Y4898140
X6369910Y4650140
X6369910Y5158140
X6877910Y4650140
X6877910Y5158140
X7385910Y4650140
X7385910Y5158140
X7893910Y4650140
X7893910Y5158140
X8401910Y4650140
X8401910Y5158140
X9100000Y5170000
X8922670Y5872650
X8414670Y5872650
X7906670Y5872650
X7398670Y5872650
X6890670Y5872650
X6382670Y5872650
X5570000Y5660000
X5440000Y5880000
X5440000Y5800000
X5440000Y5720000
X5440000Y5640000
X5430000Y5480000
X5050000Y5960000
X3639910Y5878140
X3639910Y5370140
X3089910Y5868140
X3089910Y5360140
X2160000Y5460000
X2020000Y5730000
X1700000Y5890000
X1700000Y5620000
X190000Y6480000
X190000Y6640000
X770000Y6780000
X806200Y6640000
X1100000Y6780000
X1410000Y6780000
X1576200Y6370000
X1680000Y6780000
X1700000Y6190000
X1700000Y6300000
X1700000Y6640000
X2000000Y6370000
X2080000Y6300000
X2090000Y6600000
X2150000Y6466200
X2485000Y6665000
X2565000Y6665000
X3070000Y6610000
X3120000Y6680000
X3217520Y6807520
X3300000Y6810000
X3820000Y6360000
X4320000Y6360000
X4400000Y6470000
X4580000Y6360000
X4740090Y6839860
X5121490Y6651740
X5310000Y6360000
X5440090Y6241860
X5440090Y6749860
X6070000Y6530000
X6382670Y6380650
X6382670Y6790650
X6890670Y6380650
X6890670Y6790650
X7398670Y6380650
X7398670Y6790650
X7906670Y6380650
X7906670Y6790650
X8414670Y6380650
X8414670Y6790650
X8922670Y6380650
X9414710Y7536120
X8906710Y7536120
X8398710Y7536120
X7890710Y7536120
X7382710Y7536120
X6874710Y7536120
X6366710Y7536120
X5440090Y7251860
X5121490Y7159740
X4740090Y7341860
X4610000Y7480000
X4610000Y7280000
X4610000Y7070000
X4340000Y7070000
X4030000Y7070000
X3790000Y7290000
X3660000Y7420000
X3230000Y7465000
X3060000Y6930000
X3020000Y7600000
X3020000Y7500000
X2830000Y7540000
X2830000Y7450000
X2830000Y7350000
X2830000Y7240000
X2830000Y7150000
X2510000Y7110000
X2510000Y7020000
X2420000Y6950000
X2360000Y7110000
X2358250Y7018250
X2090000Y6870000
X2055000Y7165000
X1690000Y7570000
X1680000Y7050000
X1520000Y7480000
X1410000Y7050000
X1310000Y7320000
X1100000Y7050000
X770000Y7340000
X770000Y7050000
X730000Y8140000
X1190000Y8130000
X1296000Y7810000
X1296000Y8380000
X1371000Y7941000
X1690000Y7730000
X1760000Y8270000
X1760000Y8360000
X2070000Y8180000
X2170000Y8260000
X2175000Y7845000
X2270000Y7910000
X2410000Y7830000
X2500000Y7830000
X2600000Y8170000
X2750000Y8160000
X2830000Y7630000
X2835000Y8160000
X2900000Y7710000
X2920000Y7840000
X2920000Y8160000
X2990000Y7710000
X3440000Y7810000
X3680000Y7670000
X3790000Y7770000
X3930000Y7780000
X4180000Y7790000
X4610000Y7710000
X4610000Y7900000
X4740090Y7849860
X5440090Y7759860
X6366710Y8044120
X6874710Y8044120
X7382710Y8044120
X7890710Y8044120
X8398710Y8044120
X8906710Y8044120
X9414710Y8044120
X9414710Y8992120
X9414710Y8552120
X8906710Y8992120
X8906710Y8552120
X8398710Y8552120
X8394710Y8992120
X7890710Y8552120
X7886710Y8992120
X7382710Y8552120
X7378710Y8992120
X6874710Y8552120
X6870710Y8992120
X6366710Y8552120
X6362710Y8992120
X5854710Y8992120
X5346710Y8992120
X5010000Y8450000
X4394710Y9142120
X4130000Y8450000
X3886710Y9142120
X3140000Y8450000
X2880000Y8570000
X2800000Y8570000
X2156710Y9022120
X1540000Y9060000
X1371000Y8509000
X1190000Y8510000
X156710Y9192120
X664710Y9192120
X926710Y9382120
X1434710Y9382120
X2156710Y9152120
X2156710Y9282120
X2162120Y9423290
X2292120Y9423290
X2302120Y9283290
X2422120Y9423290
X2432120Y9283290
X2562120Y9283290
X3210000Y9370000
X3210000Y9450000
X3886710Y9272120
X3886710Y9402120
X4394710Y9272120
X4394710Y9402120
X4780000Y9300000
X4930000Y9300000
X5680240Y9649830
X6188240Y9649830
X6696240Y9649830
X7204240Y9649830
X7712240Y9649830
T02
X270000Y5650000
X270000Y6100000
X1216000Y6198000
X1216000Y5944000
X1216000Y5690000
X1470000Y5690000
X1470000Y5944000
X1470000Y6198000
X8750000Y6970000
X9510000Y6970000
T03
X370000Y7265000
X370000Y7515000
X370000Y7765000
X370000Y8015000
X370000Y8265000
X370000Y8515000
T04
X520000Y5525000
X520000Y6225000
X1128000Y9750000
X1890000Y9750000
X8138000Y9750000
X8900000Y9750000
T05
X1385000Y1280000
X1385000Y1780000
X2635000Y1780000
X2635000Y1280000
X3215000Y510000
X3215000Y1010000
X3215000Y2030000
X3215000Y2530000
X4465000Y2530000
X4465000Y2030000
X4465000Y1010000
X4465000Y510000
X5045000Y1270000
X5045000Y1770000
X6295000Y1770000
X6295000Y1270000
X7175000Y510000
X7175000Y1010000
X7175000Y2000000
X7175000Y2500000
X8425000Y2500000
X8425000Y2000000
X8425000Y1010000
X8425000Y510000
T06
X330000Y330000
X9670000Y330000
X9670000Y9670000
X330000Y9670000
M30
