G04 ================== begin FILE IDENTIFICATION RECORD ==================*
G04 Layout Name:  INA193_TEST_V10A.brd*
G04 Film Name:    SilkScreen_Top*
G04 File Format:  Gerber RS274X*
G04 File Origin:  Cadence Allegro 16.6-2015-S095*
G04 Origin Date:  Wed Dec 06 09:56:01 2017*
G04 *
G04 Layer:  BOARD GEOMETRY/OUTLINE*
G04 Layer:  REF DES/SILKSCREEN_TOP*
G04 Layer:  PACKAGE GEOMETRY/SILKSCREEN_TOP*
G04 Layer:  BOARD GEOMETRY/SILKSCREEN_TOP*
G04 *
G04 Offset:    (0.0000 0.0000)*
G04 Mirror:    No*
G04 Mode:      Positive*
G04 Rotation:  0*
G04 FullContactRelief:  No*
G04 UndefLineWidth:     0.1524*
G04 ================== end FILE IDENTIFICATION RECORD ====================*
%FSLAX55Y55*MOMM*%
%IR0*IPPOS*OFA0.00000B0.00000*MIA0B0*SFA1.00000B1.00000*%
%ADD10C,.2032*%
%ADD11C,.17*%
%ADD12C,.127*%
%ADD13C,.254*%
%ADD14C,.1524*%
%ADD15C,.3048*%
%ADD16C,.1778*%
G75*
%LPD*%
G75*
G36*
G01X90000Y8774000D02*
X40000D01*
Y8724000D01*
X90000D01*
Y8774000D01*
G37*
G36*
G01X1560000Y5520000D02*
X1640000D01*
Y5600000D01*
X1560000D01*
Y5520000D01*
G37*
G36*
G01X4342360Y6760000D02*
G03I-22360J0D01*
G37*
G54D10*
G01X142200Y1341100D02*
X497800D01*
Y1518900D01*
X142200D01*
Y1341100D01*
G01Y1551100D02*
X497800D01*
Y1728900D01*
X142200D01*
Y1551100D01*
G01X360000Y2450000D02*
G03I-50000J0D01*
G01Y3250000D02*
G03I-50000J0D01*
G54D11*
G01X470000Y4090000D02*
G03I-30000J0D01*
G01Y4490000D02*
G03I-30000J0D01*
G54D12*
G01X9175000Y4270000D02*
G03I-75000J0D01*
G01Y5020000D02*
G03I-75000J0D01*
G54D13*
G01X-10000Y4664000D02*
Y3924000D01*
X490000D01*
Y4664000D01*
X-10000D01*
G01X364000D02*
Y3933000D01*
G01X130000Y4490000D02*
Y4090000D01*
X320000D01*
Y4490000D01*
X130000D01*
G01X320000Y4330000D02*
X130000D01*
G01X320000Y4240000D02*
X130000D01*
G01X16000Y5668200D02*
X-84000D01*
X-85600Y5669800D01*
Y6074600D01*
X16000D01*
G01X650000Y6360000D02*
Y5390000D01*
X300000D01*
Y5450000D01*
X20000D01*
Y6300000D01*
X300000D01*
Y6360000D01*
X650000D01*
G01X630000Y7004000D02*
Y7054000D01*
X370000D01*
Y7004000D01*
G01X630000Y8784000D02*
X30000D01*
Y7004000D01*
X630000D01*
Y7184000D01*
X580000D01*
Y7344000D01*
X630000D01*
Y8444000D01*
X580000D01*
Y8604000D01*
X630000D01*
Y8784000D01*
G01Y8734000D02*
X370000D01*
Y8784000D01*
G01X630000Y7344000D02*
Y7184000D01*
G01Y8604000D02*
Y7343840D01*
G01D02*
Y7684000D01*
G01X1428000Y9250000D02*
G03I-300000J0D01*
G01X790000Y8800000D02*
Y9960000D01*
G01X2280000Y8800000D02*
X740000D01*
Y9960000D01*
X2280000D01*
Y8800000D01*
G01X1090000Y8960000D02*
Y9210000D01*
X840000D01*
G01Y9290000D02*
X1090000D01*
Y9540000D01*
G01X2630000Y1070000D02*
Y910000D01*
X1390000D01*
Y1070000D01*
G01Y1570000D02*
Y1490000D01*
G01Y1990000D02*
Y2150000D01*
X2630000D01*
Y1990000D01*
G01X1420000Y9210000D02*
X1170000D01*
Y8960000D01*
G01X1485000Y8800000D02*
Y9960000D01*
G01X1170000Y9540000D02*
Y9290000D01*
X1420000D01*
G01X2120000Y680000D02*
Y800000D01*
X1980000D01*
Y870000D01*
X1850000Y740000D01*
X1980000Y610000D01*
Y680000D01*
X2120000D01*
G01X1860000Y1380000D02*
X2160000D01*
Y1680000D01*
X1860000D01*
Y1380000D01*
G01X2310000Y1530000D02*
G03I-300000J0D01*
G01X2110000Y1080000D02*
G03I-100000J0D01*
G01Y1980000D02*
G03I-100000J0D01*
G01X2020000Y7660000D02*
Y3370000D01*
X8060000D01*
Y7660000D01*
X2020000D01*
G01X1850000Y8960000D02*
Y9210000D01*
X1600000D01*
G01X2180000D02*
X1930000D01*
Y8960000D01*
G01X2190000Y9250000D02*
G03I-300000J0D01*
G01X1535000Y8800000D02*
Y9960000D01*
G01X1930000Y9540000D02*
Y9290000D01*
X2180000D01*
G01X1600000D02*
X1850000D01*
Y9540000D01*
G01X2230000Y8800000D02*
Y9960000D01*
G01X2630000Y1570000D02*
Y1490000D01*
G01X4460000Y300000D02*
Y140000D01*
X3220000D01*
Y300000D01*
G01Y800000D02*
Y720000D01*
G01X4140000Y760000D02*
G03I-300000J0D01*
G01X3220000Y1220000D02*
Y1380000D01*
X4460000D01*
Y1220000D01*
G01Y1820000D02*
Y1660000D01*
X3220000D01*
Y1820000D01*
G01Y2320000D02*
Y2240000D01*
G01X4140000Y2280000D02*
G03I-300000J0D01*
G01X3220000Y2740000D02*
Y2900000D01*
X4460000D01*
Y2740000D01*
G01X3940000Y310000D02*
G03I-100000J0D01*
G01X3690000Y610000D02*
X3990000D01*
Y910000D01*
X3690000D01*
Y610000D01*
G01X3940000Y1210000D02*
G03I-100000J0D01*
G01Y1830000D02*
G03I-100000J0D01*
G01X3690000Y2130000D02*
X3990000D01*
Y2430000D01*
X3690000D01*
Y2130000D01*
G01X3940000Y2730000D02*
G03I-100000J0D01*
G01X4850000Y400000D02*
X4730000D01*
Y260000D01*
X4660000D01*
X4790000Y130000D01*
X4920000Y260000D01*
X4850000D01*
Y400000D01*
G01X4460000Y800000D02*
Y720000D01*
G01Y2320000D02*
Y2240000D01*
G01X4720000Y2620000D02*
X4840000D01*
Y2760000D01*
X4910000D01*
X4780000Y2890000D01*
X4650000Y2760000D01*
X4720000D01*
Y2620000D01*
G01X5256240Y9112040D02*
X4463760D01*
Y9487960D01*
X5256240D01*
Y9112040D01*
G01X5255060Y9518130D02*
X4462580D01*
Y9894050D01*
X5255060D01*
Y9518130D01*
G01X6290000Y1060000D02*
Y900000D01*
X5050000D01*
Y1060000D01*
G01Y1560000D02*
Y1480000D01*
G01Y1980000D02*
Y2140000D01*
X6290000D01*
Y1980000D01*
G01X5580000Y790000D02*
Y670000D01*
X5720000D01*
Y600000D01*
X5850000Y730000D01*
X5720000Y860000D01*
Y790000D01*
X5580000D01*
G01X5520000Y1370000D02*
X5820000D01*
Y1670000D01*
X5520000D01*
Y1370000D01*
G01X5970000Y1520000D02*
G03I-300000J0D01*
G01X5770000Y1070000D02*
G03I-100000J0D01*
G01Y1970000D02*
G03I-100000J0D01*
G01X6290000Y1560000D02*
Y1480000D01*
G01X8420000Y300000D02*
Y140000D01*
X7180000D01*
Y300000D01*
G01Y800000D02*
Y720000D01*
G01Y1220000D02*
Y1380000D01*
X8420000D01*
Y1220000D01*
G01Y1790000D02*
Y1630000D01*
X7180000D01*
Y1790000D01*
G01Y2290000D02*
Y2210000D01*
G01Y2710000D02*
Y2870000D01*
X8420000D01*
Y2710000D01*
G01X7900000Y310000D02*
G03I-100000J0D01*
G01X7650000Y610000D02*
X7950000D01*
Y910000D01*
X7650000D01*
Y610000D01*
G01X8100000Y760000D02*
G03I-300000J0D01*
G01X7900000Y1210000D02*
G03I-100000J0D01*
G01X8100000Y2250000D02*
G03I-300000J0D01*
G01X7900000Y1800000D02*
G03I-100000J0D01*
G01X7650000Y2100000D02*
X7950000D01*
Y2400000D01*
X7650000D01*
Y2100000D01*
G01X7900000Y2700000D02*
G03I-100000J0D01*
G01X8438000Y9250000D02*
G03I-300000J0D01*
G01X7800000Y8800000D02*
Y9960000D01*
G01X9290000Y8800000D02*
X7750000D01*
Y9960000D01*
X9290000D01*
Y8800000D01*
G01X8100000Y8960000D02*
Y9210000D01*
X7850000D01*
G01Y9290000D02*
X8100000D01*
Y9540000D01*
G01X8420000Y800000D02*
Y720000D01*
G01Y2290000D02*
Y2210000D01*
G01X9900000Y4640000D02*
G03I-800000J0D01*
G01X9810000Y5090000D02*
Y5440000D01*
X8390000D01*
Y5090000D01*
X9810000D01*
G01X8570000Y7040000D02*
Y6900000D01*
G01X8640000Y6970000D02*
G03I-70000J0D01*
G01X9700000D02*
G03I-610000J0D01*
G01X8510000D02*
X8640000D01*
G01X8430000Y9210000D02*
X8180000D01*
Y8960000D01*
G01X8495000Y8800000D02*
Y9960000D01*
G01X8545000Y8800000D02*
Y9960000D01*
G01X8180000Y9540000D02*
Y9290000D01*
X8430000D01*
G01X8710000Y140000D02*
Y330000D01*
X8810000Y430000D01*
X8910000Y330000D01*
Y140000D01*
X8710000D01*
G01X8810000Y1920000D02*
G02X8682180Y1837120I0J-140004D01*
G01X8680000Y1830000D01*
X8620000Y1780000D01*
G01X8680000Y1830000D02*
X8730000Y1780000D01*
G01X9230000Y6970000D02*
G03I-100000J0D01*
G01X8860000Y8960000D02*
Y9210000D01*
X8610000D01*
G01X9190000D02*
X8940000D01*
Y8960000D01*
G01X9200000Y9250000D02*
G03I-300000J0D01*
G01X8940000Y9540000D02*
Y9290000D01*
X9190000D01*
G01X8610000D02*
X8860000D01*
Y9540000D01*
G01X9240000Y8800000D02*
Y9960000D01*
G54D14*
G01X330000Y0D02*
X9670000D01*
G03X10000000Y330000I0J330000D01*
G01Y9670000D01*
G03X9670000Y10000000I-330000J0D01*
G01X330000D01*
G03X0Y9670000I0J-330000D01*
G01Y330000D01*
G03X330000Y0I330000J0D01*
G01X140670Y1760000D02*
Y1870000D01*
X167330D01*
X178000Y1864500D01*
X186000Y1857170D01*
X192670Y1846170D01*
X198000Y1833330D01*
X199330Y1815000D01*
X198000Y1796670D01*
X192670Y1783830D01*
X186000Y1772830D01*
X178000Y1765500D01*
X167330Y1760000D01*
X140670D01*
G01X234670Y1805830D02*
X244000Y1818670D01*
X252000Y1826000D01*
X262670Y1829670D01*
X272000Y1826000D01*
X278670Y1818670D01*
X284000Y1807670D01*
X285330Y1794830D01*
X284000Y1783830D01*
X278670Y1772830D01*
X270670Y1763670D01*
X261330Y1760000D01*
X250670Y1763670D01*
X241330Y1774660D01*
X236000Y1791170D01*
X234670Y1809500D01*
X237330Y1833330D01*
X241330Y1846170D01*
X248000Y1859000D01*
X257330Y1868170D01*
X266670Y1870000D01*
X276000Y1866330D01*
X282670Y1857170D01*
G01X140670Y1900000D02*
Y2010000D01*
X167330D01*
X178000Y2004500D01*
X186000Y1997170D01*
X192670Y1986170D01*
X198000Y1973330D01*
X199330Y1955000D01*
X198000Y1936670D01*
X192670Y1923830D01*
X186000Y1912830D01*
X178000Y1905500D01*
X167330Y1900000D01*
X140670D01*
G01X230670Y1916500D02*
X238670Y1907330D01*
X248000Y1901830D01*
X260000Y1900000D01*
X272000Y1903670D01*
X281330Y1911000D01*
X288000Y1923830D01*
X289330Y1938500D01*
X286670Y1953170D01*
X280000Y1962330D01*
X270670Y1969670D01*
X261330Y1971500D01*
X252000Y1969670D01*
X240000Y1962330D01*
X244000Y2010000D01*
X280000D01*
G01X40670Y4910000D02*
Y4831170D01*
X46000Y4814660D01*
X56670Y4803670D01*
X70000Y4800000D01*
X83330Y4803670D01*
X94000Y4814660D01*
X99330Y4831170D01*
Y4910000D01*
G01X132000Y4814660D02*
X142670Y4805500D01*
X154670Y4800000D01*
X165330D01*
X176000Y4805500D01*
X184000Y4814660D01*
X188000Y4827500D01*
X185330Y4840330D01*
X178670Y4851330D01*
X166670Y4858670D01*
X150670Y4862330D01*
X141330Y4869670D01*
X137330Y4882500D01*
X140000Y4895330D01*
X146670Y4904500D01*
X156000Y4910000D01*
X165330D01*
X174670Y4906330D01*
X182670Y4897170D01*
G01X260670Y4858670D02*
X266000Y4864170D01*
X270000Y4873330D01*
X272670Y4886170D01*
X270000Y4897170D01*
X264670Y4904500D01*
X255330Y4910000D01*
X219330D01*
Y4800000D01*
X263330D01*
X272670Y4807330D01*
X278000Y4818330D01*
X280670Y4831170D01*
X278000Y4844000D01*
X270000Y4855000D01*
X260670Y4858670D01*
X219330D01*
G01X322670Y4836670D02*
X357330D01*
G01X430000Y4910000D02*
Y4800000D01*
G01X399330Y4910000D02*
X460670D01*
G01X520000D02*
Y4800000D01*
G01X489330Y4910000D02*
X550670D01*
G01X583330D02*
Y4800000D01*
X636670D01*
G01X40670Y5050000D02*
Y4971170D01*
X46000Y4954660D01*
X56670Y4943670D01*
X70000Y4940000D01*
X83330Y4943670D01*
X94000Y4954660D01*
X99330Y4971170D01*
Y5050000D01*
G01X132000Y4954660D02*
X142670Y4945500D01*
X154670Y4940000D01*
X165330D01*
X176000Y4945500D01*
X184000Y4954660D01*
X188000Y4967500D01*
X185330Y4980330D01*
X178670Y4991330D01*
X166670Y4998670D01*
X150670Y5002330D01*
X141330Y5009670D01*
X137330Y5022500D01*
X140000Y5035330D01*
X146670Y5044500D01*
X156000Y5050000D01*
X165330D01*
X174670Y5046330D01*
X182670Y5037170D01*
G01X260670Y4998670D02*
X266000Y5004170D01*
X270000Y5013330D01*
X272670Y5026170D01*
X270000Y5037170D01*
X264670Y5044500D01*
X255330Y5050000D01*
X219330D01*
Y4940000D01*
X263330D01*
X272670Y4947330D01*
X278000Y4958330D01*
X280670Y4971170D01*
X278000Y4984000D01*
X270000Y4995000D01*
X260670Y4998670D01*
X219330D01*
G01X340000Y4940000D02*
Y5050000D01*
X324000Y5028000D01*
G01Y4940000D02*
X356000D01*
G01X43330Y6400000D02*
Y6510000D01*
X76670D01*
X87330Y6504500D01*
X94000Y6497170D01*
X96670Y6482500D01*
X94000Y6467830D01*
X86000Y6458670D01*
X76670Y6453170D01*
X43330D01*
G01X76670D02*
X96670Y6400000D01*
G01X186670D02*
X133330D01*
Y6510000D01*
X186670D01*
G01X165330Y6456830D02*
X133330D01*
G01X222000Y6414660D02*
X232670Y6405500D01*
X244670Y6400000D01*
X255330D01*
X266000Y6405500D01*
X274000Y6414660D01*
X278000Y6427500D01*
X275330Y6440330D01*
X268670Y6451330D01*
X256670Y6458670D01*
X240670Y6462330D01*
X231330Y6469670D01*
X227330Y6482500D01*
X230000Y6495330D01*
X236670Y6504500D01*
X246000Y6510000D01*
X255330D01*
X264670Y6506330D01*
X272670Y6497170D01*
G01X366670Y6400000D02*
X313330D01*
Y6510000D01*
X366670D01*
G01X345330Y6456830D02*
X313330D01*
G01X430000Y6510000D02*
Y6400000D01*
G01X399330Y6510000D02*
X460670D01*
G01X42000Y6564660D02*
X52670Y6555500D01*
X64670Y6550000D01*
X75330D01*
X86000Y6555500D01*
X94000Y6564660D01*
X98000Y6577500D01*
X95330Y6590330D01*
X88670Y6601330D01*
X76670Y6608670D01*
X60670Y6612330D01*
X51330Y6619670D01*
X47330Y6632500D01*
X50000Y6645330D01*
X56670Y6654500D01*
X66000Y6660000D01*
X75330D01*
X84670Y6656330D01*
X92670Y6647170D01*
G01X120000Y6660000D02*
X138670Y6550000D01*
X160000Y6660000D01*
X181330Y6550000D01*
X200000Y6660000D01*
G01X250000Y6550000D02*
Y6660000D01*
X234000Y6638000D01*
G01Y6550000D02*
X266000D01*
G01X43330Y8852000D02*
X50000Y8841000D01*
X58000Y8833670D01*
X67330Y8830000D01*
X78000Y8833670D01*
X86000Y8841000D01*
X94000Y8852000D01*
X96670Y8866670D01*
Y8940000D01*
G01X176000Y8830000D02*
Y8940000D01*
X126670Y8861170D01*
X193330D01*
G01X55330Y9220000D02*
Y9330000D01*
X90000Y9238330D01*
X124670Y9330000D01*
Y9220000D01*
G01X152000D02*
Y9330000D01*
G01X208000D02*
Y9220000D01*
G01Y9275000D02*
X152000D01*
G01X286000Y9220000D02*
Y9330000D01*
X236670Y9251170D01*
X303330D01*
G01X655330Y40000D02*
Y150000D01*
X690000Y58330D01*
X724670Y150000D01*
Y40000D01*
G01X752000D02*
Y150000D01*
G01X808000D02*
Y40000D01*
G01Y95000D02*
X752000D01*
G01X870000Y40000D02*
Y150000D01*
X854000Y128000D01*
G01Y40000D02*
X886000D01*
G01X543330Y1370000D02*
Y1480000D01*
X575330D01*
X586000Y1474500D01*
X594000Y1461670D01*
X596670Y1447000D01*
X594000Y1432330D01*
X587330Y1421330D01*
X575330Y1415830D01*
X543330D01*
G01X660000Y1370000D02*
X649330Y1371830D01*
X640000Y1379160D01*
X632000Y1390170D01*
X626670Y1403000D01*
X624000Y1417670D01*
Y1432330D01*
X626670Y1447000D01*
X632000Y1459830D01*
X640000Y1470830D01*
X649330Y1478170D01*
X660000Y1480000D01*
X670670Y1478170D01*
X680000Y1470830D01*
X688000Y1459830D01*
X693330Y1447000D01*
X696000Y1432330D01*
Y1417670D01*
X693330Y1403000D01*
X688000Y1390170D01*
X680000Y1379160D01*
X670670Y1371830D01*
X660000Y1370000D01*
G01X710000Y1480000D02*
X728670Y1370000D01*
X750000Y1480000D01*
X771330Y1370000D01*
X790000Y1480000D01*
G01X866670Y1370000D02*
X813330D01*
Y1480000D01*
X866670D01*
G01X845330Y1426830D02*
X813330D01*
G01X903330Y1370000D02*
Y1480000D01*
X936670D01*
X947330Y1474500D01*
X954000Y1467170D01*
X956670Y1452500D01*
X954000Y1437830D01*
X946000Y1428670D01*
X936670Y1423170D01*
X903330D01*
G01X936670D02*
X956670Y1370000D01*
G01X543330Y1690000D02*
Y1580000D01*
X596670D01*
G01X686670D02*
X633330D01*
Y1690000D01*
X686670D01*
G01X665330Y1636830D02*
X633330D01*
G01X720670Y1580000D02*
Y1690000D01*
X747330D01*
X758000Y1684500D01*
X766000Y1677170D01*
X772670Y1666170D01*
X778000Y1653330D01*
X779330Y1635000D01*
X778000Y1616670D01*
X772670Y1603830D01*
X766000Y1592830D01*
X758000Y1585500D01*
X747330Y1580000D01*
X720670D01*
G01X840000Y1690000D02*
X829330Y1686330D01*
X821330Y1677170D01*
X816000Y1666170D01*
X812000Y1651500D01*
X810670Y1635000D01*
X812000Y1618500D01*
X816000Y1603830D01*
X821330Y1592830D01*
X829330Y1583670D01*
X840000Y1580000D01*
X850670Y1583670D01*
X858670Y1592830D01*
X864000Y1603830D01*
X868000Y1618500D01*
X869330Y1635000D01*
X868000Y1651500D01*
X864000Y1666170D01*
X858670Y1677170D01*
X850670Y1686330D01*
X840000Y1690000D01*
G01X702000Y7474660D02*
X712670Y7465500D01*
X724670Y7460000D01*
X735330D01*
X746000Y7465500D01*
X754000Y7474660D01*
X758000Y7487500D01*
X755330Y7500330D01*
X748670Y7511330D01*
X736670Y7518670D01*
X720670Y7522330D01*
X711330Y7529670D01*
X707330Y7542500D01*
X710000Y7555330D01*
X716670Y7564500D01*
X726000Y7570000D01*
X735330D01*
X744670Y7566330D01*
X752670Y7557170D01*
G01X780000Y7570000D02*
X798670Y7460000D01*
X820000Y7570000D01*
X841330Y7460000D01*
X860000Y7570000D01*
G01X880670Y7460000D02*
Y7570000D01*
X907330D01*
X918000Y7564500D01*
X926000Y7557170D01*
X932670Y7546170D01*
X938000Y7533330D01*
X939330Y7515000D01*
X938000Y7496670D01*
X932670Y7483830D01*
X926000Y7472830D01*
X918000Y7465500D01*
X907330Y7460000D01*
X880670D01*
G01X984000Y7570000D02*
X1016000D01*
G01X1000000D02*
Y7460000D01*
G01X984000D02*
X1016000D01*
G01X1090000D02*
X1079330Y7461830D01*
X1070000Y7469160D01*
X1062000Y7480170D01*
X1056670Y7493000D01*
X1054000Y7507670D01*
Y7522330D01*
X1056670Y7537000D01*
X1062000Y7549830D01*
X1070000Y7560830D01*
X1079330Y7568170D01*
X1090000Y7570000D01*
X1100670Y7568170D01*
X1110000Y7560830D01*
X1118000Y7549830D01*
X1123330Y7537000D01*
X1126000Y7522330D01*
Y7507670D01*
X1123330Y7493000D01*
X1118000Y7480170D01*
X1110000Y7469160D01*
X1100670Y7461830D01*
X1090000Y7460000D01*
G01X702000Y7214660D02*
X712670Y7205500D01*
X724670Y7200000D01*
X735330D01*
X746000Y7205500D01*
X754000Y7214660D01*
X758000Y7227500D01*
X755330Y7240330D01*
X748670Y7251330D01*
X736670Y7258670D01*
X720670Y7262330D01*
X711330Y7269670D01*
X707330Y7282500D01*
X710000Y7295330D01*
X716670Y7304500D01*
X726000Y7310000D01*
X735330D01*
X744670Y7306330D01*
X752670Y7297170D01*
G01X780000Y7310000D02*
X798670Y7200000D01*
X820000Y7310000D01*
X841330Y7200000D01*
X860000Y7310000D01*
G01X939330Y7300830D02*
X931330Y7306330D01*
X922000Y7310000D01*
X911330D01*
X899330Y7304500D01*
X890000Y7295330D01*
X883330Y7284330D01*
X878000Y7266000D01*
X876670Y7249500D01*
X879330Y7233000D01*
X883330Y7222000D01*
X891330Y7211000D01*
X900670Y7203670D01*
X910000Y7200000D01*
X919330D01*
X928670Y7203670D01*
X936670Y7209160D01*
X943330Y7216500D01*
G01X973330Y7310000D02*
Y7200000D01*
X1026670D01*
G01X1060670D02*
Y7310000D01*
G01X1111330D02*
X1060670Y7242160D01*
G01X1119330Y7200000D02*
X1083330Y7273330D01*
G01X699330Y7970000D02*
Y8080000D01*
X760670Y7970000D01*
Y8080000D01*
G01X793330Y7970000D02*
Y8080000D01*
X826670D01*
X837330Y8074500D01*
X844000Y8067170D01*
X846670Y8052500D01*
X844000Y8037830D01*
X836000Y8028670D01*
X826670Y8023170D01*
X793330D01*
G01X826670D02*
X846670Y7970000D01*
G01X882000Y7984660D02*
X892670Y7975500D01*
X904670Y7970000D01*
X915330D01*
X926000Y7975500D01*
X934000Y7984660D01*
X938000Y7997500D01*
X935330Y8010330D01*
X928670Y8021330D01*
X916670Y8028670D01*
X900670Y8032330D01*
X891330Y8039670D01*
X887330Y8052500D01*
X890000Y8065330D01*
X896670Y8074500D01*
X906000Y8080000D01*
X915330D01*
X924670Y8076330D01*
X932670Y8067170D01*
G01X1000000Y8080000D02*
Y7970000D01*
G01X969330Y8080000D02*
X1030670D01*
G01X699330Y7710000D02*
Y7820000D01*
X760670Y7710000D01*
Y7820000D01*
G01X849330Y7810830D02*
X841330Y7816330D01*
X832000Y7820000D01*
X821330D01*
X809330Y7814500D01*
X800000Y7805330D01*
X793330Y7794330D01*
X788000Y7776000D01*
X786670Y7759500D01*
X789330Y7743000D01*
X793330Y7732000D01*
X801330Y7721000D01*
X810670Y7713670D01*
X820000Y7710000D01*
X829330D01*
X838670Y7713670D01*
X846670Y7719160D01*
X853330Y7726500D01*
G01X738000Y8525000D02*
X764670D01*
Y8492000D01*
X756670Y8481000D01*
X747330Y8473670D01*
X734000Y8470000D01*
X720670Y8473670D01*
X711330Y8481000D01*
X703330Y8492000D01*
X698000Y8504830D01*
X695330Y8519500D01*
Y8532330D01*
X698000Y8543330D01*
X703330Y8556170D01*
X711330Y8567170D01*
X719330Y8574500D01*
X730000Y8580000D01*
X739330D01*
X750000Y8576330D01*
X758000Y8569000D01*
G01X789330Y8470000D02*
Y8580000D01*
X850670Y8470000D01*
Y8580000D01*
G01X880670Y8470000D02*
Y8580000D01*
X907330D01*
X918000Y8574500D01*
X926000Y8567170D01*
X932670Y8556170D01*
X938000Y8543330D01*
X939330Y8525000D01*
X938000Y8506670D01*
X932670Y8493830D01*
X926000Y8482830D01*
X918000Y8475500D01*
X907330Y8470000D01*
X880670D01*
G01X700670Y8242000D02*
X708670Y8229160D01*
X719330Y8221830D01*
X731330Y8220000D01*
X742000Y8221830D01*
X752670Y8231000D01*
X759330Y8242000D01*
X760670Y8253000D01*
X758000Y8265830D01*
X748670Y8275000D01*
X739330Y8278670D01*
X727330D01*
G01X739330D02*
X747330Y8284170D01*
X754000Y8293330D01*
X756670Y8304330D01*
X754000Y8315330D01*
X747330Y8324500D01*
X735330Y8330000D01*
X723330Y8328170D01*
X711330Y8320830D01*
G01X786670Y8330000D02*
X820000Y8220000D01*
X853330Y8330000D01*
G01X880670Y8242000D02*
X888670Y8229160D01*
X899330Y8221830D01*
X911330Y8220000D01*
X922000Y8221830D01*
X932670Y8231000D01*
X939330Y8242000D01*
X940670Y8253000D01*
X938000Y8265830D01*
X928670Y8275000D01*
X919330Y8278670D01*
X907330D01*
G01X919330D02*
X927330Y8284170D01*
X934000Y8293330D01*
X936670Y8304330D01*
X934000Y8315330D01*
X927330Y8324500D01*
X915330Y8330000D01*
X903330Y8328170D01*
X891330Y8320830D01*
G01X1392000Y2224660D02*
X1402670Y2215500D01*
X1414670Y2210000D01*
X1425330D01*
X1436000Y2215500D01*
X1444000Y2224660D01*
X1448000Y2237500D01*
X1445330Y2250330D01*
X1438670Y2261330D01*
X1426670Y2268670D01*
X1410670Y2272330D01*
X1401330Y2279670D01*
X1397330Y2292500D01*
X1400000Y2305330D01*
X1406670Y2314500D01*
X1416000Y2320000D01*
X1425330D01*
X1434670Y2316330D01*
X1442670Y2307170D01*
G01X1470000Y2320000D02*
X1488670Y2210000D01*
X1510000Y2320000D01*
X1531330Y2210000D01*
X1550000Y2320000D01*
G01X1570670Y2232000D02*
X1578670Y2219160D01*
X1589330Y2211830D01*
X1601330Y2210000D01*
X1612000Y2211830D01*
X1622670Y2221000D01*
X1629330Y2232000D01*
X1630670Y2243000D01*
X1628000Y2255830D01*
X1618670Y2265000D01*
X1609330Y2268670D01*
X1597330D01*
G01X1609330D02*
X1617330Y2274170D01*
X1624000Y2283330D01*
X1626670Y2294330D01*
X1624000Y2305330D01*
X1617330Y2314500D01*
X1605330Y2320000D01*
X1593330Y2318170D01*
X1581330Y2310830D01*
G01X1043330Y6452000D02*
X1050000Y6441000D01*
X1058000Y6433670D01*
X1067330Y6430000D01*
X1078000Y6433670D01*
X1086000Y6441000D01*
X1094000Y6452000D01*
X1096670Y6466670D01*
Y6540000D01*
G01X1130670Y6452000D02*
X1138670Y6439160D01*
X1149330Y6431830D01*
X1161330Y6430000D01*
X1172000Y6431830D01*
X1182670Y6441000D01*
X1189330Y6452000D01*
X1190670Y6463000D01*
X1188000Y6475830D01*
X1178670Y6485000D01*
X1169330Y6488670D01*
X1157330D01*
G01X1169330D02*
X1177330Y6494170D01*
X1184000Y6503330D01*
X1186670Y6514330D01*
X1184000Y6525330D01*
X1177330Y6534500D01*
X1165330Y6540000D01*
X1153330Y6538170D01*
X1141330Y6530830D01*
G01X1028000Y8685000D02*
X1054670D01*
Y8652000D01*
X1046670Y8641000D01*
X1037330Y8633670D01*
X1024000Y8630000D01*
X1010670Y8633670D01*
X1001330Y8641000D01*
X993330Y8652000D01*
X988000Y8664830D01*
X985330Y8679500D01*
Y8692330D01*
X988000Y8703330D01*
X993330Y8716170D01*
X1001330Y8727170D01*
X1009330Y8734500D01*
X1020000Y8740000D01*
X1029330D01*
X1040000Y8736330D01*
X1048000Y8729000D01*
G01X1079330Y8630000D02*
Y8740000D01*
X1140670Y8630000D01*
Y8740000D01*
G01X1170670Y8630000D02*
Y8740000D01*
X1197330D01*
X1208000Y8734500D01*
X1216000Y8727170D01*
X1222670Y8716170D01*
X1228000Y8703330D01*
X1229330Y8685000D01*
X1228000Y8666670D01*
X1222670Y8653830D01*
X1216000Y8642830D01*
X1208000Y8635500D01*
X1197330Y8630000D01*
X1170670D01*
G01X2010670Y7820000D02*
Y7741170D01*
X2016000Y7724660D01*
X2026670Y7713670D01*
X2040000Y7710000D01*
X2053330Y7713670D01*
X2064000Y7724660D01*
X2069330Y7741170D01*
Y7820000D01*
G01X2104670Y7801670D02*
X2112670Y7812660D01*
X2122000Y7818170D01*
X2132670Y7820000D01*
X2146000Y7816330D01*
X2155330Y7807170D01*
X2158000Y7796170D01*
X2156670Y7785160D01*
X2151330Y7776000D01*
X2124670Y7757670D01*
X2112670Y7744830D01*
X2104670Y7726500D01*
X2102000Y7710000D01*
X2158000D01*
G01X1585330Y8450000D02*
Y8560000D01*
X1620000Y8468330D01*
X1654670Y8560000D01*
Y8450000D01*
G01X1676670D02*
X1710000Y8560000D01*
X1743330Y8450000D01*
G01X1731330Y8488500D02*
X1688670D01*
G01X1772000Y8450000D02*
X1828000Y8560000D01*
G01X1772000D02*
X1828000Y8450000D01*
G01X1890000Y8446330D02*
X1887330Y8448170D01*
Y8451830D01*
X1890000Y8453670D01*
X1892670Y8451830D01*
Y8448170D01*
X1890000Y8446330D01*
G01Y8495830D02*
X1887330Y8497670D01*
Y8501330D01*
X1890000Y8503170D01*
X1892670Y8501330D01*
Y8497670D01*
X1890000Y8495830D01*
G01X1954670Y8541670D02*
X1962670Y8552660D01*
X1972000Y8558170D01*
X1982670Y8560000D01*
X1996000Y8556330D01*
X2005330Y8547170D01*
X2008000Y8536170D01*
X2006670Y8525160D01*
X2001330Y8516000D01*
X1974670Y8497670D01*
X1962670Y8484830D01*
X1954670Y8466500D01*
X1952000Y8450000D01*
X2008000D01*
G01X2086000D02*
Y8560000D01*
X2036670Y8481170D01*
X2103330D01*
G01X2126670Y8560000D02*
X2160000Y8450000D01*
X2193330Y8560000D01*
G01X1626670Y8740000D02*
X1660000Y8630000D01*
X1693330Y8740000D01*
G01X1779330Y8730830D02*
X1771330Y8736330D01*
X1762000Y8740000D01*
X1751330D01*
X1739330Y8734500D01*
X1730000Y8725330D01*
X1723330Y8714330D01*
X1718000Y8696000D01*
X1716670Y8679500D01*
X1719330Y8663000D01*
X1723330Y8652000D01*
X1731330Y8641000D01*
X1740670Y8633670D01*
X1750000Y8630000D01*
X1759330D01*
X1768670Y8633670D01*
X1776670Y8639160D01*
X1783330Y8646500D01*
G01X1869330Y8730830D02*
X1861330Y8736330D01*
X1852000Y8740000D01*
X1841330D01*
X1829330Y8734500D01*
X1820000Y8725330D01*
X1813330Y8714330D01*
X1808000Y8696000D01*
X1806670Y8679500D01*
X1809330Y8663000D01*
X1813330Y8652000D01*
X1821330Y8641000D01*
X1830670Y8633670D01*
X1840000Y8630000D01*
X1849330D01*
X1858670Y8633670D01*
X1866670Y8639160D01*
X1873330Y8646500D01*
G01X1912670Y8666670D02*
X1947330D01*
G01X2004000Y8740000D02*
X2036000D01*
G01X2020000D02*
Y8630000D01*
G01X2004000D02*
X2036000D01*
G01X2079330D02*
Y8740000D01*
X2140670Y8630000D01*
Y8740000D01*
G01X2343330Y9862000D02*
X2350000Y9851000D01*
X2358000Y9843670D01*
X2367330Y9840000D01*
X2378000Y9843670D01*
X2386000Y9851000D01*
X2394000Y9862000D01*
X2396670Y9876670D01*
Y9950000D01*
G01X2460000Y9840000D02*
Y9950000D01*
X2444000Y9928000D01*
G01Y9840000D02*
X2476000D01*
G01X3222000Y1454660D02*
X3232670Y1445500D01*
X3244670Y1440000D01*
X3255330D01*
X3266000Y1445500D01*
X3274000Y1454660D01*
X3278000Y1467500D01*
X3275330Y1480330D01*
X3268670Y1491330D01*
X3256670Y1498670D01*
X3240670Y1502330D01*
X3231330Y1509670D01*
X3227330Y1522500D01*
X3230000Y1535330D01*
X3236670Y1544500D01*
X3246000Y1550000D01*
X3255330D01*
X3264670Y1546330D01*
X3272670Y1537170D01*
G01X3300000Y1550000D02*
X3318670Y1440000D01*
X3340000Y1550000D01*
X3361330Y1440000D01*
X3380000Y1550000D01*
G01X3400670Y1456500D02*
X3408670Y1447330D01*
X3418000Y1441830D01*
X3430000Y1440000D01*
X3442000Y1443670D01*
X3451330Y1451000D01*
X3458000Y1463830D01*
X3459330Y1478500D01*
X3456670Y1493170D01*
X3450000Y1502330D01*
X3440670Y1509670D01*
X3431330Y1511500D01*
X3422000Y1509670D01*
X3410000Y1502330D01*
X3414000Y1550000D01*
X3450000D01*
G01X3222000Y2974660D02*
X3232670Y2965500D01*
X3244670Y2960000D01*
X3255330D01*
X3266000Y2965500D01*
X3274000Y2974660D01*
X3278000Y2987500D01*
X3275330Y3000330D01*
X3268670Y3011330D01*
X3256670Y3018670D01*
X3240670Y3022330D01*
X3231330Y3029670D01*
X3227330Y3042500D01*
X3230000Y3055330D01*
X3236670Y3064500D01*
X3246000Y3070000D01*
X3255330D01*
X3264670Y3066330D01*
X3272670Y3057170D01*
G01X3300000Y3070000D02*
X3318670Y2960000D01*
X3340000Y3070000D01*
X3361330Y2960000D01*
X3380000Y3070000D01*
G01X3404670Y3051670D02*
X3412670Y3062660D01*
X3422000Y3068170D01*
X3432670Y3070000D01*
X3446000Y3066330D01*
X3455330Y3057170D01*
X3458000Y3046170D01*
X3456670Y3035160D01*
X3451330Y3026000D01*
X3424670Y3007670D01*
X3412670Y2994830D01*
X3404670Y2976500D01*
X3402000Y2960000D01*
X3458000D01*
G01X3969330Y7970000D02*
Y8080000D01*
X4030670Y7970000D01*
Y8080000D01*
G01X4056670Y7970000D02*
X4090000Y8080000D01*
X4123330Y7970000D01*
G01X4111330Y8008500D02*
X4068670D01*
G01X4145330Y7970000D02*
Y8080000D01*
X4180000Y7988330D01*
X4214670Y8080000D01*
Y7970000D01*
G01X4296670D02*
X4243330D01*
Y8080000D01*
X4296670D01*
G01X4275330Y8026830D02*
X4243330D01*
G01X4360000Y7966330D02*
X4357330Y7968170D01*
Y7971830D01*
X4360000Y7973670D01*
X4362670Y7971830D01*
Y7968170D01*
X4360000Y7966330D01*
G01Y8015830D02*
X4357330Y8017670D01*
Y8021330D01*
X4360000Y8023170D01*
X4362670Y8021330D01*
Y8017670D01*
X4360000Y8015830D01*
G01X4434000Y8080000D02*
X4466000D01*
G01X4450000D02*
Y7970000D01*
G01X4434000D02*
X4466000D01*
G01X4509330D02*
Y8080000D01*
X4570670Y7970000D01*
Y8080000D01*
G01X4596670Y7970000D02*
X4630000Y8080000D01*
X4663330Y7970000D01*
G01X4651330Y8008500D02*
X4608670D01*
G01X4720000Y7970000D02*
Y8080000D01*
X4704000Y8058000D01*
G01Y7970000D02*
X4736000D01*
G01X4787330Y7982830D02*
X4796670Y7973670D01*
X4807330Y7970000D01*
X4818000Y7973670D01*
X4827330Y7984660D01*
X4834000Y8001170D01*
X4836670Y8017670D01*
Y8037830D01*
X4834000Y8054330D01*
X4827330Y8069000D01*
X4819330Y8076330D01*
X4810000Y8080000D01*
X4799330Y8076330D01*
X4791330Y8069000D01*
X4786000Y8058000D01*
X4783330Y8043330D01*
X4786000Y8030500D01*
X4792670Y8017670D01*
X4800670Y8010330D01*
X4810000Y8008500D01*
X4820670Y8012160D01*
X4828670Y8021330D01*
X4836670Y8037830D01*
G01X4870670Y7992000D02*
X4878670Y7979160D01*
X4889330Y7971830D01*
X4901330Y7970000D01*
X4912000Y7971830D01*
X4922670Y7981000D01*
X4929330Y7992000D01*
X4930670Y8003000D01*
X4928000Y8015830D01*
X4918670Y8025000D01*
X4909330Y8028670D01*
X4897330D01*
G01X4909330D02*
X4917330Y8034170D01*
X4924000Y8043330D01*
X4926670Y8054330D01*
X4924000Y8065330D01*
X4917330Y8074500D01*
X4905330Y8080000D01*
X4893330Y8078170D01*
X4881330Y8070830D01*
G01X4950000Y7933330D02*
X5030000D01*
G01X5080000Y8080000D02*
Y7970000D01*
G01X5049330Y8080000D02*
X5110670D01*
G01X5196670Y7970000D02*
X5143330D01*
Y8080000D01*
X5196670D01*
G01X5175330Y8026830D02*
X5143330D01*
G01X5232000Y7984660D02*
X5242670Y7975500D01*
X5254670Y7970000D01*
X5265330D01*
X5276000Y7975500D01*
X5284000Y7984660D01*
X5288000Y7997500D01*
X5285330Y8010330D01*
X5278670Y8021330D01*
X5266670Y8028670D01*
X5250670Y8032330D01*
X5241330Y8039670D01*
X5237330Y8052500D01*
X5240000Y8065330D01*
X5246670Y8074500D01*
X5256000Y8080000D01*
X5265330D01*
X5274670Y8076330D01*
X5282670Y8067170D01*
G01X5350000Y8080000D02*
Y7970000D01*
G01X5319330Y8080000D02*
X5380670D01*
G01X5400000Y7933330D02*
X5480000D01*
G01X5496670Y8080000D02*
X5530000Y7970000D01*
X5563330Y8080000D01*
G01X5620000Y7970000D02*
Y8080000D01*
X5604000Y8058000D01*
G01Y7970000D02*
X5636000D01*
G01X5710000Y8080000D02*
X5699330Y8076330D01*
X5691330Y8067170D01*
X5686000Y8056170D01*
X5682000Y8041500D01*
X5680670Y8025000D01*
X5682000Y8008500D01*
X5686000Y7993830D01*
X5691330Y7982830D01*
X5699330Y7973670D01*
X5710000Y7970000D01*
X5720670Y7973670D01*
X5728670Y7982830D01*
X5734000Y7993830D01*
X5738000Y8008500D01*
X5739330Y8025000D01*
X5738000Y8041500D01*
X5734000Y8056170D01*
X5728670Y8067170D01*
X5720670Y8076330D01*
X5710000Y8080000D01*
G01X5766670Y7970000D02*
X5800000Y8080000D01*
X5833330Y7970000D01*
G01X5821330Y8008500D02*
X5778670D01*
G01X5890000Y7966330D02*
X5887330Y7968170D01*
Y7971830D01*
X5890000Y7973670D01*
X5892670Y7971830D01*
Y7968170D01*
X5890000Y7966330D01*
G01X5990670Y8028670D02*
X5996000Y8034170D01*
X6000000Y8043330D01*
X6002670Y8056170D01*
X6000000Y8067170D01*
X5994670Y8074500D01*
X5985330Y8080000D01*
X5949330D01*
Y7970000D01*
X5993330D01*
X6002670Y7977330D01*
X6008000Y7988330D01*
X6010670Y8001170D01*
X6008000Y8014000D01*
X6000000Y8025000D01*
X5990670Y8028670D01*
X5949330D01*
G01X6043330Y7970000D02*
Y8080000D01*
X6076670D01*
X6087330Y8074500D01*
X6094000Y8067170D01*
X6096670Y8052500D01*
X6094000Y8037830D01*
X6086000Y8028670D01*
X6076670Y8023170D01*
X6043330D01*
G01X6076670D02*
X6096670Y7970000D01*
G01X6130670D02*
Y8080000D01*
X6157330D01*
X6168000Y8074500D01*
X6176000Y8067170D01*
X6182670Y8056170D01*
X6188000Y8043330D01*
X6189330Y8025000D01*
X6188000Y8006670D01*
X6182670Y7993830D01*
X6176000Y7982830D01*
X6168000Y7975500D01*
X6157330Y7970000D01*
X6130670D01*
G01X3970670Y7790000D02*
Y7900000D01*
X3997330D01*
X4008000Y7894500D01*
X4016000Y7887170D01*
X4022670Y7876170D01*
X4028000Y7863330D01*
X4029330Y7845000D01*
X4028000Y7826670D01*
X4022670Y7813830D01*
X4016000Y7802830D01*
X4008000Y7795500D01*
X3997330Y7790000D01*
X3970670D01*
G01X4056670D02*
X4090000Y7900000D01*
X4123330Y7790000D01*
G01X4111330Y7828500D02*
X4068670D01*
G01X4180000Y7900000D02*
Y7790000D01*
G01X4149330Y7900000D02*
X4210670D01*
G01X4296670Y7790000D02*
X4243330D01*
Y7900000D01*
X4296670D01*
G01X4275330Y7846830D02*
X4243330D01*
G01X4360000Y7786330D02*
X4357330Y7788170D01*
Y7791830D01*
X4360000Y7793670D01*
X4362670Y7791830D01*
Y7788170D01*
X4360000Y7786330D01*
G01Y7835830D02*
X4357330Y7837670D01*
Y7841330D01*
X4360000Y7843170D01*
X4362670Y7841330D01*
Y7837670D01*
X4360000Y7835830D01*
G01X4424670Y7881670D02*
X4432670Y7892660D01*
X4442000Y7898170D01*
X4452670Y7900000D01*
X4466000Y7896330D01*
X4475330Y7887170D01*
X4478000Y7876170D01*
X4476670Y7865160D01*
X4471330Y7856000D01*
X4444670Y7837670D01*
X4432670Y7824830D01*
X4424670Y7806500D01*
X4422000Y7790000D01*
X4478000D01*
G01X4540000Y7900000D02*
X4529330Y7896330D01*
X4521330Y7887170D01*
X4516000Y7876170D01*
X4512000Y7861500D01*
X4510670Y7845000D01*
X4512000Y7828500D01*
X4516000Y7813830D01*
X4521330Y7802830D01*
X4529330Y7793670D01*
X4540000Y7790000D01*
X4550670Y7793670D01*
X4558670Y7802830D01*
X4564000Y7813830D01*
X4568000Y7828500D01*
X4569330Y7845000D01*
X4568000Y7861500D01*
X4564000Y7876170D01*
X4558670Y7887170D01*
X4550670Y7896330D01*
X4540000Y7900000D01*
G01X4630000Y7790000D02*
Y7900000D01*
X4614000Y7878000D01*
G01Y7790000D02*
X4646000D01*
G01X4717330D02*
X4720000Y7813830D01*
X4724000Y7834000D01*
X4729330Y7852330D01*
X4736000Y7872500D01*
X4746670Y7900000D01*
X4693330D01*
G01X4770000Y7753330D02*
X4850000D01*
G01X4900000Y7790000D02*
Y7900000D01*
X4884000Y7878000D01*
G01Y7790000D02*
X4916000D01*
G01X4964670Y7881670D02*
X4972670Y7892660D01*
X4982000Y7898170D01*
X4992670Y7900000D01*
X5006000Y7896330D01*
X5015330Y7887170D01*
X5018000Y7876170D01*
X5016670Y7865160D01*
X5011330Y7856000D01*
X4984670Y7837670D01*
X4972670Y7824830D01*
X4964670Y7806500D01*
X4962000Y7790000D01*
X5018000D01*
G01X5040000Y7753330D02*
X5120000D01*
G01X5170000Y7900000D02*
X5159330Y7896330D01*
X5151330Y7887170D01*
X5146000Y7876170D01*
X5142000Y7861500D01*
X5140670Y7845000D01*
X5142000Y7828500D01*
X5146000Y7813830D01*
X5151330Y7802830D01*
X5159330Y7793670D01*
X5170000Y7790000D01*
X5180670Y7793670D01*
X5188670Y7802830D01*
X5194000Y7813830D01*
X5198000Y7828500D01*
X5199330Y7845000D01*
X5198000Y7861500D01*
X5194000Y7876170D01*
X5188670Y7887170D01*
X5180670Y7896330D01*
X5170000Y7900000D01*
G01X5230670Y7806500D02*
X5238670Y7797330D01*
X5248000Y7791830D01*
X5260000Y7790000D01*
X5272000Y7793670D01*
X5281330Y7801000D01*
X5288000Y7813830D01*
X5289330Y7828500D01*
X5286670Y7843170D01*
X5280000Y7852330D01*
X5270670Y7859670D01*
X5261330Y7861500D01*
X5252000Y7859670D01*
X5240000Y7852330D01*
X5244000Y7900000D01*
X5280000D01*
G01X3972000Y8160000D02*
Y8270000D01*
G01X4028000D02*
Y8160000D01*
G01Y8215000D02*
X3972000D01*
G01X4090000Y8160000D02*
Y8209500D01*
X4063330Y8270000D01*
G01X4116670D02*
X4090000Y8209500D01*
G01X4180000Y8160000D02*
X4169330Y8161830D01*
X4160000Y8169160D01*
X4152000Y8180170D01*
X4146670Y8193000D01*
X4144000Y8207670D01*
Y8222330D01*
X4146670Y8237000D01*
X4152000Y8249830D01*
X4160000Y8260830D01*
X4169330Y8268170D01*
X4180000Y8270000D01*
X4190670Y8268170D01*
X4200000Y8260830D01*
X4208000Y8249830D01*
X4213330Y8237000D01*
X4216000Y8222330D01*
Y8207670D01*
X4213330Y8193000D01*
X4208000Y8180170D01*
X4200000Y8169160D01*
X4190670Y8161830D01*
X4180000Y8160000D01*
G01X4299330Y8260830D02*
X4291330Y8266330D01*
X4282000Y8270000D01*
X4271330D01*
X4259330Y8264500D01*
X4250000Y8255330D01*
X4243330Y8244330D01*
X4238000Y8226000D01*
X4236670Y8209500D01*
X4239330Y8193000D01*
X4243330Y8182000D01*
X4251330Y8171000D01*
X4260670Y8163670D01*
X4270000Y8160000D01*
X4279330D01*
X4288670Y8163670D01*
X4296670Y8169160D01*
X4303330Y8176500D01*
G01X4189730Y9386640D02*
Y9496640D01*
X4223070D01*
X4233730Y9491140D01*
X4240400Y9483810D01*
X4243070Y9469140D01*
X4240400Y9454470D01*
X4232400Y9445310D01*
X4223070Y9439810D01*
X4189730D01*
G01X4223070D02*
X4243070Y9386640D01*
G01X4306400D02*
Y9496640D01*
X4290400Y9474640D01*
G01Y9386640D02*
X4322400D01*
G01X4396400Y9496640D02*
X4385730Y9492970D01*
X4377730Y9483810D01*
X4372400Y9472810D01*
X4368400Y9458140D01*
X4367070Y9441640D01*
X4368400Y9425140D01*
X4372400Y9410470D01*
X4377730Y9399470D01*
X4385730Y9390310D01*
X4396400Y9386640D01*
X4407070Y9390310D01*
X4415070Y9399470D01*
X4420400Y9410470D01*
X4424400Y9425140D01*
X4425730Y9441640D01*
X4424400Y9458140D01*
X4420400Y9472810D01*
X4415070Y9483810D01*
X4407070Y9492970D01*
X4396400Y9496640D01*
G01X4188550Y9792730D02*
Y9902730D01*
X4221890D01*
X4232550Y9897230D01*
X4239220Y9889900D01*
X4241890Y9875230D01*
X4239220Y9860560D01*
X4231220Y9851400D01*
X4221890Y9845900D01*
X4188550D01*
G01X4221890D02*
X4241890Y9792730D01*
G01X4305220D02*
Y9902730D01*
X4289220Y9880730D01*
G01Y9792730D02*
X4321220D01*
G01X4365890Y9814730D02*
X4373890Y9801890D01*
X4384550Y9794560D01*
X4396550Y9792730D01*
X4407220Y9794560D01*
X4417890Y9803730D01*
X4424550Y9814730D01*
X4425890Y9825730D01*
X4423220Y9838560D01*
X4413890Y9847730D01*
X4404550Y9851400D01*
X4392550D01*
G01X4404550D02*
X4412550Y9856900D01*
X4419220Y9866060D01*
X4421890Y9877060D01*
X4419220Y9888060D01*
X4412550Y9897230D01*
X4400550Y9902730D01*
X4388550Y9900900D01*
X4376550Y9893560D01*
G01X5052000Y2214660D02*
X5062670Y2205500D01*
X5074670Y2200000D01*
X5085330D01*
X5096000Y2205500D01*
X5104000Y2214660D01*
X5108000Y2227500D01*
X5105330Y2240330D01*
X5098670Y2251330D01*
X5086670Y2258670D01*
X5070670Y2262330D01*
X5061330Y2269670D01*
X5057330Y2282500D01*
X5060000Y2295330D01*
X5066670Y2304500D01*
X5076000Y2310000D01*
X5085330D01*
X5094670Y2306330D01*
X5102670Y2297170D01*
G01X5130000Y2310000D02*
X5148670Y2200000D01*
X5170000Y2310000D01*
X5191330Y2200000D01*
X5210000Y2310000D01*
G01X5276000Y2200000D02*
Y2310000D01*
X5226670Y2231170D01*
X5293330D01*
G01X7172000Y1434660D02*
X7182670Y1425500D01*
X7194670Y1420000D01*
X7205330D01*
X7216000Y1425500D01*
X7224000Y1434660D01*
X7228000Y1447500D01*
X7225330Y1460330D01*
X7218670Y1471330D01*
X7206670Y1478670D01*
X7190670Y1482330D01*
X7181330Y1489670D01*
X7177330Y1502500D01*
X7180000Y1515330D01*
X7186670Y1524500D01*
X7196000Y1530000D01*
X7205330D01*
X7214670Y1526330D01*
X7222670Y1517170D01*
G01X7250000Y1530000D02*
X7268670Y1420000D01*
X7290000Y1530000D01*
X7311330Y1420000D01*
X7330000Y1530000D01*
G01X7377330Y1420000D02*
X7380000Y1443830D01*
X7384000Y1464000D01*
X7389330Y1482330D01*
X7396000Y1502500D01*
X7406670Y1530000D01*
X7353330D01*
G01X7172000Y2924660D02*
X7182670Y2915500D01*
X7194670Y2910000D01*
X7205330D01*
X7216000Y2915500D01*
X7224000Y2924660D01*
X7228000Y2937500D01*
X7225330Y2950330D01*
X7218670Y2961330D01*
X7206670Y2968670D01*
X7190670Y2972330D01*
X7181330Y2979670D01*
X7177330Y2992500D01*
X7180000Y3005330D01*
X7186670Y3014500D01*
X7196000Y3020000D01*
X7205330D01*
X7214670Y3016330D01*
X7222670Y3007170D01*
G01X7250000Y3020000D02*
X7268670Y2910000D01*
X7290000Y3020000D01*
X7311330Y2910000D01*
X7330000Y3020000D01*
G01X7354670Y2955830D02*
X7364000Y2968670D01*
X7372000Y2976000D01*
X7382670Y2979670D01*
X7392000Y2976000D01*
X7398670Y2968670D01*
X7404000Y2957670D01*
X7405330Y2944830D01*
X7404000Y2933830D01*
X7398670Y2922830D01*
X7390670Y2913670D01*
X7381330Y2910000D01*
X7370670Y2913670D01*
X7361330Y2924660D01*
X7356000Y2941170D01*
X7354670Y2959500D01*
X7357330Y2983330D01*
X7361330Y2996170D01*
X7368000Y3009000D01*
X7377330Y3018170D01*
X7386670Y3020000D01*
X7396000Y3016330D01*
X7402670Y3007170D01*
G01X8068000Y8705000D02*
X8094670D01*
Y8672000D01*
X8086670Y8661000D01*
X8077330Y8653670D01*
X8064000Y8650000D01*
X8050670Y8653670D01*
X8041330Y8661000D01*
X8033330Y8672000D01*
X8028000Y8684830D01*
X8025330Y8699500D01*
Y8712330D01*
X8028000Y8723330D01*
X8033330Y8736170D01*
X8041330Y8747170D01*
X8049330Y8754500D01*
X8060000Y8760000D01*
X8069330D01*
X8080000Y8756330D01*
X8088000Y8749000D01*
G01X8119330Y8650000D02*
Y8760000D01*
X8180670Y8650000D01*
Y8760000D01*
G01X8210670Y8650000D02*
Y8760000D01*
X8237330D01*
X8248000Y8754500D01*
X8256000Y8747170D01*
X8262670Y8736170D01*
X8268000Y8723330D01*
X8269330Y8705000D01*
X8268000Y8686670D01*
X8262670Y8673830D01*
X8256000Y8662830D01*
X8248000Y8655500D01*
X8237330Y8650000D01*
X8210670D01*
G01X7553330Y9872000D02*
X7560000Y9861000D01*
X7568000Y9853670D01*
X7577330Y9850000D01*
X7588000Y9853670D01*
X7596000Y9861000D01*
X7604000Y9872000D01*
X7606670Y9886670D01*
Y9960000D01*
G01X7644670Y9941670D02*
X7652670Y9952660D01*
X7662000Y9958170D01*
X7672670Y9960000D01*
X7686000Y9956330D01*
X7695330Y9947170D01*
X7698000Y9936170D01*
X7696670Y9925160D01*
X7691330Y9916000D01*
X7664670Y9897670D01*
X7652670Y9884830D01*
X7644670Y9866500D01*
X7642000Y9850000D01*
X7698000D01*
G01X8390670Y5590000D02*
Y5511170D01*
X8396000Y5494660D01*
X8406670Y5483670D01*
X8420000Y5480000D01*
X8433330Y5483670D01*
X8444000Y5494660D01*
X8449330Y5511170D01*
Y5590000D01*
G01X8510000Y5480000D02*
X8519330Y5481830D01*
X8530000Y5487330D01*
X8536670Y5496500D01*
X8539330Y5509330D01*
X8536670Y5522160D01*
X8528670Y5533170D01*
X8516670Y5538670D01*
X8503330D01*
X8495330Y5542330D01*
X8488670Y5551500D01*
X8486000Y5564330D01*
X8490000Y5577170D01*
X8499330Y5586330D01*
X8510000Y5590000D01*
X8520670Y5586330D01*
X8530000Y5577170D01*
X8534000Y5564330D01*
X8531330Y5551500D01*
X8524670Y5542330D01*
X8516670Y5538670D01*
X8503330D01*
X8491330Y5533170D01*
X8483330Y5522160D01*
X8480670Y5509330D01*
X8483330Y5496500D01*
X8490000Y5487330D01*
X8500670Y5481830D01*
X8510000Y5480000D01*
G01X8565670Y7558670D02*
X8571000Y7564170D01*
X8575000Y7573330D01*
X8577670Y7586170D01*
X8575000Y7597170D01*
X8569670Y7604500D01*
X8560330Y7610000D01*
X8524330D01*
Y7500000D01*
X8568330D01*
X8577670Y7507330D01*
X8583000Y7518330D01*
X8585670Y7531170D01*
X8583000Y7544000D01*
X8575000Y7555000D01*
X8565670Y7558670D01*
X8524330D01*
G01X8645000Y7500000D02*
Y7610000D01*
X8629000Y7588000D01*
G01Y7500000D02*
X8661000D01*
G01X9095330Y50000D02*
Y160000D01*
X9130000Y68330D01*
X9164670Y160000D01*
Y50000D01*
G01X9192000D02*
Y160000D01*
G01X9248000D02*
Y50000D01*
G01Y105000D02*
X9192000D01*
G01X9284670Y141670D02*
X9292670Y152660D01*
X9302000Y158170D01*
X9312670Y160000D01*
X9326000Y156330D01*
X9335330Y147170D01*
X9338000Y136170D01*
X9336670Y125160D01*
X9331330Y116000D01*
X9304670Y97670D01*
X9292670Y84830D01*
X9284670Y66500D01*
X9282000Y50000D01*
X9338000D01*
G01X8606670Y8760000D02*
X8640000Y8650000D01*
X8673330Y8760000D01*
G01X8759330Y8750830D02*
X8751330Y8756330D01*
X8742000Y8760000D01*
X8731330D01*
X8719330Y8754500D01*
X8710000Y8745330D01*
X8703330Y8734330D01*
X8698000Y8716000D01*
X8696670Y8699500D01*
X8699330Y8683000D01*
X8703330Y8672000D01*
X8711330Y8661000D01*
X8720670Y8653670D01*
X8730000Y8650000D01*
X8739330D01*
X8748670Y8653670D01*
X8756670Y8659160D01*
X8763330Y8666500D01*
G01X8849330Y8750830D02*
X8841330Y8756330D01*
X8832000Y8760000D01*
X8821330D01*
X8809330Y8754500D01*
X8800000Y8745330D01*
X8793330Y8734330D01*
X8788000Y8716000D01*
X8786670Y8699500D01*
X8789330Y8683000D01*
X8793330Y8672000D01*
X8801330Y8661000D01*
X8810670Y8653670D01*
X8820000Y8650000D01*
X8829330D01*
X8838670Y8653670D01*
X8846670Y8659160D01*
X8853330Y8666500D01*
G01X8892670Y8686670D02*
X8927330D01*
G01X9000000Y8650000D02*
X8989330Y8651830D01*
X8980000Y8659160D01*
X8972000Y8670170D01*
X8966670Y8683000D01*
X8964000Y8697670D01*
Y8712330D01*
X8966670Y8727000D01*
X8972000Y8739830D01*
X8980000Y8750830D01*
X8989330Y8758170D01*
X9000000Y8760000D01*
X9010670Y8758170D01*
X9020000Y8750830D01*
X9028000Y8739830D01*
X9033330Y8727000D01*
X9036000Y8712330D01*
Y8697670D01*
X9033330Y8683000D01*
X9028000Y8670170D01*
X9020000Y8659160D01*
X9010670Y8651830D01*
X9000000Y8650000D01*
G01X9060670Y8760000D02*
Y8681170D01*
X9066000Y8664660D01*
X9076670Y8653670D01*
X9090000Y8650000D01*
X9103330Y8653670D01*
X9114000Y8664660D01*
X9119330Y8681170D01*
Y8760000D01*
G01X9180000D02*
Y8650000D01*
G01X9149330Y8760000D02*
X9210670D01*
G01X9715330Y9200000D02*
Y9310000D01*
X9750000Y9218330D01*
X9784670Y9310000D01*
Y9200000D01*
G01X9812000D02*
Y9310000D01*
G01X9868000D02*
Y9200000D01*
G01Y9255000D02*
X9812000D01*
G01X9900670Y9222000D02*
X9908670Y9209160D01*
X9919330Y9201830D01*
X9931330Y9200000D01*
X9942000Y9201830D01*
X9952670Y9211000D01*
X9959330Y9222000D01*
X9960670Y9233000D01*
X9958000Y9245830D01*
X9948670Y9255000D01*
X9939330Y9258670D01*
X9927330D01*
G01X9939330D02*
X9947330Y9264170D01*
X9954000Y9273330D01*
X9956670Y9284330D01*
X9954000Y9295330D01*
X9947330Y9304500D01*
X9935330Y9310000D01*
X9923330Y9308170D01*
X9911330Y9300830D01*
G54D15*
G01X1038200Y5512200D02*
Y6360560D01*
X1043280Y6365640D01*
X1642720D01*
X1645260Y6363100D01*
Y5512200D01*
X1040740D01*
G54D16*
G01X350480Y1366500D02*
X286980Y1430000D01*
X350480Y1493500D01*
Y1366500D01*
X332700Y1384280D01*
Y1468100D01*
X320000Y1455400D01*
Y1404600D01*
X307300Y1417300D01*
Y1442700D01*
G01X350480Y1576500D02*
X286980Y1640000D01*
X350480Y1703500D01*
Y1576500D01*
X332700Y1594280D01*
Y1678100D01*
X320000Y1665400D01*
Y1614600D01*
X307300Y1627300D01*
Y1652700D01*
M02*
