G04 ================== begin FILE IDENTIFICATION RECORD ==================*
G04 Layout Name:  INA193_TEST_V10A.brd*
G04 Film Name:    SolderMask_Top*
G04 File Format:  Gerber RS274X*
G04 File Origin:  Cadence Allegro 16.6-2015-S095*
G04 Origin Date:  Wed Dec 06 09:56:01 2017*
G04 *
G04 Layer:  BOARD GEOMETRY/OUTLINE*
G04 Layer:  PIN/SOLDERMASK_TOP*
G04 Layer:  PACKAGE GEOMETRY/SOLDERMASK_TOP*
G04 Layer:  BOARD GEOMETRY/SOLDERMASK_TOP*
G04 *
G04 Offset:    (0.0000 0.0000)*
G04 Mirror:    No*
G04 Mode:      Positive*
G04 Rotation:  0*
G04 FullContactRelief:  No*
G04 UndefLineWidth:     0.1524*
G04 ================== end FILE IDENTIFICATION RECORD ====================*
%FSLAX55Y55*MOMM*%
%IR0*IPPOS*OFA0.00000B0.00000*MIA0B0*SFA1.00000B1.00000*%
%ADD20R,4.1X.5*%
%ADD16R,1.6X.6*%
%ADD22R,2.4X4.1*%
%ADD12R,2.1X1.9*%
%ADD21R,1.9X3.3*%
%ADD17C,2.54*%
%ADD18C,3.81*%
%ADD14C,1.524*%
%ADD10C,6.35*%
%ADD13C,1.905*%
%ADD11R,1.2192X1.4224*%
%ADD15R,1.651X1.651*%
%ADD19C,2.667*%
%ADD23C,.2032*%
%ADD24C,.17*%
%ADD25C,.127*%
%ADD26C,.254*%
%ADD27C,.1524*%
G75*
%LPD*%
G75*
G54D10*
X330000Y330000D03*
Y9670000D03*
X9670000Y330000D03*
Y9670000D03*
G54D11*
X421600Y1430000D03*
X218400D03*
X421600Y1640000D03*
X218400D03*
G54D20*
X4080000Y3880000D03*
Y3960000D03*
Y4040000D03*
Y4120000D03*
Y4200000D03*
Y4280000D03*
Y4360000D03*
Y4440000D03*
Y4520000D03*
Y4600000D03*
Y4680000D03*
Y4760000D03*
Y4840000D03*
Y4920000D03*
Y5000000D03*
Y5080000D03*
Y5160000D03*
Y5240000D03*
Y5320000D03*
Y5400000D03*
Y5480000D03*
Y5560000D03*
Y5640000D03*
Y5720000D03*
Y5800000D03*
Y5880000D03*
Y5960000D03*
Y6040000D03*
Y6120000D03*
Y6200000D03*
Y6280000D03*
Y6360000D03*
Y6440000D03*
Y6520000D03*
Y6600000D03*
Y6680000D03*
Y6760000D03*
G54D21*
X4578820Y9706090D03*
X4580000Y9300000D03*
X5138820Y9706090D03*
X5140000Y9300000D03*
G54D12*
X230000Y3920000D03*
Y4160000D03*
Y4670000D03*
Y4410000D03*
G54D13*
X270000Y5650000D03*
Y6100000D03*
X1216000Y5690000D03*
X1470000D03*
X1216000Y6198000D03*
X1470000D03*
X1216000Y5944000D03*
X1470000D03*
X8750000Y6970000D03*
X9510000D03*
G54D22*
X9100000Y3830000D03*
Y5430000D03*
G54D23*
G01X360000Y2450000D02*
G03I-50000J0D01*
G01Y3250000D02*
G03I-50000J0D01*
G54D14*
X370000Y7265000D03*
Y7515000D03*
Y8015000D03*
Y7765000D03*
Y8265000D03*
G54D24*
G01X470000Y4090000D02*
G03I-30000J0D01*
G01Y4490000D02*
G03I-30000J0D01*
G54D15*
X370000Y8515000D03*
G54D25*
G01X9175000Y4270000D02*
G03I-75000J0D01*
G01Y5020000D02*
G03I-75000J0D01*
G54D16*
X493000Y4161000D03*
Y4421000D03*
Y4356000D03*
Y4291000D03*
Y4226000D03*
G54D26*
G01X2110000Y1080000D02*
G03I-100000J0D01*
G01Y1980000D02*
G03I-100000J0D01*
G01X3940000Y310000D02*
G03I-100000J0D01*
G01Y1210000D02*
G03I-100000J0D01*
G01Y1830000D02*
G03I-100000J0D01*
G01Y2730000D02*
G03I-100000J0D01*
G01X5770000Y1070000D02*
G03I-100000J0D01*
G01Y1970000D02*
G03I-100000J0D01*
G01X7900000Y310000D02*
G03I-100000J0D01*
G01Y1210000D02*
G03I-100000J0D01*
G01Y1800000D02*
G03I-100000J0D01*
G01Y2700000D02*
G03I-100000J0D01*
G54D17*
X520000Y5525000D03*
Y6225000D03*
G54D27*
G01X330000Y0D02*
X9670000D01*
G03X10000000Y330000I0J330000D01*
G01Y9670000D01*
G03X9670000Y10000000I-330000J0D01*
G01X330000D01*
G03X0Y9670000I0J-330000D01*
G01Y330000D01*
G03X330000Y0I330000J0D01*
G54D18*
X1385000Y1280000D03*
Y1780000D03*
X2635000Y1280000D03*
Y1780000D03*
X3215000Y510000D03*
Y1010000D03*
Y2030000D03*
Y2530000D03*
X4465000Y510000D03*
Y1010000D03*
Y2030000D03*
Y2530000D03*
X5045000Y1270000D03*
Y1770000D03*
X6295000Y1270000D03*
Y1770000D03*
X7175000Y510000D03*
Y1010000D03*
Y2000000D03*
Y2500000D03*
X8425000Y510000D03*
Y1010000D03*
Y2000000D03*
Y2500000D03*
G54D19*
X1128000Y9750000D03*
X1890000D03*
X8138000D03*
X8900000D03*
M02*
