M48
METRIC,TZ
T01C.3048
T02C.889
T03C1.016
;LEADER: 12 
;HEADER: 
;CODE  : ASCII 
;FILE  : L151_SHT30_V10A-1-2.drl for board H:/Current-Shunt-Monitors/HARDWARE/L151_SHT30_V10A/PCB/#Taaaaan02512.tmp ... layers TOP and BOTTOM
;T01 Holesize 1. = 0.304800 Tolerance = +0.000000/-0.000000 PLATED MM Quantity = 91
;T02 Holesize 2. = 0.889000 Tolerance = +0.000000/-0.000000 PLATED MM Quantity = 6
;T03 Holesize 3. = 1.016000 Tolerance = +0.000000/-0.000000 PLATED MM Quantity = 2
%
G90
T01
X130000Y500000
X130000Y720000
X130000Y910000
X430000Y930000
X130000Y1110000
X130000Y1300000
X130000Y1460000
X320000Y1560000
X320000Y1650000
X470000Y1785000
X470000Y1860000
X470000Y1935000
X240000Y2030000
X330000Y2030000
X430000Y2030000
X1000000Y1940000
X1000000Y1840000
X580000Y1470000
X810000Y1310000
X650000Y1180000
X650000Y1100000
X650000Y1020000
X650000Y930000
X870000Y350000
X1330000Y110000
X1340000Y320000
X1270000Y360000
X1320540Y550930
X1250000Y580000
X1250000Y660000
X1260000Y822620
X1160000Y1320000
X1480000Y1480000
X1481600Y1580000
X1200000Y1660000
X1280000Y1660000
X1250000Y1960000
X1330000Y2050000
X1420000Y2050000
X1500000Y2050000
X1891300Y2089390
X1720000Y2050000
X1630000Y2042200
X1830000Y1800000
X1970000Y1710000
X1690000Y1670000
X1570000Y1480000
X1690000Y1450000
X1650000Y1380000
X1690000Y1310190
X1910000Y820000
X1820000Y820000
X1720000Y820000
X1630000Y820000
X1760000Y450000
X1690000Y450000
X1620000Y450000
X1740000Y260000
X2390000Y70000
X2220000Y150000
X2150000Y260000
X2220000Y540000
X2430000Y590000
X2080000Y610000
X2130000Y700000
X2410000Y740000
X2210000Y1370000
X2210000Y1466340
X2270000Y1540000
X2390000Y1790000
X2110000Y2220000
X3030000Y2050000
X2640000Y1990000
X2772250Y1460000
X2910000Y947000
X2770000Y740000
X2710000Y700000
X2990000Y70000
X2780000Y70000
X2570000Y70000
X3240000Y70000
X3420000Y70000
X3400000Y840000
X3400000Y970000
X3130000Y1610000
X3200000Y1610000
X3270000Y1610000
X3240000Y2040000
X3340000Y2040000
X3450000Y2040000
X3299520Y2180000
T02
X150000Y2210000
X404000Y2210000
X658000Y2210000
X912000Y2210000
X1166000Y2210000
X1420000Y2210000
T03
X2965000Y360000
X3215000Y360000
M30
