G04 ================== begin FILE IDENTIFICATION RECORD ==================*
G04 Layout Name:  L151_SHT30_V10A.brd*
G04 Film Name:    SilkScreen_Top*
G04 File Format:  Gerber RS274X*
G04 File Origin:  Cadence Allegro 17.2-S037*
G04 Origin Date:  Mon Jun 11 20:57:52 2018*
G04 *
G04 Layer:  BOARD GEOMETRY/OUTLINE*
G04 Layer:  REF DES/SILKSCREEN_TOP*
G04 Layer:  PACKAGE GEOMETRY/SILKSCREEN_TOP*
G04 Layer:  BOARD GEOMETRY/SILKSCREEN_TOP*
G04 *
G04 Offset:    (0.0000 0.0000)*
G04 Mirror:    No*
G04 Mode:      Positive*
G04 Rotation:  0*
G04 FullContactRelief:  No*
G04 UndefLineWidth:     0.1524*
G04 ================== end FILE IDENTIFICATION RECORD ====================*
%FSLAX55Y55*MOMM*%
%IR0*IPPOS*OFA0.00000B0.00000*MIA0B0*SFA1.00000B1.00000*%
%ADD10C,.2032*%
%ADD11C,.17*%
%ADD12C,.254*%
%ADD13C,.1524*%
%ADD14C,.1778*%
G75*
%LPD*%
G75*
G54D10*
G01X969700Y683500D02*
X690300D01*
G01Y556500D02*
X969700D01*
G01X690300Y683500D02*
G03Y556500I71651J-63500D01*
G01X340300D02*
X619700D01*
G01Y683500D02*
X340300D01*
G01X337760Y556500D02*
G02Y683500I73330J63500D01*
G01X619700Y556500D02*
G03Y683500I-71651J63500D01*
G01X726500Y1789700D02*
X853500D01*
G01D02*
Y1510300D01*
X726500D01*
Y1789700D01*
G01X703500Y1510300D02*
X576500D01*
G01D02*
Y1789700D01*
X703500D01*
Y1510300D01*
G01X972240Y683500D02*
G02Y556500I-73330J-63500D01*
G01X1316500Y1789700D02*
Y1510300D01*
G01Y1792240D02*
G02X1443500I63500J-73330D01*
G01X1316500Y1510300D02*
G03X1443500I63500J71651D01*
G01X876500Y1789700D02*
X1003500D01*
G01D02*
Y1510300D01*
X876500D01*
Y1789700D01*
G01X1153500Y1510300D02*
X1026500D01*
G01D02*
Y1789700D01*
X1153500D01*
Y1510300D01*
G01X1737800Y218900D02*
X1382200D01*
Y41100D01*
X1737800D01*
Y218900D01*
G01X2117800D02*
X1762200D01*
Y41100D01*
X2117800D01*
Y218900D01*
G01X1443500Y1510300D02*
Y1789700D01*
G01X2086500Y1859700D02*
X2213500D01*
G01D02*
Y1580300D01*
X2086500D01*
Y1859700D01*
G01X2236500D02*
X2363500D01*
G01D02*
Y1580300D01*
X2236500D01*
Y1859700D01*
G01X2738720Y1624580D02*
G03X2901280I81280J106888D01*
G01X2738720Y1995420D02*
Y1624580D01*
G01X2713500Y1610300D02*
X2586500D01*
G01D02*
Y1889700D01*
X2713500D01*
Y1610300D01*
G01X2738720Y1997960D02*
G02X2901280I81280J-106888D01*
G01Y1624580D02*
Y1995420D01*
G01X2928720Y1624580D02*
G03X3091280I81280J106888D01*
G01D02*
Y1995420D01*
G01X2928720D02*
Y1624580D01*
G01Y1997960D02*
G02X3091280I81280J-106888D01*
G54D11*
G01X340000Y370000D02*
G03I-30000J0D01*
G01X740000D02*
G03I-30000J0D01*
G54D12*
G01X450000Y20000D02*
Y1950000D01*
X3120000D01*
Y20000D01*
X450000D01*
G01X650000Y520000D02*
X2850000D01*
Y1120000D01*
X650000D01*
Y520000D01*
G01X1153700Y16300D02*
X1150000Y20000D01*
Y520000D01*
X2350000D01*
Y20000D01*
X1150000D01*
G01X2566300Y16300D02*
X2570000Y20000D01*
G01X2670500Y2167300D02*
X2645100D01*
Y2205400D01*
X2632400Y2218100D01*
Y2129200D01*
X2607000D01*
Y2230800D01*
X2632400D01*
X2683200Y2180000D01*
X2594300Y2091100D01*
Y2268900D01*
X2683200Y2180000D01*
X2645100D01*
G01X2683200Y2268900D02*
Y2091100D01*
G01X2403800Y2268900D02*
X2873700D01*
Y2091100D01*
X2403800D01*
Y2268900D01*
G01X2873700D02*
X2911800D01*
Y2091100D01*
X2873700D01*
G01X2976300D02*
X2938200D01*
Y2268900D01*
X2976300D01*
G01X3179500Y2192700D02*
X3204900D01*
Y2154600D01*
X3217600Y2141900D01*
Y2230800D01*
X3243000D01*
Y2129200D01*
X3217600D01*
X3166800Y2180000D01*
X3255700Y2268900D01*
Y2091100D01*
X3166800Y2180000D01*
X3204900D01*
G01X3166800Y2091100D02*
Y2268900D01*
G01X3446200Y2091100D02*
X2976300D01*
Y2268900D01*
X3446200D01*
Y2091100D01*
G54D13*
G01X260000Y2400000D02*
G03X0Y2140000I-265000J5000D01*
G01Y0D01*
X3500000D01*
Y2140000D01*
G03X3240000Y2400000I5000J265000D01*
G01X260000D01*
G01X125000Y1759000D02*
X134000Y1753000D01*
X138500Y1746000D01*
X140000Y1738000D01*
X137000Y1728000D01*
X129500Y1721000D01*
X120500Y1719000D01*
X111500Y1720000D01*
X104000Y1724000D01*
X89000Y1744000D01*
X78500Y1753000D01*
X63500Y1759000D01*
X50000Y1761000D01*
Y1719000D01*
G01X140000Y1670000D02*
X137000Y1678000D01*
X129500Y1684000D01*
X120500Y1688000D01*
X108500Y1691000D01*
X95000Y1692000D01*
X81500Y1691000D01*
X69500Y1688000D01*
X60500Y1684000D01*
X53000Y1678000D01*
X50000Y1670000D01*
X53000Y1662000D01*
X60500Y1656000D01*
X69500Y1652000D01*
X81500Y1649000D01*
X95000Y1648000D01*
X108500Y1649000D01*
X120500Y1652000D01*
X129500Y1656000D01*
X137000Y1662000D01*
X140000Y1670000D01*
G01X50000Y1600000D02*
X140000D01*
X122000Y1612000D01*
G01X50000D02*
Y1588000D01*
G01Y1530000D02*
X51500Y1523000D01*
X56000Y1515000D01*
X63500Y1510000D01*
X74000Y1508000D01*
X84500Y1510000D01*
X93500Y1516000D01*
X98000Y1525000D01*
Y1535000D01*
X101000Y1541000D01*
X108500Y1546000D01*
X119000Y1548000D01*
X129500Y1545000D01*
X137000Y1538000D01*
X140000Y1530000D01*
X137000Y1522000D01*
X129500Y1515000D01*
X119000Y1512000D01*
X108500Y1514000D01*
X101000Y1519000D01*
X98000Y1525000D01*
Y1535000D01*
X93500Y1544000D01*
X84500Y1550000D01*
X74000Y1552000D01*
X63500Y1550000D01*
X56000Y1545000D01*
X51500Y1537000D01*
X50000Y1530000D01*
G01X20000Y1490000D02*
Y1430000D01*
G01X140000Y1390000D02*
X137000Y1398000D01*
X129500Y1404000D01*
X120500Y1408000D01*
X108500Y1411000D01*
X95000Y1412000D01*
X81500Y1411000D01*
X69500Y1408000D01*
X60500Y1404000D01*
X53000Y1398000D01*
X50000Y1390000D01*
X53000Y1382000D01*
X60500Y1376000D01*
X69500Y1372000D01*
X81500Y1369000D01*
X95000Y1368000D01*
X108500Y1369000D01*
X120500Y1372000D01*
X129500Y1376000D01*
X137000Y1382000D01*
X140000Y1390000D01*
G01X87500Y1339000D02*
X98000Y1332000D01*
X104000Y1326000D01*
X107000Y1318000D01*
X104000Y1311000D01*
X98000Y1306000D01*
X89000Y1302000D01*
X78500Y1301000D01*
X69500Y1302000D01*
X60500Y1306000D01*
X53000Y1312000D01*
X50000Y1319000D01*
X53000Y1327000D01*
X62000Y1334000D01*
X75500Y1338000D01*
X90500Y1339000D01*
X110000Y1337000D01*
X120500Y1334000D01*
X131000Y1329000D01*
X138500Y1322000D01*
X140000Y1315000D01*
X137000Y1308000D01*
X129500Y1303000D01*
G01X20000Y1280000D02*
Y1220000D01*
G01X50000Y1180000D02*
X140000D01*
X122000Y1192000D01*
G01X50000D02*
Y1168000D01*
G01Y1110000D02*
X140000D01*
X122000Y1122000D01*
G01X50000D02*
Y1098000D01*
G01Y921000D02*
X140000Y879000D01*
G01Y921000D02*
X50000Y879000D01*
G01Y851000D02*
X140000Y809000D01*
G01Y851000D02*
X50000Y809000D01*
G01Y781000D02*
X140000Y739000D01*
G01Y781000D02*
X50000Y739000D01*
G01X140000Y710000D02*
X50000D01*
Y670000D01*
G01X140000Y639000D02*
Y601000D01*
X50000Y639000D01*
Y601000D01*
G01X68000Y570000D02*
X59000Y565000D01*
X53000Y559000D01*
X50000Y552000D01*
X53000Y544000D01*
X59000Y538000D01*
X68000Y532000D01*
X80000Y530000D01*
X140000D01*
G01X50000Y501000D02*
X140000Y459000D01*
G01Y501000D02*
X50000Y459000D01*
G01Y431000D02*
X140000Y389000D01*
G01Y431000D02*
X50000Y389000D01*
G01Y361000D02*
X140000Y319000D01*
G01Y361000D02*
X50000Y319000D01*
G01X350000Y1770000D02*
X260000D01*
Y1730000D01*
G01Y1680000D02*
X350000D01*
X332000Y1692000D01*
G01X260000D02*
Y1668000D01*
G01X273500Y1632000D02*
X266000Y1626000D01*
X261500Y1619000D01*
X260000Y1610000D01*
X263000Y1601000D01*
X269000Y1594000D01*
X279500Y1589000D01*
X291500Y1588000D01*
X303500Y1590000D01*
X311000Y1595000D01*
X317000Y1602000D01*
X318500Y1609000D01*
X317000Y1616000D01*
X311000Y1625000D01*
X350000Y1622000D01*
Y1595000D01*
G01X260000Y1540000D02*
X350000D01*
X332000Y1552000D01*
G01X260000D02*
Y1528000D01*
G01X230000Y1500000D02*
Y1440000D01*
G01X272000Y1421000D02*
X264500Y1413000D01*
X260000Y1404000D01*
Y1396000D01*
X264500Y1388000D01*
X272000Y1382000D01*
X282500Y1379000D01*
X293000Y1381000D01*
X302000Y1386000D01*
X308000Y1395000D01*
X311000Y1407000D01*
X317000Y1414000D01*
X327500Y1417000D01*
X338000Y1415000D01*
X345500Y1410000D01*
X350000Y1403000D01*
Y1396000D01*
X347000Y1389000D01*
X339500Y1383000D01*
G01X260000Y1351000D02*
X350000D01*
G01Y1309000D02*
X260000D01*
G01X305000D02*
Y1351000D01*
G01X350000Y1260000D02*
X260000D01*
G01X350000Y1283000D02*
Y1237000D01*
G01X278000Y1212000D02*
X267500Y1206000D01*
X261500Y1198000D01*
X260000Y1189000D01*
X261500Y1181000D01*
X269000Y1173000D01*
X278000Y1168000D01*
X287000Y1167000D01*
X297500Y1169000D01*
X305000Y1176000D01*
X308000Y1183000D01*
Y1192000D01*
G01Y1183000D02*
X312500Y1177000D01*
X320000Y1172000D01*
X329000Y1170000D01*
X338000Y1172000D01*
X345500Y1177000D01*
X350000Y1186000D01*
X348500Y1195000D01*
X342500Y1204000D01*
G01X350000Y1120000D02*
X347000Y1128000D01*
X339500Y1134000D01*
X330500Y1138000D01*
X318500Y1141000D01*
X305000Y1142000D01*
X291500Y1141000D01*
X279500Y1138000D01*
X270500Y1134000D01*
X263000Y1128000D01*
X260000Y1120000D01*
X263000Y1112000D01*
X270500Y1106000D01*
X279500Y1102000D01*
X291500Y1099000D01*
X305000Y1098000D01*
X318500Y1099000D01*
X330500Y1102000D01*
X339500Y1106000D01*
X347000Y1112000D01*
X350000Y1120000D01*
G01X230000Y1080000D02*
Y1020000D01*
G01X350000Y1005000D02*
X260000Y980000D01*
X350000Y955000D01*
G01X260000Y910000D02*
X350000D01*
X332000Y922000D01*
G01X260000D02*
Y898000D01*
G01X350000Y840000D02*
X347000Y848000D01*
X339500Y854000D01*
X330500Y858000D01*
X318500Y861000D01*
X305000Y862000D01*
X291500Y861000D01*
X279500Y858000D01*
X270500Y854000D01*
X263000Y848000D01*
X260000Y840000D01*
X263000Y832000D01*
X270500Y826000D01*
X279500Y822000D01*
X291500Y819000D01*
X305000Y818000D01*
X318500Y819000D01*
X330500Y822000D01*
X339500Y826000D01*
X347000Y832000D01*
X350000Y840000D01*
G01X260000Y795000D02*
X350000Y770000D01*
X260000Y745000D01*
G01X291500Y754000D02*
Y786000D01*
G01X232000Y652500D02*
X226000Y657000D01*
X219000Y660000D01*
X211000D01*
X202000Y655500D01*
X195000Y648000D01*
X190000Y639000D01*
X186000Y624000D01*
X185000Y610500D01*
X187000Y597000D01*
X190000Y588000D01*
X196000Y579000D01*
X203000Y573000D01*
X210000Y570000D01*
X217000D01*
X224000Y573000D01*
X230000Y577500D01*
X235000Y583500D01*
G01X280000Y570000D02*
Y660000D01*
X268000Y642000D01*
G01Y570000D02*
X292000D01*
G01X116670Y2100000D02*
X150000Y1990000D01*
X183330Y2100000D01*
G01X270670Y1990000D02*
Y2100000D01*
X297330D01*
X308000Y2094500D01*
X316000Y2087170D01*
X322670Y2076170D01*
X328000Y2063330D01*
X329330Y2045000D01*
X328000Y2026670D01*
X322670Y2013830D01*
X316000Y2002830D01*
X308000Y1995500D01*
X297330Y1990000D01*
X270670D01*
G01X374000Y2100000D02*
X406000D01*
G01X390000D02*
Y1990000D01*
G01X374000D02*
X406000D01*
G01X480000D02*
X469330Y1991830D01*
X460000Y1999160D01*
X452000Y2010170D01*
X446670Y2023000D01*
X444000Y2037670D01*
Y2052330D01*
X446670Y2067000D01*
X452000Y2079830D01*
X460000Y2090830D01*
X469330Y2098170D01*
X480000Y2100000D01*
X490670Y2098170D01*
X500000Y2090830D01*
X508000Y2079830D01*
X513330Y2067000D01*
X516000Y2052330D01*
Y2037670D01*
X513330Y2023000D01*
X508000Y2010170D01*
X500000Y1999160D01*
X490670Y1991830D01*
X480000Y1990000D01*
G01X100000Y2400000D02*
G03I-100000J0D01*
G01X740000Y750000D02*
Y840000D01*
X728000Y822000D01*
G01Y750000D02*
X752000D01*
G01X830000Y1360000D02*
X740000D01*
Y1385000D01*
X744500Y1393000D01*
X750500Y1398000D01*
X762500Y1400000D01*
X774500Y1398000D01*
X782000Y1392000D01*
X786500Y1385000D01*
Y1360000D01*
G01Y1385000D02*
X830000Y1400000D01*
G01Y1450000D02*
X740000D01*
X758000Y1438000D01*
G01X830000D02*
Y1462000D01*
G01X680000Y1360000D02*
X590000D01*
Y1385000D01*
X594500Y1393000D01*
X600500Y1398000D01*
X612500Y1400000D01*
X624500Y1398000D01*
X632000Y1392000D01*
X636500Y1385000D01*
Y1360000D01*
G01Y1385000D02*
X680000Y1400000D01*
G01X662000Y1428000D02*
X672500Y1434000D01*
X678500Y1442000D01*
X680000Y1451000D01*
X678500Y1459000D01*
X671000Y1467000D01*
X662000Y1472000D01*
X653000Y1473000D01*
X642500Y1471000D01*
X635000Y1464000D01*
X632000Y1457000D01*
Y1448000D01*
G01Y1457000D02*
X627500Y1463000D01*
X620000Y1468000D01*
X611000Y1470000D01*
X602000Y1468000D01*
X594500Y1463000D01*
X590000Y1454000D01*
X591500Y1445000D01*
X597500Y1436000D01*
G01X629330Y2090830D02*
X621330Y2096330D01*
X612000Y2100000D01*
X601330D01*
X589330Y2094500D01*
X580000Y2085330D01*
X573330Y2074330D01*
X568000Y2056000D01*
X566670Y2039500D01*
X569330Y2023000D01*
X573330Y2012000D01*
X581330Y2001000D01*
X590670Y1993670D01*
X600000Y1990000D01*
X609330D01*
X618670Y1993670D01*
X626670Y1999160D01*
X633330Y2006500D01*
G01X663330Y2100000D02*
Y1990000D01*
X716670D01*
G01X750670D02*
Y2100000D01*
G01X801330D02*
X750670Y2032160D01*
G01X809330Y1990000D02*
X773330Y2063330D01*
G01X318000Y1950000D02*
Y1885500D01*
X322000Y1872000D01*
X330000Y1863000D01*
X340000Y1860000D01*
X350000Y1863000D01*
X358000Y1872000D01*
X362000Y1885500D01*
Y1950000D01*
G01X410000Y1860000D02*
Y1950000D01*
X398000Y1932000D01*
G01Y1860000D02*
X422000D01*
G01X1062000Y652500D02*
X1056000Y657000D01*
X1049000Y660000D01*
X1041000D01*
X1032000Y655500D01*
X1025000Y648000D01*
X1020000Y639000D01*
X1016000Y624000D01*
X1015000Y610500D01*
X1017000Y597000D01*
X1020000Y588000D01*
X1026000Y579000D01*
X1033000Y573000D01*
X1040000Y570000D01*
X1047000D01*
X1054000Y573000D01*
X1060000Y577500D01*
X1065000Y583500D01*
G01X1091000Y645000D02*
X1097000Y654000D01*
X1104000Y658500D01*
X1112000Y660000D01*
X1122000Y657000D01*
X1129000Y649500D01*
X1131000Y640500D01*
X1130000Y631500D01*
X1126000Y624000D01*
X1106000Y609000D01*
X1097000Y598500D01*
X1091000Y583500D01*
X1089000Y570000D01*
X1131000D01*
G01X980000Y1360000D02*
X890000D01*
Y1385000D01*
X894500Y1393000D01*
X900500Y1398000D01*
X912500Y1400000D01*
X924500Y1398000D01*
X932000Y1392000D01*
X936500Y1385000D01*
Y1360000D01*
G01Y1385000D02*
X980000Y1400000D01*
G01X905000Y1431000D02*
X896000Y1437000D01*
X891500Y1444000D01*
X890000Y1452000D01*
X893000Y1462000D01*
X900500Y1469000D01*
X909500Y1471000D01*
X918500Y1470000D01*
X926000Y1466000D01*
X941000Y1446000D01*
X951500Y1437000D01*
X966500Y1431000D01*
X980000Y1429000D01*
Y1471000D01*
G01X1140000Y1360000D02*
X1050000D01*
Y1385000D01*
X1054500Y1393000D01*
X1060500Y1398000D01*
X1072500Y1400000D01*
X1084500Y1398000D01*
X1092000Y1392000D01*
X1096500Y1385000D01*
Y1360000D01*
G01Y1385000D02*
X1140000Y1400000D01*
G01Y1462000D02*
X1050000D01*
X1114500Y1425000D01*
Y1475000D01*
G01X918000Y2045000D02*
X944670D01*
Y2012000D01*
X936670Y2001000D01*
X927330Y1993670D01*
X914000Y1990000D01*
X900670Y1993670D01*
X891330Y2001000D01*
X883330Y2012000D01*
X878000Y2024830D01*
X875330Y2039500D01*
Y2052330D01*
X878000Y2063330D01*
X883330Y2076170D01*
X891330Y2087170D01*
X899330Y2094500D01*
X910000Y2100000D01*
X919330D01*
X930000Y2096330D01*
X938000Y2089000D01*
G01X1093330Y1990000D02*
Y2100000D01*
X1126670D01*
X1137330Y2094500D01*
X1144000Y2087170D01*
X1146670Y2072500D01*
X1144000Y2057830D01*
X1136000Y2048670D01*
X1126670Y2043170D01*
X1093330D01*
G01X1126670D02*
X1146670Y1990000D01*
G01X1182000D02*
X1238000Y2100000D01*
G01X1182000D02*
X1238000Y1990000D01*
G01X1398000Y250000D02*
Y340000D01*
X1418000D01*
X1426000Y335500D01*
X1432000Y329500D01*
X1437000Y320500D01*
X1441000Y310000D01*
X1442000Y295000D01*
X1441000Y280000D01*
X1437000Y269500D01*
X1432000Y260500D01*
X1426000Y254500D01*
X1418000Y250000D01*
X1398000D01*
G01X1468000Y268000D02*
X1474000Y257500D01*
X1482000Y251500D01*
X1491000Y250000D01*
X1499000Y251500D01*
X1507000Y259000D01*
X1512000Y268000D01*
X1513000Y277000D01*
X1511000Y287500D01*
X1504000Y295000D01*
X1497000Y298000D01*
X1488000D01*
G01X1497000D02*
X1503000Y302500D01*
X1508000Y310000D01*
X1510000Y319000D01*
X1508000Y328000D01*
X1503000Y335500D01*
X1494000Y340000D01*
X1485000Y338500D01*
X1476000Y332500D01*
G01X1798000Y250000D02*
Y340000D01*
X1818000D01*
X1826000Y335500D01*
X1832000Y329500D01*
X1837000Y320500D01*
X1841000Y310000D01*
X1842000Y295000D01*
X1841000Y280000D01*
X1837000Y269500D01*
X1832000Y260500D01*
X1826000Y254500D01*
X1818000Y250000D01*
X1798000D01*
G01X1902000D02*
Y340000D01*
X1865000Y275500D01*
X1915000D01*
G01X1337500Y1372000D02*
X1333000Y1366000D01*
X1330000Y1359000D01*
Y1351000D01*
X1334500Y1342000D01*
X1342000Y1335000D01*
X1351000Y1330000D01*
X1366000Y1326000D01*
X1379500Y1325000D01*
X1393000Y1327000D01*
X1402000Y1330000D01*
X1411000Y1336000D01*
X1417000Y1343000D01*
X1420000Y1350000D01*
Y1357000D01*
X1417000Y1364000D01*
X1412500Y1370000D01*
X1406500Y1375000D01*
G01X1402000Y1398000D02*
X1412500Y1404000D01*
X1418500Y1412000D01*
X1420000Y1421000D01*
X1418500Y1429000D01*
X1411000Y1437000D01*
X1402000Y1442000D01*
X1393000Y1443000D01*
X1382500Y1441000D01*
X1375000Y1434000D01*
X1372000Y1427000D01*
Y1418000D01*
G01Y1427000D02*
X1367500Y1433000D01*
X1360000Y1438000D01*
X1351000Y1440000D01*
X1342000Y1438000D01*
X1334500Y1433000D01*
X1330000Y1424000D01*
X1331500Y1415000D01*
X1337500Y1406000D01*
G01X1370000Y2100000D02*
Y1990000D01*
G01X1339330Y2100000D02*
X1400670D01*
G01X1432000Y1990000D02*
X1488000Y2100000D01*
G01X1432000D02*
X1488000Y1990000D01*
G01X2200000Y1440000D02*
X2110000D01*
Y1465000D01*
X2114500Y1473000D01*
X2120500Y1478000D01*
X2132500Y1480000D01*
X2144500Y1478000D01*
X2152000Y1472000D01*
X2156500Y1465000D01*
Y1440000D01*
G01Y1465000D02*
X2200000Y1480000D01*
G01X2162500Y1511000D02*
X2152000Y1518000D01*
X2146000Y1524000D01*
X2143000Y1532000D01*
X2146000Y1539000D01*
X2152000Y1544000D01*
X2161000Y1548000D01*
X2171500Y1549000D01*
X2180500Y1548000D01*
X2189500Y1544000D01*
X2197000Y1538000D01*
X2200000Y1531000D01*
X2197000Y1523000D01*
X2188000Y1516000D01*
X2174500Y1512000D01*
X2159500Y1511000D01*
X2140000Y1513000D01*
X2129500Y1516000D01*
X2119000Y1521000D01*
X2111500Y1528000D01*
X2110000Y1535000D01*
X2113000Y1542000D01*
X2120500Y1547000D01*
G01X2350000Y1440000D02*
X2260000D01*
Y1465000D01*
X2264500Y1473000D01*
X2270500Y1478000D01*
X2282500Y1480000D01*
X2294500Y1478000D01*
X2302000Y1472000D01*
X2306500Y1465000D01*
Y1440000D01*
G01Y1465000D02*
X2350000Y1480000D01*
G01Y1530000D02*
X2348500Y1537000D01*
X2344000Y1545000D01*
X2336500Y1550000D01*
X2326000Y1552000D01*
X2315500Y1550000D01*
X2306500Y1544000D01*
X2302000Y1535000D01*
Y1525000D01*
X2299000Y1519000D01*
X2291500Y1514000D01*
X2281000Y1512000D01*
X2270500Y1515000D01*
X2263000Y1522000D01*
X2260000Y1530000D01*
X2263000Y1538000D01*
X2270500Y1545000D01*
X2281000Y1548000D01*
X2291500Y1546000D01*
X2299000Y1541000D01*
X2302000Y1535000D01*
Y1525000D01*
X2306500Y1516000D01*
X2315500Y1510000D01*
X2326000Y1508000D01*
X2336500Y1510000D01*
X2344000Y1515000D01*
X2348500Y1523000D01*
X2350000Y1530000D01*
G01X2688000Y778000D02*
X2694000Y767500D01*
X2702000Y761500D01*
X2711000Y760000D01*
X2719000Y761500D01*
X2727000Y769000D01*
X2732000Y778000D01*
X2733000Y787000D01*
X2731000Y797500D01*
X2724000Y805000D01*
X2717000Y808000D01*
X2708000D01*
G01X2717000D02*
X2723000Y812500D01*
X2728000Y820000D01*
X2730000Y829000D01*
X2728000Y838000D01*
X2723000Y845500D01*
X2714000Y850000D01*
X2705000Y848500D01*
X2696000Y842500D01*
G01X2780000Y850000D02*
X2772000Y847000D01*
X2766000Y839500D01*
X2762000Y830500D01*
X2759000Y818500D01*
X2758000Y805000D01*
X2759000Y791500D01*
X2762000Y779500D01*
X2766000Y770500D01*
X2772000Y763000D01*
X2780000Y760000D01*
X2788000Y763000D01*
X2794000Y770500D01*
X2798000Y779500D01*
X2801000Y791500D01*
X2802000Y805000D01*
X2801000Y818500D01*
X2798000Y830500D01*
X2794000Y839500D01*
X2788000Y847000D01*
X2780000Y850000D01*
G01X2777500Y1482000D02*
X2773000Y1476000D01*
X2770000Y1469000D01*
Y1461000D01*
X2774500Y1452000D01*
X2782000Y1445000D01*
X2791000Y1440000D01*
X2806000Y1436000D01*
X2819500Y1435000D01*
X2833000Y1437000D01*
X2842000Y1440000D01*
X2851000Y1446000D01*
X2857000Y1453000D01*
X2860000Y1460000D01*
Y1467000D01*
X2857000Y1474000D01*
X2852500Y1480000D01*
X2846500Y1485000D01*
G01X2860000Y1542000D02*
X2770000D01*
X2834500Y1505000D01*
Y1555000D01*
G01X2690000Y1440000D02*
X2600000D01*
Y1465000D01*
X2604500Y1473000D01*
X2610500Y1478000D01*
X2622500Y1480000D01*
X2634500Y1478000D01*
X2642000Y1472000D01*
X2646500Y1465000D01*
Y1440000D01*
G01Y1465000D02*
X2690000Y1480000D01*
G01X2676500Y1508000D02*
X2684000Y1514000D01*
X2688500Y1521000D01*
X2690000Y1530000D01*
X2687000Y1539000D01*
X2681000Y1546000D01*
X2670500Y1551000D01*
X2658500Y1552000D01*
X2646500Y1550000D01*
X2639000Y1545000D01*
X2633000Y1538000D01*
X2631500Y1531000D01*
X2633000Y1524000D01*
X2639000Y1515000D01*
X2600000Y1518000D01*
Y1545000D01*
G01X2428000Y1970000D02*
Y2060000D01*
X2448000D01*
X2456000Y2055500D01*
X2462000Y2049500D01*
X2467000Y2040500D01*
X2471000Y2030000D01*
X2472000Y2015000D01*
X2471000Y2000000D01*
X2467000Y1989500D01*
X2462000Y1980500D01*
X2456000Y1974500D01*
X2448000Y1970000D01*
X2428000D01*
G01X2520000D02*
Y2060000D01*
X2508000Y2042000D01*
G01Y1970000D02*
X2532000D01*
G01X2967500Y1482000D02*
X2963000Y1476000D01*
X2960000Y1469000D01*
Y1461000D01*
X2964500Y1452000D01*
X2972000Y1445000D01*
X2981000Y1440000D01*
X2996000Y1436000D01*
X3009500Y1435000D01*
X3023000Y1437000D01*
X3032000Y1440000D01*
X3041000Y1446000D01*
X3047000Y1453000D01*
X3050000Y1460000D01*
Y1467000D01*
X3047000Y1474000D01*
X3042500Y1480000D01*
X3036500Y1485000D01*
G01Y1508000D02*
X3044000Y1514000D01*
X3048500Y1521000D01*
X3050000Y1530000D01*
X3047000Y1539000D01*
X3041000Y1546000D01*
X3030500Y1551000D01*
X3018500Y1552000D01*
X3006500Y1550000D01*
X2999000Y1545000D01*
X2993000Y1538000D01*
X2991500Y1531000D01*
X2993000Y1524000D01*
X2999000Y1515000D01*
X2960000Y1518000D01*
Y1545000D01*
G01X3298000Y1970000D02*
Y2060000D01*
X3318000D01*
X3326000Y2055500D01*
X3332000Y2049500D01*
X3337000Y2040500D01*
X3341000Y2030000D01*
X3342000Y2015000D01*
X3341000Y2000000D01*
X3337000Y1989500D01*
X3332000Y1980500D01*
X3326000Y1974500D01*
X3318000Y1970000D01*
X3298000D01*
G01X3371000Y2045000D02*
X3377000Y2054000D01*
X3384000Y2058500D01*
X3392000Y2060000D01*
X3402000Y2057000D01*
X3409000Y2049500D01*
X3411000Y2040500D01*
X3410000Y2031500D01*
X3406000Y2024000D01*
X3386000Y2009000D01*
X3377000Y1998500D01*
X3371000Y1983500D01*
X3369000Y1970000D01*
X3411000D01*
G01X3600000Y2400000D02*
G03I-100000J0D01*
G54D14*
G01X1529520Y193500D02*
X1593020Y130000D01*
X1529520Y66500D01*
Y193500D01*
X1547300Y175720D01*
Y91900D01*
X1560000Y104600D01*
Y155400D01*
X1572700Y142700D01*
Y117300D01*
G01X1909520Y193500D02*
X1973020Y130000D01*
X1909520Y66500D01*
Y193500D01*
X1927300Y175720D01*
Y91900D01*
X1940000Y104600D01*
Y155400D01*
X1952700Y142700D01*
Y117300D01*
M02*
