G04 ================== begin FILE IDENTIFICATION RECORD ==================*
G04 Layout Name:  L151_SHT30_V10A.brd*
G04 Film Name:    TOP*
G04 File Format:  Gerber RS274X*
G04 File Origin:  Cadence Allegro 17.2-S037*
G04 Origin Date:  Mon Jun 11 20:57:52 2018*
G04 *
G04 Layer:  BOARD GEOMETRY/OUTLINE*
G04 Layer:  VIA CLASS/TOP*
G04 Layer:  PIN/TOP*
G04 Layer:  ETCH/TOP*
G04 *
G04 Offset:    (0.0000 0.0000)*
G04 Mirror:    No*
G04 Mode:      Positive*
G04 Rotation:  0*
G04 FullContactRelief:  No*
G04 UndefLineWidth:     0.1524*
G04 ================== end FILE IDENTIFICATION RECORD ====================*
%FSLAX55Y55*MOMM*%
%IR0*IPPOS*OFA0.00000B0.00000*MIA0B0*SFA1.00000B1.00000*%
%ADD12R,.4X3.5*%
%ADD18R,.8X1.4*%
%ADD10C,.6096*%
%ADD17R,1.27X1.27*%
%ADD16R,1.016X1.2192*%
%ADD19C,1.524*%
%ADD20R,1.524X1.524*%
%ADD11C,1.778*%
%ADD14R,.9144X.9144*%
%ADD13R,.9144X.9144*%
%ADD15R,1.778X1.778*%
%ADD21C,.2032*%
%ADD22C,.17*%
%ADD23C,.7112*%
%ADD24C,.254*%
%ADD25C,.1524*%
%ADD26C,.508*%
%ADD27C,.6328*%
G75*
%LPD*%
G75*
G36*
G01X20000Y20000D02*
Y2119300D01*
G02X39650Y2122940I10161J4D01*
G01X58840Y2072900D01*
G03X62750Y2064340I71151J27327D01*
G01X63940Y2062100D01*
Y1672640D01*
X152640Y1583940D01*
X228610D01*
G02X248920Y1562820I5J-20321D01*
G03X266640Y1512950I71083J-2826D01*
G01Y1127900D01*
X427900Y966640D01*
X602950D01*
G03X708830Y1060000I47051J53359D01*
G03Y1140000I-58830J40000D01*
G03X706050Y1223810I-58830J40000D01*
G02X722060Y1256640I16012J12510D01*
G01X749360D01*
Y1246180D01*
G03X749340Y1245000I40638J-1279D01*
G01Y895000D01*
G03X755180Y874000I40661J-4D01*
G01X756640Y871580D01*
Y842100D01*
X718540Y804000D01*
X512340D01*
X414720Y706380D01*
X358080D01*
G03X317420Y665720I0J-40660D01*
G01Y574280D01*
G03X358080Y533620I40660J0D01*
G01X601920D01*
G03X642580Y574280I0J40660D01*
G01Y630920D01*
X650080Y638410D01*
G02X667420Y631230I7182J-7184D01*
G01Y574280D01*
G03X708080Y533620I40660J0D01*
G01X799520D01*
G03X823910Y541740I9J40663D01*
G02X836090I6090J-8125D01*
G03X860480Y533620I24381J32543D01*
G01X951920D01*
G03X992580Y574280I0J40660D01*
G01Y665720D01*
G03X982380Y692650I-40650J0D01*
G01X970990Y705530D01*
X1073360Y807900D01*
Y854340D01*
X1110000D01*
G03X1150660Y895000I0J40660D01*
G01Y1043770D01*
X1151380Y1045580D01*
G03X1156060Y1070000I-61371J24420D01*
G01Y1225120D01*
X1184880Y1253940D01*
X1212640D01*
X1233940Y1232640D01*
Y1070000D01*
G03X1238620Y1045580I66051J0D01*
G01X1239340Y1043770D01*
Y891030D01*
X1233030Y888450D01*
G03X1189050Y817440I26971J-65829D01*
G01X1189390Y812800D01*
X1043940Y667350D01*
Y428160D01*
X1031840Y416060D01*
X896460D01*
X894750Y416690D01*
G03Y283310I-24750J-66690D01*
G01X896460Y283940D01*
X1086560D01*
X1178580Y375960D01*
X1198910Y355630D01*
X1199300Y352090D01*
G03X1275920Y289110I70698J7912D01*
G03X1393360Y367050I64083J30888D01*
G01Y516650D01*
G02X1410700Y523830I10158J-4D01*
G01X1417900Y516640D01*
X1922100D01*
X1985590Y580120D01*
G02X2017740Y575590I14370J-14366D01*
G03X2030740Y558680I62260J34412D01*
G01X2030820Y558600D01*
X2036640Y552770D01*
Y397500D01*
X2022500Y383360D01*
X1677900D01*
X1608240Y313700D01*
Y249070D01*
X1580500Y218070D01*
G03X1576930Y213450I30304J-27106D01*
G02X1543070I-16930J11243D01*
G03X1509200Y231620I-33870J-22483D01*
G01X1407600D01*
G03X1378920Y219780I0J-40656D01*
G01X1339580Y180640D01*
X1334980Y180970D01*
G03X1283920Y55800I-4982J-70967D01*
G02X1270760Y20000I-13162J-15481D01*
G01X20000D01*
G37*
G36*
G01X587210Y1659560D02*
G02X563360Y1679570I-3530J20011D01*
G01Y1713090D01*
X586860Y1736590D01*
Y1908410D01*
X542050Y1953230D01*
X536800Y1959510D01*
X536200Y1961040D01*
G03X406820Y1902300I-66204J-26035D01*
G01X410240Y1895700D01*
X346640Y1832100D01*
Y1741240D01*
G02X324920Y1720970I-20320J1D01*
G03X295250Y1716690I-4906J-70969D01*
G01X293540Y1716060D01*
X207360D01*
X196060Y1727360D01*
Y2058470D01*
X247270Y2109700D01*
X247330Y2109760D01*
G03X260880Y2124980I-97304J100269D01*
G02X293120I16120J-12364D01*
G03X514880I110880J85020D01*
G02X547120I16120J-12364D01*
G03X771630Y2128690I110881J85017D01*
G02X804390Y2129080I16523J-11824D01*
G03X1027350Y2140560I107609J80920D01*
G02X1044860Y2140380I8702J-5244D01*
G03X1051750Y2129570I121144J69613D01*
G01X1052990Y2127810D01*
X1067700Y2053850D01*
G03X1076640Y2031770I62302J12376D01*
G01Y1912060D01*
G02X1043810Y1896050I-20320J2D01*
G03X929070Y1834480I-43813J-56049D01*
G02X908820Y1812580I-20257J-1582D01*
G01X894280D01*
G03X870850Y1805150I0J-40657D01*
G02X859150I-5850J8307D01*
G03X835720Y1812580I-23430J-33227D01*
G01X744280D01*
G03X703620Y1771920I0J-40660D01*
G01Y1680480D01*
G03X704570Y1671730I40661J-12D01*
G02X692860Y1659550I-9922J-2180D01*
G03X685720Y1660180I-7130J-40031D01*
G01X594280D01*
G03X587210Y1659560I3J-40660D01*
G37*
G36*
G01X213500Y2298900D02*
X150000D01*
X145510Y2205510D01*
X238900Y2210000D01*
Y2273500D01*
G03X213500Y2298900I-25400J0D01*
G37*
G36*
G01X147960Y2082240D02*
X212850Y2147150D01*
X151140Y2216250D01*
X81390Y2156010D01*
X106290Y2091100D01*
G03X147960Y2082240I23712J9101D01*
G37*
G36*
G01X775880Y1301020D02*
X788460Y1288460D01*
X813180Y1310000D01*
X788460Y1331540D01*
X775880Y1318980D01*
G03Y1301020I8980J-8980D01*
G37*
G36*
G01X615880Y1171020D02*
X628460Y1158460D01*
X653180Y1180000D01*
X628460Y1201540D01*
X615880Y1188980D01*
G03Y1171020I8980J-8980D01*
G37*
G36*
G01Y1091020D02*
X628460Y1078460D01*
X653180Y1100000D01*
X628460Y1121540D01*
X615880Y1108980D01*
G03Y1091020I8980J-8980D01*
G37*
G36*
G01Y1011020D02*
X628460Y998460D01*
X653180Y1020000D01*
X628460Y1041540D01*
X615880Y1028980D01*
G03Y1011020I8980J-8980D01*
G37*
G36*
G01X879240Y1736510D02*
X835720Y1771920D01*
X783650Y1726200D01*
X835720Y1680480D01*
X879240Y1715890D01*
G03Y1736510I-23210J10310D01*
G37*
G36*
G01X729030Y1581230D02*
X685720Y1619520D01*
X636820Y1573800D01*
X685720Y1528080D01*
X729030Y1566370D01*
G03Y1581230I-10300J7430D01*
G37*
G36*
G01X854590Y1528940D02*
X835720Y1619520D01*
X787620Y1575900D01*
X744280Y1528080D01*
X841920Y1515380D01*
G03X854590Y1528940I0J12699D01*
G37*
G36*
G01X700970Y1566370D02*
X744280Y1528080D01*
X793180Y1573800D01*
X744280Y1619520D01*
X700970Y1581230D01*
G03Y1566370I10300J-7430D01*
G37*
G36*
G01X512350Y1925350D02*
X497530Y1943120D01*
X467210Y1936520D01*
X470000Y1904520D01*
X502590D01*
G03X512350Y1925350I0J12702D01*
G37*
G36*
G01X468980Y1740880D02*
X491540Y1763460D01*
X470870Y1788050D01*
X444820Y1770990D01*
X447380Y1748420D01*
G03X468980Y1740880I12619J1440D01*
G37*
G36*
G01X432220Y1829520D02*
X470000D01*
X472870Y1861350D01*
X450000Y1860000D01*
X432220Y1842220D01*
Y1829520D01*
G37*
G36*
G01X328980Y1525880D02*
X341540Y1538460D01*
X320000Y1563180D01*
X298460Y1538460D01*
X311020Y1525880D01*
G03X328980I8980J8980D01*
G37*
G36*
G01X1239520Y377780D02*
Y360000D01*
X1272250Y357750D01*
X1270000Y390480D01*
X1252220D01*
G03X1239520Y377780I0J-12700D01*
G37*
G36*
G01X898770Y709030D02*
X860480Y665720D01*
X906200Y616820D01*
X951920Y665720D01*
X913630Y709030D01*
G03X898770I-7430J-10300D01*
G37*
G36*
G01X1248980Y535880D02*
X1271540Y558460D01*
X1250870Y583050D01*
X1224820Y565990D01*
X1227380Y543420D01*
G03X1248980Y535880I12619J1440D01*
G37*
G36*
G01X1294120Y831600D02*
X1281540Y844160D01*
X1256820Y822620D01*
X1281540Y801080D01*
X1294120Y813640D01*
G03Y831600I-8980J8980D01*
G37*
G36*
G01X1340000Y506330D02*
Y529120D01*
X1319270Y553840D01*
X1299000Y529390D01*
X1331020Y497350D01*
X1340000Y506330D01*
G37*
G36*
G01X1082570Y1815230D02*
X1044280Y1771920D01*
X1090000Y1723020D01*
X1135720Y1771920D01*
X1097430Y1815230D01*
G03X1082570I-7430J-10300D01*
G37*
G36*
G01X1025430Y1671730D02*
G03X1026380Y1680480I-39711J8738D01*
G01Y1719160D01*
X1066060Y1758840D01*
Y1779420D01*
G02X1100750Y1793790I20320J3D01*
G01X1146640Y1747900D01*
Y1707050D01*
G03X1129440Y1669050I53362J-47046D01*
G01X1128300Y1660180D01*
X1044280D01*
G03X1037140Y1659550I-10J-40661D01*
G02X1025430Y1671730I-1788J10000D01*
G37*
G36*
G01X1456190Y1646450D02*
G03X1425720Y1660180I-30464J-26933D01*
G01X1351700D01*
X1350560Y1669050D01*
G03X1314390Y1722280I-70563J-9044D01*
G01X1313130Y1722970D01*
X1294000Y1742100D01*
Y1808940D01*
X1233360Y1869580D01*
Y1977900D01*
X1253090Y1997630D01*
G02X1281360Y1998090I14373J-14366D01*
G03X1325540Y1979000I48644J51909D01*
G01X1329370Y1978760D01*
X1488950Y1819180D01*
X1500830D01*
X1500970Y1819040D01*
X1738550D01*
G02X1758870Y1799000I1J-20321D01*
G03X1773950Y1756190I71132J996D01*
G02X1757940Y1723360I-16012J-12510D01*
G01X1737180D01*
X1734400Y1725580D01*
G03X1618860Y1670020I-44401J-55582D01*
G01Y1659860D01*
X1486000D01*
X1477230Y1651090D01*
X1473690Y1650700D01*
G03X1456190Y1646450I7904J-70701D01*
G37*
G36*
G01X850760Y1715890D02*
X894280Y1680480D01*
X946350Y1726200D01*
X894280Y1771920D01*
X850760Y1736510D01*
G03Y1715890I23210J-10310D01*
G37*
G36*
G01X1179030Y1581230D02*
X1135720Y1619520D01*
X1086820Y1573800D01*
X1135720Y1528080D01*
X1179030Y1566370D01*
G03Y1581230I-10300J7430D01*
G37*
G36*
G01X1000970Y1566370D02*
X1044280Y1528080D01*
X1093180Y1573800D01*
X1044280Y1619520D01*
X1000970Y1581230D01*
G03Y1566370I10300J-7430D01*
G37*
G36*
G01X1029030Y1581230D02*
X985720Y1619520D01*
X936820Y1573800D01*
X985720Y1528080D01*
X1029030Y1566370D01*
G03Y1581230I-10300J7430D01*
G37*
G36*
G01X1191020Y1694120D02*
X1178460Y1681540D01*
X1200000Y1656820D01*
X1221540Y1681540D01*
X1208980Y1694120D01*
G03X1191020I-8980J-8980D01*
G37*
G36*
G01X1249520Y1698420D02*
Y1660000D01*
X1281330Y1657120D01*
X1280000Y1680640D01*
X1262220Y1698420D01*
X1249520D01*
G37*
G36*
G01X1138980Y2057260D02*
X1228850Y2147150D01*
X1166770Y2213080D01*
X1099670Y2153640D01*
X1117540Y2063760D01*
G03X1138980Y2057260I12457J2479D01*
G37*
G36*
G01X1301100Y2108400D02*
X1508900Y2121100D01*
X1422540Y2211900D01*
X1331100Y2298900D01*
X1288580Y2123210D01*
G03X1301100Y2108400I12520J-2113D01*
G37*
G36*
G01X1331020Y354120D02*
X1318460Y341540D01*
X1340000Y316820D01*
X1361540Y341540D01*
X1348980Y354120D01*
G03X1331020I-8980J-8980D01*
G37*
G36*
G01X1337220Y99330D02*
X1407600Y69040D01*
X1461530Y130550D01*
X1407600Y190960D01*
X1334110Y117840D01*
G03X1337220Y99330I9991J-7838D01*
G37*
G36*
G01X1364120Y118980D02*
X1351540Y131540D01*
X1326820Y110000D01*
X1351540Y88460D01*
X1364120Y101020D01*
G03Y118980I-8980J8980D01*
G37*
G36*
G01X1770480Y222220D02*
Y260000D01*
X1738650Y262870D01*
X1740000Y240000D01*
X1757780Y222220D01*
X1770480D01*
G37*
G36*
G01X1774900Y192400D02*
X1787600Y69040D01*
X1840400Y127540D01*
X1889200Y190960D01*
X1787780Y205100D01*
G03X1774900Y192400I-179J-12700D01*
G37*
G36*
G01X1653980Y239210D02*
X1610800Y190960D01*
X1661600Y126820D01*
X1712400Y190960D01*
X1669220Y239210D01*
G03X1653980I-7620J-10160D01*
G37*
G36*
G01X1599520Y837780D02*
Y820000D01*
X1632250Y817750D01*
X1630000Y850480D01*
X1612220D01*
G03X1599520Y837780I0J-12700D01*
G37*
G36*
G01X1711020Y854120D02*
X1698460Y841540D01*
X1720000Y816820D01*
X1741540Y841540D01*
X1728980Y854120D01*
G03X1711020I-8980J-8980D01*
G37*
G36*
G01X1837780Y850480D02*
X1820000D01*
X1817750Y817750D01*
X1850480Y820000D01*
Y837780D01*
G03X1837780Y850480I-12700J0D01*
G37*
G36*
G01X1672220Y1279710D02*
X1690000D01*
X1692250Y1312440D01*
X1659520Y1310190D01*
Y1292410D01*
G03X1672220Y1279710I12700J0D01*
G37*
G36*
G01X1632840Y2001960D02*
X1619910D01*
X1571240Y2050630D01*
X1571000Y2054460D01*
G03X1553550Y2096830I-70999J-4463D01*
G03X1559720Y2121100I-44649J24270D01*
G01Y2283940D01*
X1621950D01*
X1653940Y2251950D01*
Y2076460D01*
X1653310Y2074750D01*
G03X1652210Y2028440I66692J-24752D01*
G02X1632840Y2001960I-19365J-6159D01*
G37*
G36*
G01X1807160D02*
G02X1787790Y2028440I-5J20321D01*
G03X1786690Y2074750I-67792J21558D01*
G01X1786060Y2076460D01*
Y2251950D01*
X1818050Y2283940D01*
X2282640D01*
X2386640Y2179940D01*
Y2123360D01*
X1957920D01*
X1942700Y2138570D01*
X1942630Y2138640D01*
G03X1842970Y2037190I-51331J-49251D01*
G02X1829160Y2001960I-13806J-14910D01*
G01X1807160D01*
G37*
G36*
G01X1737960Y2268540D02*
X1801460Y2332040D01*
X1745400Y2356350D01*
X1694600D01*
X1638540Y2332040D01*
X1702040Y2268540D01*
G03X1737960I17960J17960D01*
G37*
G36*
G01X1360480Y2029680D02*
Y2050000D01*
X1328200Y2051800D01*
X1330000Y2019520D01*
X1350320D01*
G03X1360480Y2029680I0J10160D01*
G37*
G36*
G01X1450480Y2009040D02*
Y2050000D01*
X1418870Y2052280D01*
X1420000Y2029360D01*
X1440320Y2009040D01*
X1450480D01*
G37*
G36*
G01X1530480Y2029680D02*
Y2050000D01*
X1498200Y2051800D01*
X1500000Y2019520D01*
X1520320D01*
G03X1530480Y2029680I0J10160D01*
G37*
G36*
G01X2314750Y54690D02*
X2343360Y83300D01*
Y558690D01*
G02X2360700Y565870I10158J-4D01*
G01X2364580Y562000D01*
X2365340Y560340D01*
G03X2454750Y523310I64658J29663D01*
G01X2456460Y523940D01*
X2777360D01*
X2976060Y722640D01*
Y920540D01*
X2976690Y922250D01*
G03X2843310I-66690J24750D01*
G01X2843940Y920540D01*
Y777360D01*
X2722640Y656060D01*
X2457360D01*
X2293770Y819650D01*
G02X2308140Y854340I14368J14370D01*
G01X2650000D01*
G03X2690660Y895000I0J40660D01*
G01Y1245000D01*
G03X2684820Y1266000I-40661J4D01*
G01X2683360Y1268420D01*
Y1397900D01*
X2802100Y1516640D01*
X2896240D01*
X2981300Y1601700D01*
X3044260D01*
Y1551050D01*
X3101050Y1494260D01*
X3318950D01*
X3365740Y1541050D01*
Y1658950D01*
X3318950Y1705740D01*
X3196060D01*
Y2287360D01*
X3138110Y2345310D01*
G02X3152480Y2380000I14368J14370D01*
G01X3380980D01*
X3382830Y2372190D01*
G03X3406730Y2323830I117166J27819D01*
G02X3390990Y2290660I-15742J-12850D01*
G01X3342700D01*
G03X3303650Y2261320I0J-40657D01*
G01X3302920Y2258820D01*
X3295240Y2251100D01*
X3291690Y2250710D01*
G03Y2109290I7830J-70710D01*
G01X3295240Y2108900D01*
X3302920Y2101180D01*
X3303650Y2098680D01*
G03X3342700Y2069340I39050J11317D01*
G01X3422700D01*
G03X3447360Y2077670I0J40667D01*
G02X3480000Y2061510I12321J-16158D01*
G01Y20000D01*
X2329120D01*
G02X2314750Y54690I-3J20320D01*
G37*
G36*
G01X2211020Y184120D02*
X2198460Y171540D01*
X2220000Y146820D01*
X2241540Y171540D01*
X2228980Y184120D01*
G03X2211020I-8980J-8980D01*
G37*
G36*
G01X2141020Y294120D02*
X2128460Y281540D01*
X2150000Y256820D01*
X2171540Y281540D01*
X2158980Y294120D01*
G03X2141020I-8980J-8980D01*
G37*
G36*
G01X2165740Y88020D02*
X2076800Y177060D01*
X2038690Y131270D01*
X1990800Y69040D01*
X2156740Y67330D01*
G03X2165740Y88020I-843J12669D01*
G37*
G36*
G01X2228980Y505880D02*
X2241540Y518460D01*
X2220000Y543180D01*
X2198460Y518460D01*
X2211020Y505880D01*
G03X2228980I8980J8980D01*
G37*
G36*
G01X1918980Y785880D02*
X1931540Y798460D01*
X1910000Y823180D01*
X1888460Y798460D01*
X1901020Y785880D01*
G03X1918980I8980J8980D01*
G37*
G36*
G01X2150000Y654860D02*
Y680000D01*
X2128710Y702900D01*
X2108460Y678460D01*
X2141020Y645880D01*
X2150000Y654860D01*
G37*
G36*
G01X2102620Y573420D02*
X2105180Y595990D01*
X2079130Y613050D01*
X2058460Y588460D01*
X2081020Y565880D01*
G03X2102620Y573420I8981J8980D01*
G37*
G36*
G01X2135090Y1420370D02*
X1834530Y1720930D01*
X1843750Y1730140D01*
X1846540Y1730810D01*
G03X1854750Y1733310I-16580J69179D01*
G01X1856460Y1733940D01*
X2060280D01*
X2076500Y1720680D01*
X2071050Y1712950D01*
G03X2063620Y1689520I33227J-23430D01*
G01Y1598080D01*
G03X2073820Y1571150I40650J0D01*
G01X2096640Y1545330D01*
Y1504240D01*
X2138910Y1461970D01*
X2139300Y1458430D01*
G03X2144450Y1438690I70701J7903D01*
G01X2147110Y1432390D01*
X2135090Y1420370D01*
G37*
G36*
G01X2386380Y1652270D02*
Y1689520D01*
G03X2345720Y1730180I-40660J0D01*
G01X2254280D01*
G03X2247140Y1729550I-10J-40661D01*
G02X2235430Y1741730I-1788J10000D01*
G03X2236380Y1750480I-39711J8738D01*
G01Y1819040D01*
X2336250D01*
X2337390Y1817900D01*
X2400230D01*
X2427900Y1790230D01*
Y1644730D01*
X2421070Y1637900D01*
G02X2386380Y1652270I-14370J14366D01*
G37*
G36*
G01X2057330Y1788880D02*
X2104280Y1750480D01*
X2156340Y1795850D01*
X2104280Y1841920D01*
X2058150Y1812660D01*
G03X2057330Y1788880I22019J-12663D01*
G37*
G36*
G01X2277730Y1529920D02*
X2345720Y1598080D01*
X2300880Y1646850D01*
X2254280Y1598080D01*
X2257740Y1536680D01*
G03X2277730Y1529920I12260J3319D01*
G37*
G36*
G01X2261020Y1574120D02*
X2248460Y1561540D01*
X2270000Y1536820D01*
X2291540Y1561540D01*
X2278980Y1574120D01*
G03X2261020I-8980J-8980D01*
G37*
G36*
G01X2179520Y1484120D02*
Y1466340D01*
X2212250Y1464090D01*
X2210000Y1496820D01*
X2192220D01*
G03X2179520Y1484120I0J-12700D01*
G37*
G36*
G01X2157430Y1554770D02*
X2195720Y1598080D01*
X2150000Y1646980D01*
X2104280Y1598080D01*
X2142570Y1554770D01*
G03X2157430I7430J10300D01*
G37*
G36*
G01X1944810Y2078980D02*
X1912840Y2110930D01*
X1888390Y2090660D01*
X1910690Y2070000D01*
X1935830D01*
X1944810Y2078980D01*
G37*
G36*
G01X2715840Y1759190D02*
X2704670D01*
X2703690Y1759390D01*
G03X2695720Y1760180I-7976J-39869D01*
G01X2610820D01*
Y1881040D01*
X2509910Y1981950D01*
G02X2524280Y2016640I14366J14370D01*
G01X2724800D01*
X2767380Y2059220D01*
X2857360Y2069610D01*
G03X2880280Y2080120I-4653J40393D01*
G01X2925000Y2121410D01*
X2969720Y2080120D01*
G03X2997300Y2069340I27580J29891D01*
G01X3063940D01*
Y1810020D01*
X2946500D01*
G03X2921300Y1801270I0J-40663D01*
G02X2908700I-6300J7970D01*
G03X2883500Y1810020I-25200J-31913D01*
G01X2756500D01*
G03X2715840Y1769360I0J-40660D01*
G01Y1759190D01*
G37*
G36*
G01X2656650Y1589180D02*
X2695720Y1628080D01*
X2650000Y1676980D01*
X2604280Y1628080D01*
X2643350Y1589180D01*
G03X2656650I6650J10820D01*
G37*
G36*
G01X2742700Y2097300D02*
X2852700Y2110000D01*
X2814950Y2182250D01*
X2772700Y2250000D01*
X2730280Y2112660D01*
G03X2742700Y2097300I12420J-2659D01*
G37*
G36*
G01X2919820Y2188040D02*
X2852700Y2250000D01*
X2809520Y2180000D01*
X2852700Y2110000D01*
X2919820Y2171960D01*
G03Y2188040I-9830J8040D01*
G37*
G36*
G01X3114160Y1654160D02*
X3120000Y1660000D01*
X3300000D01*
X3320000Y1640000D01*
Y1560000D01*
X3300000Y1540000D01*
X3120000D01*
X3090000Y1570000D01*
Y1604770D01*
X3094830Y1607740D01*
G03X3114160Y1642360I-21337J34620D01*
G01Y1654160D01*
G37*
G36*
G01X2930180Y2171960D02*
X2997300Y2110000D01*
X3040480Y2180000D01*
X2997300Y2250000D01*
X2930180Y2188040D01*
G03Y2171960I9830J-8040D01*
G37*
G36*
G01X3289150Y2172670D02*
X3342700Y2118850D01*
X3385880Y2180000D01*
X3342700Y2241150D01*
X3289150Y2187330D01*
G03Y2172670I10370J-7330D01*
G37*
%LPC*%
G75*
G36*
G01X3291200Y232980D02*
X3138800D01*
G02X3087980Y283800I0J50820D01*
G01Y301440D01*
X3072110D01*
X3069140Y296570D01*
G02Y423430I-104140J63430D01*
G01X3072110Y418560D01*
X3087980D01*
Y436200D01*
G02X3138800Y487020I50820J0D01*
G01X3291200D01*
G02X3342020Y436200I0J-50820D01*
G01Y283800D01*
G02X3291200Y232980I-50820J0D01*
G37*
G54D27*
X310000Y370000D03*
X710000D03*
%LPD*%
G75*
G36*
G01X3333640Y2188980D02*
X3321060Y2201540D01*
X3296340Y2180000D01*
X3321060Y2158460D01*
X3333640Y2171020D01*
G03Y2188980I-8980J8980D01*
G37*
G54D10*
X130000Y910000D03*
Y720000D03*
Y500000D03*
Y1460000D03*
Y1300000D03*
Y1110000D03*
X320000Y1650000D03*
Y1560000D03*
X240000Y2030000D03*
X650000Y930000D03*
X430000D03*
X580000Y1470000D03*
X810000Y1310000D03*
X650000Y1180000D03*
Y1100000D03*
Y1020000D03*
X470000Y1935000D03*
Y1785000D03*
Y1860000D03*
X330000Y2030000D03*
X430000D03*
X1270000Y360000D03*
X1340000Y320000D03*
X870000Y350000D03*
X1330000Y110000D03*
X1250000Y580000D03*
X1260000Y822620D03*
X1320540Y550930D03*
X1250000Y660000D03*
X1160000Y1320000D03*
X1250000Y1960000D03*
X1000000Y1940000D03*
Y1840000D03*
X1200000Y1660000D03*
X1280000D03*
X1330000Y2050000D03*
X1620000Y450000D03*
X1690000D03*
X1760000D03*
X1740000Y260000D03*
X1630000Y820000D03*
X1720000D03*
X1820000D03*
X1690000Y1450000D03*
X1570000Y1480000D03*
X1480000D03*
X1650000Y1380000D03*
X1690000Y1310190D03*
X1830000Y1800000D03*
X1481600Y1580000D03*
X1690000Y1670000D03*
X1630000Y2042200D03*
X1720000Y2050000D03*
X1420000D03*
X1500000D03*
X2220000Y150000D03*
X2150000Y260000D03*
X2220000Y540000D03*
X1910000Y820000D03*
X2130000Y700000D03*
X2080000Y610000D03*
X2210000Y1370000D03*
Y1466340D03*
X1970000Y1710000D03*
X2270000Y1540000D03*
X2110000Y2220000D03*
X1891300Y2089390D03*
X2390000Y70000D03*
X2570000D03*
X2780000D03*
X2770000Y740000D03*
X2710000Y700000D03*
X2410000Y740000D03*
X2430000Y590000D03*
X2772250Y1460000D03*
X2390000Y1790000D03*
X2640000Y1990000D03*
X2990000Y70000D03*
X3240000D03*
X3400000Y840000D03*
Y970000D03*
X2910000Y947000D03*
X3130000Y1610000D03*
X3200000D03*
X3270000D03*
X3240000Y2040000D03*
X3340000D03*
X3030000Y2050000D03*
X3299520Y2180000D03*
X3420000Y70000D03*
X3450000Y2040000D03*
G54D11*
X150000Y2210000D03*
X404000D03*
X658000D03*
X912000D03*
X1166000D03*
G54D20*
X3215000Y360000D03*
G54D21*
G01X1330000Y2050000D02*
X1510000Y1870000D01*
X1521880D01*
X1522020Y1869860D01*
X2357300D01*
X2358440Y1868720D01*
X2421280D01*
X2478720Y1811280D01*
Y1623680D01*
X2280000Y1424960D01*
Y1070000D01*
G01X1420000Y2050000D02*
Y2029360D01*
X1538850Y1910510D01*
X1582010D01*
X1582020Y1910500D01*
X2374140D01*
X2375280Y1909360D01*
X2438120D01*
X2519360Y1828120D01*
Y1606840D01*
X2350000Y1437480D01*
Y1070000D01*
G01X1500000Y2050000D02*
X1598860Y1951140D01*
X2390980D01*
X2392120Y1950000D01*
X2469990D01*
X2560000Y1859990D01*
Y1590000D01*
X2420000Y1450000D01*
Y1070000D01*
G01X1689400Y1994380D02*
X1673780Y2010000D01*
X1662200D01*
X1630000Y2042200D01*
G01X1800000Y2010000D02*
X1766220D01*
X1745260Y1989040D01*
X1694740D01*
X1689400Y1994380D01*
G01D02*
X1675620D01*
X1630000Y2040000D01*
G01D02*
Y2042200D01*
G54D12*
X810000Y1070000D03*
X740000D03*
X1300000D03*
X1230000D03*
X1160000D03*
X1090000D03*
X1020000D03*
X950000D03*
X880000D03*
X1790000D03*
X1720000D03*
X1650000D03*
X1580000D03*
X1510000D03*
X1440000D03*
X1370000D03*
X2350000D03*
X2280000D03*
X2210000D03*
X2140000D03*
X2070000D03*
X2000000D03*
X1930000D03*
X1860000D03*
X2770000D03*
X2700000D03*
X2630000D03*
X2560000D03*
X2490000D03*
X2420000D03*
G54D22*
G01X340000Y370000D02*
G03I-30000J0D01*
G01X740000D02*
G03I-30000J0D01*
G54D13*
X753800Y620000D03*
X403800D03*
X556200D03*
X906200D03*
G54D23*
G01X2832900Y360000D02*
X2965000D01*
G01Y227900D02*
Y360000D01*
G01D02*
Y492100D01*
G54D14*
X790000Y1573800D03*
Y1726200D03*
X640000D03*
Y1573800D03*
X940000D03*
Y1726200D03*
X1090000D03*
Y1573800D03*
X1380000Y1726200D03*
Y1573800D03*
X2150000Y1643800D03*
Y1796200D03*
X2300000Y1643800D03*
Y1796200D03*
X2650000Y1826200D03*
Y1673800D03*
G54D24*
G01X403800Y620000D02*
X534440Y750640D01*
X740640D01*
X810000Y820000D01*
Y1070000D01*
G01X556200Y620000D02*
X646200Y710000D01*
X770000D01*
X880000Y820000D01*
Y1070000D01*
G01X753800Y620000D02*
Y633800D01*
X950000Y830000D01*
Y1070000D01*
G01X810000Y1310000D02*
X610000D01*
X510000Y1410000D01*
Y1735190D01*
X533500Y1758690D01*
Y1886310D01*
X484810Y1935000D01*
X470000D01*
G01Y1785000D02*
X460000Y1775000D01*
Y1250000D01*
X530000Y1180000D01*
X650000D01*
G01Y1100000D02*
X510000D01*
X400000Y1210000D01*
Y1810000D01*
X450000Y1860000D01*
X470000D01*
G01X320000Y1560000D02*
Y1150000D01*
X450000Y1020000D01*
X650000D01*
G01X640000Y1573800D02*
X790000D01*
G01X1440000Y1070000D02*
Y1264600D01*
X1224600Y1480000D01*
X890000D01*
X796200Y1573800D01*
X790000D01*
G01X1250000Y580000D02*
X1240000Y570000D01*
Y390000D01*
X1270000Y360000D01*
G01X1020000Y1070000D02*
Y830000D01*
X906200Y716200D01*
Y620000D01*
G01X1260000Y822620D02*
X1342820D01*
X1465440Y700000D01*
X1860000D01*
X1910000Y750000D01*
Y820000D01*
G01X1320540Y550930D02*
Y548580D01*
X1340000Y529120D01*
Y320000D01*
G01X1250000Y660000D02*
X1270000D01*
X1280000Y650000D01*
X1360000D01*
X1440000Y570000D01*
X1900000D01*
X2100000Y770000D01*
X2160000D01*
X2290000Y640000D01*
Y105400D01*
X2264600Y80000D01*
X2091600D01*
X2041600Y130000D01*
G01X1090000Y1573800D02*
X1206200D01*
X1510000Y1270000D01*
Y1070000D01*
G01X1055880Y1920000D02*
X1089360Y1886520D01*
Y1823160D01*
X1090000Y1822520D01*
Y1726200D01*
G01X940000Y1573800D02*
X1090000D01*
G01X1166000Y2210000D02*
Y2206000D01*
X1130000Y2170000D01*
Y1840000D01*
X1200000Y1770000D01*
Y1660000D01*
G01X1420000Y2210000D02*
X1390000D01*
X1180000Y2000000D01*
Y1847480D01*
X1240640Y1786840D01*
Y1720000D01*
X1280000Y1680640D01*
Y1660000D01*
G01X1330000Y110000D02*
X1438400D01*
X1458400Y130000D01*
G01X1838400D02*
Y141600D01*
X1740000Y240000D01*
Y260000D01*
G01X2080000Y610000D02*
X2090000Y600000D01*
Y375400D01*
X2044600Y330000D01*
X1700000D01*
X1661600Y291600D01*
Y130000D01*
G01X1580000Y1070000D02*
Y870000D01*
X1630000Y820000D01*
G01X1720000Y1070000D02*
Y820000D01*
G01X1860000Y1070000D02*
Y860000D01*
X1820000Y820000D01*
G01X1690000Y1450000D02*
X1730000D01*
X1930000Y1250000D01*
Y1070000D01*
G01X2000000D02*
Y1260000D01*
X1746500Y1513500D01*
X1603500D01*
X1570000Y1480000D01*
G01X1650000Y1380000D02*
X1720000D01*
X1790000Y1310000D01*
Y1070000D01*
G01X1690000Y1310190D02*
X1650000Y1270190D01*
Y1070000D01*
G01X1380000Y1573800D02*
Y1479990D01*
X1549800Y1310190D01*
X1690000D01*
G01X1750000Y1740000D02*
X1797480D01*
X1827480Y1710000D01*
X1870000D01*
G01X1480000Y1480000D02*
X1559360Y1559360D01*
X1780640D01*
X2070000Y1270000D01*
Y1070000D01*
G01X1481600Y1580000D02*
X1508100Y1606500D01*
X1803510D01*
X2140000Y1270010D01*
Y1070000D01*
G01X1690000Y1670000D02*
X1810000D01*
X2210000Y1270000D01*
Y1070000D01*
G01X1810000Y2050000D02*
Y2046920D01*
X1840000Y2016920D01*
G01X2220000Y540000D02*
Y150000D01*
G01X2150000Y260000D02*
Y680000D01*
X2130000Y700000D01*
G01X2110000Y1460000D02*
X2200000Y1370000D01*
X2210000D01*
G01Y1466340D02*
X2150000Y1526340D01*
Y1643800D01*
G01X2300000D02*
X2270000Y1613800D01*
Y1540000D01*
G01X1840000Y2016920D02*
X2513080D01*
X2540000Y1990000D01*
G01X2812700Y2180000D02*
X2702700Y2070000D01*
X1910690D01*
X1891300Y2089390D01*
G01X2490000Y1070000D02*
Y1440000D01*
X2650000Y1600000D01*
Y1673800D01*
G01X2630000Y1070000D02*
Y1420000D01*
X2780000Y1570000D01*
X2874140D01*
X3010000Y1705860D01*
G01X2560000Y1070000D02*
Y1445860D01*
X2820000Y1705860D01*
G01X3037300Y2180000D02*
X2812700D01*
G01X3382700D02*
X3299520D01*
G54D15*
X1420000Y2210000D03*
G54D25*
G01X260000Y2400000D02*
G03X0Y2140000I-265000J5000D01*
G01Y0D01*
X3500000D01*
Y2140000D01*
G03X3240000Y2400000I5000J265000D01*
G01X260000D01*
G01X100000D02*
G03I-100000J0D01*
G01X3600000D02*
G03I-100000J0D01*
G54D16*
X1458400Y130000D03*
X1661600D03*
X1838400D03*
X2041600D03*
G54D26*
G01X150000Y2210000D02*
X130000Y2190000D01*
Y1700000D01*
X180000Y1650000D01*
X320000D01*
G01X1720000Y2350000D02*
X290000D01*
X150000Y2210000D01*
G01X1160000Y1320000D02*
X1080000Y1400000D01*
X880000D01*
X810000Y1470000D01*
X580000D01*
G01X790000Y1726200D02*
X940000D01*
G01X912000Y2202000D02*
X800000Y2090000D01*
G01X870000Y350000D02*
X1059200D01*
X1110000Y400800D01*
Y639990D01*
X1216430Y746420D01*
X1343580D01*
X1450000Y640000D01*
X1880000D01*
X2070000Y830000D01*
X2190000D01*
X2430000Y590000D01*
G01X1090000Y1070000D02*
Y1252480D01*
X1157520Y1320000D01*
X1160000D01*
G01D02*
X1240000D01*
X1300000Y1260000D01*
Y1070000D01*
G01X1000000Y1840000D02*
Y1786200D01*
X940000Y1726200D01*
G01X912000Y2208000D02*
Y2202000D01*
G01Y2208000D02*
X1030000Y2090000D01*
G01X912000Y2210000D02*
Y2208000D01*
G01X910000Y2050000D02*
X912000Y2052000D01*
G01D02*
Y2202000D01*
G01X1830000Y1800000D02*
X2146200D01*
X2150000Y1796200D01*
G01X2467300Y2192700D02*
X2310000Y2350000D01*
X1720000D01*
G01Y2050000D02*
Y2350000D01*
G01X2910000Y947000D02*
Y750000D01*
X2750000Y590000D01*
X2430000D01*
G01X2467300Y2192700D02*
Y2217300D01*
X2600000Y2350000D01*
X3040000D01*
X3130000Y2260000D01*
Y1610000D01*
G01X2467300Y2192700D02*
Y2180000D01*
G54D17*
X2820000Y1914140D03*
Y1705860D03*
X3010000Y1914140D03*
Y1705860D03*
G54D18*
X2812700Y2180000D03*
X2467300D03*
X3037300D03*
X3382700D03*
G54D19*
X2965000Y360000D03*
M02*
