G04 ================== begin FILE IDENTIFICATION RECORD ==================*
G04 Layout Name:  INA193_TEST_V10A.brd*
G04 Film Name:    Drill_Legend*
G04 File Format:  Gerber RS274X*
G04 File Origin:  Cadence Allegro 16.6-2015-S095*
G04 Origin Date:  Wed Dec 06 10:00:42 2017*
G04 *
G04 Layer:  BOARD GEOMETRY/OUTLINE*
G04 Layer:  MANUFACTURING/NCDRILL_FIGURE*
G04 Layer:  BOARD GEOMETRY/DIMENSION*
G04 Layer:  MANUFACTURING/NCDRILL_LEGEND*
G04 Layer:  MANUFACTURING/NCLEGEND-1-2*
G04 *
G04 Offset:    (0.0000 0.0000)*
G04 Mirror:    No*
G04 Mode:      Positive*
G04 Rotation:  0*
G04 FullContactRelief:  No*
G04 UndefLineWidth:     0.1524*
G04 ================== end FILE IDENTIFICATION RECORD ====================*
%FSLAX55Y55*MOMM*%
%IR0*IPPOS*OFA0.00000B0.00000*MIA0B0*SFA1.00000B1.00000*%
%AMMACRO11*
1,1,.1524,.1524,0.0*
20,1,.1524,.1524,0.0,-.1524,0.0,0.0*
1,1,.1524,-.1524,0.0*
1,1,.1524,0.0,.1524*
20,1,.1524,0.0,.1524,0.0,-.1524,0.0*
1,1,.1524,0.0,-.1524*
%
%ADD11MACRO11*%
%AMMACRO10*
1,1,.1524,1.7018,0.0*
20,1,.1524,1.7018,0.0,0.0,-1.7018,0.0*
1,1,.1524,0.0,-1.7018*
20,1,.1524,0.0,-1.7018,-1.7018,0.0,0.0*
1,1,.1524,-1.7018,0.0*
20,1,.1524,-1.7018,0.0,0.0,1.7018,0.0*
1,1,.1524,0.0,1.7018*
20,1,.1524,0.0,1.7018,1.7018,0.0,0.0*
1,1,.1524,1.7018,0.0*
%
%ADD10MACRO10*%
%AMMACRO15*
1,1,.1524,.51553,-1.2446*
20,1,.1524,.51553,-1.2446,-.51553,-1.2446,0.0*
1,1,.1524,-.51553,-1.2446*
20,1,.1524,-.51553,-1.2446,-1.2446,-.51553,0.0*
1,1,.1524,-1.2446,-.51553*
20,1,.1524,-1.2446,-.51553,-1.2446,.51553,0.0*
1,1,.1524,-1.2446,.51553*
20,1,.1524,-1.2446,.51553,-.51553,1.2446,0.0*
1,1,.1524,-.51553,1.2446*
20,1,.1524,-.51553,1.2446,.51553,1.2446,0.0*
1,1,.1524,.51553,1.2446*
20,1,.1524,.51553,1.2446,1.2446,.51553,0.0*
1,1,.1524,1.2446,.51553*
20,1,.1524,1.2446,.51553,1.2446,-.51553,0.0*
1,1,.1524,1.2446,-.51553*
20,1,.1524,1.2446,-.51553,.51553,-1.2446,0.0*
1,1,.1524,.51553,-1.2446*
%
%ADD15MACRO15*%
%AMMACRO12*
1,1,.1524,.4445,.4445*
20,1,.1524,.4445,.4445,.4445,-.4445,0.0*
1,1,.1524,.4445,-.4445*
20,1,.1524,.4445,-.4445,-.4445,-.4445,0.0*
1,1,.1524,-.4445,-.4445*
20,1,.1524,-.4445,-.4445,-.4445,.4445,0.0*
1,1,.1524,-.4445,.4445*
20,1,.1524,-.4445,.4445,.4445,.4445,0.0*
1,1,.1524,.4445,.4445*
%
%ADD12MACRO12*%
%AMMACRO13*
1,1,.1524,.508,0.0*
20,1,.1524,.508,0.0,.254,.439941,0.0*
1,1,.1524,.254,.439941*
20,1,.1524,.254,.439941,-.254,.439941,0.0*
1,1,.1524,-.254,.439941*
20,1,.1524,-.254,.439941,-.508,0.0,0.0*
1,1,.1524,-.508,0.0*
20,1,.1524,-.508,0.0,-.254,-.439941,0.0*
1,1,.1524,-.254,-.439941*
20,1,.1524,-.254,-.439941,.254,-.439941,0.0*
1,1,.1524,.254,-.439941*
20,1,.1524,.254,-.439941,.508,0.0,0.0*
1,1,.1524,.508,0.0*
%
%ADD13MACRO13*%
%AMMACRO14*
1,1,.1524,0.0,.762*
20,1,.1524,0.0,.762,-.659911,.381,0.0*
1,1,.1524,-.659911,.381*
20,1,.1524,-.659911,.381,-.659911,-.381,0.0*
1,1,.1524,-.659911,-.381*
20,1,.1524,-.659911,-.381,0.0,-.762,0.0*
1,1,.1524,0.0,-.762*
20,1,.1524,0.0,-.762,.659911,-.381,0.0*
1,1,.1524,.659911,-.381*
20,1,.1524,.659911,-.381,.659911,.381,0.0*
1,1,.1524,.659911,.381*
20,1,.1524,.659911,.381,0.0,.762,0.0*
1,1,.1524,0.0,.762*
%
%ADD14MACRO14*%
%ADD16C,.2032*%
%ADD17C,.17*%
%ADD18C,.127*%
%ADD19C,.254*%
%ADD20C,.1524*%
G75*
%LPD*%
G75*
G54D10*
X330000Y330000D03*
Y9670000D03*
X9670000Y330000D03*
Y9670000D03*
X11691730Y347500D03*
G54D20*
G01X-1296050Y4126970D02*
X-1279460Y4111100D01*
X-1260490Y4104750D01*
X-1241530Y4111100D01*
X-1224930Y4130140D01*
X-1213080Y4158730D01*
X-1208340Y4187300D01*
Y4222220D01*
X-1213080Y4250800D01*
X-1224930Y4276200D01*
X-1239160Y4288900D01*
X-1255750Y4295250D01*
X-1274720Y4288900D01*
X-1288940Y4276200D01*
X-1298420Y4257150D01*
X-1303160Y4231750D01*
X-1298420Y4209530D01*
X-1286570Y4187300D01*
X-1272340Y4174600D01*
X-1255750Y4171420D01*
X-1236790Y4177770D01*
X-1222560Y4193650D01*
X-1208340Y4222220D01*
G01X-1110290Y4184120D02*
X-1093700Y4206350D01*
X-1079470Y4219050D01*
X-1060510Y4225400D01*
X-1043910Y4219050D01*
X-1032060Y4206350D01*
X-1022580Y4187300D01*
X-1020210Y4165070D01*
X-1022580Y4146020D01*
X-1032060Y4126970D01*
X-1046290Y4111100D01*
X-1062880Y4104750D01*
X-1081840Y4111100D01*
X-1098440Y4130140D01*
X-1107920Y4158730D01*
X-1110290Y4190470D01*
X-1105550Y4231750D01*
X-1098440Y4253980D01*
X-1086590Y4276200D01*
X-1069990Y4292080D01*
X-1053400Y4295250D01*
X-1036800Y4288900D01*
X-1024950Y4273020D01*
G01X-874750Y4098400D02*
X-879490Y4101580D01*
Y4107920D01*
X-874750Y4111100D01*
X-870010Y4107920D01*
Y4101580D01*
X-874750Y4098400D01*
G01X-688990Y4104750D02*
X-684250Y4146020D01*
X-677140Y4180950D01*
X-667660Y4212700D01*
X-655800Y4247620D01*
X-636840Y4295250D01*
X-731660D01*
G01X-1700500Y4834750D02*
Y5025250D01*
X-1728950Y4987150D01*
G01Y4834750D02*
X-1672060D01*
G01X-1510000Y5025250D02*
X-1528970Y5018900D01*
X-1543190Y5003020D01*
X-1552670Y4983980D01*
X-1559780Y4958570D01*
X-1562150Y4930000D01*
X-1559780Y4901420D01*
X-1552670Y4876020D01*
X-1543190Y4856970D01*
X-1528970Y4841100D01*
X-1510000Y4834750D01*
X-1491040Y4841100D01*
X-1476810Y4856970D01*
X-1467330Y4876020D01*
X-1460220Y4901420D01*
X-1457850Y4930000D01*
X-1460220Y4958570D01*
X-1467330Y4983980D01*
X-1476810Y5003020D01*
X-1491040Y5018900D01*
X-1510000Y5025250D01*
G01X-1319500D02*
X-1338470Y5018900D01*
X-1352690Y5003020D01*
X-1362170Y4983980D01*
X-1369280Y4958570D01*
X-1371650Y4930000D01*
X-1369280Y4901420D01*
X-1362170Y4876020D01*
X-1352690Y4856970D01*
X-1338470Y4841100D01*
X-1319500Y4834750D01*
X-1300540Y4841100D01*
X-1286310Y4856970D01*
X-1276830Y4876020D01*
X-1269720Y4901420D01*
X-1267350Y4930000D01*
X-1269720Y4958570D01*
X-1276830Y4983980D01*
X-1286310Y5003020D01*
X-1300540Y5018900D01*
X-1319500Y5025250D01*
G01X-562650Y102850D02*
X-548430Y80620D01*
X-529470Y67920D01*
X-508130Y64750D01*
X-489160Y67920D01*
X-470200Y83800D01*
X-458350Y102850D01*
X-455980Y121900D01*
X-460720Y144120D01*
X-477310Y160000D01*
X-493910Y166350D01*
X-515240D01*
G01X-493910D02*
X-479680Y175870D01*
X-467830Y191750D01*
X-463090Y210800D01*
X-467830Y229850D01*
X-479680Y245720D01*
X-501020Y255250D01*
X-522350Y252080D01*
X-543690Y239370D01*
G01X-320000Y58400D02*
X-324740Y61580D01*
Y67920D01*
X-320000Y71100D01*
X-315260Y67920D01*
Y61580D01*
X-320000Y58400D01*
G01X-181650Y102850D02*
X-167430Y80620D01*
X-148470Y67920D01*
X-127130Y64750D01*
X-108160Y67920D01*
X-89200Y83800D01*
X-77350Y102850D01*
X-74980Y121900D01*
X-79720Y144120D01*
X-96310Y160000D01*
X-112910Y166350D01*
X-134240D01*
G01X-112910D02*
X-98680Y175870D01*
X-86830Y191750D01*
X-82090Y210800D01*
X-86830Y229850D01*
X-98680Y245720D01*
X-120020Y255250D01*
X-141350Y252080D01*
X-162690Y239370D01*
G01X-112650Y-427150D02*
X-98430Y-449380D01*
X-79470Y-462080D01*
X-58130Y-465250D01*
X-39160Y-462080D01*
X-20200Y-446200D01*
X-8350Y-427150D01*
X-5980Y-408100D01*
X-10720Y-385880D01*
X-27310Y-370000D01*
X-43910Y-363650D01*
X-65240D01*
G01X-43910D02*
X-29680Y-354130D01*
X-17830Y-338250D01*
X-13090Y-319200D01*
X-17830Y-300150D01*
X-29680Y-284280D01*
X-51020Y-274750D01*
X-72350Y-277920D01*
X-93690Y-290630D01*
G01X130000Y-471600D02*
X125260Y-468420D01*
Y-462080D01*
X130000Y-458900D01*
X134740Y-462080D01*
Y-468420D01*
X130000Y-471600D01*
G01X268350Y-427150D02*
X282570Y-449380D01*
X301530Y-462080D01*
X322870Y-465250D01*
X341840Y-462080D01*
X360800Y-446200D01*
X372650Y-427150D01*
X375020Y-408100D01*
X370280Y-385880D01*
X353690Y-370000D01*
X337090Y-363650D01*
X315760D01*
G01X337090D02*
X351320Y-354130D01*
X363170Y-338250D01*
X367910Y-319200D01*
X363170Y-300150D01*
X351320Y-284280D01*
X329980Y-274750D01*
X308650Y-277920D01*
X287310Y-290630D01*
G01X330000Y0D02*
X9670000D01*
G03X10000000Y330000I0J330000D01*
G01Y9670000D01*
G03X9670000Y10000000I-330000J0D01*
G01X330000D01*
G03X0Y9670000I0J-330000D01*
G01Y330000D01*
G03X330000Y0I330000J0D01*
G01X4173950Y-813030D02*
X4190540Y-828900D01*
X4209510Y-835250D01*
X4228470Y-828900D01*
X4245070Y-809860D01*
X4256920Y-781270D01*
X4261660Y-752700D01*
Y-717780D01*
X4256920Y-689200D01*
X4245070Y-663800D01*
X4230840Y-651100D01*
X4214250Y-644750D01*
X4195280Y-651100D01*
X4181060Y-663800D01*
X4171580Y-682850D01*
X4166840Y-708250D01*
X4171580Y-730470D01*
X4183430Y-752700D01*
X4197660Y-765400D01*
X4214250Y-768580D01*
X4233210Y-762230D01*
X4247440Y-746350D01*
X4261660Y-717780D01*
G01X4359710Y-755880D02*
X4376300Y-733650D01*
X4390530Y-720950D01*
X4409490Y-714600D01*
X4426090Y-720950D01*
X4437940Y-733650D01*
X4447420Y-752700D01*
X4449790Y-774930D01*
X4447420Y-793980D01*
X4437940Y-813030D01*
X4423710Y-828900D01*
X4407120Y-835250D01*
X4388160Y-828900D01*
X4371560Y-809860D01*
X4362080Y-781270D01*
X4359710Y-749530D01*
X4364450Y-708250D01*
X4371560Y-686020D01*
X4383410Y-663800D01*
X4400010Y-647920D01*
X4416600Y-644750D01*
X4433200Y-651100D01*
X4445050Y-666980D01*
G01X4595250Y-841600D02*
X4590510Y-838420D01*
Y-832080D01*
X4595250Y-828900D01*
X4599990Y-832080D01*
Y-838420D01*
X4595250Y-841600D01*
G01X4781010Y-835250D02*
X4785750Y-793980D01*
X4792860Y-759050D01*
X4802340Y-727300D01*
X4814200Y-692380D01*
X4833160Y-644750D01*
X4738340D01*
G01X4729500Y-1225250D02*
Y-1034750D01*
X4701050Y-1072850D01*
G01Y-1225250D02*
X4757940D01*
G01X4920000Y-1034750D02*
X4901030Y-1041100D01*
X4886810Y-1056980D01*
X4877330Y-1076020D01*
X4870220Y-1101430D01*
X4867850Y-1130000D01*
X4870220Y-1158580D01*
X4877330Y-1183980D01*
X4886810Y-1203030D01*
X4901030Y-1218900D01*
X4920000Y-1225250D01*
X4938960Y-1218900D01*
X4953190Y-1203030D01*
X4962670Y-1183980D01*
X4969780Y-1158580D01*
X4972150Y-1130000D01*
X4969780Y-1101430D01*
X4962670Y-1076020D01*
X4953190Y-1056980D01*
X4938960Y-1041100D01*
X4920000Y-1034750D01*
G01X5110500D02*
X5091530Y-1041100D01*
X5077310Y-1056980D01*
X5067830Y-1076020D01*
X5060720Y-1101430D01*
X5058350Y-1130000D01*
X5060720Y-1158580D01*
X5067830Y-1183980D01*
X5077310Y-1203030D01*
X5091530Y-1218900D01*
X5110500Y-1225250D01*
X5129460Y-1218900D01*
X5143690Y-1203030D01*
X5153170Y-1183980D01*
X5160280Y-1158580D01*
X5162650Y-1130000D01*
X5160280Y-1101430D01*
X5153170Y-1076020D01*
X5143690Y-1056980D01*
X5129460Y-1041100D01*
X5110500Y-1034750D01*
G01X-250000Y0D02*
X-1760000D01*
G01X-1510000Y4684260D02*
Y0D01*
G01X-1572500Y400000D02*
X-1510000Y0D01*
X-1447500Y400000D01*
X-1572500D01*
G01X-1510000Y5175740D02*
Y10000000D01*
G01X-1447500Y9600000D02*
X-1510000Y10000000D01*
X-1572500Y9600000D01*
X-1447500D01*
G01X450000Y10000000D02*
X-1760000D01*
G01X-250000Y0D02*
X-1220000D01*
G01X-970000Y3954260D02*
Y0D01*
G01X-1032500Y400000D02*
X-970000Y0D01*
X-907500Y400000D01*
X-1032500D01*
G01X-970000Y4445740D02*
Y9670000D01*
G01X-907500Y9270000D02*
X-970000Y9670000D01*
X-1032500Y9270000D01*
X-907500D01*
G01X80000Y9670000D02*
X-1220000D01*
G01X-257500Y-400000D02*
X-320000Y0D01*
X-382500Y-400000D01*
X-257500D01*
G01X-282110Y-370000D02*
X0D01*
G01X-400000Y-432500D02*
X0Y-370000D01*
X-400000Y-307500D01*
Y-432500D01*
G01X80000Y330000D02*
X-570000D01*
G01X-250000Y0D02*
X-570000D01*
G01X-320000Y-85740D02*
Y0D01*
G01Y405740D02*
Y330000D01*
G01X-382500Y730000D02*
X-320000Y330000D01*
X-257500Y730000D01*
X-382500D01*
G01X0Y-250000D02*
Y-1380000D01*
G01Y-250000D02*
Y-990000D01*
G01X3992640Y-740000D02*
X0D01*
G01X400000Y-677500D02*
X0Y-740000D01*
X400000Y-802500D01*
Y-677500D01*
G01X4507890Y-1130000D02*
X0D01*
G01X400000Y-1067500D02*
X0Y-1130000D01*
X400000Y-1192500D01*
Y-1067500D01*
G01X0Y-250000D02*
Y-620000D01*
G01X330000Y80000D02*
Y-620000D01*
G01X542110Y-370000D02*
X330000D01*
G01X730000Y-307500D02*
X330000Y-370000D01*
X730000Y-432500D01*
Y-307500D01*
G01X5007360Y-740000D02*
X9670000D01*
G01X5332110Y-1130000D02*
X10000000D01*
G01X9270000Y-802500D02*
X9670000Y-740000D01*
X9270000Y-677500D01*
Y-802500D01*
G01X9600000Y-1192500D02*
X10000000Y-1130000D01*
X9600000Y-1067500D01*
Y-1192500D01*
G01X10000000Y470000D02*
Y-1380000D01*
G01X9670000Y80000D02*
Y-990000D01*
G01X10550000Y30000D02*
Y5760000D01*
X22833440D01*
Y30000D01*
X10550000D01*
G01Y665000D02*
X22833440D01*
G01X10550000Y1300000D02*
X22833440D01*
G01X10550000Y1935000D02*
X22833440D01*
G01X10550000Y2570000D02*
X22833440D01*
G01X10550000Y3205000D02*
X22833440D01*
G01X10550000Y3840000D02*
X22833440D01*
G01X10550000Y4475000D02*
X22833440D01*
G01X10550000Y5110000D02*
X22833440D01*
G01X10829520Y3998750D02*
Y4316250D01*
X10979140D01*
G01X10924010Y4162800D02*
X10829520D01*
G01X11172050Y4316250D02*
X11266530D01*
G01X11219290D02*
Y3998750D01*
G01X11172050D02*
X11266530D01*
G01X11557870Y4157500D02*
X11636620D01*
Y4062250D01*
X11612990Y4030490D01*
X11585430Y4009330D01*
X11546060Y3998750D01*
X11506690Y4009330D01*
X11479130Y4030490D01*
X11455510Y4062250D01*
X11439760Y4099290D01*
X11431880Y4141620D01*
Y4178670D01*
X11439760Y4210410D01*
X11455510Y4247460D01*
X11479130Y4279210D01*
X11502750Y4300370D01*
X11534250Y4316250D01*
X11561810D01*
X11593300Y4305670D01*
X11616930Y4284500D01*
G01X11762600Y4316250D02*
Y4088710D01*
X11778340Y4041070D01*
X11809840Y4009330D01*
X11849210Y3998750D01*
X11888580Y4009330D01*
X11920080Y4041070D01*
X11935820Y4088710D01*
Y4316250D01*
G01X12085430Y3998750D02*
Y4316250D01*
X12183850D01*
X12215350Y4300370D01*
X12235040Y4279210D01*
X12242910Y4236870D01*
X12235040Y4194540D01*
X12211410Y4168090D01*
X12183850Y4152200D01*
X12085430D01*
G01X12183850D02*
X12242910Y3998750D01*
G01X12557870D02*
X12400390D01*
Y4316250D01*
X12557870D01*
G01X12494880Y4162800D02*
X12400390D01*
G01X12341330Y4633750D02*
X12439760Y4951250D01*
X12538190Y4633750D01*
G01X12502750Y4744870D02*
X12376760D01*
G01X12675980Y4951250D02*
Y4633750D01*
X12833460D01*
G01X12990940Y4951250D02*
Y4633750D01*
X13148420D01*
G01X13612990Y4951250D02*
Y4723710D01*
X13628730Y4676070D01*
X13660230Y4644330D01*
X13699600Y4633750D01*
X13738970Y4644330D01*
X13770470Y4676070D01*
X13786210Y4723710D01*
Y4951250D01*
G01X13924010Y4633750D02*
Y4951250D01*
X14105110Y4633750D01*
Y4951250D01*
G01X14282280D02*
X14376760D01*
G01X14329520D02*
Y4633750D01*
G01X14282280D02*
X14376760D01*
G01X14644480Y4951250D02*
Y4633750D01*
G01X14553930Y4951250D02*
X14735030D01*
G01X14876760Y4676070D02*
X14908260Y4649620D01*
X14943690Y4633750D01*
X14975190D01*
X15006680Y4649620D01*
X15030310Y4676070D01*
X15042120Y4713130D01*
X15034250Y4750160D01*
X15014560Y4781910D01*
X14979120Y4803090D01*
X14931880Y4813670D01*
X14904320Y4834830D01*
X14892510Y4871870D01*
X14900390Y4908920D01*
X14920070Y4935370D01*
X14947630Y4951250D01*
X14975190D01*
X15002750Y4940670D01*
X15026370Y4914210D01*
G01X15490930Y4633750D02*
X15589360Y4951250D01*
X15687790Y4633750D01*
G01X15652350Y4744870D02*
X15526360D01*
G01X15825580Y4633750D02*
Y4951250D01*
X15924000D01*
X15955500Y4935370D01*
X15975190Y4914210D01*
X15983060Y4871870D01*
X15975190Y4829540D01*
X15951560Y4803090D01*
X15924000Y4787200D01*
X15825580D01*
G01X15924000D02*
X15983060Y4633750D01*
G01X16298020D02*
X16140540D01*
Y4951250D01*
X16298020D01*
G01X16235030Y4797800D02*
X16140540D01*
G01X16801960Y4951250D02*
X16896440D01*
G01X16849200D02*
Y4633750D01*
G01X16801960D02*
X16896440D01*
G01X17073610D02*
Y4951250D01*
X17254710Y4633750D01*
Y4951250D01*
G01X17691710Y4633750D02*
Y4951250D01*
X17794080Y4686670D01*
X17896450Y4951250D01*
Y4633750D01*
G01X18061800Y4951250D02*
X18156280D01*
G01X18109040D02*
Y4633750D01*
G01X18061800D02*
X18156280D01*
G01X18345260Y4951250D02*
Y4633750D01*
X18502740D01*
G01X18660220Y4951250D02*
Y4633750D01*
X18817700D01*
G01X19006680Y4951250D02*
X19101160D01*
G01X19053920D02*
Y4633750D01*
G01X19006680D02*
X19101160D01*
G01X19266510D02*
Y4951250D01*
X19368880Y4686670D01*
X19471250Y4951250D01*
Y4633750D01*
G01X19762580D02*
X19605100D01*
Y4951250D01*
X19762580D01*
G01X19699590Y4797800D02*
X19605100D01*
G01X19998800Y4951250D02*
Y4633750D01*
G01X19908250Y4951250D02*
X20089350D01*
G01X20392500Y4633750D02*
X20235020D01*
Y4951250D01*
X20392500D01*
G01X20329510Y4797800D02*
X20235020D01*
G01X20549980Y4633750D02*
Y4951250D01*
X20648400D01*
X20679900Y4935370D01*
X20699590Y4914210D01*
X20707460Y4871870D01*
X20699590Y4829540D01*
X20675960Y4803090D01*
X20648400Y4787200D01*
X20549980D01*
G01X20648400D02*
X20707460Y4633750D01*
G01X20861000Y4676070D02*
X20892500Y4649620D01*
X20927930Y4633750D01*
X20959430D01*
X20990920Y4649620D01*
X21014550Y4676070D01*
X21026360Y4713130D01*
X21018490Y4750160D01*
X20998800Y4781910D01*
X20963360Y4803090D01*
X20916120Y4813670D01*
X20888560Y4834830D01*
X20876750Y4871870D01*
X20884630Y4908920D01*
X20904310Y4935370D01*
X20931870Y4951250D01*
X20959430D01*
X20986990Y4940670D01*
X21010610Y4914210D01*
G01X12833460Y4475000D02*
Y30000D01*
G01X12668110Y5283750D02*
Y5601250D01*
X12746840D01*
X12778340Y5585370D01*
X12801960Y5564210D01*
X12821650Y5532460D01*
X12837400Y5495410D01*
X12841330Y5442500D01*
X12837400Y5389580D01*
X12821650Y5352540D01*
X12801960Y5320780D01*
X12778340Y5299620D01*
X12746840Y5283750D01*
X12668110D01*
G01X12990940D02*
Y5601250D01*
X13089360D01*
X13120860Y5585370D01*
X13140550Y5564210D01*
X13148420Y5521870D01*
X13140550Y5479540D01*
X13116920Y5453090D01*
X13089360Y5437200D01*
X12990940D01*
G01X13089360D02*
X13148420Y5283750D01*
G01X13337400Y5601250D02*
X13431880D01*
G01X13384640D02*
Y5283750D01*
G01X13337400D02*
X13431880D01*
G01X13620860Y5601250D02*
Y5283750D01*
X13778340D01*
G01X13935820Y5601250D02*
Y5283750D01*
X14093300D01*
G01X14731090Y5574790D02*
X14707470Y5590670D01*
X14679920Y5601250D01*
X14648420D01*
X14612980Y5585370D01*
X14585430Y5558920D01*
X14565740Y5527160D01*
X14549990Y5474250D01*
X14546050Y5426620D01*
X14553930Y5379000D01*
X14565740Y5347250D01*
X14589360Y5315490D01*
X14616920Y5294330D01*
X14644480Y5283750D01*
X14672040D01*
X14699600Y5294330D01*
X14723220Y5310200D01*
X14742910Y5331360D01*
G01X14876760Y5283750D02*
Y5601250D01*
G01X15042120D02*
Y5283750D01*
G01Y5442500D02*
X14876760D01*
G01X15175970Y5283750D02*
X15274400Y5601250D01*
X15372830Y5283750D01*
G01X15337390Y5394870D02*
X15211400D01*
G01X15510620Y5283750D02*
Y5601250D01*
X15609040D01*
X15640540Y5585370D01*
X15660230Y5564210D01*
X15668100Y5521870D01*
X15660230Y5479540D01*
X15636600Y5453090D01*
X15609040Y5437200D01*
X15510620D01*
G01X15609040D02*
X15668100Y5283750D01*
G01X15904320Y5601250D02*
Y5283750D01*
G01X15813770Y5601250D02*
X15994870D01*
G01X16219280Y5273170D02*
X16211400Y5278460D01*
Y5289040D01*
X16219280Y5294330D01*
X16227160Y5289040D01*
Y5278460D01*
X16219280Y5273170D01*
G01Y5416030D02*
X16211400Y5421330D01*
Y5431910D01*
X16219280Y5437200D01*
X16227160Y5431910D01*
Y5421330D01*
X16219280Y5416030D01*
G01X16849200Y5601250D02*
Y5283750D01*
G01X16758650Y5601250D02*
X16939750D01*
G01X17164160Y5283750D02*
X17132660Y5289040D01*
X17105110Y5310200D01*
X17081480Y5341960D01*
X17065730Y5379000D01*
X17057860Y5421330D01*
Y5463670D01*
X17065730Y5506000D01*
X17081480Y5543040D01*
X17105110Y5574790D01*
X17132660Y5595960D01*
X17164160Y5601250D01*
X17195650Y5595960D01*
X17223210Y5574790D01*
X17246840Y5543040D01*
X17262590Y5506000D01*
X17270460Y5463670D01*
Y5421330D01*
X17262590Y5379000D01*
X17246840Y5341960D01*
X17223210Y5310200D01*
X17195650Y5289040D01*
X17164160Y5283750D01*
G01X17400380D02*
Y5601250D01*
X17494870D01*
X17526360Y5585370D01*
X17549990Y5548330D01*
X17557860Y5506000D01*
X17549990Y5463670D01*
X17530300Y5431910D01*
X17494870Y5416030D01*
X17400380D01*
G01X18109040Y5601250D02*
Y5283750D01*
G01X18053920Y5495410D02*
X18164160D01*
G01X18424000Y5283750D02*
X18400380Y5289040D01*
X18376760Y5310200D01*
X18361000Y5347250D01*
X18353130Y5389580D01*
X18361000Y5431910D01*
X18376760Y5468960D01*
X18400380Y5490120D01*
X18424000Y5495410D01*
X18447620Y5490120D01*
X18471240Y5468960D01*
X18486990Y5431910D01*
X18490930Y5389580D01*
X18486990Y5347250D01*
X18471240Y5310200D01*
X18447620Y5289040D01*
X18424000Y5283750D01*
G01X19085410Y5453090D02*
X19101160Y5468960D01*
X19112970Y5495410D01*
X19120850Y5532460D01*
X19112970Y5564210D01*
X19097230Y5585370D01*
X19069670Y5601250D01*
X18963370D01*
Y5283750D01*
X19093290D01*
X19120850Y5304910D01*
X19136600Y5336670D01*
X19144470Y5373710D01*
X19136600Y5410740D01*
X19112970Y5442500D01*
X19085410Y5453090D01*
X18963370D01*
G01X19368880Y5283750D02*
X19337380Y5289040D01*
X19309830Y5310200D01*
X19286200Y5341960D01*
X19270450Y5379000D01*
X19262580Y5421330D01*
Y5463670D01*
X19270450Y5506000D01*
X19286200Y5543040D01*
X19309830Y5574790D01*
X19337380Y5595960D01*
X19368880Y5601250D01*
X19400370Y5595960D01*
X19427930Y5574790D01*
X19451560Y5543040D01*
X19467310Y5506000D01*
X19475180Y5463670D01*
Y5421330D01*
X19467310Y5379000D01*
X19451560Y5341960D01*
X19427930Y5310200D01*
X19400370Y5289040D01*
X19368880Y5283750D01*
G01X19683840Y5601250D02*
Y5283750D01*
G01X19593290Y5601250D02*
X19774390D01*
G01X19998800D02*
Y5283750D01*
G01X19908250Y5601250D02*
X20089350D01*
G01X20313760Y5283750D02*
X20282260Y5289040D01*
X20254710Y5310200D01*
X20231080Y5341960D01*
X20215330Y5379000D01*
X20207460Y5421330D01*
Y5463670D01*
X20215330Y5506000D01*
X20231080Y5543040D01*
X20254710Y5574790D01*
X20282260Y5595960D01*
X20313760Y5601250D01*
X20345250Y5595960D01*
X20372810Y5574790D01*
X20396440Y5543040D01*
X20412190Y5506000D01*
X20420060Y5463670D01*
Y5421330D01*
X20412190Y5379000D01*
X20396440Y5341960D01*
X20372810Y5310200D01*
X20345250Y5289040D01*
X20313760Y5283750D01*
G01X20526350D02*
Y5601250D01*
X20628720Y5336670D01*
X20731090Y5601250D01*
Y5283750D01*
G01X14361020Y252250D02*
X14384630Y215200D01*
X14416130Y194040D01*
X14451570Y188750D01*
X14483070Y194040D01*
X14514560Y220490D01*
X14534240Y252250D01*
X14538180Y284000D01*
X14530310Y321030D01*
X14502750Y347500D01*
X14475190Y358090D01*
X14439750D01*
G01X14475190D02*
X14498810Y373960D01*
X14518500Y400410D01*
X14526370Y432160D01*
X14518500Y463920D01*
X14498810Y490370D01*
X14463380Y506250D01*
X14427950Y500960D01*
X14392510Y479790D01*
G01X14762590Y178170D02*
X14754710Y183460D01*
Y194040D01*
X14762590Y199330D01*
X14770470Y194040D01*
Y183460D01*
X14762590Y178170D01*
G01X15124790Y188750D02*
Y506250D01*
X14979120Y278710D01*
X15175980D01*
G01X15392510Y506250D02*
X15361010Y495670D01*
X15337390Y469210D01*
X15321640Y437460D01*
X15309830Y395120D01*
X15305900Y347500D01*
X15309830Y299870D01*
X15321640Y257540D01*
X15337390Y225780D01*
X15361010Y199330D01*
X15392510Y188750D01*
X15424000Y199330D01*
X15447630Y225780D01*
X15463380Y257540D01*
X15475190Y299870D01*
X15479120Y347500D01*
X15475190Y395120D01*
X15463380Y437460D01*
X15447630Y469210D01*
X15424000Y495670D01*
X15392510Y506250D01*
G01X15620860Y252250D02*
X15644470Y215200D01*
X15675970Y194040D01*
X15711410Y188750D01*
X15742910Y194040D01*
X15774400Y220490D01*
X15794080Y252250D01*
X15798020Y284000D01*
X15790150Y321030D01*
X15762590Y347500D01*
X15735030Y358090D01*
X15699590D01*
G01X15735030D02*
X15758650Y373960D01*
X15778340Y400410D01*
X15786210Y432160D01*
X15778340Y463920D01*
X15758650Y490370D01*
X15723220Y506250D01*
X15687790Y500960D01*
X15652350Y479790D01*
G01X15947620Y321030D02*
X15975190Y358090D01*
X15998810Y379250D01*
X16030310Y389830D01*
X16057870Y379250D01*
X16077550Y358090D01*
X16093300Y326330D01*
X16097240Y289290D01*
X16093300Y257540D01*
X16077550Y225780D01*
X16053920Y199330D01*
X16026370Y188750D01*
X15994870Y199330D01*
X15967310Y231070D01*
X15951560Y278710D01*
X15947620Y331620D01*
X15955500Y400410D01*
X15967310Y437460D01*
X15986990Y474500D01*
X16014550Y500960D01*
X16042110Y506250D01*
X16069670Y495670D01*
X16089360Y469210D01*
G01X14372820Y1088330D02*
X14396450Y1120080D01*
X14424010Y1135960D01*
X14455510Y1141250D01*
X14494870Y1130670D01*
X14522440Y1104210D01*
X14530310Y1072460D01*
X14526370Y1040700D01*
X14510620Y1014250D01*
X14431880Y961330D01*
X14396450Y924290D01*
X14372820Y871360D01*
X14364950Y823750D01*
X14530310D01*
G01X14762590Y813170D02*
X14754710Y818460D01*
Y829040D01*
X14762590Y834330D01*
X14770470Y829040D01*
Y818460D01*
X14762590Y813170D01*
G01X15124790Y823750D02*
Y1141250D01*
X14979120Y913710D01*
X15175980D01*
G01X15392510Y823750D02*
X15420070Y829040D01*
X15451560Y844910D01*
X15471250Y871360D01*
X15479120Y908420D01*
X15471250Y945450D01*
X15447630Y977200D01*
X15412190Y993090D01*
X15372830D01*
X15349200Y1003670D01*
X15329510Y1030120D01*
X15321640Y1067160D01*
X15333460Y1104210D01*
X15361010Y1130670D01*
X15392510Y1141250D01*
X15424000Y1130670D01*
X15451560Y1104210D01*
X15463380Y1067160D01*
X15455500Y1030120D01*
X15435820Y1003670D01*
X15412190Y993090D01*
X15372830D01*
X15337390Y977200D01*
X15313770Y945450D01*
X15305900Y908420D01*
X15313770Y871360D01*
X15333460Y844910D01*
X15364950Y829040D01*
X15392510Y823750D01*
G01X15640540Y860780D02*
X15668100Y834330D01*
X15699590Y823750D01*
X15731090Y834330D01*
X15758650Y866070D01*
X15778340Y913710D01*
X15786210Y961330D01*
Y1019540D01*
X15778340Y1067160D01*
X15758650Y1109500D01*
X15735030Y1130670D01*
X15707470Y1141250D01*
X15675970Y1130670D01*
X15652350Y1109500D01*
X15636600Y1077750D01*
X15628730Y1035410D01*
X15636600Y998380D01*
X15656290Y961330D01*
X15679910Y940160D01*
X15707470Y934870D01*
X15738960Y945450D01*
X15762590Y971910D01*
X15786210Y1019540D01*
G01X15947620Y1088330D02*
X15971250Y1120080D01*
X15998810Y1135960D01*
X16030310Y1141250D01*
X16069670Y1130670D01*
X16097240Y1104210D01*
X16105110Y1072460D01*
X16101170Y1040700D01*
X16085420Y1014250D01*
X16006680Y961330D01*
X15971250Y924290D01*
X15947620Y871360D01*
X15939750Y823750D01*
X16105110D01*
G01X14605110Y1458750D02*
Y1776250D01*
X14557870Y1712750D01*
G01Y1458750D02*
X14652350D01*
G01X14920070Y1448170D02*
X14912190Y1453460D01*
Y1464040D01*
X14920070Y1469330D01*
X14927950Y1464040D01*
Y1453460D01*
X14920070Y1448170D01*
G01X15148420Y1506360D02*
X15172030Y1479910D01*
X15199590Y1464040D01*
X15235030Y1458750D01*
X15270470Y1469330D01*
X15298020Y1490490D01*
X15317710Y1527540D01*
X15321640Y1569870D01*
X15313770Y1612200D01*
X15294080Y1638670D01*
X15266520Y1659830D01*
X15238970Y1665120D01*
X15211410Y1659830D01*
X15175980Y1638670D01*
X15187790Y1776250D01*
X15294080D01*
G01X15475180Y1723330D02*
X15498810Y1755080D01*
X15526370Y1770960D01*
X15557870Y1776250D01*
X15597230Y1765670D01*
X15624800Y1739210D01*
X15632670Y1707460D01*
X15628730Y1675700D01*
X15612980Y1649250D01*
X15534240Y1596330D01*
X15498810Y1559290D01*
X15475180Y1506360D01*
X15467310Y1458750D01*
X15632670D01*
G01X15912190D02*
Y1776250D01*
X15766520Y1548710D01*
X15963380D01*
G01X14605110Y2093750D02*
Y2411250D01*
X14557870Y2347750D01*
G01Y2093750D02*
X14652350D01*
G01X14920070Y2083170D02*
X14912190Y2088460D01*
Y2099040D01*
X14920070Y2104330D01*
X14927950Y2099040D01*
Y2088460D01*
X14920070Y2083170D01*
G01X15235030Y2411250D02*
X15203530Y2400670D01*
X15179910Y2374210D01*
X15164160Y2342460D01*
X15152350Y2300120D01*
X15148420Y2252500D01*
X15152350Y2204870D01*
X15164160Y2162540D01*
X15179910Y2130780D01*
X15203530Y2104330D01*
X15235030Y2093750D01*
X15266520Y2104330D01*
X15290150Y2130780D01*
X15305900Y2162540D01*
X15317710Y2204870D01*
X15321640Y2252500D01*
X15317710Y2300120D01*
X15305900Y2342460D01*
X15290150Y2374210D01*
X15266520Y2400670D01*
X15235030Y2411250D01*
G01X15549990Y2093750D02*
Y2411250D01*
X15502750Y2347750D01*
G01Y2093750D02*
X15597230D01*
G01X15790140Y2226030D02*
X15817710Y2263090D01*
X15841330Y2284250D01*
X15872830Y2294830D01*
X15900390Y2284250D01*
X15920070Y2263090D01*
X15935820Y2231330D01*
X15939760Y2194290D01*
X15935820Y2162540D01*
X15920070Y2130780D01*
X15896440Y2104330D01*
X15868890Y2093750D01*
X15837390Y2104330D01*
X15809830Y2136070D01*
X15794080Y2183710D01*
X15790140Y2236620D01*
X15798020Y2305410D01*
X15809830Y2342460D01*
X15829510Y2379500D01*
X15857070Y2405960D01*
X15884630Y2411250D01*
X15912190Y2400670D01*
X15931880Y2374210D01*
G01X14605110Y3046250D02*
X14573610Y3035670D01*
X14549990Y3009210D01*
X14534240Y2977460D01*
X14522430Y2935120D01*
X14518500Y2887500D01*
X14522430Y2839870D01*
X14534240Y2797540D01*
X14549990Y2765780D01*
X14573610Y2739330D01*
X14605110Y2728750D01*
X14636600Y2739330D01*
X14660230Y2765780D01*
X14675980Y2797540D01*
X14687790Y2839870D01*
X14691720Y2887500D01*
X14687790Y2935120D01*
X14675980Y2977460D01*
X14660230Y3009210D01*
X14636600Y3035670D01*
X14605110Y3046250D01*
G01X14920070Y2718170D02*
X14912190Y2723460D01*
Y2734040D01*
X14920070Y2739330D01*
X14927950Y2734040D01*
Y2723460D01*
X14920070Y2718170D01*
G01X15235030Y2728750D02*
X15262590Y2734040D01*
X15294080Y2749910D01*
X15313770Y2776360D01*
X15321640Y2813420D01*
X15313770Y2850450D01*
X15290150Y2882200D01*
X15254710Y2898090D01*
X15215350D01*
X15191720Y2908670D01*
X15172030Y2935120D01*
X15164160Y2972160D01*
X15175980Y3009210D01*
X15203530Y3035670D01*
X15235030Y3046250D01*
X15266520Y3035670D01*
X15294080Y3009210D01*
X15305900Y2972160D01*
X15298020Y2935120D01*
X15278340Y2908670D01*
X15254710Y2898090D01*
X15215350D01*
X15179910Y2882200D01*
X15156290Y2850450D01*
X15148420Y2813420D01*
X15156290Y2776360D01*
X15175980Y2749910D01*
X15207470Y2734040D01*
X15235030Y2728750D01*
G01X15549990D02*
X15577550Y2734040D01*
X15609040Y2749910D01*
X15628730Y2776360D01*
X15636600Y2813420D01*
X15628730Y2850450D01*
X15605110Y2882200D01*
X15569670Y2898090D01*
X15530310D01*
X15506680Y2908670D01*
X15486990Y2935120D01*
X15479120Y2972160D01*
X15490940Y3009210D01*
X15518490Y3035670D01*
X15549990Y3046250D01*
X15581480Y3035670D01*
X15609040Y3009210D01*
X15620860Y2972160D01*
X15612980Y2935120D01*
X15593300Y2908670D01*
X15569670Y2898090D01*
X15530310D01*
X15494870Y2882200D01*
X15471250Y2850450D01*
X15463380Y2813420D01*
X15471250Y2776360D01*
X15490940Y2749910D01*
X15522430Y2734040D01*
X15549990Y2728750D01*
G01X15798020Y2765780D02*
X15825580Y2739330D01*
X15857070Y2728750D01*
X15888570Y2739330D01*
X15916130Y2771070D01*
X15935820Y2818710D01*
X15943690Y2866330D01*
Y2924540D01*
X15935820Y2972160D01*
X15916130Y3014500D01*
X15892510Y3035670D01*
X15864950Y3046250D01*
X15833450Y3035670D01*
X15809830Y3014500D01*
X15794080Y2982750D01*
X15786210Y2940410D01*
X15794080Y2903380D01*
X15813770Y2866330D01*
X15837390Y2845160D01*
X15864950Y2839870D01*
X15896440Y2850450D01*
X15920070Y2876910D01*
X15943690Y2924540D01*
G01X14447630Y3681250D02*
X14416130Y3670670D01*
X14392510Y3644210D01*
X14376760Y3612460D01*
X14364950Y3570120D01*
X14361020Y3522500D01*
X14364950Y3474870D01*
X14376760Y3432540D01*
X14392510Y3400780D01*
X14416130Y3374330D01*
X14447630Y3363750D01*
X14479120Y3374330D01*
X14502750Y3400780D01*
X14518500Y3432540D01*
X14530310Y3474870D01*
X14534240Y3522500D01*
X14530310Y3570120D01*
X14518500Y3612460D01*
X14502750Y3644210D01*
X14479120Y3670670D01*
X14447630Y3681250D01*
G01X14762590Y3353170D02*
X14754710Y3358460D01*
Y3369040D01*
X14762590Y3374330D01*
X14770470Y3369040D01*
Y3358460D01*
X14762590Y3353170D01*
G01X14990940Y3427250D02*
X15014550Y3390200D01*
X15046050Y3369040D01*
X15081490Y3363750D01*
X15112990Y3369040D01*
X15144480Y3395490D01*
X15164160Y3427250D01*
X15168100Y3459000D01*
X15160230Y3496030D01*
X15132670Y3522500D01*
X15105110Y3533090D01*
X15069670D01*
G01X15105110D02*
X15128730Y3548960D01*
X15148420Y3575410D01*
X15156290Y3607160D01*
X15148420Y3638920D01*
X15128730Y3665370D01*
X15093300Y3681250D01*
X15057870Y3675960D01*
X15022430Y3654790D01*
G01X15392510Y3681250D02*
X15361010Y3670670D01*
X15337390Y3644210D01*
X15321640Y3612460D01*
X15309830Y3570120D01*
X15305900Y3522500D01*
X15309830Y3474870D01*
X15321640Y3432540D01*
X15337390Y3400780D01*
X15361010Y3374330D01*
X15392510Y3363750D01*
X15424000Y3374330D01*
X15447630Y3400780D01*
X15463380Y3432540D01*
X15475190Y3474870D01*
X15479120Y3522500D01*
X15475190Y3570120D01*
X15463380Y3612460D01*
X15447630Y3644210D01*
X15424000Y3670670D01*
X15392510Y3681250D01*
G01X15754710Y3363750D02*
Y3681250D01*
X15609040Y3453710D01*
X15805900D01*
G01X16022430Y3363750D02*
X16049990Y3369040D01*
X16081480Y3384910D01*
X16101170Y3411360D01*
X16109040Y3448420D01*
X16101170Y3485450D01*
X16077550Y3517200D01*
X16042110Y3533090D01*
X16002750D01*
X15979120Y3543670D01*
X15959430Y3570120D01*
X15951560Y3607160D01*
X15963380Y3644210D01*
X15990930Y3670670D01*
X16022430Y3681250D01*
X16053920Y3670670D01*
X16081480Y3644210D01*
X16093300Y3607160D01*
X16085420Y3570120D01*
X16065740Y3543670D01*
X16042110Y3533090D01*
X16002750D01*
X15967310Y3517200D01*
X15943690Y3485450D01*
X15935820Y3448420D01*
X15943690Y3411360D01*
X15963380Y3384910D01*
X15994870Y3369040D01*
X16022430Y3363750D01*
G01X14679910Y4041070D02*
X14711410Y4014620D01*
X14746840Y3998750D01*
X14778340D01*
X14809830Y4014620D01*
X14833460Y4041070D01*
X14845270Y4078130D01*
X14837400Y4115160D01*
X14817710Y4146910D01*
X14782270Y4168090D01*
X14735030Y4178670D01*
X14707470Y4199830D01*
X14695660Y4236870D01*
X14703540Y4273920D01*
X14723220Y4300370D01*
X14750780Y4316250D01*
X14778340D01*
X14805900Y4305670D01*
X14829520Y4279210D01*
G01X15030310Y4316250D02*
X15124790D01*
G01X15077550D02*
Y3998750D01*
G01X15030310D02*
X15124790D01*
G01X15317700Y4316250D02*
X15467320D01*
X15317700Y3998750D01*
X15467320D01*
G01X15786210D02*
X15628730D01*
Y4316250D01*
X15786210D01*
G01X15723220Y4162800D02*
X15628730D01*
G01X17636600Y4475000D02*
Y30000D01*
G01X18384630Y188750D02*
Y506250D01*
X18479120D01*
X18510610Y490370D01*
X18534240Y453330D01*
X18542110Y411000D01*
X18534240Y368670D01*
X18514550Y336910D01*
X18479120Y321030D01*
X18384630D01*
G01X18699590Y506250D02*
Y188750D01*
X18857070D01*
G01X18994860D02*
X19093290Y506250D01*
X19191720Y188750D01*
G01X19156280Y299870D02*
X19030290D01*
G01X19408250Y506250D02*
Y188750D01*
G01X19317700Y506250D02*
X19498800D01*
G01X19801950Y188750D02*
X19644470D01*
Y506250D01*
X19801950D01*
G01X19738960Y352800D02*
X19644470D01*
G01X19951560Y188750D02*
Y506250D01*
X20030290D01*
X20061790Y490370D01*
X20085410Y469210D01*
X20105100Y437460D01*
X20120850Y400410D01*
X20124780Y347500D01*
X20120850Y294580D01*
X20105100Y257540D01*
X20085410Y225780D01*
X20061790Y204620D01*
X20030290Y188750D01*
X19951560D01*
G01X18384630Y823750D02*
Y1141250D01*
X18479120D01*
X18510610Y1125370D01*
X18534240Y1088330D01*
X18542110Y1046000D01*
X18534240Y1003670D01*
X18514550Y971910D01*
X18479120Y956030D01*
X18384630D01*
G01X18699590Y1141250D02*
Y823750D01*
X18857070D01*
G01X18994860D02*
X19093290Y1141250D01*
X19191720Y823750D01*
G01X19156280Y934870D02*
X19030290D01*
G01X19408250Y1141250D02*
Y823750D01*
G01X19317700Y1141250D02*
X19498800D01*
G01X19801950Y823750D02*
X19644470D01*
Y1141250D01*
X19801950D01*
G01X19738960Y987800D02*
X19644470D01*
G01X19951560Y823750D02*
Y1141250D01*
X20030290D01*
X20061790Y1125370D01*
X20085410Y1104210D01*
X20105100Y1072460D01*
X20120850Y1035410D01*
X20124780Y982500D01*
X20120850Y929580D01*
X20105100Y892540D01*
X20085410Y860780D01*
X20061790Y839620D01*
X20030290Y823750D01*
X19951560D01*
G01X18384630Y1458750D02*
Y1776250D01*
X18479120D01*
X18510610Y1760370D01*
X18534240Y1723330D01*
X18542110Y1681000D01*
X18534240Y1638670D01*
X18514550Y1606910D01*
X18479120Y1591030D01*
X18384630D01*
G01X18699590Y1776250D02*
Y1458750D01*
X18857070D01*
G01X18994860D02*
X19093290Y1776250D01*
X19191720Y1458750D01*
G01X19156280Y1569870D02*
X19030290D01*
G01X19408250Y1776250D02*
Y1458750D01*
G01X19317700Y1776250D02*
X19498800D01*
G01X19801950Y1458750D02*
X19644470D01*
Y1776250D01*
X19801950D01*
G01X19738960Y1622800D02*
X19644470D01*
G01X19951560Y1458750D02*
Y1776250D01*
X20030290D01*
X20061790Y1760370D01*
X20085410Y1739210D01*
X20105100Y1707460D01*
X20120850Y1670410D01*
X20124780Y1617500D01*
X20120850Y1564580D01*
X20105100Y1527540D01*
X20085410Y1495780D01*
X20061790Y1474620D01*
X20030290Y1458750D01*
X19951560D01*
G01X18384630Y2093750D02*
Y2411250D01*
X18479120D01*
X18510610Y2395370D01*
X18534240Y2358330D01*
X18542110Y2316000D01*
X18534240Y2273670D01*
X18514550Y2241910D01*
X18479120Y2226030D01*
X18384630D01*
G01X18699590Y2411250D02*
Y2093750D01*
X18857070D01*
G01X18994860D02*
X19093290Y2411250D01*
X19191720Y2093750D01*
G01X19156280Y2204870D02*
X19030290D01*
G01X19408250Y2411250D02*
Y2093750D01*
G01X19317700Y2411250D02*
X19498800D01*
G01X19801950Y2093750D02*
X19644470D01*
Y2411250D01*
X19801950D01*
G01X19738960Y2257800D02*
X19644470D01*
G01X19951560Y2093750D02*
Y2411250D01*
X20030290D01*
X20061790Y2395370D01*
X20085410Y2374210D01*
X20105100Y2342460D01*
X20120850Y2305410D01*
X20124780Y2252500D01*
X20120850Y2199580D01*
X20105100Y2162540D01*
X20085410Y2130780D01*
X20061790Y2109620D01*
X20030290Y2093750D01*
X19951560D01*
G01X18384630Y2728750D02*
Y3046250D01*
X18479120D01*
X18510610Y3030370D01*
X18534240Y2993330D01*
X18542110Y2951000D01*
X18534240Y2908670D01*
X18514550Y2876910D01*
X18479120Y2861030D01*
X18384630D01*
G01X18699590Y3046250D02*
Y2728750D01*
X18857070D01*
G01X18994860D02*
X19093290Y3046250D01*
X19191720Y2728750D01*
G01X19156280Y2839870D02*
X19030290D01*
G01X19408250Y3046250D02*
Y2728750D01*
G01X19317700Y3046250D02*
X19498800D01*
G01X19801950Y2728750D02*
X19644470D01*
Y3046250D01*
X19801950D01*
G01X19738960Y2892800D02*
X19644470D01*
G01X19951560Y2728750D02*
Y3046250D01*
X20030290D01*
X20061790Y3030370D01*
X20085410Y3009210D01*
X20105100Y2977460D01*
X20120850Y2940410D01*
X20124780Y2887500D01*
X20120850Y2834580D01*
X20105100Y2797540D01*
X20085410Y2765780D01*
X20061790Y2744620D01*
X20030290Y2728750D01*
X19951560D01*
G01X18384630Y3363750D02*
Y3681250D01*
X18479120D01*
X18510610Y3665370D01*
X18534240Y3628330D01*
X18542110Y3586000D01*
X18534240Y3543670D01*
X18514550Y3511910D01*
X18479120Y3496030D01*
X18384630D01*
G01X18699590Y3681250D02*
Y3363750D01*
X18857070D01*
G01X18994860D02*
X19093290Y3681250D01*
X19191720Y3363750D01*
G01X19156280Y3474870D02*
X19030290D01*
G01X19408250Y3681250D02*
Y3363750D01*
G01X19317700Y3681250D02*
X19498800D01*
G01X19801950Y3363750D02*
X19644470D01*
Y3681250D01*
X19801950D01*
G01X19738960Y3527800D02*
X19644470D01*
G01X19951560Y3363750D02*
Y3681250D01*
X20030290D01*
X20061790Y3665370D01*
X20085410Y3644210D01*
X20105100Y3612460D01*
X20120850Y3575410D01*
X20124780Y3522500D01*
X20120850Y3469580D01*
X20105100Y3432540D01*
X20085410Y3400780D01*
X20061790Y3379620D01*
X20030290Y3363750D01*
X19951560D01*
G01X18384630Y3998750D02*
Y4316250D01*
X18479120D01*
X18510610Y4300370D01*
X18534240Y4263330D01*
X18542110Y4221000D01*
X18534240Y4178670D01*
X18514550Y4146910D01*
X18479120Y4131030D01*
X18384630D01*
G01X18699590Y4316250D02*
Y3998750D01*
X18857070D01*
G01X18994860D02*
X19093290Y4316250D01*
X19191720Y3998750D01*
G01X19156280Y4109870D02*
X19030290D01*
G01X19408250Y4316250D02*
Y3998750D01*
G01X19317700Y4316250D02*
X19498800D01*
G01X19801950Y3998750D02*
X19644470D01*
Y4316250D01*
X19801950D01*
G01X19738960Y4162800D02*
X19644470D01*
G01X19951560Y3998750D02*
Y4316250D01*
X20030290D01*
X20061790Y4300370D01*
X20085410Y4279210D01*
X20105100Y4247460D01*
X20120850Y4210410D01*
X20124780Y4157500D01*
X20120850Y4104580D01*
X20105100Y4067540D01*
X20085410Y4035780D01*
X20061790Y4014620D01*
X20030290Y3998750D01*
X19951560D01*
G01X20864940Y4475000D02*
Y30000D01*
G01X21616900Y1088330D02*
X21640530Y1120080D01*
X21668090Y1135960D01*
X21699590Y1141250D01*
X21738950Y1130670D01*
X21766520Y1104210D01*
X21774390Y1072460D01*
X21770450Y1040700D01*
X21754700Y1014250D01*
X21675960Y961330D01*
X21640530Y924290D01*
X21616900Y871360D01*
X21609030Y823750D01*
X21774390D01*
G01X22053910D02*
Y1141250D01*
X21908240Y913710D01*
X22105100D01*
G01X21691710Y2728750D02*
Y3046250D01*
X21644470Y2982750D01*
G01Y2728750D02*
X21738950D01*
G01X22006670Y3046250D02*
X21975170Y3035670D01*
X21951550Y3009210D01*
X21935800Y2977460D01*
X21923990Y2935120D01*
X21920060Y2887500D01*
X21923990Y2839870D01*
X21935800Y2797540D01*
X21951550Y2765780D01*
X21975170Y2739330D01*
X22006670Y2728750D01*
X22038160Y2739330D01*
X22061790Y2765780D01*
X22077540Y2797540D01*
X22089350Y2839870D01*
X22093280Y2887500D01*
X22089350Y2935120D01*
X22077540Y2977460D01*
X22061790Y3009210D01*
X22038160Y3035670D01*
X22006670Y3046250D01*
G01X21447620Y3427250D02*
X21471230Y3390200D01*
X21502730Y3369040D01*
X21538170Y3363750D01*
X21569670Y3369040D01*
X21601160Y3395490D01*
X21620840Y3427250D01*
X21624780Y3459000D01*
X21616910Y3496030D01*
X21589350Y3522500D01*
X21561790Y3533090D01*
X21526350D01*
G01X21561790D02*
X21585410Y3548960D01*
X21605100Y3575410D01*
X21612970Y3607160D01*
X21605100Y3638920D01*
X21585410Y3665370D01*
X21549980Y3681250D01*
X21514550Y3675960D01*
X21479110Y3654790D01*
G01X21774380Y3628330D02*
X21798010Y3660080D01*
X21825570Y3675960D01*
X21857070Y3681250D01*
X21896430Y3670670D01*
X21924000Y3644210D01*
X21931870Y3612460D01*
X21927930Y3580700D01*
X21912180Y3554250D01*
X21833440Y3501330D01*
X21798010Y3464290D01*
X21774380Y3411360D01*
X21766510Y3363750D01*
X21931870D01*
G01X22156270D02*
X22164150Y3432540D01*
X22175960Y3490740D01*
X22191710Y3543670D01*
X22211390Y3601870D01*
X22242890Y3681250D01*
X22085410D01*
G01X21534230Y3998750D02*
X21502730Y4004040D01*
X21475180Y4025200D01*
X21451550Y4056960D01*
X21435800Y4094000D01*
X21427930Y4136330D01*
Y4178670D01*
X21435800Y4221000D01*
X21451550Y4258040D01*
X21475180Y4289790D01*
X21502730Y4310960D01*
X21534230Y4316250D01*
X21565720Y4310960D01*
X21593280Y4289790D01*
X21616910Y4258040D01*
X21632660Y4221000D01*
X21640530Y4178670D01*
Y4136330D01*
X21632660Y4094000D01*
X21616910Y4056960D01*
X21593280Y4025200D01*
X21565720Y4004040D01*
X21534230Y3998750D01*
G01X21565720Y4083420D02*
X21612970Y3998750D01*
G01X21849190Y4316250D02*
Y3998750D01*
G01X21758640Y4316250D02*
X21939740D01*
G01X22164150Y3998750D02*
Y4141620D01*
X22085410Y4316250D01*
G01X22242890D02*
X22164150Y4141620D01*
G01X21896430Y188750D02*
Y506250D01*
X21750760Y278710D01*
X21947620D01*
G01X21774380Y1591030D02*
X21801950Y1628090D01*
X21825570Y1649250D01*
X21857070Y1659830D01*
X21884630Y1649250D01*
X21904310Y1628090D01*
X21920060Y1596330D01*
X21924000Y1559290D01*
X21920060Y1527540D01*
X21904310Y1495780D01*
X21880680Y1469330D01*
X21853130Y1458750D01*
X21821630Y1469330D01*
X21794070Y1501070D01*
X21778320Y1548710D01*
X21774380Y1601620D01*
X21782260Y1670410D01*
X21794070Y1707460D01*
X21813750Y1744500D01*
X21841310Y1770960D01*
X21868870Y1776250D01*
X21896430Y1765670D01*
X21916120Y1739210D01*
G01X21774380Y2226030D02*
X21801950Y2263090D01*
X21825570Y2284250D01*
X21857070Y2294830D01*
X21884630Y2284250D01*
X21904310Y2263090D01*
X21920060Y2231330D01*
X21924000Y2194290D01*
X21920060Y2162540D01*
X21904310Y2130780D01*
X21880680Y2104330D01*
X21853130Y2093750D01*
X21821630Y2104330D01*
X21794070Y2136070D01*
X21778320Y2183710D01*
X21774380Y2236620D01*
X21782260Y2305410D01*
X21794070Y2342460D01*
X21813750Y2379500D01*
X21841310Y2405960D01*
X21868870Y2411250D01*
X21896430Y2400670D01*
X21916120Y2374210D01*
G54D11*
X179910Y1890140D03*
Y2398140D03*
X259910Y2980140D03*
Y3488140D03*
X300000Y5150000D03*
Y4920000D03*
X190000Y6480000D03*
Y6640000D03*
X156710Y9192120D03*
X570000Y1430000D03*
X679910Y1900140D03*
X570000Y1640000D03*
X679910Y2408140D03*
X739910Y2990140D03*
Y3498140D03*
X930000Y4190000D03*
X870000Y4440000D03*
X750000Y4970000D03*
X770000Y6780000D03*
X806200Y6640000D03*
X770000Y7340000D03*
Y7050000D03*
X730000Y8140000D03*
X664710Y9192120D03*
X926710Y9382120D03*
X1060190Y329890D03*
X1039910Y1880140D03*
Y2388140D03*
X1040000Y2710000D03*
X1149910Y3010140D03*
Y3518140D03*
X1472010Y4182640D03*
X980000Y4970000D03*
X1230000Y5230000D03*
Y5070000D03*
X1100000Y6780000D03*
X1410000D03*
X1310000Y7320000D03*
X1100000Y7050000D03*
X1410000D03*
X1296000Y7810000D03*
X1371000Y7941000D03*
X1190000Y8510000D03*
Y8130000D03*
X1296000Y8380000D03*
X1371000Y8509000D03*
X1434710Y9382120D03*
X1568190Y329890D03*
X1809910Y1070140D03*
Y1578140D03*
X1550000Y2300000D03*
X2039910Y2360140D03*
X2050000Y2640000D03*
X1550000Y2690000D03*
X2039910Y2868140D03*
X1930000Y2970000D03*
Y3150000D03*
X1780000Y4200000D03*
X1587980Y4182640D03*
X1780000Y4370000D03*
X1940000Y4700000D03*
Y4920000D03*
Y5070000D03*
Y5210000D03*
X1590000Y5230000D03*
Y5070000D03*
Y4920000D03*
X1700000Y5620000D03*
X2020000Y5730000D03*
X1700000Y5890000D03*
X2000000Y6370000D03*
X1576200D03*
X1700000Y6300000D03*
Y6190000D03*
X1680000Y6780000D03*
X1700000Y6640000D03*
X1680000Y7050000D03*
X2055000Y7165000D03*
X1520000Y7480000D03*
X1690000Y7570000D03*
Y7730000D03*
X1760000Y8360000D03*
Y8270000D03*
X1540000Y9060000D03*
X2076190Y329890D03*
X2584190D03*
X2320000Y2640000D03*
X2500000Y2870000D03*
X2130000Y4177000D03*
X2160000Y5460000D03*
X2080000Y6300000D03*
X2090000Y6600000D03*
Y6870000D03*
X2150000Y6466200D03*
X2565000Y6665000D03*
X2485000D03*
X2420000Y6950000D03*
X2510000Y7110000D03*
Y7020000D03*
X2358250Y7018250D03*
X2360000Y7110000D03*
X2175000Y7845000D03*
X2410000Y7830000D03*
X2500000D03*
X2270000Y7910000D03*
X2070000Y8180000D03*
X2170000Y8260000D03*
X2600000Y8170000D03*
X2156710Y9022120D03*
X2302120Y9283290D03*
X2432120D03*
X2562120D03*
X2162120Y9423290D03*
X2292120D03*
X2422120D03*
X2156710Y9152120D03*
Y9282120D03*
X2840000Y2390000D03*
Y2090000D03*
Y2980000D03*
X3090000D03*
X2943800Y3026200D03*
X3090000Y3280000D03*
X2840000Y3270000D03*
X3139910Y3600140D03*
X2710000Y3540000D03*
X2610000D03*
X3139910Y4108140D03*
X2660000Y4280000D03*
X3089910Y5360140D03*
Y5868140D03*
X3120000Y6680000D03*
X3070000Y6610000D03*
X3060000Y6930000D03*
X3020000Y7500000D03*
X2830000Y7450000D03*
Y7350000D03*
Y7240000D03*
Y7150000D03*
X3020000Y7600000D03*
X2900000Y7710000D03*
X2990000D03*
X2920000Y7840000D03*
X2830000Y7540000D03*
Y7630000D03*
X3140000Y8450000D03*
X2800000Y8570000D03*
X2880000D03*
X2750000Y8160000D03*
X2835000D03*
X2920000D03*
X3489910Y3570140D03*
Y4078140D03*
X3200000Y4280000D03*
X3639910Y5370140D03*
Y5878140D03*
X3217520Y6807520D03*
X3300000Y6810000D03*
X3660000Y7420000D03*
X3230000Y7465000D03*
X3680000Y7670000D03*
X3440000Y7810000D03*
X3210000Y9370000D03*
Y9450000D03*
X4149910Y3050140D03*
X3834780Y3056570D03*
X4149910Y3558140D03*
X3834780Y3564570D03*
X3820000Y6360000D03*
X3790000Y7290000D03*
X4030000Y7070000D03*
X4180000Y7790000D03*
X3930000Y7780000D03*
X3790000Y7770000D03*
X4130000Y8450000D03*
X3886710Y9142120D03*
Y9272120D03*
Y9402120D03*
X4461860Y4389910D03*
X4370000Y4240000D03*
X4600000Y4740000D03*
Y4590000D03*
Y4890000D03*
Y5040000D03*
X4580000Y6360000D03*
X4320000D03*
X4400000Y6470000D03*
X4740090Y6839860D03*
X4610000Y7480000D03*
Y7280000D03*
Y7070000D03*
X4340000D03*
X4740090Y7341860D03*
X4610000Y7900000D03*
Y7710000D03*
X4740090Y7849860D03*
X4394710Y9142120D03*
Y9272120D03*
Y9402120D03*
X4780000Y9300000D03*
X4952290Y195780D03*
Y703780D03*
X4846910Y2405230D03*
Y2913230D03*
Y3421230D03*
X4969860Y4389910D03*
X4990000Y5270000D03*
X5310000Y6360000D03*
X5050000Y5960000D03*
X5121490Y6651740D03*
Y7159740D03*
X5010000Y8450000D03*
X4930000Y9300000D03*
X5460290Y195780D03*
Y703780D03*
X5354910Y2405230D03*
Y2913230D03*
Y3421230D03*
X5509910Y4390140D03*
Y4898140D03*
X5430000Y5270000D03*
Y5480000D03*
X5570000Y5660000D03*
X5440000Y5800000D03*
Y5720000D03*
Y5640000D03*
X5440090Y6241860D03*
X5440000Y5880000D03*
X5440090Y6749860D03*
Y7251860D03*
Y7759860D03*
X5346710Y8992120D03*
X5854710D03*
X5680240Y9649830D03*
X5968290Y195780D03*
Y703780D03*
X6369910Y4142140D03*
Y4650140D03*
X5880000Y4500000D03*
X6369910Y5158140D03*
X6382670Y5872650D03*
Y6380650D03*
Y6790650D03*
X6070000Y6530000D03*
X6366710Y7536120D03*
Y8044120D03*
Y8552120D03*
X6362710Y8992120D03*
X6188240Y9649830D03*
X6476290Y195780D03*
Y703780D03*
X6497620Y3018250D03*
Y3526250D03*
X6877910Y4142140D03*
Y4650140D03*
Y5158140D03*
X6890670Y5872650D03*
Y6380650D03*
Y6790650D03*
X6874710Y7536120D03*
Y8044120D03*
Y8552120D03*
X6870710Y8992120D03*
X6696240Y9649830D03*
X7005620Y3018250D03*
X7513620D03*
X7005620Y3526250D03*
X7513620D03*
X7385910Y4142140D03*
Y4650140D03*
Y5158140D03*
X7398670Y5872650D03*
Y6380650D03*
Y6790650D03*
X7382710Y7536120D03*
Y8044120D03*
Y8552120D03*
X7378710Y8992120D03*
X7204240Y9649830D03*
X8021620Y3018250D03*
Y3526250D03*
X7893910Y4142140D03*
Y4650140D03*
Y5158140D03*
X7906670Y5872650D03*
Y6380650D03*
Y6790650D03*
X7890710Y7536120D03*
Y8044120D03*
Y8552120D03*
X7886710Y8992120D03*
X7712240Y9649830D03*
X8529620Y3018250D03*
Y3526250D03*
X8401910Y4142140D03*
Y4650140D03*
Y5158140D03*
X8414670Y5872650D03*
Y6380650D03*
Y6790650D03*
X8398710Y7536120D03*
Y8044120D03*
Y8552120D03*
X8394710Y8992120D03*
X8994440Y770490D03*
Y1278490D03*
Y1786490D03*
Y2294490D03*
X9037620Y3018250D03*
Y3526250D03*
X9100000Y5170000D03*
X8922670Y5872650D03*
Y6380650D03*
X8906710Y7536120D03*
Y8044120D03*
Y8552120D03*
Y8992120D03*
X9502440Y770490D03*
Y1278490D03*
Y1786490D03*
Y2294490D03*
X9545620Y3018250D03*
Y3526250D03*
X9414710Y7536120D03*
Y8044120D03*
Y8552120D03*
Y8992120D03*
X11691730Y3522500D03*
G54D12*
X270000Y5650000D03*
Y6100000D03*
X1216000Y5690000D03*
X1470000D03*
X1216000Y6198000D03*
X1470000D03*
X1216000Y5944000D03*
X1470000D03*
X8750000Y6970000D03*
X9510000D03*
X11691730Y2887500D03*
G54D13*
X370000Y7265000D03*
Y7515000D03*
Y8015000D03*
Y7765000D03*
Y8265000D03*
Y8515000D03*
X11691730Y2252500D03*
G54D14*
X520000Y5525000D03*
Y6225000D03*
X1128000Y9750000D03*
X1890000D03*
X8138000D03*
X8900000D03*
X11691730Y1617500D03*
G54D15*
X1385000Y1280000D03*
Y1780000D03*
X2635000Y1280000D03*
Y1780000D03*
X3215000Y510000D03*
Y1010000D03*
Y2030000D03*
Y2530000D03*
X4465000Y510000D03*
Y1010000D03*
Y2030000D03*
Y2530000D03*
X5045000Y1270000D03*
Y1770000D03*
X6295000Y1270000D03*
Y1770000D03*
X7175000Y510000D03*
Y1010000D03*
Y2000000D03*
Y2500000D03*
X8425000Y510000D03*
Y1010000D03*
Y2000000D03*
Y2500000D03*
X11691730Y982500D03*
G54D16*
G01X360000Y2450000D02*
G03I-50000J0D01*
G01Y3250000D02*
G03I-50000J0D01*
G54D17*
G01X470000Y4090000D02*
G03I-30000J0D01*
G01Y4490000D02*
G03I-30000J0D01*
G54D18*
G01X9175000Y4270000D02*
G03I-75000J0D01*
G01Y5020000D02*
G03I-75000J0D01*
G54D19*
G01X2110000Y1080000D02*
G03I-100000J0D01*
G01Y1980000D02*
G03I-100000J0D01*
G01X3940000Y310000D02*
G03I-100000J0D01*
G01Y1210000D02*
G03I-100000J0D01*
G01Y1830000D02*
G03I-100000J0D01*
G01Y2730000D02*
G03I-100000J0D01*
G01X5770000Y1070000D02*
G03I-100000J0D01*
G01Y1970000D02*
G03I-100000J0D01*
G01X7900000Y310000D02*
G03I-100000J0D01*
G01Y1210000D02*
G03I-100000J0D01*
G01Y1800000D02*
G03I-100000J0D01*
G01Y2700000D02*
G03I-100000J0D01*
M02*
