G04 ================== begin FILE IDENTIFICATION RECORD ==================*
G04 Layout Name:  INA193_TEST_V10A.brd*
G04 Film Name:    PasteMask_Bottom*
G04 File Format:  Gerber RS274X*
G04 File Origin:  Cadence Allegro 16.6-2015-S095*
G04 Origin Date:  Wed Dec 06 09:56:01 2017*
G04 *
G04 Layer:  BOARD GEOMETRY/OUTLINE*
G04 Layer:  PIN/PASTEMASK_BOTTOM*
G04 Layer:  PACKAGE GEOMETRY/PASTEMASK_BOTTOM*
G04 *
G04 Offset:    (0.0000 0.0000)*
G04 Mirror:    No*
G04 Mode:      Positive*
G04 Rotation:  0*
G04 FullContactRelief:  No*
G04 UndefLineWidth:     0.1524*
G04 ================== end FILE IDENTIFICATION RECORD ====================*
%FSLAX55Y55*MOMM*%
%IR0*IPPOS*OFA0.00000B0.00000*MIA0B0*SFA1.00000B1.00000*%
%ADD29R,1.2X.3*%
%ADD28R,.3X1.2*%
%ADD19R,1.1X.6*%
%ADD18R,1.5X.6*%
%ADD34R,1.4X.8*%
%ADD16R,.6X1.5*%
%ADD32R,1.55X.3*%
%ADD27R,.8X1.4*%
%ADD23R,1.06X.65*%
%ADD25R,.635X2.032*%
%ADD26R,.6604X1.016*%
%ADD24C,.75*%
%ADD13R,.9144X.9144*%
%ADD20R,1.4X1.*%
%ADD11R,1.8X1.*%
%ADD17R,1.X1.8*%
%ADD33R,2.5X1.8*%
%ADD21R,1.8X2.5*%
%ADD22R,1.27X1.27*%
%ADD31R,1.67X1.36*%
%ADD14C,1.524*%
%ADD10C,6.35*%
%ADD15R,1.524X1.524*%
%ADD12C,1.778*%
%ADD30R,1.1938X1.1938*%
%ADD35C,.2032*%
%ADD36C,.17*%
%ADD37C,.127*%
%ADD38C,.254*%
%ADD39C,.1524*%
G75*
%LPD*%
G75*
G54D10*
X330000Y330000D03*
Y9670000D03*
X9670000Y330000D03*
Y9670000D03*
G54D11*
X337800Y2142600D03*
Y3757400D03*
X4360000Y7895000D03*
Y8145000D03*
G54D20*
X1330000Y2140000D03*
Y3640000D03*
G54D30*
X3470000Y6294140D03*
Y6085860D03*
X3680000Y6294140D03*
Y6085860D03*
G54D12*
X270000Y5650000D03*
Y6100000D03*
X1216000Y5690000D03*
X1470000D03*
X1216000Y6198000D03*
X1470000D03*
X1216000Y5944000D03*
X1470000D03*
X8750000Y6970000D03*
X9510000D03*
G54D21*
X1400000Y5070000D03*
X1780000D03*
X2820000Y8820000D03*
X3400000D03*
G54D31*
X3720000Y8843500D03*
Y9236500D03*
G54D22*
X1795860Y8490000D03*
X2004140D03*
Y9110000D03*
X1795860D03*
X2305860Y8910000D03*
X2514140D03*
X2305860Y9110000D03*
X2514140D03*
X3725860Y9540000D03*
X3934140D03*
X4665860Y4070000D03*
X4874140D03*
G54D13*
X313800Y6480000D03*
X846200Y1430000D03*
X693800D03*
X846200Y1640000D03*
X693800D03*
X730000Y4023800D03*
Y4176200D03*
Y4636200D03*
Y4483800D03*
X653800Y4790000D03*
X806200D03*
Y6480000D03*
X653800D03*
X466200D03*
X736200Y7520000D03*
X583800D03*
X736200Y7670000D03*
X583800D03*
X736200Y8270000D03*
X583800D03*
X1170000Y4803800D03*
Y4956200D03*
X1486200Y4790000D03*
X1333800D03*
X1423800Y6480000D03*
X1256200D03*
X1103800D03*
X1423800Y7210000D03*
Y7370000D03*
X973800Y8690000D03*
X1126200D03*
X1373800D03*
X1816200Y2520000D03*
X1663800D03*
Y2970000D03*
X1816200D03*
Y2820000D03*
X1663800D03*
Y3150000D03*
X1816200D03*
X1693800Y4790000D03*
X1846200D03*
X1576200Y6480000D03*
Y7210000D03*
Y7370000D03*
X1956200Y7790000D03*
X1803800D03*
Y8140000D03*
X1956200D03*
X1526200Y8690000D03*
X2306200Y3610000D03*
X2153800D03*
Y3760000D03*
X2306200D03*
Y4360000D03*
X2153800D03*
X2276200Y4960000D03*
X2123800D03*
X2380000Y6313800D03*
Y6466200D03*
X2486200Y8730000D03*
X2333800D03*
X2943800Y3130000D03*
X3096200D03*
X3070000Y6323800D03*
Y6476200D03*
X3143800Y8260000D03*
X2703800Y9290000D03*
X2856200D03*
X2703800Y9590000D03*
X2856200D03*
Y9440000D03*
X2703800D03*
X3133800Y9240000D03*
Y9800000D03*
X3503800Y6500000D03*
X3656200D03*
X3296200Y8260000D03*
X3286200Y9240000D03*
Y9800000D03*
X3443800D03*
X3596200D03*
X4050000Y7363800D03*
X4046200Y7210000D03*
X3893800D03*
X4050000Y7516200D03*
X4056200Y7880000D03*
X3903800D03*
X4056200Y7670000D03*
X3903800D03*
X4056200Y8160000D03*
X3903800D03*
X4703800Y4740000D03*
Y4590000D03*
X4703630Y4242680D03*
X4703800Y5270000D03*
Y4890000D03*
Y5040000D03*
X4373800Y5270000D03*
X4526200D03*
Y5430000D03*
X4373800D03*
X4576200Y6080000D03*
X4423800D03*
X4570000Y8863800D03*
Y9016200D03*
X4420000D03*
Y8863800D03*
X4780000D03*
Y9016200D03*
X4566200Y8710000D03*
X4413800D03*
X4783800D03*
X5133800Y4590000D03*
X5286200D03*
X4856200Y4740000D03*
Y4590000D03*
X4856030Y4242680D03*
X4856200Y5270000D03*
X5133800D03*
X5286200D03*
X4856200Y4890000D03*
Y5040000D03*
X5053800Y6230000D03*
X5206200D03*
X5053800Y6080000D03*
X5206200D03*
X5223800Y8370000D03*
X4930000Y8863800D03*
Y9016200D03*
X4936200Y8710000D03*
X5376200Y8370000D03*
X8893800Y6530000D03*
X9046200D03*
X9356200D03*
X9203800D03*
G54D14*
X370000Y7265000D03*
Y7515000D03*
Y8015000D03*
Y7765000D03*
Y8265000D03*
G54D23*
X1764600Y8895000D03*
Y8705000D03*
X2035400D03*
Y8800000D03*
Y8895000D03*
X3074600Y9625000D03*
Y9530000D03*
Y9435000D03*
X3345400Y9530000D03*
Y9435000D03*
Y9625000D03*
X4734600Y8555000D03*
Y8460000D03*
Y8365000D03*
X5005400D03*
Y8555000D03*
G54D32*
X4720000Y5787500D03*
Y5722500D03*
Y5657500D03*
Y5592500D03*
Y5527500D03*
Y5462500D03*
Y5917500D03*
Y5852500D03*
X5280000Y5462500D03*
Y5527500D03*
Y5592500D03*
Y5657500D03*
Y5722500D03*
Y5787500D03*
Y5852500D03*
Y5917500D03*
G54D15*
X370000Y8515000D03*
G54D33*
X4360000Y7250000D03*
Y7630000D03*
G54D24*
X1560000Y8900000D03*
X2490000Y8570000D03*
X4160000Y8710000D03*
X4540000Y8400000D03*
G54D25*
X2269500Y2343800D03*
X2396500D03*
X2523500D03*
Y3136200D03*
X2396500D03*
X2269500D03*
X2650500Y2343800D03*
Y3136200D03*
G54D16*
X955500Y4010000D03*
Y4550000D03*
X1082500Y4010000D03*
X1209500D03*
X1336500D03*
X1463500D03*
Y4550000D03*
X1336500D03*
X1209500D03*
X1082500D03*
X1590500Y4010000D03*
X1717500D03*
X1844500D03*
Y4550000D03*
X1717500D03*
X1590500D03*
G54D34*
X8877280Y5316830D03*
X9100000Y5317300D03*
X8877280Y5662230D03*
X9100000Y5662700D03*
G54D35*
G01X360000Y2450000D02*
G03I-50000J0D01*
G01Y3250000D02*
G03I-50000J0D01*
G54D17*
X935000Y7290000D03*
X1185000D03*
G54D26*
X2128400Y3923000D03*
X2331600D03*
X2230000Y4177000D03*
X2128400Y4543000D03*
X2331600D03*
X2230000Y4797000D03*
X5108400Y4793000D03*
X5311600D03*
X5210000Y5047000D03*
X9018400Y6753000D03*
X9120000Y7007000D03*
X9221600Y6753000D03*
G54D36*
G01X470000Y4090000D02*
G03I-30000J0D01*
G01Y4490000D02*
G03I-30000J0D01*
G54D27*
X2157300Y5160000D03*
X2502700D03*
G54D18*
X980000Y7941000D03*
Y7814000D03*
Y7687000D03*
Y7560000D03*
Y8511000D03*
Y8384000D03*
Y8257000D03*
Y8130000D03*
X1520000Y7560000D03*
Y7687000D03*
Y7814000D03*
Y7941000D03*
Y8130000D03*
Y8257000D03*
Y8384000D03*
Y8511000D03*
G54D37*
G01X9175000Y4270000D02*
G03I-75000J0D01*
G01Y5020000D02*
G03I-75000J0D01*
G54D19*
X1412000Y2296000D03*
Y2406000D03*
Y2516000D03*
Y2626000D03*
Y2736000D03*
Y2846000D03*
Y2956000D03*
Y3066000D03*
Y3176000D03*
G54D28*
X2385000Y6805000D03*
X2435000D03*
X2485000D03*
X2535000D03*
Y7975000D03*
X2485000D03*
X2435000D03*
X2385000D03*
X2585000Y6805000D03*
X2635000D03*
X2685000D03*
X2735000D03*
X2785000D03*
X2835000D03*
X2885000D03*
X2935000D03*
X2985000D03*
X3035000D03*
X3085000D03*
Y7975000D03*
X3035000D03*
X2985000D03*
X2935000D03*
X2885000D03*
X2835000D03*
X2785000D03*
X2735000D03*
X2685000D03*
X2635000D03*
X2585000D03*
X3135000Y6805000D03*
Y7975000D03*
G54D38*
G01X2110000Y1080000D02*
G03I-100000J0D01*
G01Y1980000D02*
G03I-100000J0D01*
G01X3940000Y310000D02*
G03I-100000J0D01*
G01Y1210000D02*
G03I-100000J0D01*
G01Y1830000D02*
G03I-100000J0D01*
G01Y2730000D02*
G03I-100000J0D01*
G01X5770000Y1070000D02*
G03I-100000J0D01*
G01Y1970000D02*
G03I-100000J0D01*
G01X7900000Y310000D02*
G03I-100000J0D01*
G01Y1210000D02*
G03I-100000J0D01*
G01Y1800000D02*
G03I-100000J0D01*
G01Y2700000D02*
G03I-100000J0D01*
G54D29*
X2175000Y7465000D03*
Y7415000D03*
Y7365000D03*
Y7315000D03*
Y7265000D03*
Y7215000D03*
Y7165000D03*
Y7115000D03*
Y7065000D03*
Y7015000D03*
Y7765000D03*
Y7715000D03*
Y7665000D03*
Y7615000D03*
Y7565000D03*
Y7515000D03*
X3345000Y7015000D03*
Y7065000D03*
Y7115000D03*
Y7165000D03*
Y7215000D03*
Y7265000D03*
Y7315000D03*
Y7365000D03*
Y7415000D03*
Y7465000D03*
Y7515000D03*
Y7565000D03*
Y7615000D03*
Y7665000D03*
Y7715000D03*
Y7765000D03*
G54D39*
G01X330000Y0D02*
X9670000D01*
G03X10000000Y330000I0J330000D01*
G01Y9670000D01*
G03X9670000Y10000000I-330000J0D01*
G01X330000D01*
G03X0Y9670000I0J-330000D01*
G01Y330000D01*
G03X330000Y0I330000J0D01*
M02*
